M48
INCH,LZ
;FILE_FORMAT=2:4
;TYPE=PLATED
;Layer: PTH_Through_Via
;EasyEDA v6.5.22, 2023-04-03 14:03:43
;87db6ba2ad084763a29da5206ccfc978,3cec5f453c3247449836eb28e2eac2c3,10
;Gerber Generator version 0.2
;Holesize 1 = 0.0120 inch
T01C0.0120
%
G05
G90
T01
X007970Y003320
X008320Y003320
X007970Y002970
X008320Y002970
X007970Y002620
X007970Y002270
X008670Y003320
X009020Y003320
X007030Y002970
X007030Y003320
X006680Y003320
X006680Y002970
X006330Y003320
X005980Y003320
X007030Y002270
X007030Y002620
X013070Y015020
X007970Y001920
X008320Y001920
X008670Y001920
X009020Y001920
X005980Y001920
X006330Y001920
X006680Y001920
X007030Y001920
X013070Y014780
X013070Y014540
X013070Y014300
X013070Y014060
X013070Y012770
X013070Y012530
X013070Y012290
X013070Y012050
X013070Y011810
X013070Y010520
X013070Y010280
X013070Y010040
X013070Y009800
X013070Y009560
X013070Y007820
X013070Y007580
X013070Y007340
X013070Y007100
X013070Y006860
X013070Y005570
X013070Y005330
X013070Y005090
X013070Y004850
X013070Y004610
X013070Y003350
X013070Y003110
X013070Y002870
X013070Y002630
X013070Y002390
X001920Y008650
X001920Y008410
X001920Y008170
X001920Y007930
X001920Y007690
X001920Y006400
X001920Y006160
X001920Y005920
X001920Y005680
X001920Y005440
X001920Y004150
X001920Y003910
X001920Y003670
X001920Y003430
X001920Y003190
X001920Y015360
X001920Y015120
X001920Y014880
X001920Y014640
X001920Y014400
X001920Y013110
X001920Y012870
X001920Y012630
X001920Y012390
X001920Y012150
X001920Y011340
X001920Y011100
X001920Y010860
X001920Y010620
X001920Y010380
X000880Y015630
X000880Y015280
X000880Y014930
X000880Y014580
X000530Y015630
X000530Y015280
X000530Y014930
X000530Y014580
X000530Y013390
X000880Y013390
X000530Y013040
X000880Y013040
X000530Y012690
X000880Y012690
X000530Y012340
X000880Y012340
X000530Y011140
X000880Y011140
X000530Y010790
X000880Y010790
X000530Y010440
X000880Y010440
X000530Y010090
X000880Y010090
X000530Y008130
X000880Y008130
X000530Y007780
X000880Y007780
X000530Y007430
X000880Y007430
X000530Y007080
X000880Y007080
X000530Y005880
X000880Y005880
X000530Y005530
X000880Y005530
X000530Y005180
X000880Y005180
X000530Y004830
X000880Y004830
X000530Y003630
X000880Y003630
X000530Y003280
X000880Y003280
X000530Y002930
X000880Y002930
X000530Y002580
X000880Y002580
X014120Y002570
X014120Y002920
X014120Y003270
X014120Y003620
X014470Y003620
X014470Y003270
X014470Y002920
X014470Y002570
X014120Y004820
X014120Y005170
X014120Y005520
X014120Y005870
X014470Y005870
X014470Y005520
X014470Y005170
X014470Y004820
X014120Y007070
X014120Y007420
X014120Y007770
X014120Y008120
X014470Y008120
X014470Y007770
X014470Y007420
X014470Y007070
X014120Y011140
X014470Y011140
X014120Y010790
X014470Y010790
X014120Y010440
X014470Y010440
X014120Y010090
X014470Y010090
X014120Y013390
X014470Y013390
X014120Y013040
X014470Y013040
X014120Y012690
X014470Y012690
X014120Y012340
X014470Y012340
X014120Y015640
X014470Y015640
X014120Y015290
X014470Y015290
X014120Y014940
X014470Y014940
X014120Y014590
X014470Y014590
X010830Y015290
X010740Y012750
X010440Y012600
X010410Y010280
X010650Y007920
X010555Y003765
X010300Y002900
X009980Y002910
X010750Y005570
X010710Y010400
X010480Y015290
X004195Y010370
X004520Y010370
X004255Y012740
X004575Y012745
X004460Y015510
X004910Y015410
X004270Y014410
X004240Y007940
X004530Y008080
X004230Y005560
X004560Y005610
X004230Y003380
X004530Y003510
X010430Y005560
X010370Y007740
X006330Y002270
X006680Y002270
X006680Y002620
X006330Y002620
X005980Y002270
X005980Y002620
X005980Y002970
X006330Y002970
X008320Y002620
X008670Y002620
X008670Y002270
X008320Y002270
X009020Y002270
X009020Y002620
X009020Y002970
X008670Y002970
X007886Y013450
X007886Y014310
X007124Y014310
X007124Y013450
X005870Y013450
X005870Y014310
X009140Y014310
X009140Y013450
X005866Y009150
X005866Y010010
X005866Y010870
X005866Y011730
X005866Y012590
X007120Y012590
X007120Y011730
X007120Y010870
X007120Y010010
X007120Y009150
X007886Y009150
X007886Y010010
X007886Y010870
X007886Y011730
X007886Y012590
X009140Y012590
X009140Y011730
X009140Y010870
X009140Y010010
X009140Y009150
X005863Y004850
X005863Y005710
X005863Y006570
X005863Y007430
X005863Y008290
X007117Y008290
X007117Y007430
X007117Y006570
X007117Y005710
X007117Y004850
X007883Y004850
X007883Y005710
X007883Y006570
X007883Y007430
X007883Y008290
X009137Y008290
X009137Y007430
X009137Y006570
X009137Y005710
X009137Y004850
X011690Y015250
X011930Y015250
X012050Y015460
X011810Y015460
X011570Y015460
X001920Y015840
X001920Y015600
X001920Y013590
X001920Y013350
X001920Y009900
X001920Y010140
X001920Y007450
X001920Y007210
X001920Y005200
X001920Y004960
X001920Y002950
X001920Y002710
X013070Y015500
X013070Y015260
X013070Y013250
X013070Y013010
X013070Y011000
X013070Y010760
X013070Y008060
X013070Y008300
X013070Y006050
X013070Y005810
X013070Y003830
X013070Y003590
X011450Y015250
X012170Y015250
X011990Y011760
X011780Y011880
X011780Y012120
X011780Y012360
X011990Y012000
X011990Y012240
X011990Y012480
X011790Y009350
X012000Y009470
X011790Y009590
X012000Y009710
X011790Y009830
X012000Y009950
X011790Y010070
X011780Y006860
X011990Y006980
X011780Y007100
X011990Y007220
X011780Y007340
X011990Y007445
X011780Y007580
X011750Y004510
X011960Y004630
X011750Y004750
X011960Y004870
X011750Y004990
X011960Y005110
X011750Y005230
X011860Y002400
X011740Y002610
X011620Y002400
X011500Y002610
X011380Y002400
X011260Y002610
X011140Y002400
X003210Y004140
X003000Y004020
X003210Y003900
X003000Y003780
X003210Y003660
X003000Y003540
X003210Y003420
X003210Y006490
X003000Y006370
X003210Y006250
X003000Y006130
X003210Y006010
X003000Y005890
X003210Y005770
X003210Y008840
X003000Y008720
X003210Y008600
X003000Y008480
X003210Y008360
X003000Y008240
X003210Y008120
X003210Y011450
X003000Y011330
X003210Y011210
X003000Y011090
X003210Y010970
X003000Y010850
X003210Y010730
X003210Y013730
X003000Y013610
X003210Y013490
X003000Y013370
X003210Y013250
X003000Y013130
X003210Y013010
X003010Y015840
X003130Y015630
X003250Y015840
X003370Y015630
X003490Y015840
X003610Y015630
X003730Y015840
M30
