M48
INCH,LZ
;FILE_FORMAT=2:4
;TYPE=PLATED
;Layer: PTH_Through
;EasyEDA v6.5.22, 2023-04-03 14:03:43
;87db6ba2ad084763a29da5206ccfc978,3cec5f453c3247449836eb28e2eac2c3,10
;Gerber Generator version 0.2
;Holesize 1 = 0.0200 inch
T01C0.0200
;Holesize 2 = 0.0400 inch
T02C0.0400
;Holesize 3 = 0.1500 inch
T03C0.1500
%
G05
G90
T01
X000000Y014390G85X000000Y015690
X000000Y012141G85X000000Y013441
X000000Y009891G85X000000Y011191
X000000Y007015G85X000000Y008315
X000000Y004770G85X000000Y006070
X000000Y002520G85X000000Y003820
X015000Y002515G85X015000Y003815
X015000Y004765G85X015000Y006065
X015000Y007010G85X015000Y008310
X015000Y009895G85X015000Y011195
X015000Y012145G85X015000Y013445
X015000Y014395G85X015000Y015695
T02
X007030Y016450
X007970Y016450
X006090Y016450
X009850Y016450
X008910Y016450
X005150Y016450
T03
X006400Y000740
X008600Y000740
M30
