G04 Layer: InnerLayer4*
G04 EasyEDA v6.5.22, 2023-04-03 14:03:43*
G04 87db6ba2ad084763a29da5206ccfc978,3cec5f453c3247449836eb28e2eac2c3,10*
G04 Gerber Generator version 0.2*
G04 Scale: 100 percent, Rotated: No, Reflected: No *
G04 Dimensions in inches *
G04 leading zeros omitted , absolute positions ,3 integer and 6 decimal *
%FSLAX36Y36*%
%MOIN*%

%ADD10C,0.2000*%
%ADD11C,0.0550*%
%ADD12R,0.0400X0.1700*%
%ADD13C,0.0240*%

%LPD*%
G36*
X1406000Y1446000D02*
G01*
X1404460Y1446300D01*
X1403180Y1447180D01*
X1402300Y1448460D01*
X1402000Y1450000D01*
X1402000Y1571000D01*
X1402300Y1572540D01*
X1403180Y1573820D01*
X1404460Y1574700D01*
X1406000Y1575000D01*
X1485800Y1575000D01*
X1487340Y1574700D01*
X1488620Y1573820D01*
X1489500Y1572540D01*
X1489800Y1571000D01*
X1489800Y1450000D01*
X1489500Y1448460D01*
X1488620Y1447180D01*
X1487340Y1446300D01*
X1485800Y1446000D01*
G37*

%LPD*%
G36*
X14200Y1445000D02*
G01*
X12660Y1445300D01*
X11379Y1446180D01*
X10500Y1447460D01*
X10200Y1449000D01*
X10200Y1570000D01*
X10500Y1571540D01*
X11379Y1572820D01*
X12660Y1573700D01*
X14200Y1574000D01*
X98000Y1574000D01*
X99540Y1573700D01*
X100820Y1572820D01*
X101700Y1571540D01*
X102000Y1570000D01*
X102000Y1449000D01*
X101700Y1447460D01*
X100820Y1446180D01*
X99540Y1445300D01*
X98000Y1445000D01*
G37*

%LPD*%
G36*
X1406000Y1222000D02*
G01*
X1404460Y1222300D01*
X1403180Y1223180D01*
X1402300Y1224460D01*
X1402000Y1226000D01*
X1402000Y1347000D01*
X1402300Y1348540D01*
X1403180Y1349820D01*
X1404460Y1350700D01*
X1406000Y1351000D01*
X1485800Y1351000D01*
X1487340Y1350700D01*
X1488620Y1349820D01*
X1489500Y1348540D01*
X1489800Y1347000D01*
X1489800Y1226000D01*
X1489500Y1224460D01*
X1488620Y1223180D01*
X1487340Y1222300D01*
X1485800Y1222000D01*
G37*

%LPD*%
G36*
X14200Y1221000D02*
G01*
X12660Y1221300D01*
X11379Y1222180D01*
X10500Y1223460D01*
X10200Y1225000D01*
X10200Y1346000D01*
X10500Y1347540D01*
X11379Y1348820D01*
X12660Y1349700D01*
X14200Y1350000D01*
X98000Y1350000D01*
X99540Y1349700D01*
X100820Y1348820D01*
X101700Y1347540D01*
X102000Y1346000D01*
X102000Y1225000D01*
X101700Y1223460D01*
X100820Y1222180D01*
X99540Y1221300D01*
X98000Y1221000D01*
G37*

%LPD*%
G36*
X1406000Y997000D02*
G01*
X1404460Y997300D01*
X1403180Y998180D01*
X1402300Y999460D01*
X1402000Y1001000D01*
X1402000Y1122000D01*
X1402300Y1123540D01*
X1403180Y1124820D01*
X1404460Y1125700D01*
X1406000Y1126000D01*
X1485800Y1126000D01*
X1487340Y1125700D01*
X1488620Y1124820D01*
X1489500Y1123540D01*
X1489800Y1122000D01*
X1489800Y1001000D01*
X1489500Y999460D01*
X1488620Y998180D01*
X1487340Y997300D01*
X1485800Y997000D01*
G37*

%LPD*%
G36*
X14200Y996000D02*
G01*
X12660Y996300D01*
X11379Y997180D01*
X10500Y998460D01*
X10200Y1000000D01*
X10200Y1121000D01*
X10500Y1122540D01*
X11379Y1123820D01*
X12660Y1124700D01*
X14200Y1125000D01*
X98000Y1125000D01*
X99540Y1124700D01*
X100820Y1123820D01*
X101700Y1122540D01*
X102000Y1121000D01*
X102000Y1000000D01*
X101700Y998460D01*
X100820Y997180D01*
X99540Y996300D01*
X98000Y996000D01*
G37*

%LPD*%
G36*
X1406000Y696000D02*
G01*
X1404460Y696300D01*
X1403180Y697180D01*
X1402300Y698460D01*
X1402000Y700000D01*
X1402000Y821000D01*
X1402300Y822540D01*
X1403180Y823820D01*
X1404460Y824700D01*
X1406000Y825000D01*
X1485800Y825000D01*
X1487340Y824700D01*
X1488620Y823820D01*
X1489500Y822540D01*
X1489800Y821000D01*
X1489800Y700000D01*
X1489500Y698460D01*
X1488620Y697180D01*
X1487340Y696300D01*
X1485800Y696000D01*
G37*

%LPD*%
G36*
X14200Y695000D02*
G01*
X12660Y695300D01*
X11379Y696180D01*
X10500Y697460D01*
X10200Y699000D01*
X10200Y820000D01*
X10500Y821540D01*
X11379Y822820D01*
X12660Y823700D01*
X14200Y824000D01*
X98000Y824000D01*
X99540Y823700D01*
X100820Y822820D01*
X101700Y821540D01*
X102000Y820000D01*
X102000Y699000D01*
X101700Y697460D01*
X100820Y696180D01*
X99540Y695300D01*
X98000Y695000D01*
G37*

%LPD*%
G36*
X1406000Y472000D02*
G01*
X1404460Y472299D01*
X1403180Y473180D01*
X1402300Y474460D01*
X1402000Y476000D01*
X1402000Y597000D01*
X1402300Y598540D01*
X1403180Y599820D01*
X1404460Y600700D01*
X1406000Y601000D01*
X1485800Y601000D01*
X1487340Y600700D01*
X1488620Y599820D01*
X1489500Y598540D01*
X1489800Y597000D01*
X1489800Y476000D01*
X1489500Y474460D01*
X1488620Y473180D01*
X1487340Y472299D01*
X1485800Y472000D01*
G37*

%LPD*%
G36*
X14200Y471000D02*
G01*
X12660Y471300D01*
X11379Y472180D01*
X10500Y473459D01*
X10200Y475000D01*
X10200Y596000D01*
X10500Y597540D01*
X11379Y598820D01*
X12660Y599700D01*
X14200Y600000D01*
X98000Y600000D01*
X99540Y599700D01*
X100820Y598820D01*
X101700Y597540D01*
X102000Y596000D01*
X102000Y475000D01*
X101700Y473459D01*
X100820Y472180D01*
X99540Y471300D01*
X98000Y471000D01*
G37*

%LPD*%
G36*
X1406000Y247000D02*
G01*
X1404460Y247300D01*
X1403180Y248180D01*
X1402300Y249460D01*
X1402000Y251000D01*
X1402000Y372000D01*
X1402300Y373540D01*
X1403180Y374820D01*
X1404460Y375700D01*
X1406000Y376000D01*
X1485800Y376000D01*
X1487340Y375700D01*
X1488620Y374820D01*
X1489500Y373540D01*
X1489800Y372000D01*
X1489800Y251000D01*
X1489500Y249460D01*
X1488620Y248180D01*
X1487340Y247300D01*
X1485800Y247000D01*
G37*

%LPD*%
G36*
X14200Y246000D02*
G01*
X12660Y246300D01*
X11379Y247180D01*
X10500Y248460D01*
X10200Y250000D01*
X10200Y371000D01*
X10500Y372540D01*
X11379Y373820D01*
X12660Y374700D01*
X14200Y375000D01*
X98000Y375000D01*
X99540Y374700D01*
X100820Y373820D01*
X101700Y372540D01*
X102000Y371000D01*
X102000Y250000D01*
X101700Y248460D01*
X100820Y247180D01*
X99540Y246300D01*
X98000Y246000D01*
G37*

%LPD*%
G36*
X566000Y130200D02*
G01*
X564460Y130500D01*
X563180Y131380D01*
X562300Y132660D01*
X562000Y134200D01*
X562000Y355000D01*
X562300Y356540D01*
X563180Y357819D01*
X564460Y358700D01*
X566000Y359000D01*
X738000Y359000D01*
X739539Y358700D01*
X740819Y357819D01*
X741700Y356540D01*
X742000Y355000D01*
X742000Y134200D01*
X741700Y132660D01*
X740819Y131380D01*
X739539Y130500D01*
X738000Y130200D01*
G37*

%LPD*%
G36*
X475880Y130200D02*
G01*
X474360Y130500D01*
X473060Y131380D01*
X397320Y207100D01*
X396180Y208080D01*
X393640Y209480D01*
X391520Y210080D01*
X389840Y210200D01*
X14200Y210200D01*
X12660Y210500D01*
X11379Y211380D01*
X10500Y212659D01*
X10200Y214200D01*
X10200Y219800D01*
X10500Y221320D01*
X11379Y222620D01*
X12660Y223500D01*
X14200Y223800D01*
X19780Y223800D01*
X21820Y224020D01*
X23540Y224640D01*
X25099Y225600D01*
X26400Y226900D01*
X27360Y228440D01*
X27960Y230180D01*
X28200Y232220D01*
X28200Y233800D01*
X28500Y235340D01*
X29380Y236620D01*
X30660Y237500D01*
X32200Y237800D01*
X101880Y237800D01*
X102860Y237860D01*
X104900Y238359D01*
X106640Y239280D01*
X108120Y240580D01*
X109240Y242200D01*
X109940Y244040D01*
X110200Y246240D01*
X110200Y374880D01*
X110140Y375860D01*
X109640Y377900D01*
X108720Y379640D01*
X107420Y381120D01*
X105800Y382239D01*
X103960Y382939D01*
X101760Y383200D01*
X32200Y383200D01*
X30660Y383500D01*
X29380Y384380D01*
X28500Y385660D01*
X28200Y387200D01*
X28200Y401780D01*
X27960Y403820D01*
X27360Y405540D01*
X26400Y407100D01*
X25099Y408380D01*
X23540Y409360D01*
X21820Y409960D01*
X19780Y410200D01*
X14200Y410200D01*
X12660Y410500D01*
X11379Y411360D01*
X10500Y412660D01*
X10200Y414200D01*
X10200Y444799D01*
X10500Y446320D01*
X11379Y447620D01*
X12660Y448500D01*
X14200Y448800D01*
X19780Y448800D01*
X21820Y449020D01*
X23540Y449640D01*
X25099Y450600D01*
X26400Y451900D01*
X27360Y453440D01*
X27960Y455180D01*
X28200Y457220D01*
X28200Y458800D01*
X28500Y460340D01*
X29380Y461620D01*
X30660Y462500D01*
X32200Y462800D01*
X101880Y462800D01*
X102860Y462860D01*
X104900Y463360D01*
X106640Y464280D01*
X108120Y465580D01*
X109240Y467200D01*
X109940Y469040D01*
X110200Y471240D01*
X110200Y599880D01*
X110140Y600860D01*
X109640Y602900D01*
X108720Y604640D01*
X107420Y606120D01*
X105800Y607240D01*
X103960Y607940D01*
X101760Y608200D01*
X32200Y608200D01*
X30660Y608500D01*
X29380Y609380D01*
X28500Y610660D01*
X28200Y612200D01*
X28200Y626780D01*
X27960Y628820D01*
X27360Y630540D01*
X26400Y632100D01*
X25099Y633380D01*
X23540Y634360D01*
X21820Y634960D01*
X19780Y635200D01*
X14200Y635200D01*
X12660Y635500D01*
X11379Y636360D01*
X10500Y637660D01*
X10200Y639200D01*
X10200Y669300D01*
X10500Y670819D01*
X11379Y672120D01*
X12660Y673000D01*
X14200Y673300D01*
X19780Y673300D01*
X21820Y673520D01*
X23540Y674140D01*
X25099Y675100D01*
X26400Y676400D01*
X27360Y677940D01*
X27960Y679680D01*
X28200Y681720D01*
X28200Y682800D01*
X28500Y684340D01*
X29380Y685620D01*
X30660Y686500D01*
X32200Y686800D01*
X101880Y686800D01*
X102860Y686860D01*
X104900Y687360D01*
X106640Y688280D01*
X108120Y689580D01*
X109240Y691200D01*
X109940Y693040D01*
X110200Y695240D01*
X110200Y823880D01*
X110140Y824860D01*
X109640Y826900D01*
X108720Y828640D01*
X107420Y830120D01*
X105800Y831240D01*
X103960Y831940D01*
X101760Y832200D01*
X94680Y832200D01*
X93780Y832300D01*
X90700Y833000D01*
X87100Y833160D01*
X83500Y832680D01*
X81400Y832200D01*
X59680Y832200D01*
X58780Y832300D01*
X55700Y833000D01*
X52100Y833160D01*
X48500Y832680D01*
X46400Y832200D01*
X32200Y832200D01*
X30660Y832500D01*
X29380Y833379D01*
X28500Y834659D01*
X28200Y836200D01*
X28200Y851280D01*
X27960Y853319D01*
X27360Y855040D01*
X26400Y856600D01*
X25099Y857880D01*
X23540Y858860D01*
X21820Y859460D01*
X19780Y859700D01*
X14200Y859700D01*
X12660Y860000D01*
X11379Y860860D01*
X10500Y862159D01*
X10200Y863700D01*
X10200Y956860D01*
X10500Y958379D01*
X11379Y959680D01*
X12660Y960560D01*
X14200Y960860D01*
X19780Y960860D01*
X21820Y961080D01*
X23540Y961700D01*
X25099Y962660D01*
X26400Y963960D01*
X27360Y965500D01*
X27960Y967240D01*
X28200Y969280D01*
X28200Y983800D01*
X28500Y985340D01*
X29380Y986620D01*
X30660Y987500D01*
X32200Y987800D01*
X101880Y987800D01*
X102860Y987860D01*
X104900Y988360D01*
X106640Y989280D01*
X108120Y990580D01*
X109240Y992200D01*
X109940Y994040D01*
X110200Y996240D01*
X110200Y1124880D01*
X110140Y1125860D01*
X109640Y1127900D01*
X108720Y1129640D01*
X107420Y1131120D01*
X105800Y1132240D01*
X103960Y1132940D01*
X101760Y1133200D01*
X94680Y1133200D01*
X93780Y1133300D01*
X90700Y1134000D01*
X87100Y1134160D01*
X83500Y1133680D01*
X81400Y1133200D01*
X59680Y1133200D01*
X58780Y1133300D01*
X55700Y1134000D01*
X52100Y1134160D01*
X48500Y1133680D01*
X46400Y1133200D01*
X32200Y1133200D01*
X30660Y1133500D01*
X29380Y1134380D01*
X28500Y1135660D01*
X28200Y1137200D01*
X28200Y1138840D01*
X27960Y1140880D01*
X27360Y1142600D01*
X26400Y1144160D01*
X25099Y1145440D01*
X23540Y1146420D01*
X21820Y1147020D01*
X19780Y1147260D01*
X14200Y1147260D01*
X12660Y1147560D01*
X11379Y1148420D01*
X10500Y1149720D01*
X10200Y1151260D01*
X10200Y1181860D01*
X10500Y1183380D01*
X11379Y1184680D01*
X12660Y1185560D01*
X14200Y1185860D01*
X19780Y1185860D01*
X21820Y1186080D01*
X23540Y1186700D01*
X25099Y1187660D01*
X26400Y1188960D01*
X27360Y1190500D01*
X27960Y1192240D01*
X28200Y1194280D01*
X28200Y1208800D01*
X28500Y1210340D01*
X29380Y1211620D01*
X30660Y1212500D01*
X32200Y1212800D01*
X101880Y1212800D01*
X102860Y1212860D01*
X104900Y1213360D01*
X106640Y1214280D01*
X108120Y1215580D01*
X109240Y1217200D01*
X109940Y1219040D01*
X110200Y1221240D01*
X110200Y1349880D01*
X110140Y1350860D01*
X109640Y1352900D01*
X108720Y1354640D01*
X107420Y1356120D01*
X105800Y1357240D01*
X103960Y1357940D01*
X101760Y1358200D01*
X94680Y1358200D01*
X93780Y1358300D01*
X90700Y1359000D01*
X87100Y1359160D01*
X83500Y1358680D01*
X81400Y1358200D01*
X59680Y1358200D01*
X58780Y1358300D01*
X55700Y1359000D01*
X52100Y1359160D01*
X48500Y1358680D01*
X46400Y1358200D01*
X32200Y1358200D01*
X30660Y1358500D01*
X29380Y1359379D01*
X28500Y1360660D01*
X28200Y1362200D01*
X28200Y1363839D01*
X27960Y1365880D01*
X27360Y1367600D01*
X26400Y1369160D01*
X25099Y1370440D01*
X23540Y1371420D01*
X21820Y1372020D01*
X19780Y1372260D01*
X14200Y1372260D01*
X12660Y1372560D01*
X11379Y1373420D01*
X10500Y1374720D01*
X10200Y1376260D01*
X10200Y1406800D01*
X10500Y1408340D01*
X11379Y1409620D01*
X12660Y1410500D01*
X14200Y1410800D01*
X19780Y1410800D01*
X21820Y1411040D01*
X23540Y1411639D01*
X25099Y1412600D01*
X26400Y1413899D01*
X27360Y1415460D01*
X27960Y1417180D01*
X28200Y1419220D01*
X28200Y1432800D01*
X28500Y1434340D01*
X29380Y1435620D01*
X30660Y1436500D01*
X32200Y1436800D01*
X101880Y1436800D01*
X102860Y1436860D01*
X104900Y1437360D01*
X106640Y1438280D01*
X108120Y1439580D01*
X109240Y1441200D01*
X109940Y1443040D01*
X110200Y1445240D01*
X110200Y1573880D01*
X110140Y1574860D01*
X109640Y1576900D01*
X108720Y1578640D01*
X107420Y1580120D01*
X105800Y1581240D01*
X103960Y1581940D01*
X101760Y1582200D01*
X94680Y1582200D01*
X93780Y1582300D01*
X90700Y1583000D01*
X87100Y1583160D01*
X83500Y1582680D01*
X81400Y1582200D01*
X59680Y1582200D01*
X58780Y1582300D01*
X55700Y1583000D01*
X52100Y1583160D01*
X48500Y1582680D01*
X46400Y1582200D01*
X32200Y1582200D01*
X30660Y1582500D01*
X29380Y1583380D01*
X28500Y1584660D01*
X28200Y1586200D01*
X28200Y1588779D01*
X27960Y1590820D01*
X27360Y1592540D01*
X26400Y1594100D01*
X25099Y1595400D01*
X23540Y1596360D01*
X21820Y1596960D01*
X19780Y1597200D01*
X14200Y1597200D01*
X12660Y1597500D01*
X11379Y1598380D01*
X10500Y1599660D01*
X10200Y1601200D01*
X10200Y1605800D01*
X10500Y1607340D01*
X11379Y1608620D01*
X12660Y1609500D01*
X14200Y1609800D01*
X181640Y1609800D01*
X183359Y1609420D01*
X184740Y1608340D01*
X185520Y1606780D01*
X185580Y1605020D01*
X184860Y1603420D01*
X183540Y1602280D01*
X180880Y1600840D01*
X178060Y1598580D01*
X175680Y1595860D01*
X173820Y1592760D01*
X172540Y1589360D01*
X171900Y1585800D01*
X171900Y1582200D01*
X172540Y1578640D01*
X173820Y1575240D01*
X174520Y1574060D01*
X175020Y1572720D01*
X175020Y1571279D01*
X174520Y1569940D01*
X173820Y1568760D01*
X172540Y1565360D01*
X171900Y1561800D01*
X171900Y1558200D01*
X172540Y1554640D01*
X173820Y1551240D01*
X174520Y1550060D01*
X175020Y1548720D01*
X175020Y1547280D01*
X174520Y1545940D01*
X173820Y1544760D01*
X172540Y1541360D01*
X171900Y1537800D01*
X171900Y1534199D01*
X172540Y1530640D01*
X173820Y1527240D01*
X174520Y1526060D01*
X175020Y1524720D01*
X175020Y1523280D01*
X174520Y1521940D01*
X173820Y1520760D01*
X172540Y1517360D01*
X171900Y1513800D01*
X171900Y1510200D01*
X172540Y1506639D01*
X173820Y1503240D01*
X174520Y1502060D01*
X175020Y1500720D01*
X175020Y1499280D01*
X174520Y1497940D01*
X173820Y1496759D01*
X172540Y1493360D01*
X171900Y1489800D01*
X171900Y1486200D01*
X172540Y1482640D01*
X173820Y1479240D01*
X174520Y1478060D01*
X175020Y1476720D01*
X175020Y1475280D01*
X174520Y1473940D01*
X173820Y1472760D01*
X172540Y1469360D01*
X171900Y1465800D01*
X171900Y1462200D01*
X172540Y1458640D01*
X173820Y1455240D01*
X174520Y1454060D01*
X175020Y1452720D01*
X175020Y1451279D01*
X174520Y1449940D01*
X173820Y1448760D01*
X172540Y1445360D01*
X171900Y1441800D01*
X171900Y1438200D01*
X172540Y1434640D01*
X173820Y1431240D01*
X175680Y1428140D01*
X178060Y1425420D01*
X180880Y1423160D01*
X184060Y1421440D01*
X187500Y1420320D01*
X191100Y1419840D01*
X194700Y1420000D01*
X198240Y1420800D01*
X201560Y1422220D01*
X204579Y1424220D01*
X207200Y1426720D01*
X209320Y1429640D01*
X210900Y1432900D01*
X211860Y1436399D01*
X212180Y1440000D01*
X211860Y1443600D01*
X210900Y1447100D01*
X209360Y1450260D01*
X209020Y1451399D01*
X209020Y1452600D01*
X209360Y1453740D01*
X210900Y1456900D01*
X211860Y1460400D01*
X212180Y1464000D01*
X211860Y1467600D01*
X210900Y1471100D01*
X209360Y1474259D01*
X209020Y1475400D01*
X209020Y1476600D01*
X209360Y1477740D01*
X210900Y1480900D01*
X211860Y1484400D01*
X212180Y1488000D01*
X211860Y1491600D01*
X210900Y1495100D01*
X209360Y1498260D01*
X209020Y1499400D01*
X209020Y1500600D01*
X209360Y1501740D01*
X210900Y1504900D01*
X211860Y1508400D01*
X212180Y1512000D01*
X211860Y1515600D01*
X210900Y1519100D01*
X209360Y1522260D01*
X209020Y1523400D01*
X209020Y1524600D01*
X209360Y1525740D01*
X210900Y1528899D01*
X211860Y1532400D01*
X212180Y1536000D01*
X211860Y1539600D01*
X210900Y1543100D01*
X209360Y1546260D01*
X209020Y1547400D01*
X209020Y1548600D01*
X209360Y1549740D01*
X210900Y1552900D01*
X211860Y1556399D01*
X212180Y1560000D01*
X211860Y1563600D01*
X210900Y1567100D01*
X209360Y1570260D01*
X209020Y1571399D01*
X209020Y1572600D01*
X209360Y1573740D01*
X210900Y1576900D01*
X211860Y1580400D01*
X212180Y1584000D01*
X211860Y1587600D01*
X210900Y1591100D01*
X209320Y1594360D01*
X207200Y1597280D01*
X204579Y1599780D01*
X201560Y1601780D01*
X200760Y1602120D01*
X199460Y1603000D01*
X198619Y1604300D01*
X198320Y1605820D01*
X198640Y1607340D01*
X199500Y1608640D01*
X200799Y1609500D01*
X202320Y1609800D01*
X459840Y1609800D01*
X461340Y1609920D01*
X464120Y1610720D01*
X466040Y1611800D01*
X467320Y1612900D01*
X483060Y1628620D01*
X484360Y1629500D01*
X485880Y1629800D01*
X574360Y1629800D01*
X575720Y1629560D01*
X576940Y1628860D01*
X577820Y1627800D01*
X579420Y1625040D01*
X582480Y1621120D01*
X586060Y1617660D01*
X590100Y1614740D01*
X594480Y1612400D01*
X599160Y1610700D01*
X604040Y1609660D01*
X609000Y1609300D01*
X613980Y1609660D01*
X618840Y1610700D01*
X623520Y1612400D01*
X627920Y1614740D01*
X631940Y1617660D01*
X635520Y1621120D01*
X638600Y1625040D01*
X640180Y1627800D01*
X641080Y1628860D01*
X642280Y1629560D01*
X643640Y1629800D01*
X668360Y1629800D01*
X669720Y1629560D01*
X670939Y1628860D01*
X671820Y1627800D01*
X673420Y1625040D01*
X676480Y1621120D01*
X680060Y1617660D01*
X684100Y1614740D01*
X688480Y1612400D01*
X693160Y1610700D01*
X698040Y1609660D01*
X703000Y1609300D01*
X707980Y1609660D01*
X712840Y1610700D01*
X717520Y1612400D01*
X721919Y1614740D01*
X725939Y1617660D01*
X729520Y1621120D01*
X732600Y1625040D01*
X734180Y1627800D01*
X735080Y1628860D01*
X736280Y1629560D01*
X737640Y1629800D01*
X762360Y1629800D01*
X763720Y1629560D01*
X764940Y1628860D01*
X765819Y1627800D01*
X767420Y1625040D01*
X770480Y1621120D01*
X774060Y1617660D01*
X778100Y1614740D01*
X782480Y1612400D01*
X787159Y1610700D01*
X792039Y1609660D01*
X797000Y1609300D01*
X801979Y1609660D01*
X806840Y1610700D01*
X811520Y1612400D01*
X815920Y1614740D01*
X819940Y1617660D01*
X823520Y1621120D01*
X826600Y1625040D01*
X828180Y1627800D01*
X829080Y1628860D01*
X830280Y1629560D01*
X831640Y1629800D01*
X856360Y1629800D01*
X857720Y1629560D01*
X858940Y1628860D01*
X859820Y1627800D01*
X861420Y1625040D01*
X864479Y1621120D01*
X868060Y1617660D01*
X872099Y1614740D01*
X876480Y1612400D01*
X881160Y1610700D01*
X886040Y1609660D01*
X891000Y1609300D01*
X895980Y1609660D01*
X900840Y1610700D01*
X905520Y1612400D01*
X909920Y1614740D01*
X913940Y1617660D01*
X917520Y1621120D01*
X920600Y1625040D01*
X922180Y1627800D01*
X923080Y1628860D01*
X924280Y1629560D01*
X925639Y1629800D01*
X950360Y1629800D01*
X951720Y1629560D01*
X952940Y1628860D01*
X953820Y1627800D01*
X955420Y1625040D01*
X958480Y1621120D01*
X962060Y1617660D01*
X966100Y1614740D01*
X970480Y1612400D01*
X975160Y1610700D01*
X980040Y1609660D01*
X985000Y1609300D01*
X989980Y1609660D01*
X994840Y1610700D01*
X999520Y1612400D01*
X1003920Y1614740D01*
X1007940Y1617660D01*
X1011520Y1621120D01*
X1014419Y1624820D01*
X1015699Y1625900D01*
X1017320Y1626339D01*
X1018980Y1626100D01*
X1020400Y1625180D01*
X1032680Y1612900D01*
X1033820Y1611920D01*
X1036360Y1610520D01*
X1038480Y1609920D01*
X1040160Y1609800D01*
X1485800Y1609800D01*
X1487340Y1609500D01*
X1488620Y1608620D01*
X1489500Y1607340D01*
X1489800Y1605800D01*
X1489800Y1601699D01*
X1489500Y1600160D01*
X1488620Y1598880D01*
X1487340Y1598000D01*
X1485800Y1597700D01*
X1480220Y1597700D01*
X1478180Y1597460D01*
X1476459Y1596860D01*
X1474900Y1595900D01*
X1473600Y1594600D01*
X1472640Y1593040D01*
X1472040Y1591320D01*
X1471800Y1589280D01*
X1471800Y1587200D01*
X1471500Y1585660D01*
X1470620Y1584379D01*
X1469340Y1583500D01*
X1467800Y1583200D01*
X1453680Y1583200D01*
X1452780Y1583300D01*
X1449700Y1584000D01*
X1446100Y1584160D01*
X1442500Y1583680D01*
X1440400Y1583200D01*
X1418680Y1583200D01*
X1417780Y1583300D01*
X1414700Y1584000D01*
X1411100Y1584160D01*
X1407500Y1583680D01*
X1405400Y1583200D01*
X1401140Y1583140D01*
X1399100Y1582640D01*
X1397360Y1581720D01*
X1395880Y1580420D01*
X1394760Y1578800D01*
X1394060Y1576960D01*
X1393800Y1574760D01*
X1393800Y1573440D01*
X1393540Y1572040D01*
X1392540Y1569360D01*
X1391900Y1565800D01*
X1391900Y1562200D01*
X1392540Y1558640D01*
X1393540Y1555960D01*
X1393800Y1554560D01*
X1393800Y1538440D01*
X1393540Y1537040D01*
X1392540Y1534360D01*
X1391900Y1530800D01*
X1391900Y1527200D01*
X1392540Y1523640D01*
X1393540Y1520960D01*
X1393800Y1519560D01*
X1393800Y1503440D01*
X1393540Y1502040D01*
X1392540Y1499360D01*
X1391900Y1495800D01*
X1391900Y1492200D01*
X1392540Y1488640D01*
X1393540Y1485960D01*
X1393800Y1484560D01*
X1393800Y1468440D01*
X1393540Y1467040D01*
X1392540Y1464360D01*
X1391900Y1460800D01*
X1391900Y1457200D01*
X1392540Y1453640D01*
X1393540Y1450960D01*
X1393800Y1449560D01*
X1393800Y1447240D01*
X1394060Y1445040D01*
X1394760Y1443200D01*
X1395960Y1441480D01*
X1397480Y1439960D01*
X1399199Y1438760D01*
X1401040Y1438060D01*
X1403240Y1437800D01*
X1467800Y1437800D01*
X1469340Y1437500D01*
X1470620Y1436620D01*
X1471500Y1435340D01*
X1471800Y1433800D01*
X1471800Y1419720D01*
X1472040Y1417680D01*
X1472640Y1415960D01*
X1473600Y1414400D01*
X1474900Y1413100D01*
X1476459Y1412140D01*
X1478180Y1411540D01*
X1480220Y1411300D01*
X1485800Y1411300D01*
X1487340Y1411000D01*
X1488620Y1410120D01*
X1489500Y1408839D01*
X1489800Y1407300D01*
X1489800Y1376680D01*
X1489500Y1375160D01*
X1488620Y1373860D01*
X1487340Y1373000D01*
X1485800Y1372680D01*
X1480220Y1372680D01*
X1478180Y1372460D01*
X1476459Y1371860D01*
X1474900Y1370880D01*
X1473600Y1369580D01*
X1472640Y1368040D01*
X1472040Y1366300D01*
X1471800Y1364259D01*
X1471800Y1363200D01*
X1471500Y1361660D01*
X1470620Y1360380D01*
X1469340Y1359500D01*
X1467800Y1359199D01*
X1402120Y1359199D01*
X1401140Y1359139D01*
X1399100Y1358640D01*
X1397360Y1357720D01*
X1395880Y1356420D01*
X1394760Y1354800D01*
X1394060Y1352960D01*
X1393800Y1350760D01*
X1393800Y1348440D01*
X1393540Y1347040D01*
X1392540Y1344360D01*
X1391900Y1340800D01*
X1391900Y1337200D01*
X1392540Y1333640D01*
X1393540Y1330960D01*
X1393800Y1329560D01*
X1393800Y1313440D01*
X1393540Y1312040D01*
X1392540Y1309360D01*
X1391900Y1305800D01*
X1391900Y1302200D01*
X1392540Y1298640D01*
X1393540Y1295960D01*
X1393800Y1294560D01*
X1393800Y1278440D01*
X1393540Y1277040D01*
X1392540Y1274360D01*
X1391900Y1270800D01*
X1391900Y1267200D01*
X1392540Y1263640D01*
X1393540Y1260960D01*
X1393800Y1259560D01*
X1393800Y1243440D01*
X1393540Y1242040D01*
X1392540Y1239360D01*
X1391900Y1235800D01*
X1391900Y1232200D01*
X1392540Y1228640D01*
X1393540Y1225960D01*
X1393800Y1224560D01*
X1393800Y1223240D01*
X1394060Y1221040D01*
X1394760Y1219200D01*
X1395960Y1217480D01*
X1397480Y1215960D01*
X1399199Y1214760D01*
X1401040Y1214060D01*
X1403240Y1213800D01*
X1467800Y1213800D01*
X1469340Y1213500D01*
X1470620Y1212620D01*
X1471500Y1211340D01*
X1471800Y1209800D01*
X1471800Y1194720D01*
X1472040Y1192660D01*
X1472640Y1190940D01*
X1473600Y1189400D01*
X1474900Y1188100D01*
X1476459Y1187120D01*
X1478180Y1186520D01*
X1480220Y1186280D01*
X1485800Y1186280D01*
X1487340Y1185980D01*
X1488620Y1185120D01*
X1489500Y1183820D01*
X1489800Y1182280D01*
X1489800Y1151680D01*
X1489500Y1150160D01*
X1488620Y1148860D01*
X1487340Y1148000D01*
X1485800Y1147680D01*
X1480220Y1147680D01*
X1478180Y1147460D01*
X1476459Y1146860D01*
X1474900Y1145880D01*
X1473600Y1144580D01*
X1472640Y1143040D01*
X1472040Y1141300D01*
X1471800Y1139260D01*
X1471800Y1138200D01*
X1471500Y1136660D01*
X1470620Y1135380D01*
X1469340Y1134500D01*
X1467800Y1134200D01*
X1402120Y1134200D01*
X1401140Y1134140D01*
X1399100Y1133640D01*
X1397360Y1132720D01*
X1395880Y1131420D01*
X1394760Y1129800D01*
X1394060Y1127960D01*
X1393800Y1125760D01*
X1393800Y1123440D01*
X1393540Y1122040D01*
X1392540Y1119360D01*
X1391900Y1115800D01*
X1391900Y1112200D01*
X1392540Y1108640D01*
X1393540Y1105960D01*
X1393800Y1104560D01*
X1393800Y1088440D01*
X1393540Y1087040D01*
X1392540Y1084360D01*
X1391900Y1080800D01*
X1391900Y1077200D01*
X1392540Y1073640D01*
X1393540Y1070960D01*
X1393800Y1069560D01*
X1393800Y1053440D01*
X1393540Y1052040D01*
X1392540Y1049360D01*
X1391900Y1045800D01*
X1391900Y1042200D01*
X1392540Y1038640D01*
X1393540Y1035960D01*
X1393800Y1034560D01*
X1393800Y1018439D01*
X1393540Y1017039D01*
X1392540Y1014360D01*
X1391900Y1010800D01*
X1391900Y1007200D01*
X1392540Y1003640D01*
X1393540Y1000960D01*
X1393800Y999560D01*
X1393800Y998240D01*
X1394060Y996040D01*
X1394760Y994200D01*
X1395960Y992480D01*
X1397480Y990960D01*
X1399199Y989760D01*
X1401040Y989060D01*
X1403240Y988800D01*
X1467800Y988800D01*
X1469340Y988500D01*
X1470620Y987620D01*
X1471500Y986340D01*
X1471800Y984800D01*
X1471800Y969720D01*
X1472040Y967660D01*
X1472640Y965939D01*
X1473600Y964400D01*
X1474900Y963100D01*
X1476459Y962120D01*
X1478180Y961520D01*
X1480220Y961280D01*
X1485800Y961280D01*
X1487340Y960980D01*
X1488620Y960120D01*
X1489500Y958820D01*
X1489800Y957280D01*
X1489800Y863199D01*
X1489500Y861660D01*
X1488620Y860360D01*
X1487340Y859500D01*
X1485800Y859200D01*
X1480220Y859200D01*
X1478180Y858960D01*
X1476459Y858360D01*
X1474900Y857380D01*
X1473600Y856100D01*
X1472640Y854539D01*
X1472040Y852820D01*
X1471800Y850780D01*
X1471800Y837200D01*
X1471500Y835660D01*
X1470620Y834380D01*
X1469340Y833500D01*
X1467800Y833199D01*
X1402120Y833199D01*
X1401140Y833139D01*
X1399100Y832640D01*
X1397360Y831720D01*
X1395880Y830420D01*
X1394760Y828800D01*
X1394060Y826960D01*
X1393800Y824760D01*
X1393800Y821440D01*
X1393540Y820040D01*
X1392540Y817360D01*
X1391900Y813800D01*
X1391900Y810200D01*
X1392540Y806640D01*
X1393540Y803960D01*
X1393800Y802560D01*
X1393800Y786440D01*
X1393540Y785040D01*
X1392540Y782360D01*
X1391900Y778800D01*
X1391900Y775200D01*
X1392540Y771640D01*
X1393540Y768960D01*
X1393800Y767560D01*
X1393800Y751440D01*
X1393540Y750040D01*
X1392540Y747360D01*
X1391900Y743800D01*
X1391900Y740200D01*
X1392540Y736640D01*
X1393540Y733960D01*
X1393800Y732560D01*
X1393800Y716440D01*
X1393540Y715040D01*
X1392540Y712360D01*
X1391900Y708800D01*
X1391900Y705200D01*
X1392540Y701640D01*
X1393540Y698960D01*
X1393779Y697960D01*
X1394079Y695000D01*
X1394760Y693199D01*
X1395960Y691480D01*
X1397480Y689960D01*
X1399199Y688760D01*
X1401040Y688060D01*
X1403240Y687800D01*
X1405400Y687800D01*
X1407500Y687320D01*
X1411100Y686840D01*
X1414700Y687000D01*
X1417780Y687700D01*
X1418680Y687800D01*
X1440400Y687800D01*
X1442500Y687320D01*
X1446100Y686840D01*
X1449700Y687000D01*
X1452780Y687700D01*
X1453680Y687800D01*
X1467800Y687800D01*
X1469340Y687500D01*
X1470620Y686620D01*
X1471500Y685340D01*
X1471800Y683800D01*
X1471800Y681220D01*
X1472040Y679180D01*
X1472640Y677460D01*
X1473600Y675900D01*
X1474900Y674599D01*
X1476459Y673640D01*
X1478180Y673020D01*
X1480220Y672800D01*
X1485800Y672800D01*
X1487340Y672500D01*
X1488620Y671620D01*
X1489500Y670320D01*
X1489800Y668800D01*
X1489800Y638700D01*
X1489500Y637160D01*
X1488620Y635860D01*
X1487340Y635000D01*
X1485800Y634700D01*
X1480220Y634700D01*
X1478180Y634460D01*
X1476459Y633860D01*
X1474900Y632880D01*
X1473600Y631600D01*
X1472640Y630040D01*
X1472040Y628320D01*
X1471800Y626280D01*
X1471800Y613200D01*
X1471500Y611660D01*
X1470620Y610380D01*
X1469340Y609500D01*
X1467800Y609200D01*
X1402120Y609200D01*
X1401140Y609140D01*
X1399100Y608640D01*
X1397360Y607720D01*
X1395880Y606420D01*
X1394760Y604800D01*
X1394060Y602960D01*
X1393800Y600760D01*
X1393800Y596440D01*
X1393540Y595040D01*
X1392540Y592360D01*
X1391900Y588800D01*
X1391900Y585200D01*
X1392540Y581640D01*
X1393540Y578960D01*
X1393800Y577560D01*
X1393800Y561440D01*
X1393540Y560040D01*
X1392540Y557360D01*
X1391900Y553800D01*
X1391900Y550200D01*
X1392540Y546640D01*
X1393540Y543960D01*
X1393800Y542560D01*
X1393800Y526440D01*
X1393540Y525040D01*
X1392540Y522360D01*
X1391900Y518800D01*
X1391900Y515200D01*
X1392540Y511640D01*
X1393540Y508960D01*
X1393800Y507560D01*
X1393800Y491440D01*
X1393540Y490040D01*
X1392540Y487360D01*
X1391900Y483800D01*
X1391900Y480200D01*
X1392540Y476640D01*
X1393620Y473760D01*
X1393860Y472819D01*
X1394060Y471040D01*
X1394760Y469200D01*
X1395960Y467480D01*
X1397480Y465959D01*
X1399199Y464760D01*
X1401040Y464060D01*
X1402700Y463860D01*
X1407500Y462320D01*
X1411100Y461840D01*
X1414700Y462000D01*
X1418240Y462800D01*
X1419820Y463480D01*
X1421380Y463800D01*
X1437400Y463800D01*
X1438640Y463600D01*
X1442520Y462320D01*
X1446100Y461840D01*
X1449700Y462000D01*
X1453240Y462800D01*
X1454820Y463480D01*
X1456380Y463800D01*
X1467800Y463800D01*
X1469340Y463500D01*
X1470620Y462620D01*
X1471500Y461340D01*
X1471800Y459799D01*
X1471800Y456719D01*
X1472040Y454680D01*
X1472640Y452960D01*
X1473600Y451400D01*
X1474900Y450100D01*
X1476459Y449140D01*
X1478180Y448519D01*
X1480220Y448300D01*
X1485800Y448300D01*
X1487340Y448000D01*
X1488620Y447120D01*
X1489500Y445820D01*
X1489800Y444300D01*
X1489800Y413700D01*
X1489500Y412160D01*
X1488620Y410860D01*
X1487340Y410000D01*
X1485800Y409700D01*
X1480220Y409700D01*
X1478180Y409460D01*
X1476459Y408860D01*
X1474900Y407879D01*
X1473600Y406599D01*
X1472640Y405040D01*
X1472040Y403320D01*
X1471800Y401280D01*
X1471800Y388200D01*
X1471500Y386659D01*
X1470620Y385379D01*
X1469340Y384500D01*
X1467800Y384200D01*
X1402120Y384200D01*
X1401140Y384140D01*
X1399100Y383640D01*
X1397360Y382720D01*
X1395880Y381420D01*
X1394760Y379799D01*
X1394060Y377960D01*
X1393800Y375760D01*
X1393800Y371440D01*
X1393540Y370040D01*
X1392540Y367360D01*
X1391900Y363800D01*
X1391900Y360200D01*
X1392540Y356640D01*
X1393540Y353960D01*
X1393800Y352560D01*
X1393800Y336440D01*
X1393540Y335040D01*
X1392540Y332360D01*
X1391900Y328800D01*
X1391900Y325200D01*
X1392540Y321640D01*
X1393540Y318960D01*
X1393800Y317560D01*
X1393800Y301440D01*
X1393540Y300040D01*
X1392540Y297360D01*
X1391900Y293800D01*
X1391900Y290200D01*
X1392540Y286640D01*
X1393540Y283960D01*
X1393800Y282560D01*
X1393800Y266440D01*
X1393540Y265040D01*
X1392540Y262360D01*
X1391900Y258800D01*
X1391900Y255200D01*
X1392540Y251640D01*
X1393620Y248760D01*
X1393860Y247820D01*
X1394060Y246040D01*
X1394760Y244200D01*
X1395960Y242480D01*
X1397480Y240960D01*
X1399199Y239760D01*
X1401040Y239060D01*
X1402700Y238860D01*
X1407500Y237320D01*
X1411100Y236840D01*
X1414700Y237000D01*
X1418240Y237800D01*
X1419820Y238480D01*
X1421380Y238800D01*
X1437400Y238800D01*
X1438640Y238600D01*
X1442520Y237320D01*
X1446100Y236840D01*
X1449700Y237000D01*
X1453240Y237800D01*
X1454820Y238480D01*
X1456380Y238800D01*
X1467800Y238800D01*
X1469340Y238500D01*
X1470620Y237620D01*
X1471500Y236340D01*
X1471800Y234800D01*
X1471800Y231720D01*
X1472040Y229680D01*
X1472640Y227960D01*
X1473600Y226400D01*
X1474900Y225100D01*
X1476459Y224140D01*
X1478180Y223520D01*
X1480220Y223299D01*
X1485800Y223299D01*
X1487340Y223000D01*
X1488620Y222120D01*
X1489500Y220820D01*
X1489800Y219300D01*
X1489800Y214200D01*
X1489500Y212659D01*
X1488620Y211380D01*
X1487340Y210500D01*
X1485800Y210200D01*
X1110160Y210200D01*
X1108660Y210080D01*
X1105880Y209280D01*
X1103960Y208200D01*
X1102680Y207100D01*
X1026940Y131380D01*
X1025639Y130500D01*
X1024120Y130200D01*
X754200Y130200D01*
X752660Y130500D01*
X751380Y131380D01*
X750500Y132660D01*
X750200Y134200D01*
X750200Y358880D01*
X750140Y359860D01*
X749640Y361900D01*
X748720Y363640D01*
X747420Y365120D01*
X745800Y366240D01*
X743960Y366940D01*
X741760Y367200D01*
X562120Y367200D01*
X561140Y367140D01*
X559100Y366640D01*
X557360Y365720D01*
X555880Y364420D01*
X554760Y362800D01*
X554060Y360959D01*
X553800Y358760D01*
X553800Y140640D01*
X553620Y139440D01*
X553080Y138360D01*
X548600Y131920D01*
X547720Y131000D01*
X546580Y130399D01*
X545320Y130200D01*
G37*

%LPC*%
G36*
X1306100Y218840D02*
G01*
X1309700Y219000D01*
X1313240Y219800D01*
X1316560Y221220D01*
X1319580Y223220D01*
X1322200Y225720D01*
X1324319Y228640D01*
X1325900Y231900D01*
X1326860Y235400D01*
X1327180Y239000D01*
X1326860Y242600D01*
X1325900Y246100D01*
X1324360Y249259D01*
X1324019Y250400D01*
X1324019Y251600D01*
X1324360Y252740D01*
X1325900Y255900D01*
X1326860Y259400D01*
X1327180Y263000D01*
X1326860Y266600D01*
X1325900Y270100D01*
X1324360Y273260D01*
X1324019Y274400D01*
X1324019Y275600D01*
X1324360Y276740D01*
X1325900Y279900D01*
X1326860Y283400D01*
X1327180Y287000D01*
X1326860Y290600D01*
X1325900Y294100D01*
X1324360Y297260D01*
X1324019Y298400D01*
X1324019Y299600D01*
X1324360Y300740D01*
X1325900Y303900D01*
X1326860Y307400D01*
X1327180Y311000D01*
X1326860Y314600D01*
X1325900Y318100D01*
X1324360Y321260D01*
X1324019Y322400D01*
X1324019Y323600D01*
X1324360Y324739D01*
X1325900Y327900D01*
X1326860Y331400D01*
X1327180Y335000D01*
X1326860Y338600D01*
X1325900Y342100D01*
X1324360Y345260D01*
X1324019Y346400D01*
X1324019Y347600D01*
X1324360Y348740D01*
X1325900Y351900D01*
X1326860Y355400D01*
X1327180Y359000D01*
X1326860Y362600D01*
X1325900Y366100D01*
X1324360Y369260D01*
X1324019Y370400D01*
X1324019Y371599D01*
X1324360Y372740D01*
X1325900Y375900D01*
X1326860Y379400D01*
X1327180Y383000D01*
X1326860Y386599D01*
X1325900Y390100D01*
X1324319Y393360D01*
X1322200Y396280D01*
X1319580Y398780D01*
X1316560Y400780D01*
X1313240Y402200D01*
X1309700Y403000D01*
X1306100Y403160D01*
X1302500Y402680D01*
X1299060Y401560D01*
X1295880Y399840D01*
X1293060Y397580D01*
X1290680Y394860D01*
X1288820Y391760D01*
X1287540Y388360D01*
X1286900Y384799D01*
X1286900Y381200D01*
X1287540Y377640D01*
X1288820Y374240D01*
X1289520Y373060D01*
X1290020Y371719D01*
X1290020Y370280D01*
X1289520Y368940D01*
X1288820Y367760D01*
X1287540Y364360D01*
X1286900Y360800D01*
X1286900Y357200D01*
X1287540Y353640D01*
X1288820Y350240D01*
X1289520Y349060D01*
X1290020Y347720D01*
X1290020Y346280D01*
X1289520Y344940D01*
X1288820Y343760D01*
X1287540Y340360D01*
X1286900Y336800D01*
X1286900Y333200D01*
X1287540Y329640D01*
X1288820Y326240D01*
X1289520Y325060D01*
X1290020Y323720D01*
X1290020Y322280D01*
X1289520Y320940D01*
X1288820Y319760D01*
X1287540Y316360D01*
X1286900Y312800D01*
X1286900Y309200D01*
X1287540Y305640D01*
X1288820Y302240D01*
X1289520Y301060D01*
X1290020Y299720D01*
X1290020Y298280D01*
X1289520Y296940D01*
X1288820Y295760D01*
X1287540Y292360D01*
X1286900Y288800D01*
X1286900Y285200D01*
X1287540Y281640D01*
X1288820Y278240D01*
X1289520Y277060D01*
X1290020Y275720D01*
X1290020Y274280D01*
X1289520Y272940D01*
X1288820Y271760D01*
X1287540Y268360D01*
X1286900Y264800D01*
X1286900Y261200D01*
X1287540Y257640D01*
X1288820Y254240D01*
X1289520Y253060D01*
X1290020Y251720D01*
X1290020Y250280D01*
X1289520Y248939D01*
X1288820Y247760D01*
X1287540Y244360D01*
X1286900Y240799D01*
X1286900Y237200D01*
X1287540Y233640D01*
X1288820Y230240D01*
X1290680Y227140D01*
X1293060Y224420D01*
X1295880Y222160D01*
X1299060Y220440D01*
X1302500Y219320D01*
G37*
G36*
X191100Y250840D02*
G01*
X194700Y251000D01*
X198240Y251800D01*
X201560Y253220D01*
X204579Y255219D01*
X207200Y257719D01*
X209320Y260640D01*
X210900Y263900D01*
X211860Y267400D01*
X212180Y271000D01*
X211860Y274600D01*
X210900Y278100D01*
X209360Y281260D01*
X209020Y282400D01*
X209020Y283600D01*
X209360Y284740D01*
X210900Y287900D01*
X211860Y291400D01*
X212180Y295000D01*
X211860Y298600D01*
X210900Y302100D01*
X209360Y305260D01*
X209020Y306400D01*
X209020Y307600D01*
X209360Y308740D01*
X210900Y311900D01*
X211860Y315400D01*
X212180Y319000D01*
X211860Y322600D01*
X210900Y326100D01*
X209360Y329260D01*
X209020Y330400D01*
X209020Y331599D01*
X209360Y332740D01*
X210900Y335900D01*
X211860Y339400D01*
X212180Y343000D01*
X211860Y346599D01*
X210900Y350100D01*
X209360Y353260D01*
X209020Y354400D01*
X209020Y355600D01*
X209360Y356740D01*
X210900Y359900D01*
X211860Y363400D01*
X212180Y367000D01*
X211860Y370600D01*
X210900Y374099D01*
X209360Y377260D01*
X209020Y378400D01*
X209020Y379600D01*
X209360Y380740D01*
X210900Y383900D01*
X211860Y387400D01*
X212180Y391000D01*
X211860Y394600D01*
X210900Y398100D01*
X209360Y401260D01*
X209020Y402400D01*
X209020Y403600D01*
X209360Y404739D01*
X210900Y407900D01*
X211860Y411400D01*
X212180Y415000D01*
X211860Y418600D01*
X210900Y422100D01*
X209320Y425360D01*
X207200Y428280D01*
X204579Y430780D01*
X201560Y432780D01*
X198240Y434200D01*
X194700Y435000D01*
X191100Y435160D01*
X187500Y434680D01*
X184060Y433560D01*
X180880Y431840D01*
X178060Y429580D01*
X175680Y426860D01*
X173820Y423760D01*
X172540Y420360D01*
X171900Y416800D01*
X171900Y413200D01*
X172540Y409640D01*
X173820Y406240D01*
X174520Y405060D01*
X175020Y403720D01*
X175020Y402280D01*
X174520Y400940D01*
X173820Y399760D01*
X172540Y396360D01*
X171900Y392800D01*
X171900Y389200D01*
X172540Y385640D01*
X173820Y382239D01*
X174520Y381060D01*
X175020Y379720D01*
X175020Y378280D01*
X174520Y376940D01*
X173820Y375760D01*
X172540Y372360D01*
X171900Y368800D01*
X171900Y365200D01*
X172540Y361640D01*
X173820Y358240D01*
X174520Y357060D01*
X175020Y355720D01*
X175020Y354280D01*
X174520Y352939D01*
X173820Y351760D01*
X172540Y348360D01*
X171900Y344799D01*
X171900Y341200D01*
X172540Y337640D01*
X173820Y334240D01*
X174520Y333060D01*
X175020Y331719D01*
X175020Y330280D01*
X174520Y328940D01*
X173820Y327760D01*
X172540Y324360D01*
X171900Y320800D01*
X171900Y317200D01*
X172540Y313640D01*
X173820Y310240D01*
X174520Y309060D01*
X175020Y307720D01*
X175020Y306280D01*
X174520Y304940D01*
X173820Y303760D01*
X172540Y300360D01*
X171900Y296800D01*
X171900Y293200D01*
X172540Y289640D01*
X173820Y286240D01*
X174520Y285060D01*
X175020Y283720D01*
X175020Y282280D01*
X174520Y280940D01*
X173820Y279760D01*
X172540Y276360D01*
X171900Y272800D01*
X171900Y269200D01*
X172540Y265640D01*
X173820Y262240D01*
X175680Y259140D01*
X178060Y256420D01*
X180880Y254160D01*
X184060Y252440D01*
X187500Y251320D01*
G37*
G36*
X1029100Y269840D02*
G01*
X1032700Y270000D01*
X1036240Y270800D01*
X1039560Y272220D01*
X1042580Y274220D01*
X1045200Y276720D01*
X1047320Y279640D01*
X1048900Y282900D01*
X1049860Y286400D01*
X1050180Y290000D01*
X1049860Y293600D01*
X1048900Y297100D01*
X1047320Y300360D01*
X1045200Y303280D01*
X1042580Y305780D01*
X1039560Y307780D01*
X1036240Y309200D01*
X1032700Y310000D01*
X1029100Y310160D01*
X1025500Y309680D01*
X1022060Y308560D01*
X1018880Y306840D01*
X1017060Y305380D01*
X1015800Y304720D01*
X1014380Y304520D01*
X1012980Y304840D01*
X1011800Y305620D01*
X1010580Y306780D01*
X1007560Y308780D01*
X1004240Y310200D01*
X1000699Y311000D01*
X997099Y311160D01*
X993500Y310680D01*
X990060Y309560D01*
X986880Y307840D01*
X984060Y305580D01*
X981680Y302860D01*
X979820Y299760D01*
X978540Y296360D01*
X977900Y292800D01*
X977900Y289200D01*
X978540Y285640D01*
X979820Y282240D01*
X981680Y279140D01*
X984060Y276420D01*
X986880Y274160D01*
X990060Y272440D01*
X993500Y271320D01*
X997099Y270840D01*
X1000699Y271000D01*
X1004240Y271800D01*
X1007560Y273220D01*
X1011840Y276080D01*
X1013240Y276400D01*
X1014659Y276200D01*
X1015920Y275520D01*
X1018880Y273160D01*
X1022060Y271440D01*
X1025500Y270320D01*
G37*
G36*
X422100Y317840D02*
G01*
X425700Y318000D01*
X429240Y318800D01*
X432560Y320220D01*
X435580Y322220D01*
X438200Y324720D01*
X440319Y327640D01*
X441440Y329980D01*
X442280Y331140D01*
X443480Y331920D01*
X444880Y332239D01*
X446280Y332040D01*
X448500Y331320D01*
X452100Y330840D01*
X455700Y331000D01*
X459240Y331800D01*
X462560Y333220D01*
X465580Y335220D01*
X468200Y337720D01*
X470319Y340640D01*
X471900Y343900D01*
X472860Y347400D01*
X473180Y351000D01*
X472860Y354600D01*
X471900Y358100D01*
X470319Y361360D01*
X468200Y364280D01*
X465580Y366780D01*
X462560Y368780D01*
X459240Y370200D01*
X455700Y371000D01*
X452100Y371160D01*
X448500Y370680D01*
X445060Y369560D01*
X441880Y367840D01*
X439060Y365580D01*
X436680Y362860D01*
X433840Y358060D01*
X432520Y357140D01*
X430940Y356820D01*
X425700Y358000D01*
X422100Y358160D01*
X418500Y357680D01*
X415060Y356560D01*
X411880Y354840D01*
X409060Y352580D01*
X406680Y349860D01*
X404820Y346760D01*
X403540Y343360D01*
X402900Y339799D01*
X402900Y336200D01*
X403540Y332640D01*
X404820Y329240D01*
X406680Y326140D01*
X409060Y323420D01*
X411880Y321160D01*
X415060Y319440D01*
X418500Y318320D01*
G37*
G36*
X1054600Y356340D02*
G01*
X1058200Y356500D01*
X1061740Y357299D01*
X1065060Y358720D01*
X1068080Y360720D01*
X1070700Y363220D01*
X1072820Y366140D01*
X1074400Y369400D01*
X1075360Y372900D01*
X1075680Y376500D01*
X1075360Y380100D01*
X1074400Y383600D01*
X1072820Y386860D01*
X1070700Y389780D01*
X1068080Y392280D01*
X1065060Y394280D01*
X1061740Y395700D01*
X1058200Y396500D01*
X1054600Y396659D01*
X1051000Y396180D01*
X1047560Y395060D01*
X1044380Y393340D01*
X1041560Y391079D01*
X1039180Y388360D01*
X1037320Y385260D01*
X1036040Y381860D01*
X1035400Y378300D01*
X1035400Y374700D01*
X1036040Y371140D01*
X1037320Y367740D01*
X1039180Y364640D01*
X1041560Y361920D01*
X1044380Y359660D01*
X1047560Y357939D01*
X1051000Y356820D01*
G37*
G36*
X1306100Y440840D02*
G01*
X1309700Y441000D01*
X1313240Y441800D01*
X1316560Y443220D01*
X1319580Y445220D01*
X1322200Y447720D01*
X1324319Y450640D01*
X1325900Y453900D01*
X1326860Y457400D01*
X1327180Y461000D01*
X1326860Y464600D01*
X1325900Y468100D01*
X1324360Y471260D01*
X1324019Y472400D01*
X1324019Y473600D01*
X1324360Y474739D01*
X1325900Y477900D01*
X1326860Y481400D01*
X1327180Y485000D01*
X1326860Y488600D01*
X1325900Y492100D01*
X1324360Y495260D01*
X1324019Y496400D01*
X1324019Y497600D01*
X1324360Y498740D01*
X1325900Y501900D01*
X1326860Y505400D01*
X1327180Y509000D01*
X1326860Y512600D01*
X1325900Y516100D01*
X1324360Y519260D01*
X1324019Y520400D01*
X1324019Y521599D01*
X1324360Y522740D01*
X1325900Y525900D01*
X1326860Y529400D01*
X1327180Y533000D01*
X1326860Y536600D01*
X1325900Y540100D01*
X1324360Y543260D01*
X1324019Y544400D01*
X1324019Y545600D01*
X1324360Y546740D01*
X1325900Y549900D01*
X1326860Y553400D01*
X1327180Y557000D01*
X1326860Y560600D01*
X1325900Y564100D01*
X1324360Y567260D01*
X1324019Y568400D01*
X1324019Y569600D01*
X1324360Y570740D01*
X1325900Y573900D01*
X1326860Y577400D01*
X1327180Y581000D01*
X1326860Y584600D01*
X1325900Y588100D01*
X1324360Y591260D01*
X1324019Y592400D01*
X1324019Y593600D01*
X1324360Y594740D01*
X1325900Y597900D01*
X1326860Y601400D01*
X1327180Y605000D01*
X1326860Y608600D01*
X1325900Y612100D01*
X1324319Y615360D01*
X1322200Y618280D01*
X1319580Y620780D01*
X1316560Y622780D01*
X1313240Y624200D01*
X1309700Y625000D01*
X1306100Y625160D01*
X1302500Y624680D01*
X1299060Y623560D01*
X1295880Y621840D01*
X1293060Y619580D01*
X1290680Y616860D01*
X1288820Y613760D01*
X1287540Y610360D01*
X1286900Y606800D01*
X1286900Y603200D01*
X1287540Y599640D01*
X1288820Y596240D01*
X1289520Y595060D01*
X1290020Y593720D01*
X1290020Y592280D01*
X1289520Y590940D01*
X1288820Y589760D01*
X1287540Y586360D01*
X1286900Y582800D01*
X1286900Y579200D01*
X1287540Y575640D01*
X1288820Y572240D01*
X1289520Y571060D01*
X1290020Y569720D01*
X1290020Y568280D01*
X1289520Y566940D01*
X1288820Y565760D01*
X1287540Y562360D01*
X1286900Y558800D01*
X1286900Y555200D01*
X1287540Y551640D01*
X1288820Y548240D01*
X1289520Y547060D01*
X1290020Y545720D01*
X1290020Y544280D01*
X1289520Y542940D01*
X1288820Y541760D01*
X1287540Y538360D01*
X1286900Y534800D01*
X1286900Y531200D01*
X1287540Y527640D01*
X1288820Y524240D01*
X1289520Y523060D01*
X1290020Y521719D01*
X1290020Y520280D01*
X1289520Y518940D01*
X1288820Y517760D01*
X1287540Y514360D01*
X1286900Y510800D01*
X1286900Y507200D01*
X1287540Y503640D01*
X1288820Y500240D01*
X1289520Y499060D01*
X1290020Y497720D01*
X1290020Y496280D01*
X1289520Y494940D01*
X1288820Y493760D01*
X1287540Y490360D01*
X1286900Y486800D01*
X1286900Y483200D01*
X1287540Y479640D01*
X1288820Y476240D01*
X1289520Y475060D01*
X1290020Y473720D01*
X1290020Y472280D01*
X1289520Y470940D01*
X1288820Y469760D01*
X1287540Y466360D01*
X1286900Y462800D01*
X1286900Y459200D01*
X1287540Y455640D01*
X1288820Y452239D01*
X1290680Y449140D01*
X1293060Y446420D01*
X1295880Y444159D01*
X1299060Y442440D01*
X1302500Y441320D01*
G37*
G36*
X710800Y464840D02*
G01*
X714400Y465000D01*
X717940Y465800D01*
X721260Y467220D01*
X724280Y469219D01*
X726900Y471719D01*
X729020Y474640D01*
X730600Y477900D01*
X731560Y481400D01*
X731880Y485000D01*
X731560Y488600D01*
X730600Y492100D01*
X729020Y495360D01*
X726900Y498280D01*
X724280Y500780D01*
X721260Y502780D01*
X717940Y504200D01*
X714400Y505000D01*
X710800Y505160D01*
X707200Y504680D01*
X703760Y503560D01*
X700580Y501840D01*
X697760Y499580D01*
X695380Y496860D01*
X693520Y493760D01*
X692240Y490360D01*
X691600Y486800D01*
X691600Y483200D01*
X692240Y479640D01*
X693520Y476240D01*
X695380Y473140D01*
X697760Y470420D01*
X700580Y468160D01*
X703760Y466440D01*
X707200Y465319D01*
G37*
G36*
X787400Y464840D02*
G01*
X791000Y465000D01*
X794539Y465800D01*
X797860Y467220D01*
X800879Y469219D01*
X803500Y471719D01*
X805620Y474640D01*
X807200Y477900D01*
X808160Y481400D01*
X808480Y485000D01*
X808160Y488600D01*
X807200Y492100D01*
X805620Y495360D01*
X803500Y498280D01*
X800879Y500780D01*
X797860Y502780D01*
X794539Y504200D01*
X791000Y505000D01*
X787400Y505160D01*
X783800Y504680D01*
X780360Y503560D01*
X777180Y501840D01*
X774360Y499580D01*
X771979Y496860D01*
X770120Y493760D01*
X768840Y490360D01*
X768199Y486800D01*
X768199Y483200D01*
X768840Y479640D01*
X770120Y476240D01*
X771979Y473140D01*
X774360Y470420D01*
X777180Y468160D01*
X780360Y466440D01*
X783800Y465319D01*
G37*
G36*
X191100Y475840D02*
G01*
X194700Y476000D01*
X198240Y476800D01*
X201560Y478220D01*
X204579Y480220D01*
X207200Y482720D01*
X209320Y485640D01*
X210900Y488900D01*
X211860Y492400D01*
X212180Y496000D01*
X211860Y499600D01*
X210900Y503100D01*
X209360Y506260D01*
X209020Y507400D01*
X209020Y508600D01*
X209360Y509739D01*
X210900Y512900D01*
X211860Y516400D01*
X212180Y520000D01*
X211860Y523600D01*
X210900Y527100D01*
X209360Y530260D01*
X209020Y531400D01*
X209020Y532600D01*
X209360Y533740D01*
X210900Y536900D01*
X211860Y540400D01*
X212180Y544000D01*
X211860Y547600D01*
X210900Y551100D01*
X209360Y554260D01*
X209020Y555400D01*
X209020Y556600D01*
X209360Y557740D01*
X210900Y560900D01*
X211860Y564400D01*
X212180Y568000D01*
X211860Y571600D01*
X210900Y575100D01*
X209360Y578260D01*
X209020Y579400D01*
X209020Y580600D01*
X209360Y581740D01*
X210900Y584900D01*
X211860Y588400D01*
X212180Y592000D01*
X211860Y595600D01*
X210900Y599100D01*
X209360Y602260D01*
X209020Y603400D01*
X209020Y604600D01*
X209360Y605740D01*
X210900Y608900D01*
X211860Y612400D01*
X212180Y616000D01*
X211860Y619600D01*
X210900Y623100D01*
X209360Y626260D01*
X209020Y627400D01*
X209020Y628600D01*
X209360Y629740D01*
X210900Y632900D01*
X211860Y636400D01*
X212180Y640000D01*
X211860Y643600D01*
X210900Y647099D01*
X209320Y650360D01*
X207200Y653280D01*
X204579Y655780D01*
X201560Y657780D01*
X198240Y659200D01*
X194700Y660000D01*
X191100Y660160D01*
X187500Y659680D01*
X184060Y658560D01*
X180880Y656840D01*
X178060Y654580D01*
X175680Y651860D01*
X173820Y648760D01*
X172540Y645360D01*
X171900Y641800D01*
X171900Y638200D01*
X172540Y634640D01*
X173820Y631240D01*
X174520Y630060D01*
X175020Y628720D01*
X175020Y627280D01*
X174520Y625940D01*
X173820Y624760D01*
X172540Y621360D01*
X171900Y617800D01*
X171900Y614200D01*
X172540Y610640D01*
X173820Y607240D01*
X174520Y606060D01*
X175020Y604720D01*
X175020Y603280D01*
X174520Y601940D01*
X173820Y600760D01*
X172540Y597360D01*
X171900Y593800D01*
X171900Y590200D01*
X172540Y586640D01*
X173820Y583240D01*
X174520Y582060D01*
X175020Y580720D01*
X175020Y579280D01*
X174520Y577940D01*
X173820Y576760D01*
X172540Y573360D01*
X171900Y569800D01*
X171900Y566200D01*
X172540Y562640D01*
X173820Y559240D01*
X174520Y558060D01*
X175020Y556720D01*
X175020Y555280D01*
X174520Y553940D01*
X173820Y552760D01*
X172540Y549360D01*
X171900Y545800D01*
X171900Y542200D01*
X172540Y538640D01*
X173820Y535240D01*
X174520Y534060D01*
X175020Y532720D01*
X175020Y531280D01*
X174520Y529940D01*
X173820Y528760D01*
X172540Y525360D01*
X171900Y521800D01*
X171900Y518200D01*
X172540Y514640D01*
X173820Y511240D01*
X174520Y510060D01*
X175020Y508720D01*
X175020Y507280D01*
X174520Y505940D01*
X173820Y504760D01*
X172540Y501360D01*
X171900Y497800D01*
X171900Y494200D01*
X172540Y490640D01*
X173820Y487239D01*
X175680Y484140D01*
X178060Y481420D01*
X180880Y479159D01*
X184060Y477440D01*
X187500Y476320D01*
G37*
G36*
X1042099Y535840D02*
G01*
X1045699Y536000D01*
X1049240Y536800D01*
X1052560Y538220D01*
X1055580Y540220D01*
X1056800Y541380D01*
X1057980Y542160D01*
X1059380Y542480D01*
X1060800Y542280D01*
X1062060Y541620D01*
X1063880Y540160D01*
X1067060Y538440D01*
X1070500Y537320D01*
X1074100Y536840D01*
X1077700Y537000D01*
X1081240Y537800D01*
X1084560Y539220D01*
X1087580Y541220D01*
X1090200Y543720D01*
X1092320Y546640D01*
X1093900Y549900D01*
X1094860Y553400D01*
X1095180Y557000D01*
X1094860Y560600D01*
X1093900Y564100D01*
X1092320Y567360D01*
X1090200Y570280D01*
X1087580Y572780D01*
X1084560Y574780D01*
X1081240Y576200D01*
X1077700Y577000D01*
X1074100Y577160D01*
X1070500Y576680D01*
X1067060Y575560D01*
X1063880Y573840D01*
X1060920Y571480D01*
X1059660Y570800D01*
X1058240Y570600D01*
X1056840Y570920D01*
X1052560Y573780D01*
X1049240Y575200D01*
X1045699Y576000D01*
X1042099Y576160D01*
X1038500Y575680D01*
X1035060Y574560D01*
X1031880Y572840D01*
X1029060Y570580D01*
X1026680Y567860D01*
X1024820Y564760D01*
X1023540Y561360D01*
X1022900Y557800D01*
X1022900Y554200D01*
X1023540Y550640D01*
X1024820Y547240D01*
X1026680Y544140D01*
X1029060Y541420D01*
X1031880Y539160D01*
X1035060Y537440D01*
X1038500Y536320D01*
G37*
G36*
X422100Y535840D02*
G01*
X425700Y536000D01*
X429240Y536800D01*
X432560Y538220D01*
X435580Y540220D01*
X438200Y542720D01*
X438860Y543620D01*
X440040Y544700D01*
X441560Y545240D01*
X443160Y545120D01*
X448060Y542440D01*
X451500Y541320D01*
X455100Y540840D01*
X458700Y541000D01*
X462239Y541800D01*
X465560Y543220D01*
X468579Y545220D01*
X471200Y547720D01*
X473320Y550640D01*
X474900Y553900D01*
X475860Y557400D01*
X476180Y561000D01*
X475860Y564600D01*
X474900Y568100D01*
X473320Y571360D01*
X471200Y574280D01*
X468579Y576780D01*
X465560Y578780D01*
X462239Y580200D01*
X458700Y581000D01*
X455100Y581160D01*
X451500Y580680D01*
X448060Y579560D01*
X444880Y577840D01*
X442060Y575580D01*
X439880Y573100D01*
X438760Y572200D01*
X437400Y571760D01*
X435980Y571820D01*
X434660Y572400D01*
X432560Y573780D01*
X429240Y575200D01*
X425700Y576000D01*
X422100Y576160D01*
X418500Y575680D01*
X415060Y574560D01*
X411880Y572840D01*
X409060Y570580D01*
X406680Y567860D01*
X404820Y564760D01*
X403540Y561360D01*
X402900Y557800D01*
X402900Y554200D01*
X403540Y550640D01*
X404820Y547240D01*
X406680Y544140D01*
X409060Y541420D01*
X411880Y539160D01*
X415060Y537440D01*
X418500Y536320D01*
G37*
G36*
X710800Y550840D02*
G01*
X714400Y551000D01*
X717940Y551800D01*
X721260Y553220D01*
X724280Y555220D01*
X726900Y557720D01*
X729020Y560640D01*
X730600Y563900D01*
X731560Y567400D01*
X731880Y571000D01*
X731560Y574600D01*
X730600Y578100D01*
X729020Y581360D01*
X726900Y584280D01*
X724280Y586780D01*
X721260Y588780D01*
X717940Y590200D01*
X714400Y591000D01*
X710800Y591160D01*
X707200Y590680D01*
X703760Y589560D01*
X700580Y587840D01*
X697760Y585580D01*
X695380Y582860D01*
X693520Y579760D01*
X692240Y576360D01*
X691600Y572800D01*
X691600Y569200D01*
X692240Y565640D01*
X693520Y562240D01*
X695380Y559140D01*
X697760Y556420D01*
X700580Y554160D01*
X703760Y552440D01*
X707200Y551320D01*
G37*
G36*
X787400Y550840D02*
G01*
X791000Y551000D01*
X794539Y551800D01*
X797860Y553220D01*
X800879Y555220D01*
X803500Y557720D01*
X805620Y560640D01*
X807200Y563900D01*
X808160Y567400D01*
X808480Y571000D01*
X808160Y574600D01*
X807200Y578100D01*
X805620Y581360D01*
X803500Y584280D01*
X800879Y586780D01*
X797860Y588780D01*
X794539Y590200D01*
X791000Y591000D01*
X787400Y591160D01*
X783800Y590680D01*
X780360Y589560D01*
X777180Y587840D01*
X774360Y585580D01*
X771979Y582860D01*
X770120Y579760D01*
X768840Y576360D01*
X768199Y572800D01*
X768199Y569200D01*
X768840Y565640D01*
X770120Y562240D01*
X771979Y559140D01*
X774360Y556420D01*
X777180Y554160D01*
X780360Y552440D01*
X783800Y551320D01*
G37*
G36*
X710800Y636840D02*
G01*
X714400Y637000D01*
X717940Y637800D01*
X721260Y639220D01*
X724280Y641220D01*
X726900Y643720D01*
X729020Y646640D01*
X730600Y649900D01*
X731560Y653400D01*
X731880Y657000D01*
X731560Y660600D01*
X730600Y664100D01*
X729020Y667360D01*
X726900Y670280D01*
X724280Y672780D01*
X721260Y674780D01*
X717940Y676200D01*
X714400Y677000D01*
X710800Y677159D01*
X707200Y676680D01*
X703760Y675560D01*
X700580Y673840D01*
X697760Y671580D01*
X695380Y668860D01*
X693520Y665759D01*
X692240Y662360D01*
X691600Y658800D01*
X691600Y655200D01*
X692240Y651640D01*
X693520Y648240D01*
X695380Y645140D01*
X697760Y642420D01*
X700580Y640160D01*
X703760Y638440D01*
X707200Y637320D01*
G37*
G36*
X787400Y636840D02*
G01*
X791000Y637000D01*
X794539Y637800D01*
X797860Y639220D01*
X800879Y641220D01*
X803500Y643720D01*
X805620Y646640D01*
X807200Y649900D01*
X808160Y653400D01*
X808480Y657000D01*
X808160Y660600D01*
X807200Y664100D01*
X805620Y667360D01*
X803500Y670280D01*
X800879Y672780D01*
X797860Y674780D01*
X794539Y676200D01*
X791000Y677000D01*
X787400Y677159D01*
X783800Y676680D01*
X780360Y675560D01*
X777180Y673840D01*
X774360Y671580D01*
X771979Y668860D01*
X770120Y665759D01*
X768840Y662360D01*
X768199Y658800D01*
X768199Y655200D01*
X768840Y651640D01*
X770120Y648240D01*
X771979Y645140D01*
X774360Y642420D01*
X777180Y640160D01*
X780360Y638440D01*
X783800Y637320D01*
G37*
G36*
X1306100Y665840D02*
G01*
X1309700Y666000D01*
X1313240Y666800D01*
X1316560Y668220D01*
X1319580Y670220D01*
X1322200Y672720D01*
X1324319Y675639D01*
X1325900Y678900D01*
X1326860Y682400D01*
X1327180Y686000D01*
X1326860Y689599D01*
X1325900Y693100D01*
X1324360Y696260D01*
X1324019Y697400D01*
X1324019Y698600D01*
X1324360Y699740D01*
X1325900Y702900D01*
X1326860Y706400D01*
X1327180Y710000D01*
X1326860Y713600D01*
X1325900Y717099D01*
X1324360Y720260D01*
X1324019Y721400D01*
X1324019Y722600D01*
X1324360Y723740D01*
X1325900Y726900D01*
X1326860Y730400D01*
X1327180Y734000D01*
X1326860Y737600D01*
X1325900Y741100D01*
X1324360Y744260D01*
X1324019Y745400D01*
X1324019Y746600D01*
X1324360Y747740D01*
X1325900Y750900D01*
X1326860Y754400D01*
X1327180Y758000D01*
X1326860Y761600D01*
X1325900Y765100D01*
X1324360Y768259D01*
X1324019Y769400D01*
X1324019Y770600D01*
X1324360Y771740D01*
X1325900Y774900D01*
X1326860Y778400D01*
X1327180Y782000D01*
X1326860Y785600D01*
X1325900Y789100D01*
X1324360Y792260D01*
X1324019Y793400D01*
X1324019Y794599D01*
X1324360Y795740D01*
X1325900Y798900D01*
X1326860Y802400D01*
X1327180Y806000D01*
X1326860Y809599D01*
X1325900Y813100D01*
X1324360Y816260D01*
X1324019Y817400D01*
X1324019Y818600D01*
X1324360Y819740D01*
X1325900Y822900D01*
X1326860Y826400D01*
X1327180Y830000D01*
X1326860Y833600D01*
X1325900Y837099D01*
X1324319Y840360D01*
X1322200Y843280D01*
X1319580Y845780D01*
X1316560Y847780D01*
X1313240Y849200D01*
X1309700Y850000D01*
X1306100Y850160D01*
X1302500Y849680D01*
X1299060Y848560D01*
X1295880Y846840D01*
X1293060Y844580D01*
X1290680Y841860D01*
X1288820Y838760D01*
X1287540Y835360D01*
X1286900Y831800D01*
X1286900Y828199D01*
X1287540Y824640D01*
X1288820Y821240D01*
X1289520Y820060D01*
X1290020Y818720D01*
X1290020Y817280D01*
X1289520Y815939D01*
X1288820Y814760D01*
X1287540Y811360D01*
X1286900Y807800D01*
X1286900Y804200D01*
X1287540Y800639D01*
X1288820Y797240D01*
X1289520Y796060D01*
X1290020Y794720D01*
X1290020Y793280D01*
X1289520Y791940D01*
X1288820Y790759D01*
X1287540Y787360D01*
X1286900Y783800D01*
X1286900Y780200D01*
X1287540Y776640D01*
X1288820Y773240D01*
X1289520Y772060D01*
X1290020Y770720D01*
X1290020Y769280D01*
X1289520Y767940D01*
X1288820Y766760D01*
X1287540Y763360D01*
X1286900Y759800D01*
X1286900Y756200D01*
X1287540Y752640D01*
X1288820Y749240D01*
X1289520Y748060D01*
X1290020Y746720D01*
X1290020Y745280D01*
X1289520Y743940D01*
X1288820Y742760D01*
X1287540Y739360D01*
X1286900Y735800D01*
X1286900Y732200D01*
X1287540Y728640D01*
X1288820Y725240D01*
X1289520Y724060D01*
X1290020Y722720D01*
X1290020Y721280D01*
X1289520Y719940D01*
X1288820Y718760D01*
X1287540Y715360D01*
X1286900Y711800D01*
X1286900Y708199D01*
X1287540Y704640D01*
X1288820Y701240D01*
X1289520Y700060D01*
X1290020Y698720D01*
X1290020Y697280D01*
X1289520Y695939D01*
X1288820Y694760D01*
X1287540Y691360D01*
X1286900Y687800D01*
X1286900Y684200D01*
X1287540Y680639D01*
X1288820Y677240D01*
X1290680Y674140D01*
X1293060Y671420D01*
X1295880Y669160D01*
X1299060Y667440D01*
X1302500Y666320D01*
G37*
G36*
X191100Y700840D02*
G01*
X194700Y701000D01*
X198240Y701800D01*
X201560Y703220D01*
X204579Y705220D01*
X207200Y707720D01*
X209320Y710639D01*
X210900Y713900D01*
X211860Y717400D01*
X212180Y721000D01*
X211860Y724599D01*
X210900Y728100D01*
X209360Y731260D01*
X209020Y732400D01*
X209020Y733600D01*
X209360Y734740D01*
X210900Y737900D01*
X211860Y741400D01*
X212180Y745000D01*
X211860Y748600D01*
X210900Y752099D01*
X209360Y755260D01*
X209020Y756400D01*
X209020Y757600D01*
X209360Y758740D01*
X210900Y761900D01*
X211860Y765400D01*
X212180Y769000D01*
X211860Y772600D01*
X210900Y776100D01*
X209360Y779260D01*
X209020Y780400D01*
X209020Y781600D01*
X209360Y782740D01*
X210900Y785900D01*
X211860Y789400D01*
X212180Y793000D01*
X211860Y796600D01*
X210900Y800100D01*
X209360Y803259D01*
X209020Y804400D01*
X209020Y805600D01*
X209360Y806740D01*
X210900Y809900D01*
X211860Y813400D01*
X212180Y817000D01*
X211860Y820600D01*
X210900Y824100D01*
X209360Y827260D01*
X209020Y828400D01*
X209020Y829599D01*
X209360Y830740D01*
X210900Y833900D01*
X211860Y837400D01*
X212180Y841000D01*
X211860Y844599D01*
X210900Y848100D01*
X209360Y851260D01*
X209020Y852400D01*
X209020Y853600D01*
X209360Y854740D01*
X210900Y857900D01*
X211860Y861400D01*
X212180Y865000D01*
X211860Y868600D01*
X210900Y872099D01*
X209320Y875360D01*
X207200Y878280D01*
X204579Y880780D01*
X201560Y882780D01*
X198240Y884200D01*
X194700Y885000D01*
X191100Y885160D01*
X187500Y884680D01*
X184060Y883560D01*
X180880Y881840D01*
X178060Y879580D01*
X175680Y876860D01*
X173820Y873760D01*
X172540Y870360D01*
X171900Y866800D01*
X171900Y863199D01*
X172540Y859640D01*
X173820Y856240D01*
X174520Y855060D01*
X175020Y853720D01*
X175020Y852280D01*
X174520Y850939D01*
X173820Y849760D01*
X172540Y846360D01*
X171900Y842800D01*
X171900Y839200D01*
X172540Y835639D01*
X173820Y832240D01*
X174520Y831060D01*
X175020Y829720D01*
X175020Y828280D01*
X174520Y826940D01*
X173820Y825759D01*
X172540Y822360D01*
X171900Y818800D01*
X171900Y815200D01*
X172540Y811640D01*
X173820Y808240D01*
X174520Y807060D01*
X175020Y805720D01*
X175020Y804280D01*
X174520Y802940D01*
X173820Y801760D01*
X172540Y798360D01*
X171900Y794800D01*
X171900Y791200D01*
X172540Y787640D01*
X173820Y784240D01*
X174520Y783060D01*
X175020Y781720D01*
X175020Y780280D01*
X174520Y778940D01*
X173820Y777760D01*
X172540Y774360D01*
X171900Y770800D01*
X171900Y767200D01*
X172540Y763640D01*
X173820Y760240D01*
X174520Y759060D01*
X175020Y757720D01*
X175020Y756280D01*
X174520Y754940D01*
X173820Y753760D01*
X172540Y750360D01*
X171900Y746800D01*
X171900Y743199D01*
X172540Y739640D01*
X173820Y736240D01*
X174520Y735060D01*
X175020Y733720D01*
X175020Y732280D01*
X174520Y730939D01*
X173820Y729760D01*
X172540Y726360D01*
X171900Y722800D01*
X171900Y719200D01*
X172540Y715639D01*
X173820Y712240D01*
X175680Y709140D01*
X178060Y706420D01*
X180880Y704160D01*
X184060Y702440D01*
X187500Y701320D01*
G37*
G36*
X710800Y722840D02*
G01*
X714400Y723000D01*
X717940Y723800D01*
X721260Y725220D01*
X724280Y727220D01*
X726900Y729720D01*
X729020Y732640D01*
X730600Y735900D01*
X731560Y739400D01*
X731880Y743000D01*
X731560Y746600D01*
X730600Y750100D01*
X729020Y753360D01*
X726900Y756280D01*
X724280Y758780D01*
X721260Y760780D01*
X717940Y762200D01*
X714400Y763000D01*
X710800Y763160D01*
X707200Y762680D01*
X703760Y761560D01*
X700580Y759840D01*
X697760Y757580D01*
X695380Y754860D01*
X693520Y751760D01*
X692240Y748360D01*
X691600Y744800D01*
X691600Y741200D01*
X692240Y737640D01*
X693520Y734240D01*
X695380Y731140D01*
X697760Y728420D01*
X700580Y726160D01*
X703760Y724440D01*
X707200Y723319D01*
G37*
G36*
X787400Y722840D02*
G01*
X791000Y723000D01*
X794539Y723800D01*
X797860Y725220D01*
X800879Y727220D01*
X803500Y729720D01*
X805620Y732640D01*
X807200Y735900D01*
X808160Y739400D01*
X808480Y743000D01*
X808160Y746600D01*
X807200Y750100D01*
X805620Y753360D01*
X803500Y756280D01*
X800879Y758780D01*
X797860Y760780D01*
X794539Y762200D01*
X791000Y763000D01*
X787400Y763160D01*
X783800Y762680D01*
X780360Y761560D01*
X777180Y759840D01*
X774360Y757580D01*
X771979Y754860D01*
X770120Y751760D01*
X768840Y748360D01*
X768199Y744800D01*
X768199Y741200D01*
X768840Y737640D01*
X770120Y734240D01*
X771979Y731140D01*
X774360Y728420D01*
X777180Y726160D01*
X780360Y724440D01*
X783800Y723319D01*
G37*
G36*
X1036100Y753840D02*
G01*
X1039700Y754000D01*
X1043240Y754800D01*
X1046560Y756220D01*
X1049580Y758220D01*
X1052200Y760720D01*
X1054320Y763640D01*
X1055900Y766900D01*
X1056580Y769360D01*
X1057200Y770639D01*
X1058220Y771640D01*
X1059540Y772200D01*
X1060960Y772260D01*
X1064100Y771840D01*
X1067700Y772000D01*
X1071240Y772800D01*
X1074560Y774220D01*
X1077580Y776220D01*
X1080200Y778720D01*
X1082320Y781640D01*
X1083900Y784900D01*
X1084860Y788400D01*
X1085180Y792000D01*
X1084860Y795600D01*
X1083900Y799100D01*
X1082320Y802360D01*
X1080200Y805280D01*
X1077580Y807780D01*
X1074560Y809780D01*
X1071240Y811200D01*
X1067700Y812000D01*
X1064100Y812159D01*
X1060500Y811680D01*
X1057060Y810560D01*
X1053880Y808840D01*
X1051060Y806580D01*
X1048680Y803860D01*
X1046820Y800759D01*
X1044880Y795480D01*
X1043740Y794340D01*
X1042260Y793760D01*
X1040639Y793780D01*
X1039700Y794000D01*
X1036100Y794160D01*
X1032500Y793680D01*
X1029060Y792560D01*
X1025879Y790840D01*
X1023060Y788580D01*
X1020680Y785860D01*
X1018820Y782760D01*
X1017540Y779360D01*
X1016900Y775800D01*
X1016900Y772200D01*
X1017540Y768640D01*
X1018820Y765240D01*
X1020680Y762140D01*
X1023060Y759419D01*
X1025879Y757159D01*
X1029060Y755440D01*
X1032500Y754320D01*
G37*
G36*
X423100Y773840D02*
G01*
X426700Y774000D01*
X430240Y774800D01*
X433560Y776220D01*
X436580Y778220D01*
X439200Y780720D01*
X441320Y783640D01*
X442720Y786560D01*
X443560Y787720D01*
X444760Y788500D01*
X446160Y788820D01*
X447560Y788620D01*
X448500Y788319D01*
X452100Y787840D01*
X455700Y788000D01*
X459240Y788800D01*
X462560Y790220D01*
X465580Y792220D01*
X468200Y794720D01*
X470319Y797640D01*
X471900Y800900D01*
X472860Y804400D01*
X473180Y808000D01*
X472860Y811600D01*
X471900Y815100D01*
X470319Y818360D01*
X468200Y821280D01*
X465580Y823780D01*
X462560Y825780D01*
X459240Y827200D01*
X455700Y828000D01*
X452100Y828160D01*
X448500Y827680D01*
X445060Y826560D01*
X441880Y824840D01*
X439060Y822580D01*
X436680Y819860D01*
X434820Y816760D01*
X434460Y815780D01*
X433720Y814560D01*
X432600Y813660D01*
X431240Y813220D01*
X429820Y813300D01*
X426700Y814000D01*
X423100Y814160D01*
X419500Y813680D01*
X416060Y812560D01*
X412879Y810840D01*
X410060Y808580D01*
X407680Y805860D01*
X405820Y802760D01*
X404540Y799360D01*
X403900Y795800D01*
X403900Y792200D01*
X404540Y788640D01*
X405820Y785240D01*
X407680Y782140D01*
X410060Y779419D01*
X412879Y777159D01*
X416060Y775440D01*
X419500Y774320D01*
G37*
G36*
X710800Y808840D02*
G01*
X714400Y809000D01*
X717940Y809800D01*
X721260Y811220D01*
X724280Y813220D01*
X726900Y815720D01*
X729020Y818640D01*
X730600Y821900D01*
X731560Y825400D01*
X731880Y829000D01*
X731560Y832600D01*
X730600Y836100D01*
X729020Y839360D01*
X726900Y842280D01*
X724280Y844780D01*
X721260Y846780D01*
X717940Y848199D01*
X714400Y849000D01*
X710800Y849160D01*
X707200Y848680D01*
X703760Y847560D01*
X700580Y845840D01*
X697760Y843580D01*
X695380Y840860D01*
X693520Y837760D01*
X692240Y834360D01*
X691600Y830800D01*
X691600Y827200D01*
X692240Y823640D01*
X693520Y820240D01*
X695380Y817140D01*
X697760Y814419D01*
X700580Y812159D01*
X703760Y810440D01*
X707200Y809320D01*
G37*
G36*
X787400Y808840D02*
G01*
X791000Y809000D01*
X794539Y809800D01*
X797860Y811220D01*
X800879Y813220D01*
X803500Y815720D01*
X805620Y818640D01*
X807200Y821900D01*
X808160Y825400D01*
X808480Y829000D01*
X808160Y832600D01*
X807200Y836100D01*
X805620Y839360D01*
X803500Y842280D01*
X800879Y844780D01*
X797860Y846780D01*
X794539Y848199D01*
X791000Y849000D01*
X787400Y849160D01*
X783800Y848680D01*
X780360Y847560D01*
X777180Y845840D01*
X774360Y843580D01*
X771979Y840860D01*
X770120Y837760D01*
X768840Y834360D01*
X768199Y830800D01*
X768199Y827200D01*
X768840Y823640D01*
X770120Y820240D01*
X771979Y817140D01*
X774360Y814419D01*
X777180Y812159D01*
X780360Y810440D01*
X783800Y809320D01*
G37*
G36*
X711100Y894840D02*
G01*
X714700Y895000D01*
X718240Y895800D01*
X721560Y897220D01*
X724580Y899220D01*
X727200Y901720D01*
X729320Y904640D01*
X730900Y907900D01*
X731860Y911400D01*
X732180Y915000D01*
X731860Y918600D01*
X730900Y922099D01*
X729320Y925360D01*
X727200Y928280D01*
X724580Y930780D01*
X721560Y932780D01*
X718240Y934200D01*
X714700Y935000D01*
X711100Y935160D01*
X707500Y934680D01*
X704060Y933560D01*
X700879Y931840D01*
X698060Y929580D01*
X695680Y926860D01*
X693820Y923760D01*
X692540Y920360D01*
X691900Y916800D01*
X691900Y913199D01*
X692540Y909640D01*
X693820Y906240D01*
X695680Y903139D01*
X698060Y900420D01*
X700879Y898160D01*
X704060Y896440D01*
X707500Y895320D01*
G37*
G36*
X787700Y894840D02*
G01*
X791300Y895000D01*
X794840Y895800D01*
X798160Y897220D01*
X801180Y899220D01*
X803800Y901720D01*
X805920Y904640D01*
X807500Y907900D01*
X808460Y911400D01*
X808780Y915000D01*
X808460Y918600D01*
X807500Y922099D01*
X805920Y925360D01*
X803800Y928280D01*
X801180Y930780D01*
X798160Y932780D01*
X794840Y934200D01*
X791300Y935000D01*
X787700Y935160D01*
X784100Y934680D01*
X780660Y933560D01*
X777480Y931840D01*
X774659Y929580D01*
X772280Y926860D01*
X770420Y923760D01*
X769140Y920360D01*
X768500Y916800D01*
X768500Y913199D01*
X769140Y909640D01*
X770420Y906240D01*
X772280Y903139D01*
X774659Y900420D01*
X777480Y898160D01*
X780660Y896440D01*
X784100Y895320D01*
G37*
G36*
X1306100Y935840D02*
G01*
X1309700Y936000D01*
X1313240Y936800D01*
X1316560Y938220D01*
X1319580Y940220D01*
X1322200Y942720D01*
X1324319Y945639D01*
X1325900Y948900D01*
X1326860Y952400D01*
X1327180Y956000D01*
X1326860Y959599D01*
X1325900Y963100D01*
X1324360Y966260D01*
X1324019Y967400D01*
X1324019Y968600D01*
X1324360Y969740D01*
X1325900Y972900D01*
X1326860Y976400D01*
X1327180Y980000D01*
X1326860Y983600D01*
X1325900Y987099D01*
X1324360Y990260D01*
X1324019Y991400D01*
X1324019Y992600D01*
X1324360Y993740D01*
X1325900Y996900D01*
X1326860Y1000400D01*
X1327180Y1004000D01*
X1326860Y1007600D01*
X1325900Y1011100D01*
X1324360Y1014260D01*
X1324019Y1015400D01*
X1324019Y1016600D01*
X1324360Y1017740D01*
X1325900Y1020900D01*
X1326860Y1024400D01*
X1327180Y1028000D01*
X1326860Y1031600D01*
X1325900Y1035100D01*
X1324360Y1038259D01*
X1324019Y1039400D01*
X1324019Y1040600D01*
X1324360Y1041740D01*
X1325900Y1044900D01*
X1326860Y1048400D01*
X1327180Y1052000D01*
X1326860Y1055600D01*
X1325900Y1059100D01*
X1324360Y1062260D01*
X1324019Y1063400D01*
X1324019Y1064600D01*
X1324360Y1065740D01*
X1325900Y1068900D01*
X1326860Y1072400D01*
X1327180Y1076000D01*
X1326860Y1079600D01*
X1325900Y1083100D01*
X1324360Y1086260D01*
X1324019Y1087400D01*
X1324019Y1088600D01*
X1324360Y1089740D01*
X1325900Y1092900D01*
X1326860Y1096400D01*
X1327180Y1100000D01*
X1326860Y1103600D01*
X1325900Y1107100D01*
X1324319Y1110360D01*
X1322200Y1113280D01*
X1319580Y1115780D01*
X1316560Y1117780D01*
X1313240Y1119200D01*
X1309700Y1120000D01*
X1306100Y1120160D01*
X1302500Y1119680D01*
X1299060Y1118560D01*
X1295880Y1116840D01*
X1293060Y1114580D01*
X1290680Y1111860D01*
X1288820Y1108760D01*
X1287540Y1105360D01*
X1286900Y1101800D01*
X1286900Y1098200D01*
X1287540Y1094640D01*
X1288820Y1091240D01*
X1289520Y1090060D01*
X1290020Y1088720D01*
X1290020Y1087280D01*
X1289520Y1085940D01*
X1288820Y1084760D01*
X1287540Y1081360D01*
X1286900Y1077800D01*
X1286900Y1074200D01*
X1287540Y1070640D01*
X1288820Y1067240D01*
X1289520Y1066060D01*
X1290020Y1064720D01*
X1290020Y1063280D01*
X1289520Y1061940D01*
X1288820Y1060760D01*
X1287540Y1057360D01*
X1286900Y1053800D01*
X1286900Y1050200D01*
X1287540Y1046640D01*
X1288820Y1043240D01*
X1289520Y1042060D01*
X1290020Y1040720D01*
X1290020Y1039280D01*
X1289520Y1037940D01*
X1288820Y1036760D01*
X1287540Y1033360D01*
X1286900Y1029800D01*
X1286900Y1026200D01*
X1287540Y1022640D01*
X1288820Y1019240D01*
X1289520Y1018060D01*
X1290020Y1016720D01*
X1290020Y1015280D01*
X1289520Y1013940D01*
X1288820Y1012760D01*
X1287540Y1009360D01*
X1286900Y1005800D01*
X1286900Y1002200D01*
X1287540Y998640D01*
X1288820Y995240D01*
X1289520Y994060D01*
X1290020Y992720D01*
X1290020Y991280D01*
X1289520Y989940D01*
X1288820Y988760D01*
X1287540Y985360D01*
X1286900Y981800D01*
X1286900Y978199D01*
X1287540Y974640D01*
X1288820Y971240D01*
X1289520Y970060D01*
X1290020Y968720D01*
X1290020Y967280D01*
X1289520Y965939D01*
X1288820Y964760D01*
X1287540Y961360D01*
X1286900Y957800D01*
X1286900Y954200D01*
X1287540Y950639D01*
X1288820Y947240D01*
X1290680Y944140D01*
X1293060Y941420D01*
X1295880Y939160D01*
X1299060Y937440D01*
X1302500Y936320D01*
G37*
G36*
X191100Y969840D02*
G01*
X194700Y970000D01*
X198240Y970800D01*
X201560Y972220D01*
X204579Y974220D01*
X207200Y976720D01*
X209320Y979640D01*
X210900Y982900D01*
X211860Y986400D01*
X212180Y990000D01*
X211860Y993600D01*
X210900Y997099D01*
X209360Y1000260D01*
X209020Y1001400D01*
X209020Y1002600D01*
X209360Y1003740D01*
X210900Y1006900D01*
X211860Y1010400D01*
X212180Y1014000D01*
X211860Y1017600D01*
X210900Y1021100D01*
X209360Y1024260D01*
X209020Y1025400D01*
X209020Y1026600D01*
X209360Y1027740D01*
X210900Y1030900D01*
X211860Y1034400D01*
X212180Y1038000D01*
X211860Y1041600D01*
X210900Y1045100D01*
X209360Y1048259D01*
X209020Y1049400D01*
X209020Y1050600D01*
X209360Y1051740D01*
X210900Y1054900D01*
X211860Y1058400D01*
X212180Y1062000D01*
X211860Y1065600D01*
X210900Y1069100D01*
X209360Y1072260D01*
X209020Y1073400D01*
X209020Y1074600D01*
X209360Y1075740D01*
X210900Y1078900D01*
X211860Y1082400D01*
X212180Y1086000D01*
X211860Y1089600D01*
X210900Y1093100D01*
X209360Y1096260D01*
X209020Y1097400D01*
X209020Y1098600D01*
X209360Y1099740D01*
X210900Y1102900D01*
X211860Y1106400D01*
X212180Y1110000D01*
X211860Y1113600D01*
X210900Y1117100D01*
X209360Y1120260D01*
X209020Y1121400D01*
X209020Y1122600D01*
X209360Y1123740D01*
X210900Y1126900D01*
X211860Y1130400D01*
X212180Y1134000D01*
X211860Y1137600D01*
X210900Y1141100D01*
X209320Y1144360D01*
X207200Y1147280D01*
X204579Y1149780D01*
X201560Y1151780D01*
X198240Y1153200D01*
X194700Y1154000D01*
X191100Y1154160D01*
X187500Y1153680D01*
X184060Y1152560D01*
X180880Y1150840D01*
X178060Y1148580D01*
X175680Y1145860D01*
X173820Y1142760D01*
X172540Y1139360D01*
X171900Y1135800D01*
X171900Y1132200D01*
X172540Y1128640D01*
X173820Y1125240D01*
X174520Y1124060D01*
X175020Y1122720D01*
X175020Y1121280D01*
X174520Y1119940D01*
X173820Y1118760D01*
X172540Y1115360D01*
X171900Y1111800D01*
X171900Y1108200D01*
X172540Y1104640D01*
X173820Y1101240D01*
X174520Y1100060D01*
X175020Y1098720D01*
X175020Y1097280D01*
X174520Y1095940D01*
X173820Y1094760D01*
X172540Y1091360D01*
X171900Y1087800D01*
X171900Y1084200D01*
X172540Y1080640D01*
X173820Y1077240D01*
X174520Y1076060D01*
X175020Y1074720D01*
X175020Y1073280D01*
X174520Y1071940D01*
X173820Y1070760D01*
X172540Y1067360D01*
X171900Y1063800D01*
X171900Y1060200D01*
X172540Y1056640D01*
X173820Y1053240D01*
X174520Y1052060D01*
X175020Y1050720D01*
X175020Y1049280D01*
X174520Y1047940D01*
X173820Y1046760D01*
X172540Y1043360D01*
X171900Y1039800D01*
X171900Y1036200D01*
X172540Y1032640D01*
X173820Y1029240D01*
X174520Y1028060D01*
X175020Y1026720D01*
X175020Y1025280D01*
X174520Y1023940D01*
X173820Y1022760D01*
X172540Y1019360D01*
X171900Y1015800D01*
X171900Y1012200D01*
X172540Y1008640D01*
X173820Y1005240D01*
X174520Y1004060D01*
X175020Y1002720D01*
X175020Y1001280D01*
X174520Y999940D01*
X173820Y998760D01*
X172540Y995360D01*
X171900Y991800D01*
X171900Y988199D01*
X172540Y984640D01*
X173820Y981240D01*
X175680Y978139D01*
X178060Y975420D01*
X180880Y973160D01*
X184060Y971440D01*
X187500Y970320D01*
G37*
G36*
X711100Y980840D02*
G01*
X714700Y981000D01*
X718240Y981800D01*
X721560Y983220D01*
X724580Y985220D01*
X727200Y987720D01*
X729320Y990639D01*
X730900Y993900D01*
X731860Y997400D01*
X732180Y1001000D01*
X731860Y1004599D01*
X730900Y1008100D01*
X729320Y1011360D01*
X727200Y1014280D01*
X724580Y1016780D01*
X721560Y1018780D01*
X718240Y1020200D01*
X714700Y1021000D01*
X711100Y1021160D01*
X707500Y1020680D01*
X704060Y1019560D01*
X700879Y1017840D01*
X698060Y1015580D01*
X695680Y1012860D01*
X693820Y1009760D01*
X692540Y1006360D01*
X691900Y1002800D01*
X691900Y999200D01*
X692540Y995639D01*
X693820Y992240D01*
X695680Y989140D01*
X698060Y986420D01*
X700879Y984160D01*
X704060Y982440D01*
X707500Y981320D01*
G37*
G36*
X787700Y980840D02*
G01*
X791300Y981000D01*
X794840Y981800D01*
X798160Y983220D01*
X801180Y985220D01*
X803800Y987720D01*
X805920Y990639D01*
X807500Y993900D01*
X808460Y997400D01*
X808780Y1001000D01*
X808460Y1004599D01*
X807500Y1008100D01*
X805920Y1011360D01*
X803800Y1014280D01*
X801180Y1016780D01*
X798160Y1018780D01*
X794840Y1020200D01*
X791300Y1021000D01*
X787700Y1021160D01*
X784100Y1020680D01*
X780660Y1019560D01*
X777480Y1017840D01*
X774659Y1015580D01*
X772280Y1012860D01*
X770420Y1009760D01*
X769140Y1006360D01*
X768500Y1002800D01*
X768500Y999200D01*
X769140Y995639D01*
X770420Y992240D01*
X772280Y989140D01*
X774659Y986420D01*
X777480Y984160D01*
X780660Y982440D01*
X784100Y981320D01*
G37*
G36*
X1040100Y1007840D02*
G01*
X1043700Y1008000D01*
X1047240Y1008800D01*
X1050560Y1010220D01*
X1053580Y1012220D01*
X1056200Y1014720D01*
X1058320Y1017640D01*
X1059040Y1019120D01*
X1059880Y1020260D01*
X1061060Y1021060D01*
X1062460Y1021380D01*
X1063880Y1021180D01*
X1066500Y1020320D01*
X1070100Y1019840D01*
X1073700Y1020000D01*
X1077240Y1020800D01*
X1080560Y1022220D01*
X1083580Y1024220D01*
X1086200Y1026720D01*
X1088320Y1029640D01*
X1089900Y1032900D01*
X1090860Y1036400D01*
X1091180Y1040000D01*
X1090860Y1043600D01*
X1089900Y1047099D01*
X1088320Y1050360D01*
X1086200Y1053280D01*
X1083580Y1055780D01*
X1080560Y1057780D01*
X1077240Y1059200D01*
X1073700Y1060000D01*
X1070100Y1060160D01*
X1066500Y1059680D01*
X1063060Y1058560D01*
X1059880Y1056840D01*
X1057060Y1054580D01*
X1054680Y1051860D01*
X1052720Y1048620D01*
X1051780Y1047540D01*
X1050540Y1046860D01*
X1049120Y1046680D01*
X1047240Y1047200D01*
X1043700Y1048000D01*
X1040100Y1048160D01*
X1036500Y1047680D01*
X1033060Y1046560D01*
X1029880Y1044840D01*
X1027060Y1042580D01*
X1024680Y1039860D01*
X1022820Y1036760D01*
X1021540Y1033360D01*
X1020900Y1029800D01*
X1020900Y1026200D01*
X1021540Y1022640D01*
X1022820Y1019240D01*
X1024680Y1016140D01*
X1027060Y1013420D01*
X1029880Y1011160D01*
X1033060Y1009440D01*
X1036500Y1008319D01*
G37*
G36*
X418600Y1016840D02*
G01*
X422200Y1017000D01*
X425740Y1017800D01*
X429060Y1019220D01*
X432080Y1021220D01*
X432960Y1022039D01*
X434140Y1022840D01*
X435540Y1023160D01*
X436960Y1022960D01*
X438200Y1022280D01*
X440880Y1020160D01*
X444060Y1018439D01*
X447500Y1017320D01*
X451100Y1016840D01*
X454700Y1017000D01*
X458240Y1017800D01*
X461560Y1019220D01*
X464580Y1021220D01*
X467200Y1023720D01*
X469320Y1026640D01*
X470900Y1029900D01*
X471860Y1033400D01*
X472180Y1037000D01*
X471860Y1040600D01*
X470900Y1044100D01*
X469320Y1047360D01*
X467200Y1050280D01*
X464580Y1052780D01*
X461560Y1054780D01*
X458240Y1056200D01*
X454700Y1057000D01*
X451100Y1057160D01*
X447500Y1056680D01*
X444060Y1055560D01*
X440880Y1053840D01*
X438200Y1051720D01*
X436960Y1051040D01*
X435540Y1050840D01*
X434140Y1051160D01*
X432960Y1051960D01*
X432080Y1052780D01*
X429060Y1054780D01*
X425740Y1056200D01*
X422200Y1057000D01*
X418600Y1057160D01*
X415000Y1056680D01*
X411560Y1055560D01*
X408380Y1053840D01*
X405560Y1051580D01*
X403180Y1048860D01*
X401320Y1045759D01*
X400040Y1042360D01*
X399400Y1038800D01*
X399400Y1035200D01*
X400040Y1031640D01*
X401320Y1028240D01*
X403180Y1025140D01*
X405560Y1022420D01*
X408380Y1020160D01*
X411560Y1018439D01*
X415000Y1017320D01*
G37*
G36*
X711100Y1066840D02*
G01*
X714700Y1067000D01*
X718240Y1067800D01*
X721560Y1069220D01*
X724580Y1071220D01*
X727200Y1073720D01*
X729320Y1076640D01*
X730900Y1079900D01*
X731860Y1083400D01*
X732180Y1087000D01*
X731860Y1090600D01*
X730900Y1094100D01*
X729320Y1097360D01*
X727200Y1100280D01*
X724580Y1102780D01*
X721560Y1104780D01*
X718240Y1106200D01*
X714700Y1107000D01*
X711100Y1107160D01*
X707500Y1106680D01*
X704060Y1105560D01*
X700879Y1103840D01*
X698060Y1101580D01*
X695680Y1098860D01*
X693820Y1095760D01*
X692540Y1092360D01*
X691900Y1088800D01*
X691900Y1085200D01*
X692540Y1081640D01*
X693820Y1078240D01*
X695680Y1075140D01*
X698060Y1072420D01*
X700879Y1070160D01*
X704060Y1068440D01*
X707500Y1067320D01*
G37*
G36*
X787700Y1066840D02*
G01*
X791300Y1067000D01*
X794840Y1067800D01*
X798160Y1069220D01*
X801180Y1071220D01*
X803800Y1073720D01*
X805920Y1076640D01*
X807500Y1079900D01*
X808460Y1083400D01*
X808780Y1087000D01*
X808460Y1090600D01*
X807500Y1094100D01*
X805920Y1097360D01*
X803800Y1100280D01*
X801180Y1102780D01*
X798160Y1104780D01*
X794840Y1106200D01*
X791300Y1107000D01*
X787700Y1107160D01*
X784100Y1106680D01*
X780660Y1105560D01*
X777480Y1103840D01*
X774659Y1101580D01*
X772280Y1098860D01*
X770420Y1095760D01*
X769140Y1092360D01*
X768500Y1088800D01*
X768500Y1085200D01*
X769140Y1081640D01*
X770420Y1078240D01*
X772280Y1075140D01*
X774659Y1072420D01*
X777480Y1070160D01*
X780660Y1068440D01*
X784100Y1067320D01*
G37*
G36*
X787700Y1152840D02*
G01*
X791300Y1153000D01*
X794840Y1153800D01*
X798160Y1155220D01*
X801180Y1157220D01*
X803800Y1159720D01*
X805920Y1162640D01*
X807500Y1165900D01*
X808460Y1169400D01*
X808780Y1173000D01*
X808460Y1176600D01*
X807500Y1180100D01*
X805920Y1183360D01*
X803800Y1186280D01*
X801180Y1188780D01*
X798160Y1190780D01*
X794840Y1192200D01*
X791300Y1193000D01*
X787700Y1193160D01*
X784100Y1192680D01*
X780660Y1191560D01*
X777480Y1189840D01*
X774659Y1187580D01*
X772280Y1184860D01*
X770420Y1181760D01*
X769140Y1178360D01*
X768500Y1174800D01*
X768500Y1171200D01*
X769140Y1167640D01*
X770420Y1164240D01*
X772280Y1161140D01*
X774659Y1158420D01*
X777480Y1156160D01*
X780660Y1154440D01*
X784100Y1153320D01*
G37*
G36*
X711100Y1152840D02*
G01*
X714700Y1153000D01*
X718240Y1153800D01*
X721560Y1155220D01*
X724580Y1157220D01*
X727200Y1159720D01*
X729320Y1162640D01*
X730900Y1165900D01*
X731860Y1169400D01*
X732180Y1173000D01*
X731860Y1176600D01*
X730900Y1180100D01*
X729320Y1183360D01*
X727200Y1186280D01*
X724580Y1188780D01*
X721560Y1190780D01*
X718240Y1192200D01*
X714700Y1193000D01*
X711100Y1193160D01*
X707500Y1192680D01*
X704060Y1191560D01*
X700879Y1189840D01*
X698060Y1187580D01*
X695680Y1184860D01*
X693820Y1181760D01*
X692540Y1178360D01*
X691900Y1174800D01*
X691900Y1171200D01*
X692540Y1167640D01*
X693820Y1164240D01*
X695680Y1161140D01*
X698060Y1158420D01*
X700879Y1156160D01*
X704060Y1154440D01*
X707500Y1153320D01*
G37*
G36*
X1306100Y1160840D02*
G01*
X1309700Y1161000D01*
X1313240Y1161800D01*
X1316560Y1163220D01*
X1319580Y1165220D01*
X1322200Y1167720D01*
X1324319Y1170640D01*
X1325900Y1173900D01*
X1326860Y1177400D01*
X1327180Y1181000D01*
X1326860Y1184600D01*
X1325900Y1188100D01*
X1324360Y1191260D01*
X1324019Y1192400D01*
X1324019Y1193600D01*
X1324360Y1194740D01*
X1325900Y1197900D01*
X1326860Y1201400D01*
X1327180Y1205000D01*
X1326860Y1208600D01*
X1325900Y1212100D01*
X1324360Y1215260D01*
X1324019Y1216400D01*
X1324019Y1217600D01*
X1324360Y1218740D01*
X1325900Y1221900D01*
X1326860Y1225400D01*
X1327180Y1229000D01*
X1326860Y1232600D01*
X1325900Y1236100D01*
X1324360Y1239260D01*
X1324019Y1240400D01*
X1324019Y1241600D01*
X1324360Y1242740D01*
X1325900Y1245900D01*
X1326860Y1249400D01*
X1327180Y1253000D01*
X1326860Y1256600D01*
X1325900Y1260100D01*
X1324360Y1263260D01*
X1324019Y1264400D01*
X1324019Y1265600D01*
X1324360Y1266740D01*
X1325900Y1269900D01*
X1326860Y1273400D01*
X1327180Y1277000D01*
X1326860Y1280600D01*
X1325900Y1284100D01*
X1324360Y1287260D01*
X1324019Y1288400D01*
X1324019Y1289600D01*
X1324360Y1290740D01*
X1325900Y1293899D01*
X1326860Y1297400D01*
X1327180Y1301000D01*
X1326860Y1304600D01*
X1325900Y1308100D01*
X1324360Y1311260D01*
X1324019Y1312400D01*
X1324019Y1313600D01*
X1324360Y1314740D01*
X1325900Y1317900D01*
X1326860Y1321399D01*
X1327180Y1325000D01*
X1326860Y1328600D01*
X1325900Y1332100D01*
X1324319Y1335360D01*
X1322200Y1338280D01*
X1319580Y1340780D01*
X1316560Y1342780D01*
X1313240Y1344199D01*
X1309700Y1345000D01*
X1306100Y1345160D01*
X1302500Y1344680D01*
X1299060Y1343560D01*
X1295880Y1341840D01*
X1293060Y1339580D01*
X1290680Y1336860D01*
X1288820Y1333760D01*
X1287540Y1330360D01*
X1286900Y1326800D01*
X1286900Y1323200D01*
X1287540Y1319640D01*
X1288820Y1316240D01*
X1289520Y1315060D01*
X1290020Y1313720D01*
X1290020Y1312280D01*
X1289520Y1310940D01*
X1288820Y1309760D01*
X1287540Y1306360D01*
X1286900Y1302800D01*
X1286900Y1299199D01*
X1287540Y1295640D01*
X1288820Y1292240D01*
X1289520Y1291060D01*
X1290020Y1289720D01*
X1290020Y1288280D01*
X1289520Y1286940D01*
X1288820Y1285760D01*
X1287540Y1282360D01*
X1286900Y1278800D01*
X1286900Y1275200D01*
X1287540Y1271640D01*
X1288820Y1268240D01*
X1289520Y1267060D01*
X1290020Y1265720D01*
X1290020Y1264280D01*
X1289520Y1262940D01*
X1288820Y1261760D01*
X1287540Y1258360D01*
X1286900Y1254800D01*
X1286900Y1251200D01*
X1287540Y1247640D01*
X1288820Y1244240D01*
X1289520Y1243060D01*
X1290020Y1241720D01*
X1290020Y1240280D01*
X1289520Y1238940D01*
X1288820Y1237760D01*
X1287540Y1234360D01*
X1286900Y1230800D01*
X1286900Y1227200D01*
X1287540Y1223640D01*
X1288820Y1220240D01*
X1289520Y1219060D01*
X1290020Y1217720D01*
X1290020Y1216280D01*
X1289520Y1214940D01*
X1288820Y1213760D01*
X1287540Y1210360D01*
X1286900Y1206800D01*
X1286900Y1203200D01*
X1287540Y1199640D01*
X1288820Y1196240D01*
X1289520Y1195060D01*
X1290020Y1193720D01*
X1290020Y1192280D01*
X1289520Y1190940D01*
X1288820Y1189760D01*
X1287540Y1186360D01*
X1286900Y1182800D01*
X1286900Y1179200D01*
X1287540Y1175640D01*
X1288820Y1172240D01*
X1290680Y1169140D01*
X1293060Y1166420D01*
X1295880Y1164160D01*
X1299060Y1162440D01*
X1302500Y1161320D01*
G37*
G36*
X191100Y1194840D02*
G01*
X194700Y1195000D01*
X198240Y1195800D01*
X201560Y1197220D01*
X204579Y1199220D01*
X207200Y1201720D01*
X209320Y1204640D01*
X210900Y1207900D01*
X211860Y1211400D01*
X212180Y1215000D01*
X211860Y1218600D01*
X210900Y1222100D01*
X209360Y1225260D01*
X209020Y1226400D01*
X209020Y1227600D01*
X209360Y1228740D01*
X210900Y1231900D01*
X211860Y1235400D01*
X212180Y1239000D01*
X211860Y1242600D01*
X210900Y1246100D01*
X209360Y1249260D01*
X209020Y1250400D01*
X209020Y1251600D01*
X209360Y1252740D01*
X210900Y1255900D01*
X211860Y1259400D01*
X212180Y1263000D01*
X211860Y1266600D01*
X210900Y1270100D01*
X209360Y1273260D01*
X209020Y1274400D01*
X209020Y1275600D01*
X209360Y1276740D01*
X210900Y1279900D01*
X211860Y1283400D01*
X212180Y1287000D01*
X211860Y1290600D01*
X210900Y1294100D01*
X209360Y1297260D01*
X209020Y1298400D01*
X209020Y1299600D01*
X209360Y1300740D01*
X210900Y1303899D01*
X211860Y1307400D01*
X212180Y1311000D01*
X211860Y1314600D01*
X210900Y1318100D01*
X209360Y1321260D01*
X209020Y1322400D01*
X209020Y1323600D01*
X209360Y1324740D01*
X210900Y1327900D01*
X211860Y1331399D01*
X212180Y1335000D01*
X211860Y1338600D01*
X210900Y1342100D01*
X209360Y1345260D01*
X209020Y1346399D01*
X209020Y1347600D01*
X209360Y1348740D01*
X210900Y1351900D01*
X211860Y1355400D01*
X212180Y1359000D01*
X211860Y1362600D01*
X210900Y1366100D01*
X209320Y1369360D01*
X207200Y1372280D01*
X204579Y1374780D01*
X201560Y1376780D01*
X198240Y1378200D01*
X194700Y1379000D01*
X191100Y1379160D01*
X187500Y1378680D01*
X184060Y1377560D01*
X180880Y1375840D01*
X178060Y1373580D01*
X175680Y1370860D01*
X173820Y1367760D01*
X172540Y1364360D01*
X171900Y1360800D01*
X171900Y1357200D01*
X172540Y1353640D01*
X173820Y1350240D01*
X174520Y1349060D01*
X175020Y1347720D01*
X175020Y1346279D01*
X174520Y1344940D01*
X173820Y1343760D01*
X172540Y1340360D01*
X171900Y1336800D01*
X171900Y1333200D01*
X172540Y1329640D01*
X173820Y1326240D01*
X174520Y1325060D01*
X175020Y1323720D01*
X175020Y1322280D01*
X174520Y1320940D01*
X173820Y1319760D01*
X172540Y1316360D01*
X171900Y1312800D01*
X171900Y1309199D01*
X172540Y1305640D01*
X173820Y1302240D01*
X174520Y1301060D01*
X175020Y1299720D01*
X175020Y1298280D01*
X174520Y1296940D01*
X173820Y1295760D01*
X172540Y1292360D01*
X171900Y1288800D01*
X171900Y1285200D01*
X172540Y1281639D01*
X173820Y1278240D01*
X174520Y1277060D01*
X175020Y1275720D01*
X175020Y1274280D01*
X174520Y1272940D01*
X173820Y1271760D01*
X172540Y1268360D01*
X171900Y1264800D01*
X171900Y1261200D01*
X172540Y1257640D01*
X173820Y1254240D01*
X174520Y1253060D01*
X175020Y1251720D01*
X175020Y1250280D01*
X174520Y1248940D01*
X173820Y1247760D01*
X172540Y1244360D01*
X171900Y1240800D01*
X171900Y1237200D01*
X172540Y1233640D01*
X173820Y1230240D01*
X174520Y1229060D01*
X175020Y1227720D01*
X175020Y1226280D01*
X174520Y1224940D01*
X173820Y1223760D01*
X172540Y1220360D01*
X171900Y1216800D01*
X171900Y1213200D01*
X172540Y1209640D01*
X173820Y1206240D01*
X175680Y1203140D01*
X178060Y1200420D01*
X180880Y1198160D01*
X184060Y1196440D01*
X187500Y1195320D01*
G37*
G36*
X711100Y1238840D02*
G01*
X714700Y1239000D01*
X718240Y1239800D01*
X721560Y1241220D01*
X724580Y1243220D01*
X727200Y1245720D01*
X729320Y1248640D01*
X730900Y1251900D01*
X731860Y1255400D01*
X732180Y1259000D01*
X731860Y1262600D01*
X730900Y1266100D01*
X729320Y1269360D01*
X727200Y1272280D01*
X724580Y1274780D01*
X721560Y1276780D01*
X718240Y1278200D01*
X714700Y1279000D01*
X711100Y1279160D01*
X707500Y1278680D01*
X704060Y1277560D01*
X700879Y1275840D01*
X698060Y1273580D01*
X695680Y1270860D01*
X693820Y1267760D01*
X692540Y1264360D01*
X691900Y1260800D01*
X691900Y1257200D01*
X692540Y1253640D01*
X693820Y1250240D01*
X695680Y1247140D01*
X698060Y1244420D01*
X700879Y1242160D01*
X704060Y1240440D01*
X707500Y1239320D01*
G37*
G36*
X787700Y1238840D02*
G01*
X791300Y1239000D01*
X794840Y1239800D01*
X798160Y1241220D01*
X801180Y1243220D01*
X803800Y1245720D01*
X805920Y1248640D01*
X807500Y1251900D01*
X808460Y1255400D01*
X808780Y1259000D01*
X808460Y1262600D01*
X807500Y1266100D01*
X805920Y1269360D01*
X803800Y1272280D01*
X801180Y1274780D01*
X798160Y1276780D01*
X794840Y1278200D01*
X791300Y1279000D01*
X787700Y1279160D01*
X784100Y1278680D01*
X780660Y1277560D01*
X777480Y1275840D01*
X774659Y1273580D01*
X772280Y1270860D01*
X770420Y1267760D01*
X769140Y1264360D01*
X768500Y1260800D01*
X768500Y1257200D01*
X769140Y1253640D01*
X770420Y1250240D01*
X772280Y1247140D01*
X774659Y1244420D01*
X777480Y1242160D01*
X780660Y1240440D01*
X784100Y1239320D01*
G37*
G36*
X1043100Y1239840D02*
G01*
X1046700Y1240000D01*
X1050240Y1240800D01*
X1053560Y1242220D01*
X1056580Y1244220D01*
X1059200Y1246720D01*
X1061320Y1249640D01*
X1063660Y1254500D01*
X1064900Y1255520D01*
X1066440Y1255980D01*
X1068040Y1255800D01*
X1069500Y1255320D01*
X1073100Y1254840D01*
X1076700Y1255000D01*
X1080240Y1255800D01*
X1083560Y1257220D01*
X1086580Y1259220D01*
X1089200Y1261720D01*
X1091320Y1264640D01*
X1092900Y1267900D01*
X1093860Y1271400D01*
X1094180Y1275000D01*
X1093860Y1278600D01*
X1092900Y1282100D01*
X1091320Y1285360D01*
X1089200Y1288280D01*
X1086580Y1290780D01*
X1083560Y1292780D01*
X1080240Y1294199D01*
X1076700Y1295000D01*
X1073100Y1295160D01*
X1069500Y1294680D01*
X1066060Y1293560D01*
X1062880Y1291840D01*
X1060060Y1289580D01*
X1057680Y1286860D01*
X1055820Y1283760D01*
X1055020Y1281660D01*
X1054300Y1280420D01*
X1053180Y1279540D01*
X1051820Y1279100D01*
X1050400Y1279160D01*
X1046700Y1280000D01*
X1043100Y1280160D01*
X1039500Y1279680D01*
X1036060Y1278560D01*
X1032880Y1276840D01*
X1030060Y1274580D01*
X1027680Y1271860D01*
X1025819Y1268760D01*
X1024539Y1265360D01*
X1023900Y1261800D01*
X1023900Y1258200D01*
X1024539Y1254640D01*
X1025819Y1251240D01*
X1027680Y1248140D01*
X1030060Y1245420D01*
X1032880Y1243160D01*
X1036060Y1241440D01*
X1039500Y1240320D01*
G37*
G36*
X424600Y1253840D02*
G01*
X428200Y1254000D01*
X431740Y1254800D01*
X435060Y1256220D01*
X438080Y1258220D01*
X439000Y1259100D01*
X440200Y1259900D01*
X441599Y1260200D01*
X443000Y1260020D01*
X444260Y1259340D01*
X446380Y1257660D01*
X449560Y1255940D01*
X453000Y1254820D01*
X456599Y1254340D01*
X460200Y1254500D01*
X463740Y1255300D01*
X467060Y1256720D01*
X470080Y1258720D01*
X472700Y1261220D01*
X474820Y1264140D01*
X476400Y1267400D01*
X477360Y1270900D01*
X477680Y1274500D01*
X477360Y1278100D01*
X476400Y1281600D01*
X474820Y1284860D01*
X472700Y1287780D01*
X470080Y1290280D01*
X467060Y1292280D01*
X463740Y1293700D01*
X460200Y1294500D01*
X456599Y1294660D01*
X453000Y1294180D01*
X449560Y1293060D01*
X446380Y1291339D01*
X443700Y1289199D01*
X442440Y1288520D01*
X441019Y1288340D01*
X439640Y1288660D01*
X435060Y1291780D01*
X431740Y1293200D01*
X428200Y1294000D01*
X424600Y1294160D01*
X421000Y1293680D01*
X417560Y1292560D01*
X414380Y1290840D01*
X411560Y1288580D01*
X409180Y1285860D01*
X407320Y1282760D01*
X406040Y1279360D01*
X405400Y1275800D01*
X405400Y1272200D01*
X406040Y1268640D01*
X407320Y1265240D01*
X409180Y1262140D01*
X411560Y1259420D01*
X414380Y1257160D01*
X417560Y1255440D01*
X421000Y1254320D01*
G37*
G36*
X711500Y1324840D02*
G01*
X715100Y1325000D01*
X718640Y1325800D01*
X721960Y1327220D01*
X724980Y1329220D01*
X727600Y1331720D01*
X729720Y1334640D01*
X731300Y1337900D01*
X732260Y1341399D01*
X732580Y1345000D01*
X732260Y1348600D01*
X731300Y1352100D01*
X729720Y1355360D01*
X727600Y1358280D01*
X724980Y1360780D01*
X721960Y1362780D01*
X718640Y1364199D01*
X715100Y1365000D01*
X711500Y1365160D01*
X707900Y1364680D01*
X704460Y1363560D01*
X701280Y1361840D01*
X698460Y1359580D01*
X696080Y1356860D01*
X694220Y1353760D01*
X692940Y1350360D01*
X692300Y1346800D01*
X692300Y1343200D01*
X692940Y1339640D01*
X694220Y1336240D01*
X696080Y1333140D01*
X698460Y1330420D01*
X701280Y1328160D01*
X704460Y1326440D01*
X707900Y1325320D01*
G37*
G36*
X787700Y1324840D02*
G01*
X791300Y1325000D01*
X794840Y1325800D01*
X798160Y1327220D01*
X801180Y1329220D01*
X803800Y1331720D01*
X805920Y1334640D01*
X807500Y1337900D01*
X808460Y1341399D01*
X808780Y1345000D01*
X808460Y1348600D01*
X807500Y1352100D01*
X805920Y1355360D01*
X803800Y1358280D01*
X801180Y1360780D01*
X798160Y1362780D01*
X794840Y1364199D01*
X791300Y1365000D01*
X787700Y1365160D01*
X784100Y1364680D01*
X780660Y1363560D01*
X777480Y1361840D01*
X774659Y1359580D01*
X772280Y1356860D01*
X770420Y1353760D01*
X769140Y1350360D01*
X768500Y1346800D01*
X768500Y1343200D01*
X769140Y1339640D01*
X770420Y1336240D01*
X772280Y1333140D01*
X774659Y1330420D01*
X777480Y1328160D01*
X780660Y1326440D01*
X784100Y1325320D01*
G37*
G36*
X1306100Y1385840D02*
G01*
X1309700Y1386000D01*
X1313240Y1386800D01*
X1316560Y1388220D01*
X1319580Y1390220D01*
X1322200Y1392720D01*
X1324319Y1395640D01*
X1325900Y1398899D01*
X1326860Y1402400D01*
X1327180Y1406000D01*
X1326860Y1409600D01*
X1325900Y1413100D01*
X1324360Y1416260D01*
X1324019Y1417400D01*
X1324019Y1418600D01*
X1324360Y1419740D01*
X1325900Y1422900D01*
X1326860Y1426399D01*
X1327180Y1430000D01*
X1326860Y1433600D01*
X1325900Y1437100D01*
X1324360Y1440260D01*
X1324019Y1441399D01*
X1324019Y1442600D01*
X1324360Y1443740D01*
X1325900Y1446900D01*
X1326860Y1450400D01*
X1327180Y1454000D01*
X1326860Y1457600D01*
X1325900Y1461100D01*
X1324360Y1464259D01*
X1324019Y1465400D01*
X1324019Y1466600D01*
X1324360Y1467740D01*
X1325900Y1470900D01*
X1326860Y1474400D01*
X1327180Y1478000D01*
X1326860Y1481600D01*
X1325900Y1485100D01*
X1324360Y1488260D01*
X1324019Y1489400D01*
X1324019Y1490600D01*
X1324360Y1491740D01*
X1325900Y1494900D01*
X1326860Y1498400D01*
X1327180Y1502000D01*
X1326860Y1505600D01*
X1325900Y1509100D01*
X1324360Y1512260D01*
X1324019Y1513400D01*
X1324019Y1514600D01*
X1324360Y1515740D01*
X1325900Y1518899D01*
X1326860Y1522400D01*
X1327180Y1526000D01*
X1326860Y1529600D01*
X1325900Y1533100D01*
X1324360Y1536260D01*
X1324019Y1537400D01*
X1324019Y1538600D01*
X1324360Y1539740D01*
X1325900Y1542900D01*
X1326860Y1546399D01*
X1327180Y1550000D01*
X1326860Y1553600D01*
X1325900Y1557100D01*
X1324319Y1560360D01*
X1322200Y1563280D01*
X1319580Y1565780D01*
X1316560Y1567780D01*
X1313240Y1569199D01*
X1309700Y1570000D01*
X1306100Y1570160D01*
X1302500Y1569680D01*
X1299060Y1568560D01*
X1295880Y1566840D01*
X1293060Y1564580D01*
X1290680Y1561860D01*
X1288820Y1558760D01*
X1287540Y1555360D01*
X1286900Y1551800D01*
X1286900Y1548200D01*
X1287540Y1544640D01*
X1288820Y1541240D01*
X1289520Y1540060D01*
X1290020Y1538720D01*
X1290020Y1537280D01*
X1289520Y1535940D01*
X1288820Y1534760D01*
X1287540Y1531360D01*
X1286900Y1527800D01*
X1286900Y1524199D01*
X1287540Y1520640D01*
X1288820Y1517240D01*
X1289520Y1516060D01*
X1290020Y1514720D01*
X1290020Y1513280D01*
X1289520Y1511940D01*
X1288820Y1510760D01*
X1287540Y1507360D01*
X1286900Y1503800D01*
X1286900Y1500200D01*
X1287540Y1496639D01*
X1288820Y1493240D01*
X1289520Y1492060D01*
X1290020Y1490720D01*
X1290020Y1489280D01*
X1289520Y1487940D01*
X1288820Y1486759D01*
X1287540Y1483360D01*
X1286900Y1479800D01*
X1286900Y1476200D01*
X1287540Y1472640D01*
X1288820Y1469240D01*
X1289520Y1468060D01*
X1290020Y1466720D01*
X1290020Y1465280D01*
X1289520Y1463940D01*
X1288820Y1462760D01*
X1287540Y1459360D01*
X1286900Y1455800D01*
X1286900Y1452200D01*
X1287540Y1448640D01*
X1288820Y1445240D01*
X1289520Y1444060D01*
X1290020Y1442720D01*
X1290020Y1441279D01*
X1289520Y1439940D01*
X1288820Y1438760D01*
X1287540Y1435360D01*
X1286900Y1431800D01*
X1286900Y1428200D01*
X1287540Y1424640D01*
X1288820Y1421240D01*
X1289520Y1420060D01*
X1290020Y1418720D01*
X1290020Y1417280D01*
X1289520Y1415940D01*
X1288820Y1414760D01*
X1287540Y1411360D01*
X1286900Y1407800D01*
X1286900Y1404199D01*
X1287540Y1400640D01*
X1288820Y1397240D01*
X1290680Y1394139D01*
X1293060Y1391420D01*
X1295880Y1389160D01*
X1299060Y1387440D01*
X1302500Y1386320D01*
G37*
G36*
X787700Y1410840D02*
G01*
X791300Y1411000D01*
X794840Y1411800D01*
X798160Y1413220D01*
X801180Y1415220D01*
X803800Y1417720D01*
X805920Y1420640D01*
X807500Y1423899D01*
X808460Y1427400D01*
X808780Y1431000D01*
X808460Y1434600D01*
X807500Y1438100D01*
X805920Y1441360D01*
X803800Y1444280D01*
X801180Y1446780D01*
X798160Y1448779D01*
X794840Y1450200D01*
X791300Y1451000D01*
X787700Y1451160D01*
X784100Y1450680D01*
X780660Y1449560D01*
X777480Y1447840D01*
X774659Y1445580D01*
X772280Y1442860D01*
X770420Y1439760D01*
X769140Y1436360D01*
X768500Y1432800D01*
X768500Y1429199D01*
X769140Y1425640D01*
X770420Y1422240D01*
X772280Y1419139D01*
X774659Y1416420D01*
X777480Y1414160D01*
X780660Y1412440D01*
X784100Y1411320D01*
G37*
G36*
X711500Y1410840D02*
G01*
X715100Y1411000D01*
X718640Y1411800D01*
X721960Y1413220D01*
X724980Y1415220D01*
X727600Y1417720D01*
X729720Y1420640D01*
X731300Y1423899D01*
X732260Y1427400D01*
X732580Y1431000D01*
X732260Y1434600D01*
X731300Y1438100D01*
X729720Y1441360D01*
X727600Y1444280D01*
X724980Y1446780D01*
X721960Y1448779D01*
X718640Y1450200D01*
X715100Y1451000D01*
X711500Y1451160D01*
X707900Y1450680D01*
X704460Y1449560D01*
X701280Y1447840D01*
X698460Y1445580D01*
X696080Y1442860D01*
X694220Y1439760D01*
X692940Y1436360D01*
X692300Y1432800D01*
X692300Y1429199D01*
X692940Y1425640D01*
X694220Y1422240D01*
X696080Y1419139D01*
X698460Y1416420D01*
X701280Y1414160D01*
X704460Y1412440D01*
X707900Y1411320D01*
G37*
G36*
X426100Y1420840D02*
G01*
X429700Y1421000D01*
X433240Y1421800D01*
X436560Y1423220D01*
X439580Y1425220D01*
X442200Y1427720D01*
X444320Y1430640D01*
X445900Y1433899D01*
X446860Y1437400D01*
X447180Y1441000D01*
X446860Y1444600D01*
X445900Y1448100D01*
X444320Y1451360D01*
X442200Y1454280D01*
X439580Y1456780D01*
X436560Y1458779D01*
X433240Y1460200D01*
X429700Y1461000D01*
X426100Y1461160D01*
X422500Y1460680D01*
X419060Y1459560D01*
X415880Y1457840D01*
X413060Y1455580D01*
X410680Y1452860D01*
X408820Y1449760D01*
X407540Y1446360D01*
X406900Y1442800D01*
X406900Y1439199D01*
X407540Y1435640D01*
X408820Y1432240D01*
X410680Y1429139D01*
X413060Y1426420D01*
X415880Y1424160D01*
X419060Y1422440D01*
X422500Y1421320D01*
G37*
G36*
X1047099Y1508839D02*
G01*
X1050700Y1509000D01*
X1054240Y1509800D01*
X1057560Y1511220D01*
X1060580Y1513220D01*
X1062740Y1515280D01*
X1064100Y1516140D01*
X1065680Y1516380D01*
X1067240Y1516000D01*
X1068520Y1515020D01*
X1069060Y1514420D01*
X1071880Y1512160D01*
X1075060Y1510440D01*
X1078500Y1509319D01*
X1082100Y1508839D01*
X1085700Y1509000D01*
X1089240Y1509800D01*
X1092560Y1511220D01*
X1095580Y1513220D01*
X1098200Y1515720D01*
X1100320Y1518640D01*
X1101900Y1521900D01*
X1102860Y1525400D01*
X1103180Y1529000D01*
X1102860Y1532600D01*
X1101900Y1536100D01*
X1100320Y1539360D01*
X1098200Y1542280D01*
X1095580Y1544780D01*
X1092560Y1546780D01*
X1089240Y1548200D01*
X1085700Y1549000D01*
X1082100Y1549160D01*
X1078500Y1548680D01*
X1075060Y1547560D01*
X1071880Y1545840D01*
X1069060Y1543580D01*
X1068520Y1542980D01*
X1067240Y1542000D01*
X1065680Y1541620D01*
X1064100Y1541860D01*
X1062740Y1542720D01*
X1060580Y1544780D01*
X1057560Y1546780D01*
X1054240Y1548200D01*
X1050700Y1549000D01*
X1047099Y1549160D01*
X1043500Y1548680D01*
X1040060Y1547560D01*
X1036880Y1545840D01*
X1034060Y1543580D01*
X1031680Y1540860D01*
X1029820Y1537760D01*
X1028540Y1534360D01*
X1027900Y1530800D01*
X1027900Y1527200D01*
X1028540Y1523640D01*
X1029820Y1520240D01*
X1031680Y1517140D01*
X1034060Y1514420D01*
X1036880Y1512160D01*
X1040060Y1510440D01*
X1043500Y1509319D01*
G37*
G36*
X490100Y1520840D02*
G01*
X493700Y1521000D01*
X497239Y1521800D01*
X500560Y1523220D01*
X503579Y1525220D01*
X506200Y1527720D01*
X508320Y1530640D01*
X509900Y1533899D01*
X510860Y1537400D01*
X511180Y1541000D01*
X510860Y1544600D01*
X509900Y1548100D01*
X508320Y1551360D01*
X506200Y1554280D01*
X503579Y1556780D01*
X500560Y1558779D01*
X497239Y1560200D01*
X493700Y1561000D01*
X490100Y1561160D01*
X486500Y1560680D01*
X483060Y1559560D01*
X479880Y1557840D01*
X477060Y1555580D01*
X474680Y1552860D01*
X473459Y1550840D01*
X472340Y1549620D01*
X470800Y1548959D01*
X469140Y1549000D01*
X467640Y1549700D01*
X466540Y1550940D01*
X466040Y1552540D01*
X465860Y1554600D01*
X464900Y1558100D01*
X463320Y1561360D01*
X461200Y1564280D01*
X458579Y1566780D01*
X455560Y1568779D01*
X452239Y1570200D01*
X448700Y1571000D01*
X445100Y1571160D01*
X441500Y1570680D01*
X438060Y1569560D01*
X434880Y1567840D01*
X432060Y1565580D01*
X429680Y1562860D01*
X427819Y1559760D01*
X426540Y1556360D01*
X425900Y1552800D01*
X425900Y1549199D01*
X426540Y1545640D01*
X427819Y1542240D01*
X429680Y1539139D01*
X432060Y1536420D01*
X434880Y1534160D01*
X438060Y1532440D01*
X441500Y1531320D01*
X445100Y1530840D01*
X448700Y1531000D01*
X452239Y1531800D01*
X455560Y1533220D01*
X458579Y1535220D01*
X461200Y1537720D01*
X463360Y1540680D01*
X464400Y1541960D01*
X465860Y1542700D01*
X467500Y1542780D01*
X469040Y1542220D01*
X470220Y1541060D01*
X470840Y1539540D01*
X471540Y1535640D01*
X472819Y1532240D01*
X474680Y1529139D01*
X477060Y1526420D01*
X479880Y1524160D01*
X483060Y1522440D01*
X486500Y1521320D01*
G37*

%LPD*%
D10*
G01*
X640000Y74000D03*
G01*
X860000Y74000D03*
D11*
G01*
X703000Y1645000D03*
G01*
X796999Y1645000D03*
G01*
X609000Y1645000D03*
G01*
X985000Y1645000D03*
G01*
X891000Y1645000D03*
G01*
X515000Y1645000D03*
D12*
G01*
X0Y1504000D03*
G01*
X0Y1279059D03*
G01*
X0Y1054059D03*
G01*
X0Y766500D03*
G01*
X0Y541999D03*
G01*
X0Y316999D03*
G01*
X1500000Y316500D03*
G01*
X1500000Y541500D03*
G01*
X1500000Y765999D03*
G01*
X1500000Y1054490D03*
G01*
X1500000Y1279490D03*
G01*
X1500000Y1504499D03*
D13*
G01*
X796999Y331999D03*
G01*
X831999Y331999D03*
G01*
X796999Y296999D03*
G01*
X831999Y296999D03*
G01*
X796999Y261999D03*
G01*
X796999Y226999D03*
G01*
X866999Y331999D03*
G01*
X901999Y331999D03*
G01*
X703000Y296999D03*
G01*
X703000Y331999D03*
G01*
X668000Y331999D03*
G01*
X668000Y296999D03*
G01*
X633000Y331999D03*
G01*
X598000Y331999D03*
G01*
X703000Y226999D03*
G01*
X703000Y261999D03*
G01*
X1306999Y1501999D03*
G01*
X796999Y191999D03*
G01*
X831999Y191999D03*
G01*
X866999Y191999D03*
G01*
X901999Y191999D03*
G01*
X598000Y191999D03*
G01*
X633000Y191999D03*
G01*
X668000Y191999D03*
G01*
X703000Y191999D03*
G01*
X1306999Y1478000D03*
G01*
X1306999Y1454000D03*
G01*
X1306999Y1430000D03*
G01*
X1306999Y1405999D03*
G01*
X1306999Y1276999D03*
G01*
X1306999Y1253000D03*
G01*
X1306999Y1229000D03*
G01*
X1306999Y1205000D03*
G01*
X1306999Y1180999D03*
G01*
X1306999Y1051999D03*
G01*
X1306999Y1028000D03*
G01*
X1306999Y1004000D03*
G01*
X1306999Y980000D03*
G01*
X1306999Y955999D03*
G01*
X1306999Y781999D03*
G01*
X1306999Y758000D03*
G01*
X1306999Y734000D03*
G01*
X1306999Y710000D03*
G01*
X1306999Y685999D03*
G01*
X1306999Y556999D03*
G01*
X1306999Y533000D03*
G01*
X1306999Y509000D03*
G01*
X1306999Y485000D03*
G01*
X1306999Y460999D03*
G01*
X1306999Y335000D03*
G01*
X1306999Y310999D03*
G01*
X1306999Y286999D03*
G01*
X1306999Y263000D03*
G01*
X1306999Y239000D03*
G01*
X191999Y865000D03*
G01*
X191999Y840999D03*
G01*
X191999Y816999D03*
G01*
X191999Y793000D03*
G01*
X191999Y769000D03*
G01*
X191999Y640000D03*
G01*
X191999Y615999D03*
G01*
X191999Y591999D03*
G01*
X191999Y568000D03*
G01*
X191999Y544000D03*
G01*
X191999Y415000D03*
G01*
X191999Y390999D03*
G01*
X191999Y366999D03*
G01*
X191999Y343000D03*
G01*
X191999Y319000D03*
G01*
X191999Y1535999D03*
G01*
X191999Y1511999D03*
G01*
X191999Y1488000D03*
G01*
X191999Y1464000D03*
G01*
X191999Y1440000D03*
G01*
X191999Y1310999D03*
G01*
X191999Y1286999D03*
G01*
X191999Y1263000D03*
G01*
X191999Y1239000D03*
G01*
X191999Y1215000D03*
G01*
X191999Y1134000D03*
G01*
X191999Y1110000D03*
G01*
X191999Y1085999D03*
G01*
X191999Y1061999D03*
G01*
X191999Y1038000D03*
G01*
X88000Y1563000D03*
G01*
X88000Y1528000D03*
G01*
X88000Y1493000D03*
G01*
X88000Y1458000D03*
G01*
X53000Y1563000D03*
G01*
X53000Y1528000D03*
G01*
X53000Y1493000D03*
G01*
X53000Y1458000D03*
G01*
X53000Y1339000D03*
G01*
X88000Y1339000D03*
G01*
X53000Y1304000D03*
G01*
X88000Y1304000D03*
G01*
X53000Y1269000D03*
G01*
X88000Y1269000D03*
G01*
X53000Y1234000D03*
G01*
X88000Y1234000D03*
G01*
X53000Y1114000D03*
G01*
X88000Y1114000D03*
G01*
X53000Y1079000D03*
G01*
X88000Y1079000D03*
G01*
X53000Y1044000D03*
G01*
X88000Y1044000D03*
G01*
X53000Y1009000D03*
G01*
X88000Y1009000D03*
G01*
X53000Y813000D03*
G01*
X88000Y813000D03*
G01*
X53000Y778000D03*
G01*
X88000Y778000D03*
G01*
X53000Y743000D03*
G01*
X88000Y743000D03*
G01*
X53000Y708000D03*
G01*
X88000Y708000D03*
G01*
X53000Y588000D03*
G01*
X88000Y588000D03*
G01*
X53000Y553000D03*
G01*
X88000Y553000D03*
G01*
X53000Y518000D03*
G01*
X88000Y518000D03*
G01*
X53000Y483000D03*
G01*
X88000Y483000D03*
G01*
X53000Y363000D03*
G01*
X88000Y363000D03*
G01*
X53000Y328000D03*
G01*
X88000Y328000D03*
G01*
X53000Y293000D03*
G01*
X88000Y293000D03*
G01*
X53000Y258000D03*
G01*
X88000Y258000D03*
G01*
X1411999Y256999D03*
G01*
X1411999Y291999D03*
G01*
X1411999Y326999D03*
G01*
X1411999Y361999D03*
G01*
X1446999Y361999D03*
G01*
X1446999Y326999D03*
G01*
X1446999Y291999D03*
G01*
X1446999Y256999D03*
G01*
X1411999Y481999D03*
G01*
X1411999Y516999D03*
G01*
X1411999Y551999D03*
G01*
X1411999Y586999D03*
G01*
X1446999Y586999D03*
G01*
X1446999Y551999D03*
G01*
X1446999Y516999D03*
G01*
X1446999Y481999D03*
G01*
X1411999Y706999D03*
G01*
X1411999Y741999D03*
G01*
X1411999Y776999D03*
G01*
X1411999Y811999D03*
G01*
X1446999Y811999D03*
G01*
X1446999Y776999D03*
G01*
X1446999Y741999D03*
G01*
X1446999Y706999D03*
G01*
X1411999Y1114000D03*
G01*
X1446999Y1114000D03*
G01*
X1411999Y1079000D03*
G01*
X1446999Y1079000D03*
G01*
X1411999Y1044000D03*
G01*
X1446999Y1044000D03*
G01*
X1411999Y1009000D03*
G01*
X1446999Y1009000D03*
G01*
X1411999Y1339000D03*
G01*
X1446999Y1339000D03*
G01*
X1411999Y1304000D03*
G01*
X1446999Y1304000D03*
G01*
X1411999Y1269000D03*
G01*
X1446999Y1269000D03*
G01*
X1411999Y1234000D03*
G01*
X1446999Y1234000D03*
G01*
X1411999Y1564000D03*
G01*
X1446999Y1564000D03*
G01*
X1411999Y1529000D03*
G01*
X1446999Y1529000D03*
G01*
X1411999Y1494000D03*
G01*
X1446999Y1494000D03*
G01*
X1411999Y1459000D03*
G01*
X1446999Y1459000D03*
G01*
X1083000Y1529000D03*
G01*
X1073999Y1275000D03*
G01*
X1043999Y1260000D03*
G01*
X1041000Y1028000D03*
G01*
X1065000Y791999D03*
G01*
X1055500Y376500D03*
G01*
X1030000Y290000D03*
G01*
X998000Y290999D03*
G01*
X1075000Y556999D03*
G01*
X1071000Y1040000D03*
G01*
X1048000Y1529000D03*
G01*
X419499Y1036999D03*
G01*
X451999Y1036999D03*
G01*
X425500Y1274000D03*
G01*
X457500Y1274499D03*
G01*
X445999Y1550999D03*
G01*
X490999Y1540999D03*
G01*
X426999Y1440999D03*
G01*
X424000Y794000D03*
G01*
X453000Y808000D03*
G01*
X423000Y555999D03*
G01*
X455999Y560999D03*
G01*
X423000Y338000D03*
G01*
X453000Y350999D03*
G01*
X1043000Y555999D03*
G01*
X1036999Y774000D03*
G01*
X633000Y226999D03*
G01*
X668000Y226999D03*
G01*
X668000Y261999D03*
G01*
X633000Y261999D03*
G01*
X598000Y226999D03*
G01*
X598000Y261999D03*
G01*
X598000Y296999D03*
G01*
X633000Y296999D03*
G01*
X831999Y261999D03*
G01*
X866999Y261999D03*
G01*
X866999Y226999D03*
G01*
X831999Y226999D03*
G01*
X901999Y226999D03*
G01*
X901999Y261999D03*
G01*
X901999Y296999D03*
G01*
X866999Y296999D03*
G01*
X788599Y1345000D03*
G01*
X788599Y1430999D03*
G01*
X712399Y1430999D03*
G01*
X712399Y1345000D03*
G01*
X586999Y1345000D03*
G01*
X586999Y1430999D03*
G01*
X913999Y1430999D03*
G01*
X913999Y1345000D03*
G01*
X586599Y915000D03*
G01*
X586599Y1000999D03*
G01*
X586599Y1086999D03*
G01*
X586599Y1173000D03*
G01*
X586599Y1259000D03*
G01*
X711999Y1259000D03*
G01*
X711999Y1173000D03*
G01*
X711999Y1086999D03*
G01*
X711999Y1000999D03*
G01*
X711999Y915000D03*
G01*
X788599Y915000D03*
G01*
X788599Y1000999D03*
G01*
X788599Y1086999D03*
G01*
X788599Y1173000D03*
G01*
X788599Y1259000D03*
G01*
X913999Y1259000D03*
G01*
X913999Y1173000D03*
G01*
X913999Y1086999D03*
G01*
X913999Y1000999D03*
G01*
X913999Y915000D03*
G01*
X586300Y485000D03*
G01*
X586300Y570999D03*
G01*
X586300Y656999D03*
G01*
X586300Y743000D03*
G01*
X586300Y829000D03*
G01*
X711700Y829000D03*
G01*
X711700Y743000D03*
G01*
X711700Y656999D03*
G01*
X711700Y570999D03*
G01*
X711700Y485000D03*
G01*
X788299Y485000D03*
G01*
X788299Y570999D03*
G01*
X788299Y656999D03*
G01*
X788299Y743000D03*
G01*
X788299Y829000D03*
G01*
X913699Y829000D03*
G01*
X913699Y743000D03*
G01*
X913699Y656999D03*
G01*
X913699Y570999D03*
G01*
X913699Y485000D03*
G01*
X1168999Y1525000D03*
G01*
X1193000Y1525000D03*
G01*
X1205000Y1545999D03*
G01*
X1181000Y1545999D03*
G01*
X1156999Y1545999D03*
G01*
X191999Y1584000D03*
G01*
X191999Y1560000D03*
G01*
X191999Y1359000D03*
G01*
X191999Y1335000D03*
G01*
X191999Y990000D03*
G01*
X191999Y1014000D03*
G01*
X191999Y745000D03*
G01*
X191999Y720999D03*
G01*
X191999Y520000D03*
G01*
X191999Y495999D03*
G01*
X191999Y295000D03*
G01*
X191999Y270999D03*
G01*
X1306999Y1550000D03*
G01*
X1306999Y1525999D03*
G01*
X1306999Y1325000D03*
G01*
X1306999Y1300999D03*
G01*
X1306999Y1100000D03*
G01*
X1306999Y1075999D03*
G01*
X1306999Y805999D03*
G01*
X1306999Y830000D03*
G01*
X1306999Y605000D03*
G01*
X1306999Y580999D03*
G01*
X1306999Y383000D03*
G01*
X1306999Y359000D03*
G01*
X1145000Y1525000D03*
G01*
X1216999Y1525000D03*
G01*
X1198999Y1175999D03*
G01*
X1178000Y1188000D03*
G01*
X1178000Y1211999D03*
G01*
X1178000Y1235999D03*
G01*
X1198999Y1200000D03*
G01*
X1198999Y1224000D03*
G01*
X1198999Y1248000D03*
G01*
X1178999Y935000D03*
G01*
X1200000Y946999D03*
G01*
X1178999Y959000D03*
G01*
X1200000Y970999D03*
G01*
X1178999Y983000D03*
G01*
X1200000Y995000D03*
G01*
X1178999Y1006999D03*
G01*
X1178000Y685999D03*
G01*
X1198999Y698000D03*
G01*
X1178000Y710000D03*
G01*
X1198999Y721999D03*
G01*
X1178000Y734000D03*
G01*
X1198999Y744499D03*
G01*
X1178000Y758000D03*
G01*
X1175000Y450999D03*
G01*
X1196000Y463000D03*
G01*
X1175000Y475000D03*
G01*
X1196000Y486999D03*
G01*
X1175000Y499000D03*
G01*
X1196000Y510999D03*
G01*
X1175000Y523000D03*
G01*
X1186000Y240000D03*
G01*
X1173999Y260999D03*
G01*
X1161999Y240000D03*
G01*
X1150000Y260999D03*
G01*
X1138000Y240000D03*
G01*
X1126000Y260999D03*
G01*
X1113999Y240000D03*
G01*
X320999Y414000D03*
G01*
X300000Y401999D03*
G01*
X320999Y390000D03*
G01*
X300000Y378000D03*
G01*
X320999Y365999D03*
G01*
X300000Y354000D03*
G01*
X320999Y341999D03*
G01*
X320999Y649000D03*
G01*
X300000Y636999D03*
G01*
X320999Y625000D03*
G01*
X300000Y613000D03*
G01*
X320999Y600999D03*
G01*
X300000Y589000D03*
G01*
X320999Y576999D03*
G01*
X320999Y884000D03*
G01*
X300000Y871999D03*
G01*
X320999Y860000D03*
G01*
X300000Y848000D03*
G01*
X320999Y835999D03*
G01*
X300000Y824000D03*
G01*
X320999Y811999D03*
G01*
X320999Y1145000D03*
G01*
X300000Y1133000D03*
G01*
X320999Y1120999D03*
G01*
X300000Y1109000D03*
G01*
X320999Y1096999D03*
G01*
X300000Y1085000D03*
G01*
X320999Y1073000D03*
G01*
X320999Y1373000D03*
G01*
X300000Y1360999D03*
G01*
X320999Y1349000D03*
G01*
X300000Y1336999D03*
G01*
X320999Y1325000D03*
G01*
X300000Y1313000D03*
G01*
X320999Y1300999D03*
G01*
X300999Y1584000D03*
G01*
X313000Y1563000D03*
G01*
X325000Y1584000D03*
G01*
X336999Y1563000D03*
G01*
X349000Y1584000D03*
G01*
X360999Y1563000D03*
G01*
X373000Y1584000D03*
M02*
