G04 Layer: TopSilkscreenLayer*
G04 EasyEDA v6.5.22, 2023-04-03 14:03:43*
G04 87db6ba2ad084763a29da5206ccfc978,3cec5f453c3247449836eb28e2eac2c3,10*
G04 Gerber Generator version 0.2*
G04 Scale: 100 percent, Rotated: No, Reflected: No *
G04 Dimensions in inches *
G04 leading zeros omitted , absolute positions ,3 integer and 6 decimal *
%FSLAX36Y36*%
%MOIN*%

%ADD10C,0.0059*%
%ADD11C,0.0047*%
%ADD12C,0.0060*%

%LPD*%
D10*
X1336000Y933949D02*
G01*
X1357500Y933949D01*
X1341400Y925050D02*
G01*
X1352100Y942849D01*
X1341400Y942849D02*
G01*
X1352100Y925050D01*
X1336000Y933949D02*
G01*
X1357500Y933949D01*
X1341400Y925050D02*
G01*
X1352100Y942849D01*
X1341400Y942849D02*
G01*
X1352100Y925050D01*
X1336000Y1158949D02*
G01*
X1357500Y1158949D01*
X1341400Y1150050D02*
G01*
X1352100Y1167849D01*
X1341400Y1167849D02*
G01*
X1352100Y1150050D01*
X1336000Y1158949D02*
G01*
X1357500Y1158949D01*
X1341400Y1150050D02*
G01*
X1352100Y1167849D01*
X1341400Y1167849D02*
G01*
X1352100Y1150050D01*
X1336000Y1383949D02*
G01*
X1357500Y1383949D01*
X1341400Y1375050D02*
G01*
X1352100Y1392849D01*
X1341400Y1392849D02*
G01*
X1352100Y1375050D01*
X1336000Y1383949D02*
G01*
X1357500Y1383949D01*
X1341400Y1375050D02*
G01*
X1352100Y1392849D01*
X1341400Y1392849D02*
G01*
X1352100Y1375050D01*
X1336499Y216950D02*
G01*
X1358000Y216950D01*
X1341899Y208049D02*
G01*
X1352600Y225850D01*
X1341899Y225850D02*
G01*
X1352600Y208049D01*
X1336499Y216950D02*
G01*
X1358000Y216950D01*
X1341899Y208049D02*
G01*
X1352600Y225850D01*
X1341899Y225850D02*
G01*
X1352600Y208049D01*
X1336000Y438949D02*
G01*
X1357500Y438949D01*
X1341400Y430050D02*
G01*
X1352100Y447849D01*
X1341400Y447849D02*
G01*
X1352100Y430050D01*
X1336000Y438949D02*
G01*
X1357500Y438949D01*
X1341400Y430050D02*
G01*
X1352100Y447849D01*
X1341400Y447849D02*
G01*
X1352100Y430050D01*
X1336000Y663949D02*
G01*
X1357500Y663949D01*
X1341400Y655050D02*
G01*
X1352100Y672849D01*
X1341400Y672849D02*
G01*
X1352100Y655050D01*
X1336000Y663949D02*
G01*
X1357500Y663949D01*
X1341400Y655050D02*
G01*
X1352100Y672849D01*
X1341400Y672849D02*
G01*
X1352100Y655050D01*
X163000Y1156050D02*
G01*
X141500Y1156050D01*
X157600Y1164949D02*
G01*
X146900Y1147150D01*
X157600Y1147150D02*
G01*
X146900Y1164949D01*
X163000Y1156050D02*
G01*
X141500Y1156050D01*
X157600Y1164949D02*
G01*
X146900Y1147150D01*
X157600Y1147150D02*
G01*
X146900Y1164949D01*
X163000Y1381050D02*
G01*
X141500Y1381050D01*
X157600Y1389949D02*
G01*
X146900Y1372150D01*
X157600Y1372150D02*
G01*
X146900Y1389949D01*
X163000Y1381050D02*
G01*
X141500Y1381050D01*
X157600Y1389949D02*
G01*
X146900Y1372150D01*
X157600Y1372150D02*
G01*
X146900Y1389949D01*
X163000Y1606050D02*
G01*
X141500Y1606050D01*
X157600Y1614949D02*
G01*
X146900Y1597150D01*
X157600Y1597150D02*
G01*
X146900Y1614949D01*
X163000Y1606050D02*
G01*
X141500Y1606050D01*
X157600Y1614949D02*
G01*
X146900Y1597150D01*
X157600Y1597150D02*
G01*
X146900Y1614949D01*
X163000Y437049D02*
G01*
X141500Y437049D01*
X157600Y445949D02*
G01*
X146900Y428150D01*
X157600Y428150D02*
G01*
X146900Y445949D01*
X163000Y437049D02*
G01*
X141500Y437049D01*
X157600Y445949D02*
G01*
X146900Y428150D01*
X157600Y428150D02*
G01*
X146900Y445949D01*
X163000Y662049D02*
G01*
X141500Y662049D01*
X157600Y670949D02*
G01*
X146900Y653150D01*
X157600Y653150D02*
G01*
X146900Y670949D01*
X163000Y662049D02*
G01*
X141500Y662049D01*
X157600Y670949D02*
G01*
X146900Y653150D01*
X157600Y653150D02*
G01*
X146900Y670949D01*
X163000Y887049D02*
G01*
X141500Y887049D01*
X157600Y895949D02*
G01*
X146900Y878150D01*
X157600Y878150D02*
G01*
X146900Y895949D01*
X163000Y887049D02*
G01*
X141500Y887049D01*
X157600Y895949D02*
G01*
X146900Y878150D01*
X157600Y878150D02*
G01*
X146900Y895949D01*
D11*
X1141999Y950900D02*
G01*
X1141999Y941500D01*
X1328000Y941500D01*
X1328000Y1148499D01*
X1141999Y1148499D01*
X1141999Y1139099D01*
X1141999Y1175900D02*
G01*
X1141999Y1166500D01*
X1328000Y1166500D01*
X1328000Y1373499D01*
X1141999Y1373499D01*
X1141999Y1364099D01*
X1141999Y1400900D02*
G01*
X1141999Y1391500D01*
X1328000Y1391500D01*
X1328000Y1598499D01*
X1141999Y1598499D01*
X1141999Y1589099D01*
X1142500Y233899D02*
G01*
X1142500Y224499D01*
X1328500Y224499D01*
X1328500Y431500D01*
X1142500Y431500D01*
X1142500Y422100D01*
X1141999Y455900D02*
G01*
X1141999Y446500D01*
X1328000Y446500D01*
X1328000Y653499D01*
X1141999Y653499D01*
X1141999Y644099D01*
X1141999Y680900D02*
G01*
X1141999Y671500D01*
X1328000Y671500D01*
X1328000Y878499D01*
X1141999Y878499D01*
X1141999Y869099D01*
X356999Y1139099D02*
G01*
X356999Y1148499D01*
X170999Y1148499D01*
X170999Y941500D01*
X356999Y941500D01*
X356999Y950900D01*
X356999Y1364099D02*
G01*
X356999Y1373499D01*
X170999Y1373499D01*
X170999Y1166500D01*
X356999Y1166500D01*
X356999Y1175900D01*
X356999Y1589099D02*
G01*
X356999Y1598499D01*
X170999Y1598499D01*
X170999Y1391500D01*
X356999Y1391500D01*
X356999Y1400900D01*
X356999Y420100D02*
G01*
X356999Y429499D01*
X170999Y429499D01*
X170999Y222500D01*
X356999Y222500D01*
X356999Y231900D01*
X356999Y645100D02*
G01*
X356999Y654499D01*
X170999Y654499D01*
X170999Y447500D01*
X356999Y447500D01*
X356999Y456900D01*
X356999Y870100D02*
G01*
X356999Y879499D01*
X170999Y879499D01*
X170999Y672500D01*
X356999Y672500D01*
X356999Y681900D01*
D12*
X1102629Y1104094D02*
G01*
X1102629Y1075824D01*
X1063370Y1075824D01*
X1063370Y1104094D01*
X1102629Y1121905D02*
G01*
X1102629Y1150174D01*
X1063370Y1150174D01*
X1063370Y1121905D01*
X1101629Y1335093D02*
G01*
X1101629Y1306824D01*
X1062370Y1306824D01*
X1062370Y1335093D01*
X1101629Y1352905D02*
G01*
X1101629Y1381174D01*
X1062370Y1381174D01*
X1062370Y1352905D01*
X1103130Y1537593D02*
G01*
X1103130Y1509324D01*
X1063869Y1509324D01*
X1063869Y1537593D01*
X1103130Y1555405D02*
G01*
X1103130Y1583674D01*
X1063869Y1583674D01*
X1063869Y1555405D01*
X1101629Y385093D02*
G01*
X1101629Y356824D01*
X1062370Y356824D01*
X1062370Y385093D01*
X1101629Y402905D02*
G01*
X1101629Y431174D01*
X1062370Y431174D01*
X1062370Y402905D01*
X1101629Y611093D02*
G01*
X1101629Y582824D01*
X1062370Y582824D01*
X1062370Y611093D01*
X1101629Y628906D02*
G01*
X1101629Y657175D01*
X1062370Y657175D01*
X1062370Y628906D01*
X1101629Y827094D02*
G01*
X1101629Y798825D01*
X1062370Y798825D01*
X1062370Y827094D01*
X1101629Y844906D02*
G01*
X1101629Y873175D01*
X1062370Y873175D01*
X1062370Y844906D01*
X400369Y980906D02*
G01*
X400369Y1009175D01*
X439630Y1009175D01*
X439630Y980906D01*
X400369Y963094D02*
G01*
X400369Y934825D01*
X439630Y934825D01*
X439630Y963094D01*
X401370Y1211905D02*
G01*
X401370Y1240174D01*
X440630Y1240174D01*
X440630Y1211905D01*
X401370Y1194094D02*
G01*
X401370Y1165824D01*
X440630Y1165824D01*
X440630Y1194094D01*
X407370Y1432905D02*
G01*
X407370Y1461174D01*
X446630Y1461174D01*
X446630Y1432905D01*
X407370Y1415093D02*
G01*
X407370Y1386824D01*
X446630Y1386824D01*
X446630Y1415093D01*
X399369Y265905D02*
G01*
X399369Y294175D01*
X438629Y294175D01*
X438629Y265905D01*
X399369Y248094D02*
G01*
X399369Y219825D01*
X438629Y219825D01*
X438629Y248094D01*
X401370Y488906D02*
G01*
X401370Y517175D01*
X440630Y517175D01*
X440630Y488906D01*
X401370Y471093D02*
G01*
X401370Y442824D01*
X440630Y442824D01*
X440630Y471093D01*
X401370Y707905D02*
G01*
X401370Y736174D01*
X440630Y736174D01*
X440630Y707905D01*
X401370Y690093D02*
G01*
X401370Y661824D01*
X440630Y661824D01*
X440630Y690093D01*
X945924Y872013D02*
G01*
X887461Y872013D01*
X887461Y785981D02*
G01*
X945924Y785981D01*
X951925Y791981D02*
G01*
X951925Y866014D01*
X756066Y872013D02*
G01*
X814530Y872013D01*
X814530Y785981D02*
G01*
X756066Y785981D01*
X750066Y791981D02*
G01*
X750066Y866014D01*
X945924Y786014D02*
G01*
X887461Y786014D01*
X887461Y699982D02*
G01*
X945924Y699982D01*
X951925Y705981D02*
G01*
X951925Y780014D01*
X756066Y786014D02*
G01*
X814530Y786014D01*
X814530Y699982D02*
G01*
X756066Y699982D01*
X750066Y705981D02*
G01*
X750066Y780014D01*
X554067Y785981D02*
G01*
X612530Y785981D01*
X612530Y872013D02*
G01*
X554067Y872013D01*
X548067Y866014D02*
G01*
X548067Y791981D01*
X743924Y785981D02*
G01*
X685461Y785981D01*
X685461Y872013D02*
G01*
X743924Y872013D01*
X749924Y866014D02*
G01*
X749924Y791981D01*
X554067Y699982D02*
G01*
X612530Y699982D01*
X612530Y786014D02*
G01*
X554067Y786014D01*
X548067Y780014D02*
G01*
X548067Y705981D01*
X743924Y699982D02*
G01*
X685461Y699982D01*
X685461Y786014D02*
G01*
X743924Y786014D01*
X749924Y780014D02*
G01*
X749924Y705981D01*
X945924Y700014D02*
G01*
X887461Y700014D01*
X887461Y613982D02*
G01*
X945924Y613982D01*
X951925Y619982D02*
G01*
X951925Y694014D01*
X756066Y700014D02*
G01*
X814530Y700014D01*
X814530Y613982D02*
G01*
X756066Y613982D01*
X750066Y619982D02*
G01*
X750066Y694014D01*
X946229Y1302015D02*
G01*
X887764Y1302015D01*
X887764Y1215983D02*
G01*
X946229Y1215983D01*
X952228Y1221984D02*
G01*
X952228Y1296015D01*
X756370Y1302015D02*
G01*
X814835Y1302015D01*
X814835Y1215983D02*
G01*
X756370Y1215983D01*
X750371Y1221984D02*
G01*
X750371Y1296015D01*
X946229Y1216015D02*
G01*
X887764Y1216015D01*
X887764Y1129983D02*
G01*
X946229Y1129983D01*
X952228Y1135983D02*
G01*
X952228Y1210016D01*
X756370Y1216015D02*
G01*
X814835Y1216015D01*
X814835Y1129983D02*
G01*
X756370Y1129983D01*
X750371Y1135983D02*
G01*
X750371Y1210016D01*
X946229Y1130016D02*
G01*
X887764Y1130016D01*
X887764Y1043984D02*
G01*
X946229Y1043984D01*
X952228Y1049983D02*
G01*
X952228Y1124016D01*
X756370Y1130016D02*
G01*
X814835Y1130016D01*
X814835Y1043984D02*
G01*
X756370Y1043984D01*
X750371Y1049983D02*
G01*
X750371Y1124016D01*
X945924Y614014D02*
G01*
X887461Y614014D01*
X887461Y527982D02*
G01*
X945924Y527982D01*
X951925Y533982D02*
G01*
X951925Y608013D01*
X756066Y614014D02*
G01*
X814530Y614014D01*
X814530Y527982D02*
G01*
X756066Y527982D01*
X750066Y533982D02*
G01*
X750066Y608013D01*
X554067Y527982D02*
G01*
X612530Y527982D01*
X612530Y614014D02*
G01*
X554067Y614014D01*
X548067Y608013D02*
G01*
X548067Y533982D01*
X743924Y527982D02*
G01*
X685461Y527982D01*
X685461Y614014D02*
G01*
X743924Y614014D01*
X749924Y608013D02*
G01*
X749924Y533982D01*
X554371Y1215983D02*
G01*
X612835Y1215983D01*
X612835Y1302015D02*
G01*
X554371Y1302015D01*
X548371Y1296015D02*
G01*
X548371Y1221984D01*
X744229Y1215983D02*
G01*
X685765Y1215983D01*
X685765Y1302015D02*
G01*
X744229Y1302015D01*
X750228Y1296015D02*
G01*
X750228Y1221984D01*
X554371Y1129983D02*
G01*
X612835Y1129983D01*
X612835Y1216015D02*
G01*
X554371Y1216015D01*
X548371Y1210016D02*
G01*
X548371Y1135983D01*
X744229Y1129983D02*
G01*
X685765Y1129983D01*
X685765Y1216015D02*
G01*
X744229Y1216015D01*
X750228Y1210016D02*
G01*
X750228Y1135983D01*
X554371Y1043984D02*
G01*
X612835Y1043984D01*
X612835Y1130016D02*
G01*
X554371Y1130016D01*
X548371Y1124016D02*
G01*
X548371Y1049983D01*
X744229Y1043984D02*
G01*
X685765Y1043984D01*
X685765Y1130016D02*
G01*
X744229Y1130016D01*
X750228Y1124016D02*
G01*
X750228Y1049983D01*
X554371Y957984D02*
G01*
X612835Y957984D01*
X612835Y1044016D02*
G01*
X554371Y1044016D01*
X548371Y1038015D02*
G01*
X548371Y963984D01*
X744229Y957984D02*
G01*
X685765Y957984D01*
X685765Y1044016D02*
G01*
X744229Y1044016D01*
X750228Y1038015D02*
G01*
X750228Y963984D01*
X945924Y528013D02*
G01*
X887461Y528013D01*
X887461Y441981D02*
G01*
X945924Y441981D01*
X951925Y447982D02*
G01*
X951925Y522013D01*
X756066Y528013D02*
G01*
X814530Y528013D01*
X814530Y441981D02*
G01*
X756066Y441981D01*
X750066Y447982D02*
G01*
X750066Y522013D01*
X946229Y958015D02*
G01*
X887764Y958015D01*
X887764Y871984D02*
G01*
X946229Y871984D01*
X952228Y877984D02*
G01*
X952228Y952015D01*
X756370Y958015D02*
G01*
X814835Y958015D01*
X814835Y871984D02*
G01*
X756370Y871984D01*
X750371Y877984D02*
G01*
X750371Y952015D01*
X554371Y871984D02*
G01*
X612835Y871984D01*
X612835Y958015D02*
G01*
X554371Y958015D01*
X548371Y952015D02*
G01*
X548371Y877984D01*
X744229Y871984D02*
G01*
X685765Y871984D01*
X685765Y958015D02*
G01*
X744229Y958015D01*
X750228Y952015D02*
G01*
X750228Y877984D01*
X554771Y1301984D02*
G01*
X613234Y1301984D01*
X613234Y1388015D02*
G01*
X554771Y1388015D01*
X548771Y1382015D02*
G01*
X548771Y1307984D01*
X744628Y1301984D02*
G01*
X686165Y1301984D01*
X686165Y1388015D02*
G01*
X744628Y1388015D01*
X750628Y1382015D02*
G01*
X750628Y1307984D01*
X554771Y1387984D02*
G01*
X613234Y1387984D01*
X613234Y1474016D02*
G01*
X554771Y1474016D01*
X548771Y1468015D02*
G01*
X548771Y1393984D01*
X744628Y1387984D02*
G01*
X686165Y1387984D01*
X686165Y1474016D02*
G01*
X744628Y1474016D01*
X750628Y1468015D02*
G01*
X750628Y1393984D01*
X946229Y1474016D02*
G01*
X887764Y1474016D01*
X887764Y1387984D02*
G01*
X946229Y1387984D01*
X952228Y1393984D02*
G01*
X952228Y1468015D01*
X756370Y1474016D02*
G01*
X814835Y1474016D01*
X814835Y1387984D02*
G01*
X756370Y1387984D01*
X750371Y1393984D02*
G01*
X750371Y1468015D01*
X756370Y1301984D02*
G01*
X814835Y1301984D01*
X814835Y1388015D02*
G01*
X756370Y1388015D01*
X750371Y1382015D02*
G01*
X750371Y1307984D01*
X946229Y1301984D02*
G01*
X887764Y1301984D01*
X887764Y1388015D02*
G01*
X946229Y1388015D01*
X952228Y1382015D02*
G01*
X952228Y1307984D01*
X743924Y700014D02*
G01*
X685461Y700014D01*
X685461Y613982D02*
G01*
X743924Y613982D01*
X749924Y619982D02*
G01*
X749924Y694014D01*
X554067Y700014D02*
G01*
X612530Y700014D01*
X612530Y613982D02*
G01*
X554067Y613982D01*
X548067Y619982D02*
G01*
X548067Y694014D01*
X743924Y528013D02*
G01*
X685461Y528013D01*
X685461Y441981D02*
G01*
X743924Y441981D01*
X749924Y447982D02*
G01*
X749924Y522013D01*
X554067Y528013D02*
G01*
X612530Y528013D01*
X612530Y441981D02*
G01*
X554067Y441981D01*
X548067Y447982D02*
G01*
X548067Y522013D01*
X756370Y957984D02*
G01*
X814835Y957984D01*
X814835Y1044016D02*
G01*
X756370Y1044016D01*
X750371Y1038015D02*
G01*
X750371Y963984D01*
X946229Y957984D02*
G01*
X887764Y957984D01*
X887764Y1044016D02*
G01*
X946229Y1044016D01*
X952228Y1038015D02*
G01*
X952228Y963984D01*
G75*
G01*
X945925Y785982D02*
G03*
X951925Y791982I0J6000D01*
G75*
G01*
X951925Y866014D02*
G03*
X945925Y872014I-6000J0D01*
G75*
G01*
X756067Y785982D02*
G02*
X750067Y791982I0J6000D01*
G75*
G01*
X750067Y866014D02*
G02*
X756067Y872014I6000J0D01*
G75*
G01*
X945925Y699982D02*
G03*
X951925Y705982I0J6000D01*
G75*
G01*
X951925Y780014D02*
G03*
X945925Y786014I-6000J0D01*
G75*
G01*
X756067Y699982D02*
G02*
X750067Y705982I0J6000D01*
G75*
G01*
X750067Y780014D02*
G02*
X756067Y786014I6000J0D01*
G75*
G01*
X554067Y872014D02*
G03*
X548067Y866014I0J-6000D01*
G75*
G01*
X548067Y791982D02*
G03*
X554067Y785982I6000J0D01*
G75*
G01*
X743925Y872014D02*
G02*
X749925Y866014I0J-6000D01*
G75*
G01*
X749925Y791982D02*
G02*
X743925Y785982I-6000J0D01*
G75*
G01*
X554067Y786014D02*
G03*
X548067Y780014I0J-6000D01*
G75*
G01*
X548067Y705982D02*
G03*
X554067Y699982I6000J0D01*
G75*
G01*
X743925Y786014D02*
G02*
X749925Y780014I0J-6000D01*
G75*
G01*
X749925Y705982D02*
G02*
X743925Y699982I-6000J0D01*
G75*
G01*
X945925Y613982D02*
G03*
X951925Y619982I0J6000D01*
G75*
G01*
X951925Y694014D02*
G03*
X945925Y700014I-6000J0D01*
G75*
G01*
X756067Y613982D02*
G02*
X750067Y619982I0J6000D01*
G75*
G01*
X750067Y694014D02*
G02*
X756067Y700014I6000J0D01*
G75*
G01*
X946229Y1215984D02*
G03*
X952229Y1221984I0J6000D01*
G75*
G01*
X952229Y1296016D02*
G03*
X946229Y1302016I-6000J0D01*
G75*
G01*
X756371Y1215984D02*
G02*
X750371Y1221984I0J6000D01*
G75*
G01*
X750371Y1296016D02*
G02*
X756371Y1302016I6000J0D01*
G75*
G01*
X946229Y1129984D02*
G03*
X952229Y1135984I0J6000D01*
G75*
G01*
X952229Y1210016D02*
G03*
X946229Y1216016I-6000J0D01*
G75*
G01*
X756371Y1129984D02*
G02*
X750371Y1135984I0J6000D01*
G75*
G01*
X750371Y1210016D02*
G02*
X756371Y1216016I6000J0D01*
G75*
G01*
X946229Y1043984D02*
G03*
X952229Y1049984I0J6000D01*
G75*
G01*
X952229Y1124016D02*
G03*
X946229Y1130016I-6000J0D01*
G75*
G01*
X756371Y1043984D02*
G02*
X750371Y1049984I0J6000D01*
G75*
G01*
X750371Y1124016D02*
G02*
X756371Y1130016I6000J0D01*
G75*
G01*
X945925Y527982D02*
G03*
X951925Y533982I0J6000D01*
G75*
G01*
X951925Y608014D02*
G03*
X945925Y614014I-6000J0D01*
G75*
G01*
X756067Y527982D02*
G02*
X750067Y533982I0J6000D01*
G75*
G01*
X750067Y608014D02*
G02*
X756067Y614014I6000J0D01*
G75*
G01*
X554067Y614014D02*
G03*
X548067Y608014I0J-6000D01*
G75*
G01*
X548067Y533982D02*
G03*
X554067Y527982I6000J0D01*
G75*
G01*
X743925Y614014D02*
G02*
X749925Y608014I0J-6000D01*
G75*
G01*
X749925Y533982D02*
G02*
X743925Y527982I-6000J0D01*
G75*
G01*
X554371Y1302016D02*
G03*
X548371Y1296016I0J-6000D01*
G75*
G01*
X548371Y1221984D02*
G03*
X554371Y1215984I6000J0D01*
G75*
G01*
X744229Y1302016D02*
G02*
X750229Y1296016I0J-6000D01*
G75*
G01*
X750229Y1221984D02*
G02*
X744229Y1215984I-6000J0D01*
G75*
G01*
X554371Y1216016D02*
G03*
X548371Y1210016I0J-6000D01*
G75*
G01*
X548371Y1135984D02*
G03*
X554371Y1129984I6000J0D01*
G75*
G01*
X744229Y1216016D02*
G02*
X750229Y1210016I0J-6000D01*
G75*
G01*
X750229Y1135984D02*
G02*
X744229Y1129984I-6000J0D01*
G75*
G01*
X554371Y1130016D02*
G03*
X548371Y1124016I0J-6000D01*
G75*
G01*
X548371Y1049984D02*
G03*
X554371Y1043984I6000J0D01*
G75*
G01*
X744229Y1130016D02*
G02*
X750229Y1124016I0J-6000D01*
G75*
G01*
X750229Y1049984D02*
G02*
X744229Y1043984I-6000J0D01*
G75*
G01*
X554371Y1044016D02*
G03*
X548371Y1038016I0J-6000D01*
G75*
G01*
X548371Y963984D02*
G03*
X554371Y957984I6000J0D01*
G75*
G01*
X744229Y1044016D02*
G02*
X750229Y1038016I0J-6000D01*
G75*
G01*
X750229Y963984D02*
G02*
X744229Y957984I-6000J0D01*
G75*
G01*
X945925Y441982D02*
G03*
X951925Y447982I0J6000D01*
G75*
G01*
X951925Y522014D02*
G03*
X945925Y528014I-6000J0D01*
G75*
G01*
X756067Y441982D02*
G02*
X750067Y447982I0J6000D01*
G75*
G01*
X750067Y522014D02*
G02*
X756067Y528014I6000J0D01*
G75*
G01*
X946229Y871984D02*
G03*
X952229Y877984I0J6000D01*
G75*
G01*
X952229Y952016D02*
G03*
X946229Y958016I-6000J0D01*
G75*
G01*
X756371Y871984D02*
G02*
X750371Y877984I0J6000D01*
G75*
G01*
X750371Y952016D02*
G02*
X756371Y958016I6000J0D01*
G75*
G01*
X554371Y958016D02*
G03*
X548371Y952016I0J-6000D01*
G75*
G01*
X548371Y877984D02*
G03*
X554371Y871984I6000J0D01*
G75*
G01*
X744229Y958016D02*
G02*
X750229Y952016I0J-6000D01*
G75*
G01*
X750229Y877984D02*
G02*
X744229Y871984I-6000J0D01*
G75*
G01*
X554771Y1388016D02*
G03*
X548771Y1382016I0J-6000D01*
G75*
G01*
X548771Y1307984D02*
G03*
X554771Y1301984I6000J0D01*
G75*
G01*
X744629Y1388016D02*
G02*
X750629Y1382016I0J-6000D01*
G75*
G01*
X750629Y1307984D02*
G02*
X744629Y1301984I-6000J0D01*
G75*
G01*
X554771Y1474016D02*
G03*
X548771Y1468016I0J-6000D01*
G75*
G01*
X548771Y1393984D02*
G03*
X554771Y1387984I6000J0D01*
G75*
G01*
X744629Y1474016D02*
G02*
X750629Y1468016I0J-6000D01*
G75*
G01*
X750629Y1393984D02*
G02*
X744629Y1387984I-6000J0D01*
G75*
G01*
X946229Y1387984D02*
G03*
X952229Y1393984I0J6000D01*
G75*
G01*
X952229Y1468016D02*
G03*
X946229Y1474016I-6000J0D01*
G75*
G01*
X756371Y1387984D02*
G02*
X750371Y1393984I0J6000D01*
G75*
G01*
X750371Y1468016D02*
G02*
X756371Y1474016I6000J0D01*
G75*
G01*
X756371Y1388016D02*
G03*
X750371Y1382016I0J-6000D01*
G75*
G01*
X750371Y1307984D02*
G03*
X756371Y1301984I6000J0D01*
G75*
G01*
X946229Y1388016D02*
G02*
X952229Y1382016I0J-6000D01*
G75*
G01*
X952229Y1307984D02*
G02*
X946229Y1301984I-6000J0D01*
G75*
G01*
X743925Y613982D02*
G03*
X749925Y619982I0J6000D01*
G75*
G01*
X749925Y694014D02*
G03*
X743925Y700014I-6000J0D01*
G75*
G01*
X554067Y613982D02*
G02*
X548067Y619982I0J6000D01*
G75*
G01*
X548067Y694014D02*
G02*
X554067Y700014I6000J0D01*
G75*
G01*
X743925Y441982D02*
G03*
X749925Y447982I0J6000D01*
G75*
G01*
X749925Y522014D02*
G03*
X743925Y528014I-6000J0D01*
G75*
G01*
X554067Y441982D02*
G02*
X548067Y447982I0J6000D01*
G75*
G01*
X548067Y522014D02*
G02*
X554067Y528014I6000J0D01*
G75*
G01*
X756371Y1044016D02*
G03*
X750371Y1038016I0J-6000D01*
G75*
G01*
X750371Y963984D02*
G03*
X756371Y957984I6000J0D01*
G75*
G01*
X946229Y1044016D02*
G02*
X952229Y1038016I0J-6000D01*
G75*
G01*
X952229Y963984D02*
G02*
X946229Y957984I-6000J0D01*
M02*
