G04 Layer: BottomPasteMaskLayer*
G04 EasyEDA v6.5.22, 2023-04-03 14:03:43*
G04 87db6ba2ad084763a29da5206ccfc978,3cec5f453c3247449836eb28e2eac2c3,10*
G04 Gerber Generator version 0.2*
G04 Scale: 100 percent, Rotated: No, Reflected: No *
G04 Dimensions in inches *
G04 leading zeros omitted , absolute positions ,3 integer and 6 decimal *
%FSLAX36Y36*%
%MOIN*%

%AMMACRO1*4,1,4,0.0817,-0.081,0.0817,0.081,-0.0817,0.081,-0.0817,-0.081,0.0817,-0.081,0*%
%AMMACRO2*4,1,4,-0.0817,0.081,-0.0817,-0.081,0.0817,-0.081,0.0817,0.081,-0.0817,0.081,0*%
%ADD10O,0.043307000000000005X0.026772*%
%ADD11MACRO1*%
%ADD12MACRO2*%

%LPD*%
G36*
X1204880Y423140D02*
G01*
X1203320Y421560D01*
X1203320Y403440D01*
X1204880Y401860D01*
X1224600Y401860D01*
X1226180Y403440D01*
X1226180Y421560D01*
X1224600Y423140D01*
G37*
G36*
X1171400Y423140D02*
G01*
X1169820Y421560D01*
X1169820Y403440D01*
X1171400Y401860D01*
X1191100Y401860D01*
X1192680Y403440D01*
X1192680Y421560D01*
X1191100Y423140D01*
G37*
G36*
X1199880Y647620D02*
G01*
X1198320Y646060D01*
X1198320Y627940D01*
X1199880Y626380D01*
X1219600Y626380D01*
X1221180Y627940D01*
X1221180Y646060D01*
X1219600Y647620D01*
G37*
G36*
X1166400Y647620D02*
G01*
X1164820Y646060D01*
X1164820Y627940D01*
X1166400Y626380D01*
X1186100Y626380D01*
X1187680Y627940D01*
X1187680Y646060D01*
X1186100Y647620D01*
G37*
G36*
X1199880Y882620D02*
G01*
X1198320Y881060D01*
X1198320Y862940D01*
X1199880Y861380D01*
X1219600Y861380D01*
X1221180Y862940D01*
X1221180Y881060D01*
X1219600Y882620D01*
G37*
G36*
X1166400Y882620D02*
G01*
X1164820Y881060D01*
X1164820Y862940D01*
X1166400Y861380D01*
X1186100Y861380D01*
X1187680Y862940D01*
X1187680Y881060D01*
X1186100Y882620D01*
G37*
G36*
X282900Y972140D02*
G01*
X281320Y970560D01*
X281320Y952440D01*
X282900Y950860D01*
X302600Y950860D01*
X304180Y952440D01*
X304180Y970560D01*
X302600Y972140D01*
G37*
G36*
X316400Y972140D02*
G01*
X314820Y970560D01*
X314820Y952440D01*
X316400Y950860D01*
X336100Y950860D01*
X337680Y952440D01*
X337680Y970560D01*
X336100Y972140D01*
G37*
G36*
X280900Y1193620D02*
G01*
X279320Y1192060D01*
X279320Y1173940D01*
X280900Y1172380D01*
X300620Y1172380D01*
X302180Y1173940D01*
X302180Y1192060D01*
X300620Y1193620D01*
G37*
G36*
X314380Y1193620D02*
G01*
X312820Y1192060D01*
X312820Y1173940D01*
X314380Y1172380D01*
X334099Y1172380D01*
X335680Y1173940D01*
X335680Y1192060D01*
X334099Y1193620D01*
G37*
G36*
X281400Y1417140D02*
G01*
X279820Y1415560D01*
X279820Y1397440D01*
X281400Y1395880D01*
X301100Y1395880D01*
X302680Y1397440D01*
X302680Y1415560D01*
X301100Y1417140D01*
G37*
G36*
X314900Y1417140D02*
G01*
X313320Y1415560D01*
X313320Y1397440D01*
X314900Y1395880D01*
X334600Y1395880D01*
X336180Y1397440D01*
X336180Y1415560D01*
X334600Y1417140D01*
G37*
G36*
X293900Y242140D02*
G01*
X292320Y240560D01*
X292320Y222440D01*
X293900Y220859D01*
X313600Y220859D01*
X315180Y222440D01*
X315180Y240560D01*
X313600Y242140D01*
G37*
G36*
X327400Y242140D02*
G01*
X325820Y240560D01*
X325820Y222440D01*
X327400Y220859D01*
X347100Y220859D01*
X348680Y222440D01*
X348680Y240560D01*
X347100Y242140D01*
G37*
G36*
X275400Y456640D02*
G01*
X273820Y455060D01*
X273820Y436940D01*
X275400Y435360D01*
X295100Y435360D01*
X296680Y436940D01*
X296680Y455060D01*
X295100Y456640D01*
G37*
G36*
X308900Y456640D02*
G01*
X307320Y455060D01*
X307320Y436940D01*
X308900Y435360D01*
X328600Y435360D01*
X330180Y436940D01*
X330180Y455060D01*
X328600Y456640D01*
G37*
G36*
X280400Y694640D02*
G01*
X278820Y693060D01*
X278820Y674940D01*
X280400Y673360D01*
X300100Y673360D01*
X301680Y674940D01*
X301680Y693060D01*
X300100Y694640D01*
G37*
G36*
X313900Y694640D02*
G01*
X312320Y693060D01*
X312320Y674940D01*
X313900Y673360D01*
X333600Y673360D01*
X335180Y674940D01*
X335180Y693060D01*
X333600Y694640D01*
G37*
G36*
X1207880Y1153620D02*
G01*
X1206320Y1152060D01*
X1206320Y1133940D01*
X1207880Y1132380D01*
X1227600Y1132380D01*
X1229180Y1133940D01*
X1229180Y1152060D01*
X1227600Y1153620D01*
G37*
G36*
X1174400Y1153620D02*
G01*
X1172820Y1152060D01*
X1172820Y1133940D01*
X1174400Y1132380D01*
X1194120Y1132380D01*
X1195680Y1133940D01*
X1195680Y1152060D01*
X1194120Y1153620D01*
G37*
G36*
X1198900Y1374640D02*
G01*
X1197320Y1373060D01*
X1197320Y1354940D01*
X1198900Y1353380D01*
X1218600Y1353380D01*
X1220180Y1354940D01*
X1220180Y1373060D01*
X1218600Y1374640D01*
G37*
G36*
X1165400Y1374640D02*
G01*
X1163820Y1373060D01*
X1163820Y1354940D01*
X1165400Y1353380D01*
X1185120Y1353380D01*
X1186680Y1354940D01*
X1186680Y1373060D01*
X1185120Y1374640D01*
G37*
G36*
X1198900Y1588140D02*
G01*
X1197320Y1586560D01*
X1197320Y1568440D01*
X1198900Y1566860D01*
X1218600Y1566860D01*
X1220180Y1568440D01*
X1220180Y1586560D01*
X1218600Y1588140D01*
G37*
G36*
X1165400Y1588140D02*
G01*
X1163820Y1586560D01*
X1163820Y1568440D01*
X1165400Y1566860D01*
X1185120Y1566860D01*
X1186680Y1568440D01*
X1186680Y1586560D01*
X1185120Y1588140D01*
G37*
D10*
G01*
X1258649Y970999D03*
G01*
X1258649Y1020999D03*
G01*
X1258649Y1070999D03*
G01*
X1258649Y1120999D03*
D11*
G01*
X1418655Y1046008D03*
D10*
G01*
X1258649Y1195999D03*
G01*
X1258649Y1245999D03*
G01*
X1258649Y1295999D03*
G01*
X1258649Y1345999D03*
D11*
G01*
X1418655Y1271008D03*
D10*
G01*
X1258649Y1420999D03*
G01*
X1258649Y1470999D03*
G01*
X1258649Y1520999D03*
G01*
X1258649Y1570999D03*
D11*
G01*
X1418655Y1496008D03*
D10*
G01*
X1258649Y250999D03*
G01*
X1258649Y300999D03*
G01*
X1258649Y350999D03*
G01*
X1258649Y400999D03*
D11*
G01*
X1418655Y326008D03*
D10*
G01*
X1258649Y476500D03*
G01*
X1258649Y526500D03*
G01*
X1258649Y576500D03*
G01*
X1258649Y626500D03*
D11*
G01*
X1418655Y551507D03*
D10*
G01*
X1258649Y700999D03*
G01*
X1258649Y750999D03*
G01*
X1258649Y800999D03*
G01*
X1258649Y850999D03*
D11*
G01*
X1418655Y776008D03*
D10*
G01*
X240349Y1119000D03*
G01*
X240349Y1069000D03*
G01*
X240349Y1019000D03*
G01*
X240349Y969000D03*
D12*
G01*
X80344Y1043991D03*
D10*
G01*
X240349Y1344000D03*
G01*
X240349Y1294000D03*
G01*
X240349Y1244000D03*
G01*
X240349Y1194000D03*
D12*
G01*
X80344Y1268991D03*
D10*
G01*
X240349Y1569000D03*
G01*
X240349Y1519000D03*
G01*
X240349Y1469000D03*
G01*
X240349Y1419000D03*
D12*
G01*
X80344Y1493991D03*
D10*
G01*
X240349Y400000D03*
G01*
X240349Y350000D03*
G01*
X240349Y300000D03*
G01*
X240349Y250000D03*
D12*
G01*
X80344Y324991D03*
D10*
G01*
X240349Y625000D03*
G01*
X240349Y575000D03*
G01*
X240349Y525000D03*
G01*
X240349Y475000D03*
D12*
G01*
X80344Y549991D03*
D10*
G01*
X239850Y849499D03*
G01*
X239850Y799499D03*
G01*
X239850Y749499D03*
G01*
X239850Y699499D03*
D12*
G01*
X79844Y774492D03*
M02*
