G04 Layer: TopSolderMaskLayer*
G04 EasyEDA v6.5.22, 2023-04-03 14:03:43*
G04 87db6ba2ad084763a29da5206ccfc978,3cec5f453c3247449836eb28e2eac2c3,10*
G04 Gerber Generator version 0.2*
G04 Scale: 100 percent, Rotated: No, Reflected: No *
G04 Dimensions in inches *
G04 leading zeros omitted , absolute positions ,3 integer and 6 decimal *
%FSLAX36Y36*%
%MOIN*%

%AMMACRO1*1,1,$1,$2,$3*1,1,$1,$4,$5*1,1,$1,0-$2,0-$3*1,1,$1,0-$4,0-$5*20,1,$1,$2,$3,$4,$5,0*20,1,$1,$4,$5,0-$2,0-$3,0*20,1,$1,0-$2,0-$3,0-$4,0-$5,0*20,1,$1,0-$4,0-$5,$2,$3,0*4,1,4,$2,$3,$4,$5,0-$2,0-$3,0-$4,0-$5,$2,$3,0*%
%AMMACRO2*4,1,4,-0.0836,-0.083,-0.0836,0.083,0.0836,0.083,0.0836,-0.083,-0.0836,-0.083,0*%
%AMMACRO3*4,1,4,-0.0837,-0.083,-0.0837,0.083,0.0837,0.083,0.0837,-0.083,-0.0837,-0.083,0*%
%ADD10MACRO1,0.0039X-0.05X-0.065X-0.05X0.065*%
%ADD11MACRO1,0.0039X0.05X0.065X0.05X-0.065*%
%ADD12MACRO1,0.0039X-0.0275X-0.035X-0.0275X0.035*%
%ADD13R,0.1790X0.2340*%
%ADD14O,0.04730700000000001X0.030772*%
%ADD15MACRO2*%
%ADD16MACRO3*%
%ADD17MACRO1,0.004X0.0106X-0.0111X-0.0106X-0.0111*%
%ADD18MACRO1,0.004X0.0106X0.0111X-0.0106X0.0111*%
%ADD19MACRO1,0.004X-0.0106X0.0111X0.0106X0.0111*%
%ADD20MACRO1,0.004X-0.0106X-0.0111X0.0106X-0.0111*%
%ADD21MACRO1,0.004X-0.0292X-0.034X-0.0292X0.034*%
%ADD22MACRO1,0.004X0.0292X-0.034X0.0292X0.034*%
%ADD23MACRO1,0.004X0.0292X0.034X0.0292X-0.034*%
%ADD24MACRO1,0.004X-0.0292X0.034X-0.0292X-0.034*%
%ADD25C,0.2039*%
%ADD26C,0.0589*%
%ADD27R,0.0440X0.1740*%
%ADD28MACRO1,0.004X-0.02X-0.085X-0.02X0.085*%

%LPD*%
D10*
G01*
X1450000Y1510999D03*
G01*
X1450000Y1285999D03*
G01*
X1450000Y1060999D03*
G01*
X1450000Y309000D03*
G01*
X1450000Y534000D03*
G01*
X1450000Y759000D03*
D11*
G01*
X50000Y310000D03*
G01*
X50000Y535000D03*
G01*
X50000Y760000D03*
G01*
X50000Y1060999D03*
G01*
X50000Y1285999D03*
G01*
X50000Y1510999D03*
D12*
G01*
X703000Y1605000D03*
G01*
X609000Y1605000D03*
G01*
X796999Y1605000D03*
G01*
X891000Y1605000D03*
G01*
X985000Y1605000D03*
D13*
G01*
X640000Y240000D03*
G01*
X860000Y240000D03*
D12*
G01*
X515000Y1605000D03*
D14*
G01*
X1355349Y970000D03*
G01*
X1355349Y1020000D03*
G01*
X1355349Y1070000D03*
G01*
X1355349Y1120000D03*
D15*
G01*
X1195349Y1045000D03*
D14*
G01*
X1355349Y1195000D03*
G01*
X1355349Y1245000D03*
G01*
X1355349Y1295000D03*
G01*
X1355349Y1345000D03*
D15*
G01*
X1195349Y1270000D03*
D14*
G01*
X1355349Y1420000D03*
G01*
X1355349Y1470000D03*
G01*
X1355349Y1520000D03*
G01*
X1355349Y1570000D03*
D15*
G01*
X1195349Y1495000D03*
D14*
G01*
X1355850Y253000D03*
G01*
X1355850Y303000D03*
G01*
X1355850Y353000D03*
G01*
X1355850Y403000D03*
D15*
G01*
X1195850Y327999D03*
D14*
G01*
X1355349Y475000D03*
G01*
X1355349Y525000D03*
G01*
X1355349Y575000D03*
G01*
X1355349Y625000D03*
D15*
G01*
X1195349Y550000D03*
D14*
G01*
X1355349Y700000D03*
G01*
X1355349Y750000D03*
G01*
X1355349Y800000D03*
G01*
X1355349Y850000D03*
D15*
G01*
X1195349Y775000D03*
D14*
G01*
X143649Y1120000D03*
G01*
X143649Y1070000D03*
G01*
X143649Y1020000D03*
G01*
X143649Y970000D03*
D16*
G01*
X303650Y1045000D03*
D14*
G01*
X143649Y1345000D03*
G01*
X143649Y1295000D03*
G01*
X143649Y1245000D03*
G01*
X143649Y1195000D03*
D16*
G01*
X303650Y1270000D03*
D14*
G01*
X143649Y1570000D03*
G01*
X143649Y1520000D03*
G01*
X143649Y1470000D03*
G01*
X143649Y1420000D03*
D16*
G01*
X303650Y1495000D03*
D14*
G01*
X143649Y400999D03*
G01*
X143649Y350999D03*
G01*
X143649Y300999D03*
G01*
X143649Y250999D03*
D16*
G01*
X303650Y326000D03*
D14*
G01*
X143649Y625999D03*
G01*
X143649Y575999D03*
G01*
X143649Y525999D03*
G01*
X143649Y475999D03*
D16*
G01*
X303650Y551000D03*
D14*
G01*
X143649Y850999D03*
G01*
X143649Y800999D03*
G01*
X143649Y750999D03*
G01*
X143649Y700999D03*
D16*
G01*
X303650Y776000D03*
D17*
G01*
X1083000Y1130040D03*
D18*
G01*
X1083000Y1095959D03*
D17*
G01*
X1081999Y1361040D03*
D18*
G01*
X1081999Y1326959D03*
D17*
G01*
X1083499Y1563540D03*
D18*
G01*
X1083499Y1529459D03*
D17*
G01*
X1081999Y411040D03*
D18*
G01*
X1081999Y376959D03*
D17*
G01*
X1081999Y637040D03*
D18*
G01*
X1081999Y602959D03*
D17*
G01*
X1081999Y853040D03*
D18*
G01*
X1081999Y818959D03*
D19*
G01*
X420000Y954959D03*
D20*
G01*
X420000Y989040D03*
D19*
G01*
X420999Y1185959D03*
D20*
G01*
X420999Y1220040D03*
D19*
G01*
X427000Y1406959D03*
D20*
G01*
X427000Y1441040D03*
D19*
G01*
X419000Y239959D03*
D20*
G01*
X419000Y274040D03*
D19*
G01*
X420999Y462959D03*
D20*
G01*
X420999Y497040D03*
D19*
G01*
X420999Y681959D03*
D20*
G01*
X420999Y716040D03*
D21*
G01*
X913692Y828997D03*
D22*
G01*
X788298Y828997D03*
D21*
G01*
X913692Y742998D03*
D22*
G01*
X788298Y742998D03*
D23*
G01*
X586299Y828997D03*
D24*
G01*
X711693Y828997D03*
D23*
G01*
X586299Y742998D03*
D24*
G01*
X711693Y742998D03*
D21*
G01*
X913692Y656998D03*
D22*
G01*
X788298Y656998D03*
D21*
G01*
X913996Y1258999D03*
D22*
G01*
X788602Y1258999D03*
D21*
G01*
X913996Y1172999D03*
D22*
G01*
X788602Y1172999D03*
D21*
G01*
X913996Y1087000D03*
D22*
G01*
X788602Y1087000D03*
D21*
G01*
X913692Y570997D03*
D22*
G01*
X788298Y570997D03*
D23*
G01*
X586299Y570997D03*
D24*
G01*
X711693Y570997D03*
D23*
G01*
X586603Y1258999D03*
D24*
G01*
X711996Y1258999D03*
D23*
G01*
X586603Y1172999D03*
D24*
G01*
X711996Y1172999D03*
D23*
G01*
X586603Y1087000D03*
D24*
G01*
X711996Y1087000D03*
D23*
G01*
X586603Y1001000D03*
D24*
G01*
X711996Y1001000D03*
D21*
G01*
X913692Y484998D03*
D22*
G01*
X788298Y484998D03*
D21*
G01*
X913996Y915000D03*
D22*
G01*
X788602Y915000D03*
D23*
G01*
X586603Y915000D03*
D24*
G01*
X711996Y915000D03*
D23*
G01*
X587002Y1345000D03*
D24*
G01*
X712396Y1345000D03*
D23*
G01*
X587002Y1431000D03*
D24*
G01*
X712396Y1431000D03*
D21*
G01*
X913996Y1431000D03*
D22*
G01*
X788602Y1431000D03*
D23*
G01*
X788602Y1345000D03*
D24*
G01*
X913996Y1345000D03*
D21*
G01*
X711693Y656998D03*
D22*
G01*
X586299Y656998D03*
D21*
G01*
X711693Y484998D03*
D22*
G01*
X586299Y484998D03*
D23*
G01*
X788602Y1001000D03*
D24*
G01*
X913996Y1001000D03*
D25*
G01*
X640000Y74000D03*
G01*
X860000Y74000D03*
D26*
G01*
X703000Y1645000D03*
G01*
X796999Y1645000D03*
G01*
X609000Y1645000D03*
G01*
X985000Y1645000D03*
G01*
X891000Y1645000D03*
G01*
X515000Y1645000D03*
D27*
G01*
X0Y1504000D03*
D28*
G01*
X0Y1279059D03*
G01*
X0Y1054059D03*
D27*
G01*
X0Y766500D03*
G01*
X0Y541999D03*
G01*
X0Y316999D03*
G01*
X1500000Y316500D03*
G01*
X1500000Y541500D03*
G01*
X1500000Y765999D03*
D28*
G01*
X1500000Y1054490D03*
G01*
X1500000Y1279490D03*
D27*
G01*
X1500000Y1504499D03*
M02*
