G04 Layer: TopLayer*
G04 EasyEDA v6.5.22, 2023-04-03 14:03:43*
G04 87db6ba2ad084763a29da5206ccfc978,3cec5f453c3247449836eb28e2eac2c3,10*
G04 Gerber Generator version 0.2*
G04 Scale: 100 percent, Rotated: No, Reflected: No *
G04 Dimensions in inches *
G04 leading zeros omitted , absolute positions ,3 integer and 6 decimal *
%FSLAX36Y36*%
%MOIN*%

%AMMACRO1*4,1,4,-0.0817,-0.081,-0.0817,0.081,0.0817,0.081,0.0817,-0.081,-0.0817,-0.081,0*%
%AMMACRO2*4,1,4,0.0817,0.081,0.0817,-0.081,-0.0817,-0.081,-0.0817,0.081,0.0817,0.081,0*%
%AMMACRO3*21,1,$1,$2,0,0,$3*%
%ADD10C,0.0350*%
%ADD11C,0.0080*%
%ADD12R,0.1000X0.1300*%
%ADD13R,0.0550X0.0700*%
%ADD14R,0.1750X0.2300*%
%ADD15O,0.043307000000000005X0.026772*%
%ADD16MACRO1*%
%ADD17MACRO2*%
%ADD18MACRO3,0.0213X0.0223X0.0000*%
%ADD19R,0.0213X0.0223*%
%ADD20MACRO3,0.068X0.0585X90.0000*%
%ADD21MACRO3,0.068X0.0585X-90.0000*%
%ADD22C,0.2000*%
%ADD23C,0.0550*%
%ADD24R,0.0400X0.1700*%
%ADD25C,0.0240*%
%ADD26C,0.0103*%

%LPD*%
G36*
X169180Y1585960D02*
G01*
X167540Y1586040D01*
X166080Y1586780D01*
X165040Y1588060D01*
X164720Y1588640D01*
X163420Y1590120D01*
X161800Y1591240D01*
X159960Y1591940D01*
X157760Y1592200D01*
X29800Y1592200D01*
X28480Y1592420D01*
X27300Y1593080D01*
X25099Y1595400D01*
X23540Y1596360D01*
X21820Y1596960D01*
X19780Y1597200D01*
X14200Y1597200D01*
X12660Y1597500D01*
X11379Y1598380D01*
X10500Y1599660D01*
X10200Y1601200D01*
X10200Y1605800D01*
X10500Y1607340D01*
X11379Y1608620D01*
X12660Y1609500D01*
X14200Y1609800D01*
X181640Y1609800D01*
X183359Y1609420D01*
X184740Y1608340D01*
X185520Y1606780D01*
X185580Y1605020D01*
X184860Y1603420D01*
X183540Y1602280D01*
X180880Y1600840D01*
X178060Y1598580D01*
X175680Y1595860D01*
X173820Y1592760D01*
X171900Y1587680D01*
X170720Y1586540D01*
G37*

%LPD*%
G36*
X170859Y1542560D02*
G01*
X169140Y1542640D01*
X167620Y1543460D01*
X166580Y1544820D01*
X166200Y1546500D01*
X166200Y1549500D01*
X166580Y1551180D01*
X167620Y1552540D01*
X169140Y1553360D01*
X170859Y1553440D01*
X172460Y1552800D01*
X173640Y1551540D01*
X174520Y1550060D01*
X175020Y1548720D01*
X175020Y1547280D01*
X174520Y1545940D01*
X173640Y1544460D01*
X172460Y1543200D01*
G37*

%LPD*%
G36*
X1328400Y1533280D02*
G01*
X1326920Y1533540D01*
X1325620Y1534340D01*
X1324720Y1535540D01*
X1324019Y1537400D01*
X1324019Y1538600D01*
X1324360Y1539740D01*
X1325200Y1541459D01*
X1326120Y1542680D01*
X1327420Y1543480D01*
X1328920Y1543720D01*
X1330420Y1543380D01*
X1331680Y1542500D01*
X1332500Y1541220D01*
X1332800Y1539720D01*
X1332800Y1537760D01*
X1332500Y1536240D01*
X1331620Y1534940D01*
X1329880Y1533600D01*
G37*

%LPD*%
G36*
X170859Y1494560D02*
G01*
X169140Y1494640D01*
X167620Y1495460D01*
X166580Y1496819D01*
X166200Y1498500D01*
X166200Y1501500D01*
X166580Y1503180D01*
X167620Y1504540D01*
X169140Y1505360D01*
X170859Y1505440D01*
X172460Y1504800D01*
X173640Y1503540D01*
X174520Y1502060D01*
X175020Y1500720D01*
X175020Y1499280D01*
X174520Y1497940D01*
X173640Y1496459D01*
X172460Y1495200D01*
G37*

%LPD*%
G36*
X1328920Y1484280D02*
G01*
X1327420Y1484520D01*
X1326120Y1485320D01*
X1325200Y1486540D01*
X1324360Y1488260D01*
X1324019Y1489400D01*
X1324019Y1490600D01*
X1324360Y1491740D01*
X1325200Y1493460D01*
X1326120Y1494680D01*
X1327420Y1495480D01*
X1328920Y1495720D01*
X1330420Y1495380D01*
X1331680Y1494500D01*
X1332500Y1493220D01*
X1332800Y1491720D01*
X1332800Y1488280D01*
X1332500Y1486780D01*
X1331680Y1485500D01*
X1330420Y1484620D01*
G37*

%LPD*%
G36*
X170859Y1446560D02*
G01*
X169140Y1446639D01*
X167620Y1447460D01*
X166580Y1448820D01*
X166200Y1450500D01*
X166200Y1452240D01*
X166500Y1453760D01*
X167380Y1455060D01*
X169040Y1456360D01*
X170440Y1456699D01*
X171880Y1456519D01*
X173160Y1455840D01*
X174100Y1454760D01*
X174520Y1454060D01*
X175020Y1452720D01*
X175020Y1451279D01*
X174520Y1449940D01*
X173640Y1448460D01*
X172460Y1447200D01*
G37*

%LPD*%
G36*
X14200Y1437000D02*
G01*
X12660Y1437300D01*
X11379Y1438180D01*
X10500Y1439460D01*
X10200Y1441000D01*
X10200Y1580000D01*
X10500Y1581540D01*
X11379Y1582820D01*
X12660Y1583700D01*
X14200Y1584000D01*
X154000Y1584000D01*
X155540Y1583700D01*
X156820Y1582820D01*
X157700Y1581540D01*
X158000Y1580000D01*
X158000Y1445400D01*
X157660Y1443800D01*
X156700Y1442460D01*
X155280Y1441620D01*
X153660Y1441420D01*
X151740Y1441579D01*
X135560Y1441579D01*
X131640Y1441240D01*
X128000Y1440260D01*
X124600Y1438680D01*
X123240Y1437720D01*
X122140Y1437180D01*
X120940Y1437000D01*
G37*

%LPD*%
G36*
X1328920Y1436279D02*
G01*
X1327420Y1436519D01*
X1326120Y1437320D01*
X1325200Y1438540D01*
X1324360Y1440260D01*
X1324019Y1441399D01*
X1324019Y1442600D01*
X1324360Y1443740D01*
X1325200Y1445460D01*
X1326120Y1446680D01*
X1327420Y1447480D01*
X1328920Y1447720D01*
X1330420Y1447380D01*
X1331680Y1446500D01*
X1332500Y1445220D01*
X1332800Y1443720D01*
X1332800Y1440280D01*
X1332500Y1438779D01*
X1331680Y1437500D01*
X1330420Y1436620D01*
G37*

%LPD*%
G36*
X178720Y1413700D02*
G01*
X177180Y1414000D01*
X175880Y1414880D01*
X174579Y1416160D01*
X173720Y1417480D01*
X173420Y1419040D01*
X173440Y1420820D01*
X173840Y1422560D01*
X174960Y1423920D01*
X176560Y1424680D01*
X178340Y1424680D01*
X179940Y1423920D01*
X180880Y1423160D01*
X184520Y1421240D01*
X185840Y1420100D01*
X186560Y1418480D01*
X186520Y1416740D01*
X185740Y1415160D01*
X184360Y1414079D01*
X182640Y1413700D01*
G37*

%LPD*%
G36*
X1345000Y1407000D02*
G01*
X1343460Y1407300D01*
X1342180Y1408180D01*
X1341300Y1409460D01*
X1341000Y1411000D01*
X1341000Y1544600D01*
X1341339Y1546200D01*
X1342300Y1547540D01*
X1343720Y1548380D01*
X1345340Y1548580D01*
X1347260Y1548420D01*
X1363440Y1548420D01*
X1367360Y1548760D01*
X1371000Y1549740D01*
X1374400Y1551320D01*
X1377480Y1553480D01*
X1380140Y1556140D01*
X1382300Y1559220D01*
X1383880Y1562620D01*
X1384860Y1566260D01*
X1385180Y1570000D01*
X1384960Y1572660D01*
X1385160Y1574280D01*
X1385980Y1575700D01*
X1387320Y1576660D01*
X1388940Y1577000D01*
X1485800Y1577000D01*
X1487340Y1576699D01*
X1488620Y1575820D01*
X1489500Y1574540D01*
X1489800Y1573000D01*
X1489800Y1411000D01*
X1489500Y1409460D01*
X1488620Y1408180D01*
X1487340Y1407300D01*
X1485800Y1407000D01*
G37*

%LPD*%
G36*
X169280Y1314840D02*
G01*
X167719Y1315120D01*
X166400Y1315980D01*
X165520Y1317300D01*
X165200Y1318839D01*
X165200Y1326240D01*
X165500Y1327760D01*
X166620Y1329319D01*
X167940Y1330200D01*
X169500Y1330480D01*
X171060Y1330140D01*
X172360Y1329240D01*
X173200Y1327900D01*
X173820Y1326240D01*
X174520Y1325060D01*
X175020Y1323720D01*
X175020Y1322280D01*
X174520Y1320940D01*
X173820Y1319760D01*
X172940Y1317440D01*
X172100Y1316100D01*
X170820Y1315180D01*
G37*

%LPD*%
G36*
X169280Y1266840D02*
G01*
X167719Y1267120D01*
X166400Y1267980D01*
X165520Y1269300D01*
X165200Y1270840D01*
X165200Y1276240D01*
X165500Y1277760D01*
X166380Y1279060D01*
X167160Y1279860D01*
X168400Y1280700D01*
X169840Y1281020D01*
X171300Y1280820D01*
X172580Y1280080D01*
X173520Y1278920D01*
X174620Y1276900D01*
X175040Y1275600D01*
X175020Y1274220D01*
X174520Y1272940D01*
X173820Y1271760D01*
X172940Y1269440D01*
X172100Y1268100D01*
X170820Y1267180D01*
G37*

%LPD*%
G36*
X169280Y1218840D02*
G01*
X167719Y1219120D01*
X166400Y1219980D01*
X165520Y1221300D01*
X165200Y1222840D01*
X165200Y1226240D01*
X165500Y1227760D01*
X166380Y1229060D01*
X167840Y1230540D01*
X169040Y1231360D01*
X170440Y1231700D01*
X171880Y1231520D01*
X173160Y1230840D01*
X174100Y1229760D01*
X174520Y1229060D01*
X175020Y1227720D01*
X175020Y1226280D01*
X174520Y1224940D01*
X173820Y1223760D01*
X172940Y1221440D01*
X172100Y1220100D01*
X170820Y1219180D01*
G37*

%LPD*%
G36*
X14200Y1212000D02*
G01*
X12660Y1212300D01*
X11379Y1213180D01*
X10500Y1214460D01*
X10200Y1216000D01*
X10200Y1355000D01*
X10500Y1356540D01*
X11379Y1357820D01*
X12660Y1358700D01*
X14200Y1359000D01*
X153000Y1359000D01*
X154540Y1358700D01*
X155820Y1357820D01*
X156700Y1356540D01*
X157000Y1355000D01*
X157000Y1220500D01*
X156660Y1218880D01*
X155700Y1217540D01*
X154280Y1216700D01*
X152660Y1216500D01*
X151740Y1216580D01*
X135560Y1216580D01*
X131640Y1216240D01*
X128000Y1215260D01*
X124600Y1213680D01*
X123240Y1212720D01*
X122140Y1212180D01*
X120940Y1212000D01*
G37*

%LPD*%
G36*
X1342000Y1180840D02*
G01*
X1340460Y1181140D01*
X1339180Y1182020D01*
X1338300Y1183320D01*
X1338000Y1184840D01*
X1338000Y1319980D01*
X1338260Y1321399D01*
X1339019Y1322640D01*
X1340180Y1323540D01*
X1341579Y1323959D01*
X1347260Y1323420D01*
X1363440Y1323420D01*
X1367360Y1323760D01*
X1371000Y1324740D01*
X1374400Y1326320D01*
X1377480Y1328480D01*
X1380140Y1331140D01*
X1382300Y1334220D01*
X1383880Y1337620D01*
X1384860Y1341260D01*
X1385180Y1345000D01*
X1385060Y1346500D01*
X1385260Y1348120D01*
X1386100Y1349540D01*
X1387420Y1350500D01*
X1389040Y1350840D01*
X1485800Y1350840D01*
X1487340Y1350540D01*
X1488620Y1349680D01*
X1489500Y1348380D01*
X1489800Y1346840D01*
X1489800Y1184840D01*
X1489500Y1183320D01*
X1488620Y1182020D01*
X1487340Y1181140D01*
X1485800Y1180840D01*
G37*

%LPD*%
G36*
X169200Y1135540D02*
G01*
X167580Y1135580D01*
X166119Y1136260D01*
X164480Y1137600D01*
X163720Y1138820D01*
X162420Y1140280D01*
X160799Y1141400D01*
X158960Y1142100D01*
X156760Y1142380D01*
X29720Y1142380D01*
X28440Y1142580D01*
X27280Y1143200D01*
X25099Y1145440D01*
X23540Y1146420D01*
X21820Y1147020D01*
X19780Y1147260D01*
X14200Y1147260D01*
X12660Y1147560D01*
X11379Y1148420D01*
X10500Y1149720D01*
X10200Y1151260D01*
X10200Y1181860D01*
X10500Y1183380D01*
X11379Y1184680D01*
X12660Y1185560D01*
X14200Y1185860D01*
X19780Y1185860D01*
X21820Y1186080D01*
X23540Y1186700D01*
X25099Y1187660D01*
X26400Y1188960D01*
X27360Y1190500D01*
X27960Y1192240D01*
X28200Y1194280D01*
X28200Y1199800D01*
X28500Y1201340D01*
X29380Y1202620D01*
X30660Y1203500D01*
X32200Y1203800D01*
X110280Y1203800D01*
X111720Y1203540D01*
X112960Y1202780D01*
X113840Y1201620D01*
X114260Y1200220D01*
X113820Y1195000D01*
X114140Y1191260D01*
X115120Y1187620D01*
X116700Y1184220D01*
X118859Y1181140D01*
X121519Y1178480D01*
X124600Y1176320D01*
X128000Y1174740D01*
X131640Y1173760D01*
X135560Y1173420D01*
X151740Y1173420D01*
X155660Y1173760D01*
X159600Y1174820D01*
X160980Y1174940D01*
X162340Y1174580D01*
X163460Y1173780D01*
X173260Y1163980D01*
X174800Y1162680D01*
X177040Y1161380D01*
X179460Y1160580D01*
X182880Y1160240D01*
X184480Y1159720D01*
X185740Y1158580D01*
X186420Y1157040D01*
X186380Y1155360D01*
X185660Y1153820D01*
X184380Y1152740D01*
X180880Y1150840D01*
X178060Y1148580D01*
X175680Y1145860D01*
X173820Y1142760D01*
X172540Y1139360D01*
X172440Y1138760D01*
X171840Y1137260D01*
X170680Y1136120D01*
G37*

%LPD*%
G36*
X1381459Y1134200D02*
G01*
X1379940Y1134500D01*
X1378640Y1135380D01*
X1377480Y1136520D01*
X1374400Y1138680D01*
X1371000Y1140260D01*
X1367360Y1141240D01*
X1363440Y1141580D01*
X1347260Y1141580D01*
X1343340Y1141240D01*
X1339700Y1140260D01*
X1335000Y1138080D01*
X1333620Y1137960D01*
X1332280Y1138320D01*
X1331140Y1139100D01*
X1319240Y1151020D01*
X1317700Y1152320D01*
X1315460Y1153620D01*
X1313460Y1154280D01*
X1312060Y1155060D01*
X1311100Y1156340D01*
X1310700Y1157900D01*
X1310960Y1159480D01*
X1311800Y1160840D01*
X1313120Y1161760D01*
X1316560Y1163220D01*
X1319580Y1165220D01*
X1322200Y1167720D01*
X1324319Y1170640D01*
X1325900Y1173900D01*
X1326840Y1175160D01*
X1328180Y1175960D01*
X1329740Y1176160D01*
X1331240Y1175780D01*
X1332580Y1174720D01*
X1334199Y1173600D01*
X1336040Y1172900D01*
X1338240Y1172640D01*
X1485800Y1172640D01*
X1487340Y1172340D01*
X1488620Y1171480D01*
X1489500Y1170180D01*
X1489800Y1168640D01*
X1489800Y1151680D01*
X1489500Y1150160D01*
X1488620Y1148860D01*
X1487340Y1148000D01*
X1485800Y1147680D01*
X1480220Y1147680D01*
X1478180Y1147460D01*
X1476459Y1146860D01*
X1474900Y1145880D01*
X1473600Y1144580D01*
X1472640Y1143040D01*
X1472040Y1141300D01*
X1471800Y1139260D01*
X1471800Y1138200D01*
X1471500Y1136660D01*
X1470620Y1135380D01*
X1469340Y1134500D01*
X1467800Y1134200D01*
G37*

%LPD*%
G36*
X169280Y1089840D02*
G01*
X167719Y1090120D01*
X166400Y1090980D01*
X165520Y1092300D01*
X165200Y1093840D01*
X165200Y1101240D01*
X165500Y1102760D01*
X166620Y1104320D01*
X167940Y1105200D01*
X169500Y1105480D01*
X171060Y1105140D01*
X172360Y1104240D01*
X173200Y1102900D01*
X173820Y1101240D01*
X174520Y1100060D01*
X175020Y1098720D01*
X175020Y1097280D01*
X174520Y1095940D01*
X173820Y1094760D01*
X172940Y1092440D01*
X172100Y1091100D01*
X170820Y1090180D01*
G37*

%LPD*%
G36*
X169280Y1041840D02*
G01*
X167719Y1042120D01*
X166400Y1042980D01*
X165520Y1044300D01*
X165200Y1045840D01*
X165200Y1051240D01*
X165500Y1052760D01*
X166380Y1054060D01*
X167160Y1054860D01*
X168400Y1055700D01*
X169840Y1056020D01*
X171300Y1055820D01*
X172580Y1055080D01*
X173520Y1053920D01*
X174620Y1051900D01*
X175040Y1050600D01*
X175020Y1049220D01*
X174520Y1047940D01*
X173820Y1046760D01*
X172940Y1044440D01*
X172100Y1043100D01*
X170820Y1042180D01*
G37*

%LPD*%
G36*
X169280Y993840D02*
G01*
X167719Y994120D01*
X166400Y994980D01*
X165520Y996300D01*
X165200Y997840D01*
X165200Y1001240D01*
X165500Y1002760D01*
X166380Y1004060D01*
X167840Y1005540D01*
X169040Y1006360D01*
X170440Y1006700D01*
X171880Y1006520D01*
X173160Y1005840D01*
X174100Y1004760D01*
X174520Y1004060D01*
X175020Y1002720D01*
X175020Y1001280D01*
X174520Y999940D01*
X173820Y998760D01*
X172940Y996440D01*
X172100Y995100D01*
X170820Y994180D01*
G37*

%LPD*%
G36*
X14200Y987180D02*
G01*
X12660Y987480D01*
X11379Y988340D01*
X10500Y989640D01*
X10200Y991180D01*
X10200Y1130180D01*
X10500Y1131700D01*
X11379Y1133000D01*
X12660Y1133860D01*
X14200Y1134180D01*
X153000Y1134180D01*
X154540Y1133860D01*
X155820Y1133000D01*
X156700Y1131700D01*
X157000Y1130180D01*
X157000Y995500D01*
X156660Y993880D01*
X155700Y992540D01*
X154280Y991700D01*
X152660Y991500D01*
X151740Y991580D01*
X135560Y991580D01*
X131640Y991240D01*
X128000Y990260D01*
X124600Y988680D01*
X123480Y987900D01*
X122380Y987360D01*
X121180Y987180D01*
G37*

%LPD*%
G36*
X1344000Y956000D02*
G01*
X1342460Y956300D01*
X1341180Y957180D01*
X1340300Y958460D01*
X1340000Y960000D01*
X1340000Y1094680D01*
X1340340Y1096300D01*
X1341300Y1097640D01*
X1342720Y1098480D01*
X1344340Y1098660D01*
X1347260Y1098420D01*
X1363440Y1098420D01*
X1367360Y1098760D01*
X1371000Y1099740D01*
X1374400Y1101320D01*
X1377480Y1103480D01*
X1380140Y1106140D01*
X1382300Y1109220D01*
X1383880Y1112620D01*
X1384860Y1116260D01*
X1385180Y1120000D01*
X1385040Y1121660D01*
X1385240Y1123280D01*
X1386080Y1124700D01*
X1387420Y1125660D01*
X1389019Y1126000D01*
X1485800Y1126000D01*
X1487340Y1125700D01*
X1488620Y1124820D01*
X1489500Y1123540D01*
X1489800Y1122000D01*
X1489800Y960000D01*
X1489500Y958460D01*
X1488620Y957180D01*
X1487340Y956300D01*
X1485800Y956000D01*
G37*

%LPD*%
G36*
X14200Y696000D02*
G01*
X12660Y696300D01*
X11379Y697180D01*
X10500Y698460D01*
X10200Y700000D01*
X10200Y861000D01*
X10500Y862540D01*
X11379Y863820D01*
X12660Y864700D01*
X14200Y865000D01*
X155000Y865000D01*
X156540Y864700D01*
X157820Y863820D01*
X158700Y862540D01*
X159000Y861000D01*
X159000Y726320D01*
X158660Y724700D01*
X157700Y723360D01*
X156280Y722520D01*
X154660Y722340D01*
X151740Y722580D01*
X135560Y722580D01*
X131640Y722240D01*
X128000Y721260D01*
X124600Y719680D01*
X121519Y717520D01*
X118859Y714860D01*
X116700Y711780D01*
X115120Y708379D01*
X114140Y704740D01*
X113820Y701000D01*
X113880Y700340D01*
X113680Y698720D01*
X112840Y697300D01*
X111500Y696340D01*
X109880Y696000D01*
G37*

%LPD*%
G36*
X177260Y694200D02*
G01*
X175660Y694539D01*
X174320Y695500D01*
X173480Y696919D01*
X173280Y698540D01*
X173619Y702980D01*
X174360Y704340D01*
X175539Y705300D01*
X177020Y705759D01*
X178560Y705620D01*
X179940Y704920D01*
X180880Y704160D01*
X184060Y702440D01*
X185400Y702000D01*
X186800Y701220D01*
X187780Y699940D01*
X188160Y698379D01*
X187920Y696800D01*
X187060Y695440D01*
X185740Y694520D01*
X184180Y694200D01*
G37*

%LPD*%
G36*
X1343000Y686080D02*
G01*
X1341459Y686380D01*
X1340180Y687260D01*
X1339300Y688560D01*
X1339000Y690080D01*
X1339000Y824780D01*
X1339340Y826380D01*
X1340300Y827720D01*
X1341720Y828560D01*
X1343340Y828760D01*
X1347260Y828420D01*
X1363440Y828420D01*
X1367360Y828760D01*
X1371000Y829740D01*
X1374400Y831320D01*
X1377320Y833360D01*
X1378400Y833900D01*
X1379600Y834080D01*
X1485800Y834080D01*
X1487340Y833780D01*
X1488620Y832920D01*
X1489500Y831620D01*
X1489800Y830080D01*
X1489800Y690080D01*
X1489500Y688560D01*
X1488620Y687260D01*
X1487340Y686380D01*
X1485800Y686080D01*
G37*

%LPD*%
G36*
X14200Y472080D02*
G01*
X12660Y472400D01*
X11379Y473260D01*
X10500Y474560D01*
X10200Y476079D01*
X10200Y637080D01*
X10500Y638620D01*
X11379Y639920D01*
X12660Y640780D01*
X14200Y641080D01*
X157000Y641080D01*
X158540Y640780D01*
X159820Y639920D01*
X160700Y638620D01*
X161000Y637080D01*
X161000Y501019D01*
X160740Y499600D01*
X159980Y498360D01*
X158820Y497460D01*
X157420Y497040D01*
X151740Y497580D01*
X135560Y497580D01*
X131640Y497239D01*
X128000Y496260D01*
X124600Y494680D01*
X121519Y492520D01*
X118859Y489860D01*
X116700Y486780D01*
X115120Y483380D01*
X114140Y479739D01*
X113800Y475740D01*
X113400Y474320D01*
X112500Y473140D01*
X111260Y472360D01*
X109800Y472080D01*
G37*

%LPD*%
G36*
X177260Y469200D02*
G01*
X175660Y469540D01*
X174320Y470500D01*
X173480Y471920D01*
X173280Y473540D01*
X173619Y477980D01*
X174360Y479340D01*
X175539Y480300D01*
X177020Y480760D01*
X178560Y480620D01*
X179940Y479920D01*
X180880Y479159D01*
X184060Y477440D01*
X185400Y477000D01*
X186800Y476220D01*
X187780Y474940D01*
X188160Y473380D01*
X187920Y471800D01*
X187060Y470439D01*
X185740Y469520D01*
X184180Y469200D01*
G37*

%LPD*%
G36*
X1343000Y461260D02*
G01*
X1341459Y461580D01*
X1340180Y462440D01*
X1339300Y463740D01*
X1339000Y465260D01*
X1339000Y599780D01*
X1339340Y601380D01*
X1340300Y602720D01*
X1341720Y603560D01*
X1343340Y603760D01*
X1347260Y603420D01*
X1363440Y603420D01*
X1367360Y603760D01*
X1371000Y604740D01*
X1374400Y606320D01*
X1377580Y608540D01*
X1378680Y609080D01*
X1379880Y609260D01*
X1485800Y609260D01*
X1487340Y608960D01*
X1488620Y608100D01*
X1489500Y606800D01*
X1489800Y605260D01*
X1489800Y465260D01*
X1489500Y463740D01*
X1488620Y462440D01*
X1487340Y461580D01*
X1485800Y461260D01*
G37*

%LPD*%
G36*
X1388680Y392200D02*
G01*
X1387240Y392460D01*
X1386000Y393220D01*
X1385120Y394380D01*
X1384700Y395780D01*
X1384820Y397239D01*
X1385360Y399260D01*
X1385680Y403000D01*
X1385360Y406740D01*
X1384379Y410379D01*
X1382800Y413780D01*
X1380640Y416860D01*
X1377980Y419520D01*
X1374900Y421680D01*
X1371500Y423260D01*
X1367860Y424240D01*
X1363940Y424580D01*
X1347760Y424580D01*
X1343839Y424240D01*
X1340200Y423260D01*
X1336800Y421680D01*
X1334700Y420220D01*
X1333440Y419640D01*
X1332060Y419520D01*
X1330720Y419880D01*
X1329580Y420660D01*
X1320240Y430020D01*
X1318700Y431320D01*
X1316459Y432620D01*
X1314040Y433420D01*
X1312260Y433600D01*
X1310740Y434080D01*
X1309540Y435120D01*
X1308820Y436540D01*
X1308720Y438140D01*
X1309259Y439640D01*
X1310340Y440820D01*
X1311800Y441480D01*
X1313240Y441800D01*
X1316560Y443220D01*
X1319580Y445220D01*
X1322200Y447720D01*
X1324319Y450640D01*
X1326020Y454180D01*
X1326960Y455420D01*
X1328300Y456220D01*
X1329820Y456440D01*
X1331320Y456079D01*
X1334199Y454040D01*
X1336040Y453340D01*
X1338240Y453060D01*
X1470340Y453060D01*
X1471900Y452760D01*
X1473220Y451860D01*
X1474940Y450080D01*
X1476459Y449140D01*
X1478180Y448519D01*
X1480220Y448300D01*
X1485800Y448300D01*
X1487340Y448000D01*
X1488620Y447120D01*
X1489500Y445820D01*
X1489800Y444300D01*
X1489800Y413700D01*
X1489500Y412160D01*
X1488620Y410860D01*
X1487340Y410000D01*
X1485800Y409700D01*
X1480220Y409700D01*
X1478180Y409460D01*
X1476459Y408860D01*
X1474900Y407879D01*
X1473600Y406599D01*
X1472640Y405040D01*
X1472040Y403320D01*
X1471800Y401280D01*
X1471800Y396200D01*
X1471500Y394660D01*
X1470620Y393380D01*
X1469340Y392500D01*
X1467800Y392200D01*
G37*

%LPD*%
G36*
X1328560Y365940D02*
G01*
X1327080Y366200D01*
X1325780Y367000D01*
X1324880Y368220D01*
X1324360Y369260D01*
X1324019Y370400D01*
X1324019Y371599D01*
X1324360Y372740D01*
X1325200Y374460D01*
X1326120Y375680D01*
X1327420Y376480D01*
X1328920Y376719D01*
X1330420Y376380D01*
X1331680Y375500D01*
X1332500Y374219D01*
X1332800Y372720D01*
X1332800Y370260D01*
X1332500Y368740D01*
X1331300Y367120D01*
X1330060Y366260D01*
G37*

%LPD*%
G36*
X1328920Y317280D02*
G01*
X1327420Y317520D01*
X1326120Y318320D01*
X1325200Y319540D01*
X1324360Y321260D01*
X1324019Y322400D01*
X1324019Y323600D01*
X1324360Y324739D01*
X1325200Y326460D01*
X1326120Y327680D01*
X1327420Y328480D01*
X1328920Y328720D01*
X1330420Y328380D01*
X1331680Y327500D01*
X1332500Y326220D01*
X1332800Y324720D01*
X1332800Y321280D01*
X1332500Y319780D01*
X1331680Y318500D01*
X1330420Y317620D01*
G37*

%LPD*%
G36*
X1328920Y269280D02*
G01*
X1327420Y269520D01*
X1326120Y270320D01*
X1325200Y271540D01*
X1324360Y273260D01*
X1324019Y274400D01*
X1324019Y275600D01*
X1324360Y276740D01*
X1325200Y278460D01*
X1326120Y279680D01*
X1327420Y280480D01*
X1328920Y280720D01*
X1330420Y280380D01*
X1331680Y279500D01*
X1332500Y278220D01*
X1332800Y276720D01*
X1332800Y273280D01*
X1332500Y271780D01*
X1331680Y270500D01*
X1330420Y269620D01*
G37*

%LPD*%
G36*
X14200Y245340D02*
G01*
X12660Y245640D01*
X11379Y246520D01*
X10500Y247820D01*
X10200Y249340D01*
X10200Y410340D01*
X10500Y411880D01*
X11379Y413180D01*
X12660Y414040D01*
X14200Y414340D01*
X157000Y414340D01*
X158540Y414040D01*
X159820Y413180D01*
X160700Y411880D01*
X161000Y410340D01*
X161000Y276020D01*
X160740Y274600D01*
X159980Y273360D01*
X158820Y272460D01*
X157420Y272040D01*
X151740Y272580D01*
X135560Y272580D01*
X131640Y272240D01*
X128000Y271260D01*
X124600Y269680D01*
X121519Y267520D01*
X118859Y264860D01*
X116700Y261780D01*
X115120Y258380D01*
X114140Y254740D01*
X113820Y251000D01*
X113920Y249700D01*
X113740Y248060D01*
X112899Y246640D01*
X111560Y245680D01*
X109940Y245340D01*
G37*

%LPD*%
G36*
X1345000Y236000D02*
G01*
X1343460Y236300D01*
X1342180Y237180D01*
X1341300Y238460D01*
X1341000Y240000D01*
X1341000Y377640D01*
X1341339Y379260D01*
X1342300Y380580D01*
X1343720Y381420D01*
X1345340Y381620D01*
X1347760Y381420D01*
X1363940Y381420D01*
X1367860Y381760D01*
X1371500Y382740D01*
X1373420Y383620D01*
X1375100Y384000D01*
X1485800Y384000D01*
X1487340Y383700D01*
X1488620Y382819D01*
X1489500Y381540D01*
X1489800Y380000D01*
X1489800Y240000D01*
X1489500Y238460D01*
X1488620Y237180D01*
X1487340Y236300D01*
X1485800Y236000D01*
G37*

%LPD*%
G36*
X475880Y130200D02*
G01*
X474360Y130500D01*
X473060Y131380D01*
X397320Y207100D01*
X396180Y208080D01*
X393640Y209480D01*
X391520Y210080D01*
X389840Y210200D01*
X14200Y210200D01*
X12660Y210500D01*
X11379Y211380D01*
X10500Y212659D01*
X10200Y214200D01*
X10200Y219800D01*
X10500Y221320D01*
X11379Y222620D01*
X12660Y223500D01*
X14200Y223800D01*
X19780Y223800D01*
X21820Y224020D01*
X23540Y224640D01*
X25099Y225600D01*
X26400Y226900D01*
X27360Y228440D01*
X27960Y230180D01*
X28200Y232800D01*
X28500Y234340D01*
X29380Y235620D01*
X30660Y236500D01*
X32200Y236800D01*
X99760Y236800D01*
X102820Y237140D01*
X117200Y237140D01*
X118720Y236840D01*
X120020Y235980D01*
X121519Y234480D01*
X124600Y232320D01*
X128000Y230740D01*
X131640Y229760D01*
X135560Y229420D01*
X151740Y229420D01*
X155660Y229760D01*
X159300Y230740D01*
X162700Y232320D01*
X165080Y233980D01*
X166340Y234579D01*
X167719Y234700D01*
X169080Y234340D01*
X170200Y233540D01*
X181759Y221980D01*
X183299Y220680D01*
X185539Y219380D01*
X187960Y218580D01*
X190700Y218299D01*
X409340Y218299D01*
X411360Y218460D01*
X413860Y219140D01*
X415940Y220180D01*
X416820Y220520D01*
X417760Y220620D01*
X429400Y220620D01*
X431440Y220859D01*
X433180Y221460D01*
X434720Y222440D01*
X436019Y223720D01*
X437000Y225280D01*
X437600Y227000D01*
X437840Y229040D01*
X437840Y250880D01*
X437600Y252920D01*
X436300Y256260D01*
X436300Y257740D01*
X437000Y259360D01*
X437600Y261080D01*
X437840Y263120D01*
X437840Y284960D01*
X437600Y287000D01*
X437000Y288720D01*
X436019Y290280D01*
X434720Y291560D01*
X433080Y292600D01*
X432080Y293500D01*
X431420Y294680D01*
X431200Y296000D01*
X431200Y317180D01*
X431420Y318460D01*
X432040Y319620D01*
X433000Y320520D01*
X435580Y322220D01*
X438200Y324720D01*
X440319Y327640D01*
X441440Y329980D01*
X442280Y331140D01*
X443480Y331920D01*
X444880Y332239D01*
X446280Y332040D01*
X448500Y331320D01*
X452100Y330840D01*
X455700Y331000D01*
X459240Y331800D01*
X462560Y333220D01*
X465580Y335220D01*
X468200Y337720D01*
X470319Y340640D01*
X471900Y343900D01*
X472860Y347400D01*
X473180Y351000D01*
X472860Y354600D01*
X471900Y358100D01*
X470319Y361360D01*
X468200Y364280D01*
X465580Y366780D01*
X462560Y368780D01*
X459240Y370200D01*
X455700Y371000D01*
X452100Y371160D01*
X448500Y370680D01*
X445060Y369560D01*
X441880Y367840D01*
X439060Y365580D01*
X436680Y362860D01*
X433840Y358060D01*
X432520Y357140D01*
X430940Y356820D01*
X425700Y358000D01*
X422100Y358160D01*
X418500Y357680D01*
X415060Y356560D01*
X411880Y354840D01*
X409060Y352580D01*
X406680Y349860D01*
X404820Y346760D01*
X403540Y343360D01*
X402900Y339799D01*
X402900Y336200D01*
X403540Y332640D01*
X404820Y329240D01*
X406240Y326860D01*
X406659Y325880D01*
X406800Y324820D01*
X406800Y296000D01*
X406580Y294680D01*
X405920Y293500D01*
X404920Y292600D01*
X403280Y291560D01*
X401980Y290280D01*
X401000Y288720D01*
X400400Y287000D01*
X400180Y284960D01*
X400180Y263120D01*
X400400Y261080D01*
X401700Y257740D01*
X401700Y256260D01*
X401000Y254640D01*
X400400Y252920D01*
X400180Y250880D01*
X400180Y246700D01*
X399860Y245159D01*
X399000Y243880D01*
X397700Y243000D01*
X396180Y242700D01*
X197220Y242700D01*
X195680Y243000D01*
X194380Y243880D01*
X193760Y244500D01*
X192840Y245920D01*
X192600Y247600D01*
X193060Y249220D01*
X194160Y250500D01*
X195700Y251220D01*
X198240Y251800D01*
X201560Y253220D01*
X204579Y255219D01*
X207200Y257719D01*
X209320Y260640D01*
X210900Y263900D01*
X211860Y267400D01*
X212180Y271000D01*
X211860Y274600D01*
X210900Y278100D01*
X209360Y281260D01*
X209020Y282400D01*
X209020Y283600D01*
X209360Y284740D01*
X210900Y287900D01*
X211860Y291400D01*
X212180Y295000D01*
X211860Y298600D01*
X210900Y302100D01*
X209360Y305260D01*
X209020Y306400D01*
X209020Y307600D01*
X209360Y308740D01*
X210900Y311900D01*
X211860Y315400D01*
X212180Y319000D01*
X211860Y322600D01*
X210900Y326100D01*
X209360Y329260D01*
X209020Y330400D01*
X209020Y331599D01*
X209360Y332740D01*
X210900Y335900D01*
X211860Y339400D01*
X212180Y343000D01*
X211860Y346599D01*
X210900Y350100D01*
X209360Y353260D01*
X209020Y354400D01*
X209020Y355600D01*
X209360Y356740D01*
X210900Y359900D01*
X211860Y363400D01*
X212180Y367000D01*
X211860Y370600D01*
X210900Y374099D01*
X209360Y377260D01*
X209020Y378400D01*
X209020Y379600D01*
X209360Y380740D01*
X210900Y383900D01*
X211860Y387400D01*
X212180Y391000D01*
X211860Y394600D01*
X210900Y398100D01*
X209360Y401260D01*
X209020Y402400D01*
X209020Y403600D01*
X209360Y404739D01*
X210900Y407900D01*
X211860Y411400D01*
X212180Y415000D01*
X211860Y418600D01*
X210900Y422100D01*
X209320Y425360D01*
X207200Y428280D01*
X204579Y430780D01*
X201560Y432780D01*
X198240Y434200D01*
X194700Y435000D01*
X191100Y435160D01*
X187500Y434680D01*
X184060Y433560D01*
X180880Y431840D01*
X178060Y429580D01*
X175680Y426860D01*
X173820Y423760D01*
X173080Y421800D01*
X172220Y420439D01*
X170900Y419520D01*
X169320Y419200D01*
X167740Y419520D01*
X164800Y421580D01*
X162960Y422280D01*
X160760Y422540D01*
X14200Y422540D01*
X12660Y422840D01*
X11379Y423720D01*
X10500Y425020D01*
X10200Y426540D01*
X10200Y444799D01*
X10500Y446320D01*
X11379Y447620D01*
X12660Y448500D01*
X14200Y448800D01*
X19780Y448800D01*
X21820Y449020D01*
X23540Y449640D01*
X25099Y450600D01*
X26400Y451900D01*
X27360Y453440D01*
X27960Y455180D01*
X28200Y457800D01*
X28500Y459340D01*
X29380Y460620D01*
X30660Y461500D01*
X32200Y461800D01*
X99780Y461800D01*
X101820Y462040D01*
X103539Y462640D01*
X105580Y463740D01*
X106700Y463880D01*
X115559Y463880D01*
X116800Y463680D01*
X117940Y463100D01*
X121519Y459480D01*
X124600Y457320D01*
X128000Y455740D01*
X131640Y454760D01*
X135560Y454420D01*
X146320Y454420D01*
X147860Y454099D01*
X149160Y453240D01*
X153920Y448480D01*
X155440Y447180D01*
X157700Y445880D01*
X160120Y445080D01*
X162860Y444799D01*
X405180Y444799D01*
X406500Y444580D01*
X408560Y443860D01*
X410600Y443620D01*
X431400Y443620D01*
X433440Y443860D01*
X435180Y444460D01*
X436719Y445439D01*
X438020Y446719D01*
X439000Y448280D01*
X439600Y450000D01*
X439840Y452040D01*
X439840Y473880D01*
X439600Y475920D01*
X438300Y479260D01*
X438300Y480740D01*
X439000Y482360D01*
X439600Y484080D01*
X439840Y486120D01*
X439840Y507960D01*
X439600Y510000D01*
X439000Y511719D01*
X438020Y513260D01*
X436380Y514900D01*
X435500Y516200D01*
X435200Y517740D01*
X435200Y538140D01*
X435520Y539720D01*
X436440Y541040D01*
X438200Y542720D01*
X438860Y543620D01*
X440040Y544700D01*
X441560Y545240D01*
X443160Y545120D01*
X448060Y542440D01*
X451500Y541320D01*
X455100Y540840D01*
X458700Y541000D01*
X462239Y541800D01*
X465560Y543220D01*
X468579Y545220D01*
X471200Y547720D01*
X473320Y550640D01*
X474900Y553900D01*
X475860Y557400D01*
X476180Y561000D01*
X475860Y564600D01*
X474900Y568100D01*
X473320Y571360D01*
X471200Y574280D01*
X468579Y576780D01*
X465560Y578780D01*
X462239Y580200D01*
X458700Y581000D01*
X455100Y581160D01*
X451500Y580680D01*
X448060Y579560D01*
X444880Y577840D01*
X442060Y575580D01*
X439880Y573100D01*
X438760Y572200D01*
X437400Y571760D01*
X435980Y571820D01*
X434660Y572400D01*
X432560Y573780D01*
X429240Y575200D01*
X425700Y576000D01*
X422100Y576160D01*
X418500Y575680D01*
X415060Y574560D01*
X411880Y572840D01*
X409060Y570580D01*
X406680Y567860D01*
X404820Y564760D01*
X403540Y561360D01*
X402900Y557800D01*
X402900Y554200D01*
X403540Y550640D01*
X404820Y547240D01*
X406680Y544140D01*
X409060Y541420D01*
X410100Y540340D01*
X410620Y539260D01*
X410800Y538100D01*
X410800Y519760D01*
X410460Y518180D01*
X409520Y516840D01*
X408120Y516000D01*
X406820Y515540D01*
X405280Y514560D01*
X403980Y513280D01*
X403000Y511719D01*
X402400Y510000D01*
X402180Y507960D01*
X402180Y486120D01*
X402400Y484080D01*
X403700Y480740D01*
X403700Y479260D01*
X403000Y477640D01*
X402400Y475920D01*
X402180Y473200D01*
X401860Y471659D01*
X401000Y470379D01*
X399700Y469500D01*
X398180Y469200D01*
X199980Y469200D01*
X198460Y469500D01*
X197160Y470360D01*
X196300Y471659D01*
X195980Y473180D01*
X196280Y474700D01*
X197120Y476000D01*
X198420Y476880D01*
X201560Y478220D01*
X204579Y480220D01*
X207200Y482720D01*
X209320Y485640D01*
X210900Y488900D01*
X211860Y492400D01*
X212180Y496000D01*
X211860Y499600D01*
X210900Y503100D01*
X209360Y506260D01*
X209020Y507400D01*
X209020Y508600D01*
X209360Y509739D01*
X210900Y512900D01*
X211860Y516400D01*
X212180Y520000D01*
X211860Y523600D01*
X210900Y527100D01*
X209360Y530260D01*
X209020Y531400D01*
X209020Y532600D01*
X209360Y533740D01*
X210900Y536900D01*
X211860Y540400D01*
X212180Y544000D01*
X211860Y547600D01*
X210900Y551100D01*
X209360Y554260D01*
X209020Y555400D01*
X209020Y556600D01*
X209360Y557740D01*
X210900Y560900D01*
X211860Y564400D01*
X212180Y568000D01*
X211860Y571600D01*
X210900Y575100D01*
X209360Y578260D01*
X209020Y579400D01*
X209020Y580600D01*
X209360Y581740D01*
X210900Y584900D01*
X211860Y588400D01*
X212180Y592000D01*
X211860Y595600D01*
X210900Y599100D01*
X209360Y602260D01*
X209020Y603400D01*
X209020Y604600D01*
X209360Y605740D01*
X210900Y608900D01*
X211860Y612400D01*
X212180Y616000D01*
X211860Y619600D01*
X210900Y623100D01*
X209360Y626260D01*
X209020Y627400D01*
X209020Y628600D01*
X209360Y629740D01*
X210900Y632900D01*
X211860Y636400D01*
X212180Y640000D01*
X211860Y643600D01*
X210900Y647099D01*
X209320Y650360D01*
X207200Y653280D01*
X204579Y655780D01*
X201560Y657780D01*
X198240Y659200D01*
X194700Y660000D01*
X191100Y660160D01*
X187500Y659680D01*
X184060Y658560D01*
X180880Y656840D01*
X178060Y654580D01*
X175680Y651860D01*
X173820Y648760D01*
X173540Y648020D01*
X172659Y646640D01*
X171300Y645720D01*
X169700Y645420D01*
X168120Y645800D01*
X166420Y647200D01*
X164800Y648319D01*
X162960Y649020D01*
X160760Y649280D01*
X14200Y649280D01*
X12660Y649599D01*
X11379Y650460D01*
X10500Y651760D01*
X10200Y653280D01*
X10200Y669300D01*
X10500Y670819D01*
X11379Y672120D01*
X12660Y673000D01*
X14200Y673300D01*
X19780Y673300D01*
X21820Y673520D01*
X23540Y674140D01*
X25099Y675100D01*
X26400Y676400D01*
X27360Y677940D01*
X27960Y679680D01*
X28200Y681720D01*
X28200Y682800D01*
X28500Y684340D01*
X29380Y685620D01*
X30660Y686500D01*
X32200Y686800D01*
X99780Y686800D01*
X101820Y687039D01*
X103379Y687580D01*
X104700Y687800D01*
X116540Y687800D01*
X118059Y687500D01*
X119360Y686620D01*
X121519Y684479D01*
X124600Y682320D01*
X128000Y680740D01*
X131640Y679760D01*
X135560Y679419D01*
X146280Y679419D01*
X147800Y679100D01*
X149100Y678240D01*
X153860Y673480D01*
X155400Y672180D01*
X157640Y670879D01*
X160060Y670080D01*
X162800Y669800D01*
X399280Y669800D01*
X400640Y669560D01*
X401820Y668900D01*
X402720Y667860D01*
X404000Y665699D01*
X405280Y664440D01*
X406820Y663460D01*
X408560Y662860D01*
X410600Y662620D01*
X431400Y662620D01*
X433440Y662860D01*
X435180Y663460D01*
X436719Y664440D01*
X438020Y665720D01*
X439000Y667280D01*
X439600Y669000D01*
X439840Y671040D01*
X439840Y692880D01*
X439600Y694920D01*
X438300Y698259D01*
X438300Y699740D01*
X439000Y701360D01*
X439600Y703080D01*
X439840Y705120D01*
X439840Y726960D01*
X439600Y729000D01*
X439000Y730720D01*
X438020Y732280D01*
X436719Y733560D01*
X435080Y734599D01*
X434080Y735500D01*
X433420Y736680D01*
X433200Y738000D01*
X433200Y773840D01*
X433420Y775120D01*
X434040Y776280D01*
X435000Y777180D01*
X436580Y778220D01*
X439200Y780720D01*
X441320Y783640D01*
X442720Y786560D01*
X443560Y787720D01*
X444760Y788500D01*
X446160Y788820D01*
X447560Y788620D01*
X448500Y788319D01*
X452100Y787840D01*
X455700Y788000D01*
X459240Y788800D01*
X462560Y790220D01*
X465580Y792220D01*
X468200Y794720D01*
X470319Y797640D01*
X471900Y800900D01*
X472860Y804400D01*
X473180Y808000D01*
X472860Y811600D01*
X471900Y815100D01*
X470319Y818360D01*
X468200Y821280D01*
X465580Y823780D01*
X462560Y825780D01*
X459240Y827200D01*
X455700Y828000D01*
X452100Y828160D01*
X448500Y827680D01*
X445060Y826560D01*
X441880Y824840D01*
X439060Y822580D01*
X436680Y819860D01*
X434820Y816760D01*
X434460Y815780D01*
X433720Y814560D01*
X432600Y813660D01*
X431240Y813220D01*
X429820Y813300D01*
X426700Y814000D01*
X423100Y814160D01*
X419500Y813680D01*
X416060Y812560D01*
X412879Y810840D01*
X410060Y808580D01*
X407680Y805860D01*
X405820Y802760D01*
X404540Y799360D01*
X403900Y795800D01*
X403900Y792200D01*
X404540Y788640D01*
X405820Y785240D01*
X408540Y780740D01*
X408800Y779340D01*
X408800Y738000D01*
X408579Y736680D01*
X407920Y735500D01*
X406920Y734599D01*
X405280Y733560D01*
X403980Y732280D01*
X403000Y730720D01*
X402400Y729000D01*
X402180Y726960D01*
X402180Y705120D01*
X402400Y703080D01*
X403700Y699740D01*
X403720Y698259D01*
X403200Y696900D01*
X402740Y696120D01*
X401840Y695100D01*
X400660Y694440D01*
X399320Y694200D01*
X199980Y694200D01*
X198460Y694500D01*
X197160Y695360D01*
X196300Y696660D01*
X195980Y698180D01*
X196280Y699700D01*
X197120Y701000D01*
X198420Y701880D01*
X201560Y703220D01*
X204579Y705220D01*
X207200Y707720D01*
X209320Y710639D01*
X210900Y713900D01*
X211860Y717400D01*
X212180Y721000D01*
X211860Y724599D01*
X210900Y728100D01*
X209360Y731260D01*
X209020Y732400D01*
X209020Y733600D01*
X209360Y734740D01*
X210900Y737900D01*
X211860Y741400D01*
X212180Y745000D01*
X211860Y748600D01*
X210900Y752099D01*
X209360Y755260D01*
X209020Y756400D01*
X209020Y757600D01*
X209360Y758740D01*
X210900Y761900D01*
X211860Y765400D01*
X212180Y769000D01*
X211860Y772600D01*
X210900Y776100D01*
X209360Y779260D01*
X209020Y780400D01*
X209020Y781600D01*
X209360Y782740D01*
X210900Y785900D01*
X211860Y789400D01*
X212180Y793000D01*
X211860Y796600D01*
X210900Y800100D01*
X209360Y803259D01*
X209020Y804400D01*
X209020Y805600D01*
X209360Y806740D01*
X210900Y809900D01*
X211860Y813400D01*
X212180Y817000D01*
X211860Y820600D01*
X210900Y824100D01*
X209360Y827260D01*
X209020Y828400D01*
X209020Y829599D01*
X209360Y830740D01*
X210900Y833900D01*
X211860Y837400D01*
X212180Y841000D01*
X211860Y844599D01*
X210900Y848100D01*
X209360Y851260D01*
X209020Y852400D01*
X209020Y853600D01*
X209360Y854740D01*
X210900Y857900D01*
X211860Y861400D01*
X212180Y865000D01*
X211860Y868600D01*
X210900Y872099D01*
X209320Y875360D01*
X207200Y878280D01*
X204579Y880780D01*
X201560Y882780D01*
X198240Y884200D01*
X194700Y885000D01*
X191100Y885160D01*
X187500Y884680D01*
X184060Y883560D01*
X180880Y881840D01*
X178060Y879580D01*
X175680Y876860D01*
X173820Y873760D01*
X172659Y870680D01*
X171780Y869280D01*
X170420Y868379D01*
X168820Y868080D01*
X167220Y868439D01*
X165920Y869419D01*
X164420Y871120D01*
X162800Y872240D01*
X160960Y872940D01*
X158760Y873199D01*
X14200Y873199D01*
X12660Y873500D01*
X11379Y874380D01*
X10500Y875660D01*
X10200Y877200D01*
X10200Y956860D01*
X10500Y958379D01*
X11379Y959680D01*
X12660Y960560D01*
X14200Y960860D01*
X19780Y960860D01*
X21820Y961080D01*
X23540Y961700D01*
X25099Y962660D01*
X26400Y963960D01*
X27360Y965500D01*
X27960Y967240D01*
X28200Y969280D01*
X28200Y974980D01*
X28500Y976500D01*
X29380Y977800D01*
X30660Y978660D01*
X32200Y978980D01*
X110340Y978980D01*
X111760Y978700D01*
X113000Y977940D01*
X113900Y976780D01*
X114300Y975400D01*
X113820Y970000D01*
X114140Y966260D01*
X115120Y962620D01*
X116700Y959220D01*
X118859Y956140D01*
X121519Y953480D01*
X124600Y951320D01*
X128000Y949740D01*
X131640Y948760D01*
X135560Y948420D01*
X151740Y948420D01*
X155660Y948760D01*
X159300Y949740D01*
X162700Y951320D01*
X167500Y954760D01*
X169020Y955060D01*
X170560Y954760D01*
X171860Y953880D01*
X187760Y937980D01*
X189300Y936680D01*
X191540Y935380D01*
X193960Y934580D01*
X196700Y934300D01*
X411300Y934300D01*
X414040Y934580D01*
X416620Y935420D01*
X417860Y935620D01*
X430400Y935620D01*
X432440Y935860D01*
X434180Y936460D01*
X435720Y937440D01*
X437020Y938720D01*
X438000Y940280D01*
X438600Y942000D01*
X438840Y944040D01*
X438840Y965879D01*
X438600Y967920D01*
X437299Y971260D01*
X437299Y972740D01*
X438000Y974360D01*
X438600Y976080D01*
X438840Y978120D01*
X438840Y999960D01*
X438600Y1002000D01*
X438000Y1003720D01*
X437020Y1005280D01*
X435720Y1006560D01*
X433840Y1007760D01*
X432860Y1008640D01*
X432200Y1009780D01*
X431980Y1011100D01*
X431880Y1018980D01*
X432160Y1020440D01*
X432939Y1021720D01*
X434140Y1022620D01*
X435580Y1023000D01*
X437060Y1022840D01*
X438380Y1022140D01*
X440880Y1020160D01*
X444060Y1018439D01*
X447500Y1017320D01*
X451100Y1016840D01*
X454700Y1017000D01*
X458240Y1017800D01*
X461560Y1019220D01*
X464580Y1021220D01*
X467200Y1023720D01*
X469320Y1026640D01*
X470900Y1029900D01*
X471860Y1033400D01*
X472180Y1037000D01*
X471860Y1040600D01*
X470900Y1044100D01*
X469320Y1047360D01*
X467200Y1050280D01*
X464580Y1052780D01*
X461560Y1054780D01*
X458240Y1056200D01*
X454700Y1057000D01*
X451100Y1057160D01*
X447500Y1056680D01*
X444060Y1055560D01*
X440880Y1053840D01*
X438200Y1051720D01*
X436960Y1051040D01*
X435540Y1050840D01*
X434140Y1051160D01*
X432960Y1051960D01*
X432080Y1052780D01*
X429060Y1054780D01*
X425740Y1056200D01*
X422200Y1057000D01*
X418600Y1057160D01*
X415000Y1056680D01*
X411560Y1055560D01*
X408380Y1053840D01*
X405560Y1051580D01*
X403180Y1048860D01*
X401320Y1045759D01*
X400040Y1042360D01*
X399400Y1038800D01*
X399400Y1035200D01*
X400040Y1031640D01*
X401320Y1028240D01*
X403180Y1025140D01*
X405560Y1022420D01*
X405980Y1022060D01*
X407080Y1020699D01*
X407480Y1018980D01*
X407580Y1010900D01*
X407360Y1009560D01*
X406700Y1008360D01*
X405700Y1007460D01*
X404280Y1006560D01*
X402980Y1005280D01*
X402000Y1003720D01*
X401400Y1002000D01*
X401180Y999960D01*
X401180Y978120D01*
X401400Y976080D01*
X402700Y972740D01*
X402700Y971260D01*
X402000Y969640D01*
X401400Y967920D01*
X401180Y965879D01*
X401180Y962700D01*
X400860Y961160D01*
X400000Y959880D01*
X398700Y959000D01*
X397180Y958700D01*
X203220Y958700D01*
X201680Y959000D01*
X200380Y959880D01*
X196200Y964060D01*
X195280Y965480D01*
X195040Y967159D01*
X195500Y968780D01*
X196600Y970060D01*
X201560Y972220D01*
X204579Y974220D01*
X207200Y976720D01*
X209320Y979640D01*
X210900Y982900D01*
X211860Y986400D01*
X212180Y990000D01*
X211860Y993600D01*
X210900Y997099D01*
X209360Y1000260D01*
X209020Y1001400D01*
X209020Y1002600D01*
X209360Y1003740D01*
X210900Y1006900D01*
X211860Y1010400D01*
X212180Y1014000D01*
X211860Y1017600D01*
X210900Y1021100D01*
X209360Y1024260D01*
X209020Y1025400D01*
X209020Y1026600D01*
X209360Y1027740D01*
X210900Y1030900D01*
X211860Y1034400D01*
X212180Y1038000D01*
X211860Y1041600D01*
X210900Y1045100D01*
X209360Y1048259D01*
X209020Y1049400D01*
X209020Y1050600D01*
X209360Y1051740D01*
X210900Y1054900D01*
X211860Y1058400D01*
X212180Y1062000D01*
X211860Y1065600D01*
X210900Y1069100D01*
X209360Y1072260D01*
X209020Y1073400D01*
X209020Y1074600D01*
X209360Y1075740D01*
X210900Y1078900D01*
X211860Y1082400D01*
X212180Y1086000D01*
X211860Y1089600D01*
X210900Y1093100D01*
X209360Y1096260D01*
X209020Y1097400D01*
X209020Y1098600D01*
X209360Y1099740D01*
X210900Y1102900D01*
X211860Y1106400D01*
X212180Y1110000D01*
X211860Y1113600D01*
X210900Y1117100D01*
X209360Y1120260D01*
X209020Y1121400D01*
X209020Y1122600D01*
X209360Y1123740D01*
X210900Y1126900D01*
X211860Y1130400D01*
X212180Y1134000D01*
X211860Y1137600D01*
X210900Y1141100D01*
X209320Y1144360D01*
X207200Y1147280D01*
X204579Y1149780D01*
X201560Y1151780D01*
X199579Y1152620D01*
X198299Y1153500D01*
X197440Y1154800D01*
X197160Y1156320D01*
X197460Y1157840D01*
X198340Y1159140D01*
X199620Y1160000D01*
X201160Y1160300D01*
X407380Y1160300D01*
X409400Y1160460D01*
X411900Y1161140D01*
X414180Y1162280D01*
X416320Y1164020D01*
X417740Y1165460D01*
X419040Y1166320D01*
X420580Y1166620D01*
X431400Y1166620D01*
X433440Y1166860D01*
X435180Y1167460D01*
X436719Y1168440D01*
X438020Y1169720D01*
X439000Y1171280D01*
X439600Y1173000D01*
X439840Y1175040D01*
X439840Y1196880D01*
X439600Y1198920D01*
X438300Y1202260D01*
X438300Y1203740D01*
X439000Y1205360D01*
X439600Y1207080D01*
X439840Y1209120D01*
X439840Y1230960D01*
X439600Y1233000D01*
X439000Y1234720D01*
X438020Y1236280D01*
X437380Y1236920D01*
X436500Y1238220D01*
X436200Y1239740D01*
X436200Y1254820D01*
X436560Y1256460D01*
X437560Y1257820D01*
X439120Y1259220D01*
X440319Y1259940D01*
X441680Y1260220D01*
X443040Y1260000D01*
X444260Y1259340D01*
X446380Y1257660D01*
X449560Y1255940D01*
X453000Y1254820D01*
X456599Y1254340D01*
X460200Y1254500D01*
X463740Y1255300D01*
X467060Y1256720D01*
X470080Y1258720D01*
X472700Y1261220D01*
X474820Y1264140D01*
X476400Y1267400D01*
X477360Y1270900D01*
X477680Y1274500D01*
X477360Y1278100D01*
X476400Y1281600D01*
X474820Y1284860D01*
X472700Y1287780D01*
X470080Y1290280D01*
X467060Y1292280D01*
X463740Y1293700D01*
X460200Y1294500D01*
X456599Y1294660D01*
X453000Y1294180D01*
X449560Y1293060D01*
X446380Y1291339D01*
X443700Y1289199D01*
X442440Y1288520D01*
X441019Y1288340D01*
X439640Y1288660D01*
X435060Y1291780D01*
X431740Y1293200D01*
X428200Y1294000D01*
X424600Y1294160D01*
X421000Y1293680D01*
X417560Y1292560D01*
X414380Y1290840D01*
X411560Y1288580D01*
X409180Y1285860D01*
X407320Y1282760D01*
X406040Y1279360D01*
X405400Y1275800D01*
X405400Y1272200D01*
X406040Y1268640D01*
X407320Y1265240D01*
X409180Y1262140D01*
X410820Y1260260D01*
X411540Y1259040D01*
X411800Y1257620D01*
X411800Y1243080D01*
X411460Y1241480D01*
X410500Y1240140D01*
X409080Y1239300D01*
X406800Y1238520D01*
X405280Y1237560D01*
X403980Y1236280D01*
X403000Y1234720D01*
X402400Y1233000D01*
X402180Y1230960D01*
X402180Y1209120D01*
X402400Y1207080D01*
X403700Y1203740D01*
X403700Y1202260D01*
X403000Y1200640D01*
X402400Y1198920D01*
X402180Y1196880D01*
X402180Y1188700D01*
X401860Y1187160D01*
X401000Y1185880D01*
X399700Y1185000D01*
X398180Y1184700D01*
X188720Y1184700D01*
X187180Y1185000D01*
X185880Y1185880D01*
X182880Y1188880D01*
X181940Y1190360D01*
X181740Y1192120D01*
X182300Y1193800D01*
X183540Y1195060D01*
X185180Y1195660D01*
X186940Y1195500D01*
X187500Y1195320D01*
X191100Y1194840D01*
X194700Y1195000D01*
X198240Y1195800D01*
X201560Y1197220D01*
X204579Y1199220D01*
X207200Y1201720D01*
X209320Y1204640D01*
X210900Y1207900D01*
X211860Y1211400D01*
X212180Y1215000D01*
X211860Y1218600D01*
X210900Y1222100D01*
X209360Y1225260D01*
X209020Y1226400D01*
X209020Y1227600D01*
X209360Y1228740D01*
X210900Y1231900D01*
X211860Y1235400D01*
X212180Y1239000D01*
X211860Y1242600D01*
X210900Y1246100D01*
X209360Y1249260D01*
X209020Y1250400D01*
X209020Y1251600D01*
X209360Y1252740D01*
X210900Y1255900D01*
X211860Y1259400D01*
X212180Y1263000D01*
X211860Y1266600D01*
X210900Y1270100D01*
X209360Y1273260D01*
X209020Y1274400D01*
X209020Y1275600D01*
X209360Y1276740D01*
X210900Y1279900D01*
X211860Y1283400D01*
X212180Y1287000D01*
X211860Y1290600D01*
X210900Y1294100D01*
X209360Y1297260D01*
X209020Y1298400D01*
X209020Y1299600D01*
X209360Y1300740D01*
X210900Y1303899D01*
X211860Y1307400D01*
X212180Y1311000D01*
X211860Y1314600D01*
X210900Y1318100D01*
X209360Y1321260D01*
X209020Y1322400D01*
X209020Y1323600D01*
X209360Y1324740D01*
X210900Y1327900D01*
X211860Y1331399D01*
X212180Y1335000D01*
X211860Y1338600D01*
X210900Y1342100D01*
X209360Y1345260D01*
X209020Y1346399D01*
X209020Y1347600D01*
X209360Y1348740D01*
X210900Y1351900D01*
X211860Y1355400D01*
X212180Y1359000D01*
X211860Y1362600D01*
X210900Y1366100D01*
X209320Y1369360D01*
X207200Y1372280D01*
X204579Y1374780D01*
X201560Y1376780D01*
X198240Y1378200D01*
X194700Y1379000D01*
X191100Y1379160D01*
X187500Y1378680D01*
X184060Y1377560D01*
X180880Y1375840D01*
X178060Y1373580D01*
X175680Y1370860D01*
X173820Y1367760D01*
X172120Y1363240D01*
X171380Y1361980D01*
X170240Y1361060D01*
X168860Y1360620D01*
X167399Y1360720D01*
X166080Y1361320D01*
X164380Y1362660D01*
X163720Y1363640D01*
X162420Y1365120D01*
X160799Y1366240D01*
X158960Y1366940D01*
X156760Y1367200D01*
X29820Y1367200D01*
X28500Y1367420D01*
X27340Y1368080D01*
X25099Y1370440D01*
X23540Y1371420D01*
X21820Y1372020D01*
X19780Y1372260D01*
X14200Y1372260D01*
X12660Y1372560D01*
X11379Y1373420D01*
X10500Y1374720D01*
X10200Y1376260D01*
X10200Y1406800D01*
X10500Y1408340D01*
X11379Y1409620D01*
X12660Y1410500D01*
X14200Y1410800D01*
X19780Y1410800D01*
X21820Y1411040D01*
X23540Y1411639D01*
X25099Y1412600D01*
X26400Y1413899D01*
X27360Y1415460D01*
X27960Y1417180D01*
X28200Y1419220D01*
X28200Y1424800D01*
X28500Y1426339D01*
X29380Y1427620D01*
X30660Y1428500D01*
X32200Y1428800D01*
X110280Y1428800D01*
X111720Y1428540D01*
X112960Y1427780D01*
X113840Y1426620D01*
X114260Y1425220D01*
X113820Y1420000D01*
X114140Y1416260D01*
X115120Y1412620D01*
X116700Y1409220D01*
X118859Y1406140D01*
X121519Y1403480D01*
X124600Y1401320D01*
X128000Y1399740D01*
X131640Y1398760D01*
X135560Y1398420D01*
X151740Y1398420D01*
X155480Y1398740D01*
X157200Y1398520D01*
X158660Y1397580D01*
X163260Y1392980D01*
X164800Y1391680D01*
X167040Y1390380D01*
X169460Y1389580D01*
X172200Y1389300D01*
X410340Y1389300D01*
X411440Y1389139D01*
X412819Y1388460D01*
X414560Y1387860D01*
X416599Y1387620D01*
X437400Y1387620D01*
X439440Y1387860D01*
X441180Y1388460D01*
X442720Y1389440D01*
X444020Y1390720D01*
X445000Y1392280D01*
X445600Y1394000D01*
X445840Y1396040D01*
X445840Y1417880D01*
X445600Y1419920D01*
X444300Y1423260D01*
X444300Y1424740D01*
X445000Y1426360D01*
X445600Y1428080D01*
X445840Y1430120D01*
X445840Y1433120D01*
X445980Y1434180D01*
X446860Y1437400D01*
X447180Y1441000D01*
X446860Y1444600D01*
X445980Y1447820D01*
X445840Y1448880D01*
X445840Y1451960D01*
X445600Y1454000D01*
X445000Y1455720D01*
X444020Y1457280D01*
X442720Y1458560D01*
X441180Y1459540D01*
X439440Y1460140D01*
X437400Y1460380D01*
X432900Y1460380D01*
X432020Y1460480D01*
X429700Y1461000D01*
X426100Y1461160D01*
X422500Y1460680D01*
X420940Y1460380D01*
X416599Y1460380D01*
X414560Y1460140D01*
X412819Y1459540D01*
X411280Y1458560D01*
X409980Y1457280D01*
X409000Y1455720D01*
X408400Y1454000D01*
X408180Y1451960D01*
X408180Y1448760D01*
X407920Y1447360D01*
X407540Y1446360D01*
X406900Y1442800D01*
X406900Y1439199D01*
X407540Y1435640D01*
X407920Y1434640D01*
X408180Y1433240D01*
X408180Y1430120D01*
X408400Y1428080D01*
X409700Y1424740D01*
X409700Y1423260D01*
X409000Y1421639D01*
X408400Y1419940D01*
X408160Y1417300D01*
X407740Y1415900D01*
X406860Y1414740D01*
X405600Y1413959D01*
X404180Y1413700D01*
X201160Y1413700D01*
X199620Y1414000D01*
X198340Y1414860D01*
X197460Y1416160D01*
X197160Y1417680D01*
X197440Y1419199D01*
X198299Y1420500D01*
X199579Y1421380D01*
X201560Y1422220D01*
X204579Y1424220D01*
X207200Y1426720D01*
X209320Y1429640D01*
X210900Y1432900D01*
X211860Y1436399D01*
X212180Y1440000D01*
X211860Y1443600D01*
X210900Y1447100D01*
X209360Y1450260D01*
X209020Y1451399D01*
X209020Y1452600D01*
X209360Y1453740D01*
X210900Y1456900D01*
X211860Y1460400D01*
X212180Y1464000D01*
X211860Y1467600D01*
X210900Y1471100D01*
X209360Y1474259D01*
X209020Y1475400D01*
X209020Y1476600D01*
X209360Y1477740D01*
X210900Y1480900D01*
X211860Y1484400D01*
X212180Y1488000D01*
X211860Y1491600D01*
X210900Y1495100D01*
X209360Y1498260D01*
X209020Y1499400D01*
X209020Y1500600D01*
X209360Y1501740D01*
X210900Y1504900D01*
X211860Y1508400D01*
X212180Y1512000D01*
X211860Y1515600D01*
X210900Y1519100D01*
X209360Y1522260D01*
X209020Y1523400D01*
X209020Y1524600D01*
X209360Y1525740D01*
X210900Y1528899D01*
X211860Y1532400D01*
X212180Y1536000D01*
X211860Y1539600D01*
X210900Y1543100D01*
X209360Y1546260D01*
X209020Y1547400D01*
X209020Y1548600D01*
X209360Y1549740D01*
X210900Y1552900D01*
X211860Y1556399D01*
X212180Y1560000D01*
X211860Y1563600D01*
X210900Y1567100D01*
X209360Y1570260D01*
X209020Y1571399D01*
X209020Y1572600D01*
X209360Y1573740D01*
X210900Y1576900D01*
X211860Y1580400D01*
X212180Y1584000D01*
X211860Y1587600D01*
X210900Y1591100D01*
X209320Y1594360D01*
X207200Y1597280D01*
X204579Y1599780D01*
X201560Y1601780D01*
X200760Y1602120D01*
X199460Y1603000D01*
X198619Y1604300D01*
X198320Y1605820D01*
X198640Y1607340D01*
X199500Y1608640D01*
X200799Y1609500D01*
X202320Y1609800D01*
X459840Y1609800D01*
X461340Y1609920D01*
X464120Y1610720D01*
X466040Y1611800D01*
X467320Y1612900D01*
X483060Y1628620D01*
X484360Y1629500D01*
X485880Y1629800D01*
X569300Y1629800D01*
X570840Y1629500D01*
X572120Y1628620D01*
X573000Y1627340D01*
X573300Y1625800D01*
X573300Y1570220D01*
X573540Y1568180D01*
X574140Y1566459D01*
X575100Y1564900D01*
X576400Y1563600D01*
X577960Y1562640D01*
X579680Y1562040D01*
X581720Y1561800D01*
X636280Y1561800D01*
X638320Y1562040D01*
X640040Y1562640D01*
X641600Y1563600D01*
X642900Y1564900D01*
X643860Y1566459D01*
X644460Y1568180D01*
X644700Y1570220D01*
X644700Y1625800D01*
X645000Y1627340D01*
X645879Y1628620D01*
X647159Y1629500D01*
X648700Y1629800D01*
X663300Y1629800D01*
X664840Y1629500D01*
X666120Y1628620D01*
X667000Y1627340D01*
X667300Y1625800D01*
X667300Y1570220D01*
X667540Y1568180D01*
X668139Y1566459D01*
X669100Y1564900D01*
X670400Y1563600D01*
X671960Y1562640D01*
X673680Y1562040D01*
X675720Y1561800D01*
X730280Y1561800D01*
X732320Y1562040D01*
X734040Y1562640D01*
X735600Y1563600D01*
X736900Y1564900D01*
X737860Y1566459D01*
X738460Y1568180D01*
X738700Y1570220D01*
X738700Y1625800D01*
X739000Y1627340D01*
X739880Y1628620D01*
X741160Y1629500D01*
X742700Y1629800D01*
X757300Y1629800D01*
X758840Y1629500D01*
X760120Y1628620D01*
X761000Y1627340D01*
X761300Y1625800D01*
X761300Y1570220D01*
X761540Y1568180D01*
X762140Y1566459D01*
X763100Y1564900D01*
X764400Y1563600D01*
X765960Y1562640D01*
X767680Y1562040D01*
X769720Y1561800D01*
X824280Y1561800D01*
X826320Y1562040D01*
X828040Y1562640D01*
X829599Y1563600D01*
X830900Y1564900D01*
X831860Y1566459D01*
X832460Y1568180D01*
X832700Y1570220D01*
X832700Y1625800D01*
X833000Y1627340D01*
X833880Y1628620D01*
X835160Y1629500D01*
X836700Y1629800D01*
X851300Y1629800D01*
X852840Y1629500D01*
X854120Y1628620D01*
X855000Y1627340D01*
X855300Y1625800D01*
X855300Y1570220D01*
X855540Y1568180D01*
X856140Y1566459D01*
X857099Y1564900D01*
X858400Y1563600D01*
X859960Y1562640D01*
X861680Y1562040D01*
X863720Y1561800D01*
X918280Y1561800D01*
X920320Y1562040D01*
X922039Y1562640D01*
X923600Y1563600D01*
X924900Y1564900D01*
X925860Y1566459D01*
X926460Y1568180D01*
X926700Y1570220D01*
X926700Y1625800D01*
X927000Y1627340D01*
X927880Y1628620D01*
X929160Y1629500D01*
X930699Y1629800D01*
X945300Y1629800D01*
X946840Y1629500D01*
X948120Y1628620D01*
X949000Y1627340D01*
X949300Y1625800D01*
X949300Y1570220D01*
X949539Y1568180D01*
X950140Y1566459D01*
X951100Y1564900D01*
X952400Y1563600D01*
X953960Y1562640D01*
X955680Y1562040D01*
X957720Y1561800D01*
X1012280Y1561800D01*
X1014320Y1562040D01*
X1016040Y1562640D01*
X1017600Y1563600D01*
X1018900Y1564900D01*
X1019860Y1566459D01*
X1020460Y1568180D01*
X1020699Y1570220D01*
X1020699Y1615220D01*
X1021000Y1616740D01*
X1021880Y1618040D01*
X1023160Y1618920D01*
X1024700Y1619220D01*
X1026240Y1618920D01*
X1027520Y1618040D01*
X1032680Y1612900D01*
X1033820Y1611920D01*
X1036360Y1610520D01*
X1038480Y1609920D01*
X1040160Y1609800D01*
X1485800Y1609800D01*
X1487340Y1609500D01*
X1488620Y1608620D01*
X1489500Y1607340D01*
X1489800Y1605800D01*
X1489800Y1601699D01*
X1489500Y1600160D01*
X1488620Y1598880D01*
X1487340Y1598000D01*
X1485800Y1597700D01*
X1480220Y1597700D01*
X1478180Y1597460D01*
X1476459Y1596860D01*
X1474900Y1595900D01*
X1473600Y1594600D01*
X1472640Y1593040D01*
X1472040Y1591339D01*
X1471780Y1588800D01*
X1471360Y1587400D01*
X1470480Y1586240D01*
X1469240Y1585460D01*
X1467800Y1585200D01*
X1380460Y1585200D01*
X1378940Y1585500D01*
X1374400Y1588680D01*
X1371000Y1590260D01*
X1367360Y1591240D01*
X1363440Y1591579D01*
X1347260Y1591579D01*
X1343340Y1591240D01*
X1339700Y1590260D01*
X1336300Y1588680D01*
X1334500Y1587420D01*
X1333240Y1586840D01*
X1331860Y1586720D01*
X1330520Y1587080D01*
X1329379Y1587880D01*
X1320240Y1597020D01*
X1318700Y1598320D01*
X1316459Y1599620D01*
X1314040Y1600420D01*
X1311300Y1600700D01*
X1108660Y1600700D01*
X1106640Y1600540D01*
X1104140Y1599860D01*
X1101860Y1598720D01*
X1099720Y1596980D01*
X1086800Y1584040D01*
X1085500Y1583180D01*
X1083960Y1582880D01*
X1073100Y1582880D01*
X1071060Y1582640D01*
X1069320Y1582040D01*
X1067780Y1581060D01*
X1066480Y1579780D01*
X1065500Y1578220D01*
X1064900Y1576500D01*
X1064660Y1574460D01*
X1064660Y1552620D01*
X1065140Y1548880D01*
X1064660Y1547300D01*
X1063600Y1546040D01*
X1062120Y1545320D01*
X1060480Y1545260D01*
X1058940Y1545860D01*
X1057560Y1546780D01*
X1054240Y1548200D01*
X1050700Y1549000D01*
X1047099Y1549160D01*
X1043500Y1548680D01*
X1040060Y1547560D01*
X1036880Y1545840D01*
X1034060Y1543580D01*
X1031680Y1540860D01*
X1029820Y1537760D01*
X1028540Y1534360D01*
X1027900Y1530800D01*
X1027900Y1527200D01*
X1028540Y1523640D01*
X1029820Y1520240D01*
X1031680Y1517140D01*
X1034060Y1514420D01*
X1036880Y1512160D01*
X1040060Y1510440D01*
X1043500Y1509319D01*
X1047099Y1508839D01*
X1050700Y1509000D01*
X1054240Y1509800D01*
X1057560Y1511220D01*
X1062080Y1514240D01*
X1063580Y1514520D01*
X1065100Y1514199D01*
X1066360Y1513340D01*
X1067780Y1511940D01*
X1069320Y1510960D01*
X1071060Y1510360D01*
X1073100Y1510120D01*
X1075400Y1510120D01*
X1076640Y1509920D01*
X1078500Y1509319D01*
X1082100Y1508839D01*
X1085700Y1509000D01*
X1090800Y1510120D01*
X1093900Y1510120D01*
X1095940Y1510360D01*
X1097680Y1510960D01*
X1099220Y1511940D01*
X1100520Y1513220D01*
X1101500Y1514780D01*
X1102100Y1516500D01*
X1102340Y1518540D01*
X1102340Y1522940D01*
X1102480Y1524000D01*
X1102860Y1525400D01*
X1103180Y1529000D01*
X1102860Y1532600D01*
X1102480Y1534000D01*
X1102340Y1535060D01*
X1102340Y1540380D01*
X1102100Y1542420D01*
X1100800Y1545760D01*
X1100800Y1547240D01*
X1101500Y1548860D01*
X1102100Y1550580D01*
X1102340Y1552620D01*
X1102340Y1563420D01*
X1102640Y1564960D01*
X1103500Y1566240D01*
X1112380Y1575120D01*
X1113680Y1576000D01*
X1115220Y1576300D01*
X1297640Y1576300D01*
X1299340Y1575920D01*
X1300720Y1574840D01*
X1301519Y1573260D01*
X1301560Y1571519D01*
X1300840Y1569900D01*
X1299500Y1568760D01*
X1295880Y1566840D01*
X1293060Y1564580D01*
X1290680Y1561860D01*
X1288820Y1558760D01*
X1287540Y1555360D01*
X1286900Y1551800D01*
X1286900Y1548200D01*
X1287540Y1544640D01*
X1288820Y1541240D01*
X1289520Y1540060D01*
X1290020Y1538720D01*
X1290020Y1537280D01*
X1289520Y1535940D01*
X1288820Y1534760D01*
X1287540Y1531360D01*
X1286900Y1527800D01*
X1286900Y1524199D01*
X1287540Y1520640D01*
X1288820Y1517240D01*
X1289520Y1516060D01*
X1290020Y1514720D01*
X1290020Y1513280D01*
X1289520Y1511940D01*
X1288820Y1510760D01*
X1287540Y1507360D01*
X1286900Y1503800D01*
X1286900Y1500200D01*
X1287540Y1496639D01*
X1288820Y1493240D01*
X1289520Y1492060D01*
X1290020Y1490720D01*
X1290020Y1489280D01*
X1289520Y1487940D01*
X1288820Y1486759D01*
X1287540Y1483360D01*
X1286900Y1479800D01*
X1286900Y1476200D01*
X1287540Y1472640D01*
X1288820Y1469240D01*
X1289520Y1468060D01*
X1290020Y1466720D01*
X1290020Y1465280D01*
X1289520Y1463940D01*
X1288820Y1462760D01*
X1287540Y1459360D01*
X1286900Y1455800D01*
X1286900Y1452200D01*
X1287540Y1448640D01*
X1288820Y1445240D01*
X1289520Y1444060D01*
X1290020Y1442720D01*
X1290020Y1441279D01*
X1289520Y1439940D01*
X1288820Y1438760D01*
X1287540Y1435360D01*
X1286900Y1431800D01*
X1286900Y1428200D01*
X1287540Y1424640D01*
X1288820Y1421240D01*
X1289520Y1420060D01*
X1290020Y1418720D01*
X1290020Y1417280D01*
X1289520Y1415940D01*
X1288820Y1414760D01*
X1287540Y1411360D01*
X1286900Y1407800D01*
X1286900Y1404199D01*
X1287540Y1400640D01*
X1288820Y1397240D01*
X1290680Y1394139D01*
X1293060Y1391420D01*
X1295880Y1389160D01*
X1299060Y1387440D01*
X1302500Y1386320D01*
X1306100Y1385840D01*
X1309700Y1386000D01*
X1313240Y1386800D01*
X1316560Y1388220D01*
X1319580Y1390220D01*
X1322200Y1392720D01*
X1324319Y1395640D01*
X1325900Y1398899D01*
X1326639Y1401600D01*
X1327420Y1403100D01*
X1328760Y1404139D01*
X1330420Y1404540D01*
X1332080Y1404199D01*
X1333460Y1403220D01*
X1335560Y1400900D01*
X1337200Y1399760D01*
X1339040Y1399060D01*
X1341240Y1398800D01*
X1343020Y1398779D01*
X1347260Y1398420D01*
X1363440Y1398420D01*
X1368020Y1398800D01*
X1485800Y1398800D01*
X1487340Y1398500D01*
X1488620Y1397620D01*
X1489500Y1396339D01*
X1489800Y1394800D01*
X1489800Y1376680D01*
X1489500Y1375160D01*
X1488620Y1373860D01*
X1487340Y1373000D01*
X1485800Y1372680D01*
X1480220Y1372680D01*
X1478180Y1372460D01*
X1476459Y1371860D01*
X1474900Y1370880D01*
X1473600Y1369580D01*
X1472640Y1368040D01*
X1472040Y1366300D01*
X1471800Y1364259D01*
X1471800Y1363200D01*
X1471500Y1361660D01*
X1470620Y1360380D01*
X1469340Y1359500D01*
X1467800Y1359199D01*
X1400220Y1359199D01*
X1398600Y1359040D01*
X1381620Y1359040D01*
X1380080Y1359340D01*
X1378779Y1360220D01*
X1377480Y1361519D01*
X1374400Y1363680D01*
X1371000Y1365260D01*
X1367360Y1366240D01*
X1363440Y1366579D01*
X1347260Y1366579D01*
X1343340Y1366240D01*
X1339700Y1365260D01*
X1336300Y1363680D01*
X1335100Y1362840D01*
X1333839Y1362260D01*
X1332440Y1362120D01*
X1331100Y1362480D01*
X1329960Y1363280D01*
X1321240Y1372020D01*
X1319700Y1373320D01*
X1317460Y1374620D01*
X1315040Y1375420D01*
X1312300Y1375700D01*
X1102220Y1375700D01*
X1100680Y1376020D01*
X1099360Y1376900D01*
X1097720Y1378580D01*
X1096180Y1379540D01*
X1094440Y1380140D01*
X1092400Y1380380D01*
X1071600Y1380380D01*
X1069560Y1380140D01*
X1067820Y1379540D01*
X1066280Y1378560D01*
X1064980Y1377280D01*
X1064000Y1375720D01*
X1063400Y1374000D01*
X1063180Y1371960D01*
X1063180Y1350120D01*
X1063400Y1348080D01*
X1064700Y1344740D01*
X1064700Y1343260D01*
X1064000Y1341639D01*
X1063400Y1339920D01*
X1063180Y1337880D01*
X1063180Y1325460D01*
X1062980Y1324220D01*
X1062080Y1321500D01*
X1061800Y1318760D01*
X1061800Y1292900D01*
X1061620Y1291740D01*
X1061100Y1290660D01*
X1060060Y1289580D01*
X1057680Y1286860D01*
X1055820Y1283760D01*
X1055020Y1281660D01*
X1054300Y1280420D01*
X1053180Y1279540D01*
X1051820Y1279100D01*
X1050400Y1279160D01*
X1046700Y1280000D01*
X1043100Y1280160D01*
X1039500Y1279680D01*
X1036060Y1278560D01*
X1032880Y1276840D01*
X1030060Y1274580D01*
X1027680Y1271860D01*
X1025819Y1268760D01*
X1024539Y1265360D01*
X1023900Y1261800D01*
X1023900Y1258200D01*
X1024539Y1254640D01*
X1025819Y1251240D01*
X1027680Y1248140D01*
X1030060Y1245420D01*
X1032880Y1243160D01*
X1036060Y1241440D01*
X1039500Y1240320D01*
X1043100Y1239840D01*
X1046700Y1240000D01*
X1050240Y1240800D01*
X1053560Y1242220D01*
X1056580Y1244220D01*
X1059200Y1246720D01*
X1061320Y1249640D01*
X1063660Y1254500D01*
X1064900Y1255520D01*
X1066440Y1255980D01*
X1068040Y1255800D01*
X1069500Y1255320D01*
X1073100Y1254840D01*
X1076700Y1255000D01*
X1080240Y1255800D01*
X1083560Y1257220D01*
X1086580Y1259220D01*
X1089200Y1261720D01*
X1091320Y1264640D01*
X1092900Y1267900D01*
X1093860Y1271400D01*
X1094180Y1275000D01*
X1093860Y1278600D01*
X1092900Y1282100D01*
X1091320Y1285360D01*
X1089200Y1288280D01*
X1087440Y1289960D01*
X1086520Y1291279D01*
X1086200Y1292860D01*
X1086200Y1303620D01*
X1086500Y1305160D01*
X1087380Y1306459D01*
X1088660Y1307320D01*
X1090200Y1307620D01*
X1092400Y1307620D01*
X1094440Y1307860D01*
X1096180Y1308460D01*
X1097720Y1309440D01*
X1099020Y1310720D01*
X1100000Y1312280D01*
X1100600Y1314000D01*
X1100820Y1316040D01*
X1100820Y1337880D01*
X1100600Y1339920D01*
X1099300Y1343260D01*
X1099300Y1344740D01*
X1099980Y1346339D01*
X1100740Y1348580D01*
X1101580Y1350000D01*
X1102920Y1350960D01*
X1104540Y1351300D01*
X1297640Y1351300D01*
X1299340Y1350920D01*
X1300720Y1349840D01*
X1301519Y1348260D01*
X1301560Y1346519D01*
X1300840Y1344900D01*
X1299500Y1343760D01*
X1295880Y1341840D01*
X1293060Y1339580D01*
X1290680Y1336860D01*
X1288820Y1333760D01*
X1287540Y1330360D01*
X1286900Y1326800D01*
X1286900Y1323200D01*
X1287540Y1319640D01*
X1288820Y1316240D01*
X1289520Y1315060D01*
X1290020Y1313720D01*
X1290020Y1312280D01*
X1289520Y1310940D01*
X1288820Y1309760D01*
X1287540Y1306360D01*
X1286900Y1302800D01*
X1286900Y1299199D01*
X1287540Y1295640D01*
X1288820Y1292240D01*
X1289520Y1291060D01*
X1290020Y1289720D01*
X1290020Y1288280D01*
X1289520Y1286940D01*
X1288820Y1285760D01*
X1287540Y1282360D01*
X1286900Y1278800D01*
X1286900Y1275200D01*
X1287540Y1271640D01*
X1288820Y1268240D01*
X1289520Y1267060D01*
X1290020Y1265720D01*
X1290020Y1264280D01*
X1289520Y1262940D01*
X1288820Y1261760D01*
X1287540Y1258360D01*
X1286900Y1254800D01*
X1286900Y1251200D01*
X1287540Y1247640D01*
X1288820Y1244240D01*
X1289520Y1243060D01*
X1290020Y1241720D01*
X1290020Y1240280D01*
X1289520Y1238940D01*
X1288820Y1237760D01*
X1287540Y1234360D01*
X1286900Y1230800D01*
X1286900Y1227200D01*
X1287540Y1223640D01*
X1288820Y1220240D01*
X1289520Y1219060D01*
X1290020Y1217720D01*
X1290020Y1216280D01*
X1289520Y1214940D01*
X1288820Y1213760D01*
X1287540Y1210360D01*
X1286900Y1206800D01*
X1286900Y1203200D01*
X1287540Y1199640D01*
X1288820Y1196240D01*
X1289520Y1195060D01*
X1290020Y1193720D01*
X1290020Y1192280D01*
X1289520Y1190940D01*
X1288820Y1189760D01*
X1287540Y1186360D01*
X1286900Y1182800D01*
X1286900Y1179200D01*
X1287540Y1175640D01*
X1288820Y1172240D01*
X1290680Y1169140D01*
X1293060Y1166420D01*
X1295880Y1164160D01*
X1299500Y1162240D01*
X1300840Y1161100D01*
X1301560Y1159480D01*
X1301519Y1157740D01*
X1300720Y1156160D01*
X1299340Y1155080D01*
X1297640Y1154700D01*
X1095700Y1154700D01*
X1092960Y1154420D01*
X1090540Y1153620D01*
X1088320Y1152340D01*
X1086120Y1150380D01*
X1084880Y1149640D01*
X1083460Y1149380D01*
X1072600Y1149380D01*
X1070560Y1149140D01*
X1068820Y1148540D01*
X1067280Y1147560D01*
X1065980Y1146280D01*
X1065000Y1144720D01*
X1064400Y1143000D01*
X1064180Y1140960D01*
X1064180Y1119120D01*
X1064400Y1117080D01*
X1065700Y1113740D01*
X1065700Y1112260D01*
X1065000Y1110640D01*
X1064400Y1108920D01*
X1064180Y1106880D01*
X1064180Y1096040D01*
X1063900Y1094620D01*
X1063160Y1093380D01*
X1061160Y1091120D01*
X1059880Y1088920D01*
X1059080Y1086500D01*
X1058800Y1083760D01*
X1058800Y1057900D01*
X1058620Y1056740D01*
X1058100Y1055660D01*
X1057060Y1054580D01*
X1054680Y1051860D01*
X1052720Y1048620D01*
X1051780Y1047540D01*
X1050540Y1046860D01*
X1049120Y1046680D01*
X1047240Y1047200D01*
X1043700Y1048000D01*
X1040100Y1048160D01*
X1036500Y1047680D01*
X1033060Y1046560D01*
X1029880Y1044840D01*
X1027060Y1042580D01*
X1024680Y1039860D01*
X1022820Y1036760D01*
X1021540Y1033360D01*
X1020900Y1029800D01*
X1020900Y1026200D01*
X1021540Y1022640D01*
X1022820Y1019240D01*
X1024680Y1016140D01*
X1027060Y1013420D01*
X1029880Y1011160D01*
X1033060Y1009440D01*
X1036500Y1008319D01*
X1040100Y1007840D01*
X1043700Y1008000D01*
X1047240Y1008800D01*
X1050560Y1010220D01*
X1053580Y1012220D01*
X1056200Y1014720D01*
X1058320Y1017640D01*
X1059040Y1019120D01*
X1059880Y1020260D01*
X1061060Y1021060D01*
X1062460Y1021380D01*
X1063880Y1021180D01*
X1066500Y1020320D01*
X1070100Y1019840D01*
X1073700Y1020000D01*
X1077240Y1020800D01*
X1080560Y1022220D01*
X1083580Y1024220D01*
X1086200Y1026720D01*
X1088320Y1029640D01*
X1089900Y1032900D01*
X1090860Y1036400D01*
X1091180Y1040000D01*
X1090860Y1043600D01*
X1089900Y1047099D01*
X1088320Y1050360D01*
X1086200Y1053280D01*
X1084440Y1054960D01*
X1083520Y1056280D01*
X1083200Y1057860D01*
X1083200Y1072620D01*
X1083500Y1074160D01*
X1084380Y1075460D01*
X1085660Y1076320D01*
X1087200Y1076620D01*
X1093400Y1076620D01*
X1095440Y1076860D01*
X1097180Y1077460D01*
X1098720Y1078440D01*
X1100020Y1079720D01*
X1101000Y1081280D01*
X1101600Y1083000D01*
X1101840Y1085040D01*
X1101840Y1106880D01*
X1101600Y1108920D01*
X1100300Y1112260D01*
X1100300Y1113740D01*
X1101000Y1115360D01*
X1101600Y1117080D01*
X1101840Y1119120D01*
X1101840Y1126300D01*
X1102140Y1127840D01*
X1103000Y1129120D01*
X1104300Y1130000D01*
X1105820Y1130300D01*
X1303779Y1130300D01*
X1305320Y1130000D01*
X1306620Y1129120D01*
X1308740Y1127000D01*
X1309680Y1125520D01*
X1309900Y1123760D01*
X1309319Y1122100D01*
X1308100Y1120820D01*
X1306459Y1120220D01*
X1302500Y1119680D01*
X1299060Y1118560D01*
X1295880Y1116840D01*
X1293060Y1114580D01*
X1290680Y1111860D01*
X1288820Y1108760D01*
X1287540Y1105360D01*
X1286900Y1101800D01*
X1286900Y1098200D01*
X1287540Y1094640D01*
X1288820Y1091240D01*
X1289520Y1090060D01*
X1290020Y1088720D01*
X1290020Y1087280D01*
X1289520Y1085940D01*
X1288820Y1084760D01*
X1287540Y1081360D01*
X1286900Y1077800D01*
X1286900Y1074200D01*
X1287540Y1070640D01*
X1288820Y1067240D01*
X1289520Y1066060D01*
X1290020Y1064720D01*
X1290020Y1063280D01*
X1289520Y1061940D01*
X1288820Y1060760D01*
X1287540Y1057360D01*
X1286900Y1053800D01*
X1286900Y1050200D01*
X1287540Y1046640D01*
X1288820Y1043240D01*
X1289520Y1042060D01*
X1290020Y1040720D01*
X1290020Y1039280D01*
X1289520Y1037940D01*
X1288820Y1036760D01*
X1287540Y1033360D01*
X1286900Y1029800D01*
X1286900Y1026200D01*
X1287540Y1022640D01*
X1288820Y1019240D01*
X1289520Y1018060D01*
X1290020Y1016720D01*
X1290020Y1015280D01*
X1289520Y1013940D01*
X1288820Y1012760D01*
X1287540Y1009360D01*
X1286900Y1005800D01*
X1286900Y1002200D01*
X1287540Y998640D01*
X1288820Y995240D01*
X1289520Y994060D01*
X1290020Y992720D01*
X1290020Y991280D01*
X1289520Y989940D01*
X1288820Y988760D01*
X1287540Y985360D01*
X1286900Y981800D01*
X1286900Y978199D01*
X1287540Y974640D01*
X1288820Y971240D01*
X1289520Y970060D01*
X1290020Y968720D01*
X1290020Y967280D01*
X1289520Y965939D01*
X1288820Y964760D01*
X1287540Y961360D01*
X1286900Y957800D01*
X1286900Y954200D01*
X1287540Y950639D01*
X1288820Y947240D01*
X1290680Y944140D01*
X1293060Y941420D01*
X1295880Y939160D01*
X1299060Y937440D01*
X1302500Y936320D01*
X1306100Y935840D01*
X1309700Y936000D01*
X1313240Y936800D01*
X1316560Y938220D01*
X1319580Y940220D01*
X1322200Y942720D01*
X1324319Y945639D01*
X1325900Y948900D01*
X1326200Y950020D01*
X1327000Y951520D01*
X1328340Y952580D01*
X1330000Y952960D01*
X1331680Y952620D01*
X1333060Y951600D01*
X1334580Y949880D01*
X1336200Y948760D01*
X1338040Y948060D01*
X1340240Y947800D01*
X1485800Y947800D01*
X1487340Y947500D01*
X1488620Y946620D01*
X1489500Y945340D01*
X1489800Y943800D01*
X1489800Y863199D01*
X1489500Y861660D01*
X1488620Y860360D01*
X1487340Y859500D01*
X1485800Y859200D01*
X1480220Y859200D01*
X1478180Y858960D01*
X1476459Y858360D01*
X1474900Y857380D01*
X1473600Y856100D01*
X1472640Y854539D01*
X1472040Y852820D01*
X1471800Y850780D01*
X1471800Y846280D01*
X1471500Y844760D01*
X1470620Y843460D01*
X1469340Y842580D01*
X1467800Y842280D01*
X1388880Y842280D01*
X1387260Y842620D01*
X1385920Y843580D01*
X1385080Y845000D01*
X1384900Y846640D01*
X1385180Y850000D01*
X1384860Y853740D01*
X1383880Y857380D01*
X1382300Y860780D01*
X1380140Y863860D01*
X1377480Y866520D01*
X1374400Y868680D01*
X1371000Y870260D01*
X1367360Y871240D01*
X1363440Y871580D01*
X1347260Y871580D01*
X1343340Y871240D01*
X1340980Y870620D01*
X1339580Y870480D01*
X1338240Y870840D01*
X1337100Y871640D01*
X1324740Y884020D01*
X1323200Y885320D01*
X1320960Y886620D01*
X1318540Y887420D01*
X1315800Y887700D01*
X1104620Y887700D01*
X1102600Y887540D01*
X1100100Y886860D01*
X1097820Y885720D01*
X1095680Y883980D01*
X1085260Y873540D01*
X1083960Y872680D01*
X1082420Y872380D01*
X1071600Y872380D01*
X1069560Y872140D01*
X1067820Y871540D01*
X1066280Y870560D01*
X1064980Y869280D01*
X1064000Y867720D01*
X1063400Y866000D01*
X1063180Y863960D01*
X1063180Y842120D01*
X1063400Y840080D01*
X1064700Y836740D01*
X1064700Y835260D01*
X1064000Y833640D01*
X1063400Y831919D01*
X1063180Y829880D01*
X1063180Y815440D01*
X1062820Y813820D01*
X1061840Y812480D01*
X1060400Y811640D01*
X1057060Y810560D01*
X1053880Y808840D01*
X1051060Y806580D01*
X1048680Y803860D01*
X1046820Y800759D01*
X1044880Y795480D01*
X1043740Y794340D01*
X1042260Y793760D01*
X1040639Y793780D01*
X1039700Y794000D01*
X1036100Y794160D01*
X1032500Y793680D01*
X1029060Y792560D01*
X1025879Y790840D01*
X1023060Y788580D01*
X1020680Y785860D01*
X1018820Y782760D01*
X1017540Y779360D01*
X1016900Y775800D01*
X1016900Y772200D01*
X1017540Y768640D01*
X1018820Y765240D01*
X1020680Y762140D01*
X1023060Y759419D01*
X1025879Y757159D01*
X1029060Y755440D01*
X1032500Y754320D01*
X1036100Y753840D01*
X1039700Y754000D01*
X1043240Y754800D01*
X1046560Y756220D01*
X1049580Y758220D01*
X1052200Y760720D01*
X1054320Y763640D01*
X1055900Y766900D01*
X1056580Y769360D01*
X1057200Y770639D01*
X1058220Y771640D01*
X1059540Y772200D01*
X1060960Y772260D01*
X1064100Y771840D01*
X1067700Y772000D01*
X1071240Y772800D01*
X1074560Y774220D01*
X1077580Y776220D01*
X1080200Y778720D01*
X1082320Y781640D01*
X1083900Y784900D01*
X1084860Y788400D01*
X1085180Y792000D01*
X1085100Y792820D01*
X1085340Y794539D01*
X1086260Y796020D01*
X1088700Y798460D01*
X1090000Y799320D01*
X1091540Y799620D01*
X1092400Y799620D01*
X1094440Y799860D01*
X1096180Y800460D01*
X1097720Y801440D01*
X1099020Y802720D01*
X1100000Y804280D01*
X1100600Y806000D01*
X1100820Y808040D01*
X1100820Y829880D01*
X1100600Y831919D01*
X1099300Y835260D01*
X1099300Y836740D01*
X1100000Y838360D01*
X1100600Y840080D01*
X1100820Y842120D01*
X1100820Y852960D01*
X1101140Y854500D01*
X1102000Y855780D01*
X1108340Y862120D01*
X1109640Y863000D01*
X1111180Y863300D01*
X1309280Y863300D01*
X1310820Y863000D01*
X1312120Y862120D01*
X1319220Y855020D01*
X1320100Y853720D01*
X1320400Y852180D01*
X1320080Y850639D01*
X1319199Y849360D01*
X1317900Y848480D01*
X1316360Y848199D01*
X1314820Y848520D01*
X1313240Y849200D01*
X1309700Y850000D01*
X1306100Y850160D01*
X1302500Y849680D01*
X1299060Y848560D01*
X1295880Y846840D01*
X1293060Y844580D01*
X1290680Y841860D01*
X1288820Y838760D01*
X1287540Y835360D01*
X1286900Y831800D01*
X1286900Y828199D01*
X1287540Y824640D01*
X1288820Y821240D01*
X1289520Y820060D01*
X1290020Y818720D01*
X1290020Y817280D01*
X1289520Y815939D01*
X1288820Y814760D01*
X1287540Y811360D01*
X1286900Y807800D01*
X1286900Y804200D01*
X1287540Y800639D01*
X1288820Y797240D01*
X1289520Y796060D01*
X1290020Y794720D01*
X1290020Y793280D01*
X1289520Y791940D01*
X1288820Y790759D01*
X1287540Y787360D01*
X1286900Y783800D01*
X1286900Y780200D01*
X1287540Y776640D01*
X1288820Y773240D01*
X1289520Y772060D01*
X1290020Y770720D01*
X1290020Y769280D01*
X1289520Y767940D01*
X1288820Y766760D01*
X1287540Y763360D01*
X1286900Y759800D01*
X1286900Y756200D01*
X1287540Y752640D01*
X1288820Y749240D01*
X1289520Y748060D01*
X1290020Y746720D01*
X1290020Y745280D01*
X1289520Y743940D01*
X1288820Y742760D01*
X1287540Y739360D01*
X1286900Y735800D01*
X1286900Y732200D01*
X1287540Y728640D01*
X1288820Y725240D01*
X1289520Y724060D01*
X1290020Y722720D01*
X1290020Y721280D01*
X1289520Y719940D01*
X1288820Y718760D01*
X1287540Y715360D01*
X1286900Y711800D01*
X1286900Y708199D01*
X1287540Y704640D01*
X1288820Y701240D01*
X1289520Y700060D01*
X1290020Y698720D01*
X1290020Y697280D01*
X1289520Y695939D01*
X1288820Y694760D01*
X1287540Y691360D01*
X1286900Y687800D01*
X1286900Y684200D01*
X1287540Y680639D01*
X1288820Y677240D01*
X1290680Y674140D01*
X1293060Y671420D01*
X1295880Y669160D01*
X1299060Y667440D01*
X1302500Y666320D01*
X1306100Y665840D01*
X1309700Y666000D01*
X1313240Y666800D01*
X1316560Y668220D01*
X1319580Y670220D01*
X1322200Y672720D01*
X1324319Y675639D01*
X1325980Y679060D01*
X1326920Y680320D01*
X1328260Y681100D01*
X1329820Y681320D01*
X1331320Y680920D01*
X1334199Y678840D01*
X1336040Y678160D01*
X1338240Y677880D01*
X1470160Y677880D01*
X1471480Y677660D01*
X1472640Y677020D01*
X1474900Y674599D01*
X1476459Y673640D01*
X1478180Y673020D01*
X1480220Y672800D01*
X1485800Y672800D01*
X1487340Y672500D01*
X1488620Y671620D01*
X1489500Y670320D01*
X1489800Y668800D01*
X1489800Y638700D01*
X1489500Y637160D01*
X1488620Y635860D01*
X1487340Y635000D01*
X1485800Y634700D01*
X1480220Y634700D01*
X1478180Y634460D01*
X1476459Y633860D01*
X1474900Y632880D01*
X1473600Y631600D01*
X1472640Y630040D01*
X1472040Y628320D01*
X1471800Y626280D01*
X1471800Y621460D01*
X1471500Y619940D01*
X1470620Y618640D01*
X1469340Y617780D01*
X1467800Y617460D01*
X1388899Y617460D01*
X1387280Y617800D01*
X1385940Y618760D01*
X1385100Y620180D01*
X1384900Y621820D01*
X1385180Y625000D01*
X1384860Y628740D01*
X1383880Y632380D01*
X1382300Y635780D01*
X1380140Y638860D01*
X1377480Y641520D01*
X1374400Y643680D01*
X1371000Y645260D01*
X1367360Y646240D01*
X1363440Y646580D01*
X1347260Y646580D01*
X1343340Y646240D01*
X1339700Y645260D01*
X1336300Y643680D01*
X1333040Y641400D01*
X1331780Y640800D01*
X1330380Y640680D01*
X1329040Y641040D01*
X1327900Y641840D01*
X1315740Y654020D01*
X1314199Y655320D01*
X1311960Y656620D01*
X1309540Y657420D01*
X1306800Y657700D01*
X1090660Y657700D01*
X1087920Y657420D01*
X1085340Y656580D01*
X1084100Y656380D01*
X1071600Y656380D01*
X1069560Y656140D01*
X1067820Y655540D01*
X1066280Y654560D01*
X1064980Y653280D01*
X1064000Y651720D01*
X1063400Y650000D01*
X1063180Y647960D01*
X1063180Y626120D01*
X1063400Y624080D01*
X1064700Y620740D01*
X1064700Y619260D01*
X1064000Y617640D01*
X1063400Y615920D01*
X1063180Y613880D01*
X1063180Y592040D01*
X1063400Y590000D01*
X1064000Y588280D01*
X1064980Y586720D01*
X1066280Y585440D01*
X1067940Y584400D01*
X1068920Y583500D01*
X1069580Y582320D01*
X1069800Y581000D01*
X1069800Y579360D01*
X1069460Y577740D01*
X1068500Y576400D01*
X1063880Y573840D01*
X1060920Y571480D01*
X1059660Y570800D01*
X1058240Y570600D01*
X1056840Y570920D01*
X1052560Y573780D01*
X1049240Y575200D01*
X1045699Y576000D01*
X1042099Y576160D01*
X1038500Y575680D01*
X1035060Y574560D01*
X1031880Y572840D01*
X1029060Y570580D01*
X1026680Y567860D01*
X1024820Y564760D01*
X1023540Y561360D01*
X1022900Y557800D01*
X1022900Y554200D01*
X1023540Y550640D01*
X1024820Y547240D01*
X1026680Y544140D01*
X1029060Y541420D01*
X1031880Y539160D01*
X1035060Y537440D01*
X1038500Y536320D01*
X1042099Y535840D01*
X1045699Y536000D01*
X1049240Y536800D01*
X1052560Y538220D01*
X1055580Y540220D01*
X1056800Y541380D01*
X1057980Y542160D01*
X1059380Y542480D01*
X1060800Y542280D01*
X1062060Y541620D01*
X1063880Y540160D01*
X1067060Y538440D01*
X1070500Y537320D01*
X1074100Y536840D01*
X1077700Y537000D01*
X1081240Y537800D01*
X1084560Y539220D01*
X1087580Y541220D01*
X1090200Y543720D01*
X1092320Y546640D01*
X1093900Y549900D01*
X1094860Y553400D01*
X1095180Y557000D01*
X1094860Y560600D01*
X1094320Y562600D01*
X1094200Y564220D01*
X1094200Y581000D01*
X1094420Y582320D01*
X1095080Y583500D01*
X1096080Y584400D01*
X1097720Y585440D01*
X1099020Y586720D01*
X1100000Y588280D01*
X1100600Y590000D01*
X1100820Y592040D01*
X1100820Y613880D01*
X1100600Y615920D01*
X1099300Y619260D01*
X1099300Y620740D01*
X1100000Y622360D01*
X1100600Y624080D01*
X1100820Y626120D01*
X1100820Y629300D01*
X1101140Y630840D01*
X1102000Y632120D01*
X1103300Y633000D01*
X1104840Y633300D01*
X1300280Y633300D01*
X1301819Y633000D01*
X1303120Y632120D01*
X1303980Y631260D01*
X1304860Y629920D01*
X1305140Y628320D01*
X1304760Y626740D01*
X1303800Y625440D01*
X1302380Y624640D01*
X1299060Y623560D01*
X1295880Y621840D01*
X1293060Y619580D01*
X1290680Y616860D01*
X1288820Y613760D01*
X1287540Y610360D01*
X1286900Y606800D01*
X1286900Y603200D01*
X1287540Y599640D01*
X1288820Y596240D01*
X1289520Y595060D01*
X1290020Y593720D01*
X1290020Y592280D01*
X1289520Y590940D01*
X1288820Y589760D01*
X1287540Y586360D01*
X1286900Y582800D01*
X1286900Y579200D01*
X1287540Y575640D01*
X1288820Y572240D01*
X1289520Y571060D01*
X1290020Y569720D01*
X1290020Y568280D01*
X1289520Y566940D01*
X1288820Y565760D01*
X1287540Y562360D01*
X1286900Y558800D01*
X1286900Y555200D01*
X1287540Y551640D01*
X1288820Y548240D01*
X1289520Y547060D01*
X1290020Y545720D01*
X1290020Y544280D01*
X1289520Y542940D01*
X1288820Y541760D01*
X1287540Y538360D01*
X1286900Y534800D01*
X1286900Y531200D01*
X1287540Y527640D01*
X1288820Y524240D01*
X1289520Y523060D01*
X1290020Y521719D01*
X1290020Y520280D01*
X1289520Y518940D01*
X1288820Y517760D01*
X1287540Y514360D01*
X1286900Y510800D01*
X1286900Y507200D01*
X1287540Y503640D01*
X1288820Y500240D01*
X1289520Y499060D01*
X1290020Y497720D01*
X1290020Y496280D01*
X1289520Y494940D01*
X1288820Y493760D01*
X1287540Y490360D01*
X1286900Y486800D01*
X1286900Y483200D01*
X1287540Y479640D01*
X1288820Y476240D01*
X1289520Y475060D01*
X1290020Y473720D01*
X1290020Y472280D01*
X1289520Y470940D01*
X1288820Y469760D01*
X1287540Y466360D01*
X1286900Y462800D01*
X1286900Y459200D01*
X1287540Y455640D01*
X1288820Y452239D01*
X1290680Y449140D01*
X1293060Y446420D01*
X1295880Y444159D01*
X1299060Y442440D01*
X1301940Y441500D01*
X1303340Y440720D01*
X1304319Y439440D01*
X1304700Y437879D01*
X1304460Y436300D01*
X1303600Y434940D01*
X1302280Y434020D01*
X1300720Y433700D01*
X1092660Y433700D01*
X1090640Y433540D01*
X1088140Y432860D01*
X1085800Y431680D01*
X1083980Y430580D01*
X1082720Y430379D01*
X1071600Y430379D01*
X1069560Y430140D01*
X1067820Y429540D01*
X1066280Y428560D01*
X1064980Y427280D01*
X1064000Y425720D01*
X1063400Y424000D01*
X1063180Y421960D01*
X1063180Y400379D01*
X1062920Y398980D01*
X1062180Y397760D01*
X1061060Y396860D01*
X1059700Y396420D01*
X1054600Y396659D01*
X1051000Y396180D01*
X1047560Y395060D01*
X1044380Y393340D01*
X1041560Y391079D01*
X1039180Y388360D01*
X1037320Y385260D01*
X1036040Y381860D01*
X1035400Y378300D01*
X1035400Y374700D01*
X1036040Y371140D01*
X1037320Y367740D01*
X1039180Y364640D01*
X1041560Y361920D01*
X1044380Y359660D01*
X1047560Y357939D01*
X1051000Y356820D01*
X1054600Y356340D01*
X1058200Y356500D01*
X1061740Y357299D01*
X1064540Y358500D01*
X1065980Y358820D01*
X1067420Y358600D01*
X1069560Y357860D01*
X1071600Y357620D01*
X1092400Y357620D01*
X1094440Y357860D01*
X1096180Y358459D01*
X1097720Y359440D01*
X1099020Y360720D01*
X1100000Y362280D01*
X1100600Y364000D01*
X1100820Y366040D01*
X1100820Y387879D01*
X1100600Y389920D01*
X1099300Y393260D01*
X1099300Y394739D01*
X1100000Y396360D01*
X1100600Y398080D01*
X1100820Y400120D01*
X1100820Y405300D01*
X1101140Y406840D01*
X1102000Y408120D01*
X1103300Y409000D01*
X1104840Y409300D01*
X1297640Y409300D01*
X1299340Y408920D01*
X1300720Y407840D01*
X1301519Y406260D01*
X1301560Y404520D01*
X1300840Y402900D01*
X1299500Y401760D01*
X1295880Y399840D01*
X1293060Y397580D01*
X1290680Y394860D01*
X1288820Y391760D01*
X1287540Y388360D01*
X1286900Y384799D01*
X1286900Y381200D01*
X1287540Y377640D01*
X1288820Y374240D01*
X1289520Y373060D01*
X1290020Y371719D01*
X1290020Y370280D01*
X1289520Y368940D01*
X1288820Y367760D01*
X1287540Y364360D01*
X1286900Y360800D01*
X1286900Y357200D01*
X1287540Y353640D01*
X1288820Y350240D01*
X1289520Y349060D01*
X1290020Y347720D01*
X1290020Y346280D01*
X1289520Y344940D01*
X1288820Y343760D01*
X1287540Y340360D01*
X1286900Y336800D01*
X1286900Y333200D01*
X1287540Y329640D01*
X1288820Y326240D01*
X1289520Y325060D01*
X1290020Y323720D01*
X1290020Y322280D01*
X1289520Y320940D01*
X1288820Y319760D01*
X1287540Y316360D01*
X1286900Y312800D01*
X1286900Y309200D01*
X1287540Y305640D01*
X1288820Y302240D01*
X1289520Y301060D01*
X1290020Y299720D01*
X1290020Y298280D01*
X1289520Y296940D01*
X1288820Y295760D01*
X1287540Y292360D01*
X1286900Y288800D01*
X1286900Y285200D01*
X1287540Y281640D01*
X1288820Y278240D01*
X1289520Y277060D01*
X1290020Y275720D01*
X1290020Y274280D01*
X1289520Y272940D01*
X1288820Y271760D01*
X1287540Y268360D01*
X1286900Y264800D01*
X1286900Y261200D01*
X1287540Y257640D01*
X1288820Y254240D01*
X1289520Y253060D01*
X1290020Y251720D01*
X1290020Y250280D01*
X1289520Y248939D01*
X1288820Y247760D01*
X1287540Y244360D01*
X1286900Y240799D01*
X1286900Y237200D01*
X1287540Y233640D01*
X1288820Y230240D01*
X1290680Y227140D01*
X1293060Y224420D01*
X1295880Y222160D01*
X1299060Y220440D01*
X1302500Y219320D01*
X1306100Y218840D01*
X1309700Y219000D01*
X1313240Y219800D01*
X1316560Y221220D01*
X1319580Y223220D01*
X1322200Y225720D01*
X1324319Y228640D01*
X1325840Y231780D01*
X1326920Y233160D01*
X1328500Y233939D01*
X1330260Y233980D01*
X1331860Y233240D01*
X1332980Y231920D01*
X1333280Y231360D01*
X1334580Y229880D01*
X1336200Y228760D01*
X1338040Y228060D01*
X1340240Y227800D01*
X1470560Y227800D01*
X1472080Y227500D01*
X1473380Y226620D01*
X1474900Y225100D01*
X1476459Y224140D01*
X1478180Y223520D01*
X1480220Y223299D01*
X1485800Y223299D01*
X1487340Y223000D01*
X1488620Y222120D01*
X1489500Y220820D01*
X1489800Y219300D01*
X1489800Y214200D01*
X1489500Y212659D01*
X1488620Y211380D01*
X1487340Y210500D01*
X1485800Y210200D01*
X1110160Y210200D01*
X1108660Y210080D01*
X1105880Y209280D01*
X1103960Y208200D01*
X1102680Y207100D01*
X1026940Y131380D01*
X1025639Y130500D01*
X1024120Y130200D01*
X739700Y130200D01*
X738160Y130500D01*
X736880Y131380D01*
X736000Y132660D01*
X735699Y134200D01*
X735699Y354780D01*
X735460Y356820D01*
X734860Y358540D01*
X733900Y360100D01*
X732600Y361400D01*
X731040Y362360D01*
X729320Y362960D01*
X727280Y363200D01*
X552720Y363200D01*
X550680Y362960D01*
X548960Y362360D01*
X547400Y361400D01*
X546100Y360100D01*
X545140Y358540D01*
X544540Y356820D01*
X544300Y354780D01*
X544300Y134200D01*
X544000Y132660D01*
X543120Y131380D01*
X541840Y130500D01*
X540300Y130200D01*
G37*

%LPC*%
G36*
X1029100Y269840D02*
G01*
X1032700Y270000D01*
X1036240Y270800D01*
X1039560Y272220D01*
X1042580Y274220D01*
X1045200Y276720D01*
X1047320Y279640D01*
X1048900Y282900D01*
X1049860Y286400D01*
X1050180Y290000D01*
X1049860Y293600D01*
X1048900Y297100D01*
X1047320Y300360D01*
X1045200Y303280D01*
X1042580Y305780D01*
X1039560Y307780D01*
X1036240Y309200D01*
X1032700Y310000D01*
X1029100Y310160D01*
X1025500Y309680D01*
X1022060Y308560D01*
X1018880Y306840D01*
X1017060Y305380D01*
X1015800Y304720D01*
X1014380Y304520D01*
X1012980Y304840D01*
X1011800Y305620D01*
X1010580Y306780D01*
X1007560Y308780D01*
X1004240Y310200D01*
X1000699Y311000D01*
X997099Y311160D01*
X993500Y310680D01*
X990060Y309560D01*
X986880Y307840D01*
X984060Y305580D01*
X981680Y302860D01*
X979820Y299760D01*
X978540Y296360D01*
X977900Y292800D01*
X977900Y289200D01*
X978540Y285640D01*
X979820Y282240D01*
X981680Y279140D01*
X984060Y276420D01*
X986880Y274160D01*
X990060Y272440D01*
X993500Y271320D01*
X997099Y270840D01*
X1000699Y271000D01*
X1004240Y271800D01*
X1007560Y273220D01*
X1011840Y276080D01*
X1013240Y276400D01*
X1014659Y276200D01*
X1015920Y275520D01*
X1018880Y273160D01*
X1022060Y271440D01*
X1025500Y270320D01*
G37*
G36*
X682680Y442780D02*
G01*
X740699Y442780D01*
X742740Y443020D01*
X744479Y443620D01*
X746020Y444600D01*
X747159Y445740D01*
X748460Y446599D01*
X750000Y446900D01*
X751520Y446599D01*
X752820Y445740D01*
X753960Y444600D01*
X755520Y443620D01*
X757240Y443020D01*
X759300Y442780D01*
X817300Y442780D01*
X819360Y443020D01*
X821080Y443620D01*
X822620Y444600D01*
X823920Y445880D01*
X824900Y447440D01*
X825500Y449159D01*
X825740Y451200D01*
X825740Y518780D01*
X825500Y520840D01*
X824900Y522560D01*
X823920Y524120D01*
X822860Y525160D01*
X822000Y526460D01*
X821700Y528000D01*
X822000Y529520D01*
X822860Y530820D01*
X823920Y531880D01*
X824900Y533440D01*
X825500Y535160D01*
X825740Y537200D01*
X825740Y604780D01*
X825500Y606840D01*
X824900Y608560D01*
X823920Y610120D01*
X822860Y611160D01*
X822000Y612460D01*
X821700Y614000D01*
X822000Y615520D01*
X822860Y616820D01*
X823920Y617880D01*
X824900Y619440D01*
X825500Y621160D01*
X825740Y623200D01*
X825740Y690780D01*
X825500Y692840D01*
X824900Y694560D01*
X823920Y696120D01*
X822860Y697159D01*
X822000Y698460D01*
X821700Y700000D01*
X822000Y701520D01*
X822860Y702820D01*
X823920Y703880D01*
X824900Y705440D01*
X825500Y707159D01*
X825740Y709200D01*
X825740Y776780D01*
X825500Y778840D01*
X824900Y780560D01*
X823920Y782120D01*
X822860Y783160D01*
X822000Y784460D01*
X821700Y786000D01*
X822000Y787520D01*
X822860Y788820D01*
X823920Y789880D01*
X824900Y791440D01*
X825500Y793160D01*
X825740Y795200D01*
X825740Y862780D01*
X825500Y864840D01*
X824900Y866560D01*
X823920Y868120D01*
X823020Y869020D01*
X822140Y870320D01*
X821840Y871840D01*
X822140Y873379D01*
X823020Y874680D01*
X824220Y875879D01*
X825200Y877440D01*
X825800Y879160D01*
X826040Y881200D01*
X826040Y948800D01*
X825800Y950840D01*
X825200Y952560D01*
X824220Y954120D01*
X823160Y955180D01*
X822300Y956460D01*
X822000Y958000D01*
X822300Y959539D01*
X823160Y960819D01*
X824220Y961880D01*
X825200Y963439D01*
X825800Y965160D01*
X826040Y967200D01*
X826040Y1034800D01*
X825800Y1036840D01*
X825200Y1038560D01*
X824220Y1040120D01*
X823160Y1041180D01*
X822300Y1042460D01*
X822000Y1044000D01*
X822300Y1045540D01*
X823160Y1046820D01*
X824220Y1047880D01*
X825200Y1049440D01*
X825800Y1051160D01*
X826040Y1053200D01*
X826040Y1120800D01*
X825800Y1122840D01*
X825200Y1124560D01*
X824220Y1126120D01*
X823160Y1127180D01*
X822300Y1128460D01*
X822000Y1130000D01*
X822300Y1131540D01*
X823160Y1132820D01*
X824220Y1133880D01*
X825200Y1135440D01*
X825800Y1137160D01*
X826040Y1139200D01*
X826040Y1206800D01*
X825800Y1208840D01*
X825200Y1210560D01*
X824220Y1212120D01*
X823160Y1213180D01*
X822300Y1214460D01*
X822000Y1216000D01*
X822300Y1217540D01*
X823160Y1218820D01*
X824220Y1219880D01*
X825200Y1221440D01*
X825800Y1223160D01*
X826040Y1225200D01*
X826040Y1292800D01*
X825800Y1294840D01*
X825200Y1296560D01*
X824220Y1298120D01*
X823160Y1299180D01*
X822300Y1300460D01*
X822000Y1302000D01*
X822300Y1303540D01*
X823160Y1304820D01*
X824220Y1305880D01*
X825200Y1307440D01*
X825800Y1309160D01*
X826040Y1311200D01*
X826040Y1378800D01*
X825800Y1380840D01*
X825200Y1382560D01*
X824220Y1384120D01*
X823160Y1385180D01*
X822300Y1386459D01*
X822000Y1388000D01*
X822300Y1389540D01*
X823160Y1390820D01*
X824220Y1391879D01*
X825200Y1393440D01*
X825800Y1395160D01*
X826040Y1397200D01*
X826040Y1464800D01*
X825800Y1466840D01*
X825200Y1468560D01*
X824220Y1470120D01*
X822940Y1471399D01*
X821380Y1472380D01*
X819659Y1472980D01*
X817620Y1473220D01*
X759599Y1473220D01*
X757560Y1472980D01*
X755819Y1472380D01*
X754280Y1471399D01*
X753319Y1470460D01*
X752039Y1469600D01*
X750500Y1469280D01*
X748960Y1469600D01*
X747680Y1470460D01*
X746720Y1471399D01*
X745180Y1472380D01*
X743439Y1472980D01*
X741400Y1473220D01*
X683379Y1473220D01*
X681340Y1472980D01*
X679620Y1472380D01*
X678060Y1471399D01*
X676780Y1470120D01*
X675800Y1468560D01*
X675200Y1466840D01*
X674960Y1464800D01*
X674960Y1397200D01*
X675200Y1395160D01*
X675800Y1393440D01*
X676780Y1391879D01*
X677840Y1390820D01*
X678700Y1389540D01*
X679000Y1388000D01*
X678700Y1386459D01*
X677840Y1385180D01*
X676780Y1384120D01*
X675800Y1382560D01*
X675200Y1380840D01*
X674960Y1378800D01*
X674960Y1311200D01*
X675200Y1309160D01*
X675800Y1307440D01*
X676780Y1305880D01*
X677640Y1305020D01*
X678500Y1303740D01*
X678800Y1302200D01*
X678500Y1300660D01*
X677640Y1299379D01*
X676380Y1298120D01*
X675400Y1296560D01*
X674800Y1294840D01*
X674560Y1292800D01*
X674560Y1225200D01*
X674800Y1223160D01*
X675400Y1221440D01*
X676380Y1219880D01*
X677440Y1218820D01*
X678300Y1217540D01*
X678600Y1216000D01*
X678300Y1214460D01*
X677440Y1213180D01*
X676380Y1212120D01*
X675400Y1210560D01*
X674800Y1208840D01*
X674560Y1206800D01*
X674560Y1139200D01*
X674800Y1137160D01*
X675400Y1135440D01*
X676380Y1133880D01*
X677440Y1132820D01*
X678300Y1131540D01*
X678600Y1130000D01*
X678300Y1128460D01*
X677440Y1127180D01*
X676380Y1126120D01*
X675400Y1124560D01*
X674800Y1122840D01*
X674560Y1120800D01*
X674560Y1053200D01*
X674800Y1051160D01*
X675400Y1049440D01*
X676380Y1047880D01*
X677440Y1046820D01*
X678300Y1045540D01*
X678600Y1044000D01*
X678300Y1042460D01*
X677440Y1041180D01*
X676380Y1040120D01*
X675400Y1038560D01*
X674800Y1036840D01*
X674560Y1034800D01*
X674560Y967200D01*
X674800Y965160D01*
X675400Y963439D01*
X676380Y961880D01*
X677440Y960819D01*
X678300Y959539D01*
X678600Y958000D01*
X678300Y956460D01*
X677440Y955180D01*
X676380Y954120D01*
X675400Y952560D01*
X674800Y950840D01*
X674560Y948800D01*
X674560Y881200D01*
X674800Y879160D01*
X675400Y877440D01*
X676380Y875879D01*
X677280Y874980D01*
X678139Y873680D01*
X678460Y872159D01*
X678139Y870620D01*
X677280Y869320D01*
X676060Y868120D01*
X675100Y866560D01*
X674500Y864840D01*
X674260Y862780D01*
X674260Y795200D01*
X674500Y793160D01*
X675100Y791440D01*
X676060Y789880D01*
X677120Y788820D01*
X678000Y787520D01*
X678300Y786000D01*
X678000Y784460D01*
X677120Y783160D01*
X676060Y782120D01*
X675100Y780560D01*
X674500Y778840D01*
X674260Y776780D01*
X674260Y709200D01*
X674500Y707159D01*
X675100Y705440D01*
X676060Y703880D01*
X677120Y702820D01*
X678000Y701520D01*
X678300Y700000D01*
X678000Y698460D01*
X677120Y697159D01*
X676060Y696120D01*
X675100Y694560D01*
X674500Y692840D01*
X674260Y690780D01*
X674260Y623200D01*
X674500Y621160D01*
X675100Y619440D01*
X676060Y617880D01*
X677120Y616820D01*
X678000Y615520D01*
X678300Y614000D01*
X678000Y612460D01*
X677120Y611160D01*
X676060Y610120D01*
X675100Y608560D01*
X674500Y606840D01*
X674260Y604780D01*
X674260Y537200D01*
X674500Y535160D01*
X675100Y533440D01*
X676060Y531880D01*
X677120Y530820D01*
X678000Y529520D01*
X678300Y528000D01*
X678000Y526460D01*
X677120Y525160D01*
X676060Y524120D01*
X675100Y522560D01*
X674500Y520840D01*
X674260Y518780D01*
X674260Y451200D01*
X674500Y449159D01*
X675100Y447440D01*
X676060Y445880D01*
X677360Y444600D01*
X678920Y443620D01*
X680639Y443020D01*
G37*
G36*
X490100Y1520840D02*
G01*
X493700Y1521000D01*
X497239Y1521800D01*
X500560Y1523220D01*
X503579Y1525220D01*
X506200Y1527720D01*
X508320Y1530640D01*
X509900Y1533899D01*
X510860Y1537400D01*
X511180Y1541000D01*
X510860Y1544600D01*
X509900Y1548100D01*
X508320Y1551360D01*
X506200Y1554280D01*
X503579Y1556780D01*
X500560Y1558779D01*
X497239Y1560200D01*
X493700Y1561000D01*
X490100Y1561160D01*
X486500Y1560680D01*
X483060Y1559560D01*
X479880Y1557840D01*
X477060Y1555580D01*
X474680Y1552860D01*
X473459Y1550840D01*
X472340Y1549620D01*
X470800Y1548959D01*
X469140Y1549000D01*
X467640Y1549700D01*
X466540Y1550940D01*
X466040Y1552540D01*
X465860Y1554600D01*
X464900Y1558100D01*
X463320Y1561360D01*
X461200Y1564280D01*
X458579Y1566780D01*
X455560Y1568779D01*
X452239Y1570200D01*
X448700Y1571000D01*
X445100Y1571160D01*
X441500Y1570680D01*
X438060Y1569560D01*
X434880Y1567840D01*
X432060Y1565580D01*
X429680Y1562860D01*
X427819Y1559760D01*
X426540Y1556360D01*
X425900Y1552800D01*
X425900Y1549199D01*
X426540Y1545640D01*
X427819Y1542240D01*
X429680Y1539139D01*
X432060Y1536420D01*
X434880Y1534160D01*
X438060Y1532440D01*
X441500Y1531320D01*
X445100Y1530840D01*
X448700Y1531000D01*
X452239Y1531800D01*
X455560Y1533220D01*
X458579Y1535220D01*
X461200Y1537720D01*
X463360Y1540680D01*
X464400Y1541960D01*
X465860Y1542700D01*
X467500Y1542780D01*
X469040Y1542220D01*
X470220Y1541060D01*
X470840Y1539540D01*
X471540Y1535640D01*
X472819Y1532240D01*
X474680Y1529139D01*
X477060Y1526420D01*
X479880Y1524160D01*
X483060Y1522440D01*
X486500Y1521320D01*
G37*

%LPD*%
G36*
X750500Y1383280D02*
G01*
X748960Y1383600D01*
X747680Y1384460D01*
X746960Y1385180D01*
X746100Y1386459D01*
X745780Y1388000D01*
X746100Y1389540D01*
X746960Y1390820D01*
X747680Y1391540D01*
X748960Y1392400D01*
X750500Y1392720D01*
X752039Y1392400D01*
X753319Y1391540D01*
X754040Y1390820D01*
X754900Y1389540D01*
X755220Y1388000D01*
X754900Y1386459D01*
X754040Y1385180D01*
X753319Y1384460D01*
X752039Y1383600D01*
G37*

%LPD*%
G36*
X750300Y1297080D02*
G01*
X748760Y1297400D01*
X747480Y1298260D01*
X746760Y1298980D01*
X745900Y1300260D01*
X745580Y1301800D01*
X745900Y1303340D01*
X746760Y1304620D01*
X747680Y1305540D01*
X748960Y1306399D01*
X750500Y1306720D01*
X752039Y1306399D01*
X753319Y1305540D01*
X754040Y1304820D01*
X754900Y1303540D01*
X755220Y1302000D01*
X754900Y1300460D01*
X754040Y1299180D01*
X753120Y1298260D01*
X751840Y1297400D01*
G37*

%LPD*%
G36*
X750300Y1211080D02*
G01*
X748760Y1211400D01*
X747480Y1212260D01*
X746560Y1213180D01*
X745699Y1214460D01*
X745380Y1216000D01*
X745699Y1217540D01*
X746560Y1218820D01*
X747480Y1219740D01*
X748760Y1220600D01*
X750300Y1220920D01*
X751840Y1220600D01*
X753120Y1219740D01*
X754040Y1218820D01*
X754900Y1217540D01*
X755220Y1216000D01*
X754900Y1214460D01*
X754040Y1213180D01*
X753120Y1212260D01*
X751840Y1211400D01*
G37*

%LPD*%
G36*
X750300Y1125080D02*
G01*
X748760Y1125400D01*
X747480Y1126260D01*
X746560Y1127180D01*
X745699Y1128460D01*
X745380Y1130000D01*
X745699Y1131540D01*
X746560Y1132820D01*
X747480Y1133740D01*
X748760Y1134600D01*
X750300Y1134920D01*
X751840Y1134600D01*
X753120Y1133740D01*
X754040Y1132820D01*
X754900Y1131540D01*
X755220Y1130000D01*
X754900Y1128460D01*
X754040Y1127180D01*
X753120Y1126260D01*
X751840Y1125400D01*
G37*

%LPD*%
G36*
X750300Y1039080D02*
G01*
X748760Y1039400D01*
X747480Y1040260D01*
X746560Y1041180D01*
X745699Y1042460D01*
X745380Y1044000D01*
X745699Y1045540D01*
X746560Y1046820D01*
X747480Y1047740D01*
X748760Y1048600D01*
X750300Y1048920D01*
X751840Y1048600D01*
X753120Y1047740D01*
X754040Y1046820D01*
X754900Y1045540D01*
X755220Y1044000D01*
X754900Y1042460D01*
X754040Y1041180D01*
X753120Y1040260D01*
X751840Y1039400D01*
G37*

%LPD*%
G36*
X750300Y953080D02*
G01*
X748760Y953400D01*
X747480Y954260D01*
X746560Y955180D01*
X745699Y956460D01*
X745380Y958000D01*
X745699Y959539D01*
X746560Y960819D01*
X747480Y961740D01*
X748760Y962600D01*
X750300Y962920D01*
X751840Y962600D01*
X753120Y961740D01*
X754040Y960819D01*
X754900Y959539D01*
X755220Y958000D01*
X754900Y956460D01*
X754040Y955180D01*
X753120Y954260D01*
X751840Y953400D01*
G37*

%LPD*%
G36*
X750000Y867080D02*
G01*
X748460Y867400D01*
X747159Y868259D01*
X746400Y869020D01*
X745540Y870320D01*
X745240Y871840D01*
X745540Y873379D01*
X746400Y874680D01*
X747480Y875740D01*
X748760Y876600D01*
X750300Y876919D01*
X751840Y876600D01*
X753120Y875740D01*
X753880Y874980D01*
X754760Y873680D01*
X755060Y872159D01*
X754760Y870620D01*
X753880Y869320D01*
X752820Y868259D01*
X751520Y867400D01*
G37*

%LPD*%
G36*
X750000Y781080D02*
G01*
X748460Y781400D01*
X747159Y782260D01*
X746260Y783160D01*
X745400Y784460D01*
X745080Y786000D01*
X745400Y787520D01*
X746260Y788820D01*
X747159Y789740D01*
X748460Y790600D01*
X750000Y790900D01*
X751520Y790600D01*
X752820Y789740D01*
X753740Y788820D01*
X754599Y787520D01*
X754900Y786000D01*
X754599Y784460D01*
X753740Y783160D01*
X752820Y782260D01*
X751520Y781400D01*
G37*

%LPD*%
G36*
X750000Y695080D02*
G01*
X748460Y695400D01*
X747159Y696260D01*
X746260Y697159D01*
X745400Y698460D01*
X745080Y700000D01*
X745400Y701520D01*
X746260Y702820D01*
X747159Y703740D01*
X748460Y704599D01*
X750000Y704900D01*
X751520Y704599D01*
X752820Y703740D01*
X753740Y702820D01*
X754599Y701520D01*
X754900Y700000D01*
X754599Y698460D01*
X753740Y697159D01*
X752820Y696260D01*
X751520Y695400D01*
G37*

%LPD*%
G36*
X750000Y609080D02*
G01*
X748460Y609400D01*
X747159Y610260D01*
X746260Y611160D01*
X745400Y612460D01*
X745080Y614000D01*
X745400Y615520D01*
X746260Y616820D01*
X747159Y617740D01*
X748460Y618600D01*
X750000Y618900D01*
X751520Y618600D01*
X752820Y617740D01*
X753740Y616820D01*
X754599Y615520D01*
X754900Y614000D01*
X754599Y612460D01*
X753740Y611160D01*
X752820Y610260D01*
X751520Y609400D01*
G37*

%LPD*%
G36*
X750000Y523080D02*
G01*
X748460Y523400D01*
X747159Y524260D01*
X746260Y525160D01*
X745400Y526460D01*
X745080Y528000D01*
X745400Y529520D01*
X746260Y530820D01*
X747159Y531740D01*
X748460Y532600D01*
X750000Y532900D01*
X751520Y532600D01*
X752820Y531740D01*
X753740Y530820D01*
X754599Y529520D01*
X754900Y528000D01*
X754599Y526460D01*
X753740Y525160D01*
X752820Y524260D01*
X751520Y523400D01*
G37*

%LPD*%
D10*
X712399Y1430999D02*
G01*
X788599Y1430999D01*
X712399Y1345000D02*
G01*
X788599Y1345000D01*
X788599Y1430999D02*
G01*
X788599Y1259000D01*
X711999Y1259000D02*
G01*
X712399Y1430999D01*
X788299Y829000D02*
G01*
X788599Y915000D01*
X711700Y829000D02*
G01*
X711999Y915000D01*
X711997Y1259002D02*
G01*
X712998Y1260003D01*
X788599Y1260003D01*
X711997Y915000D02*
G01*
X712998Y915999D01*
X788599Y915999D01*
X788599Y915000D02*
G01*
X788599Y1259002D01*
X712001Y915000D02*
G01*
X712001Y1259002D01*
X788599Y1001999D02*
G01*
X712998Y1001999D01*
X711997Y1000999D01*
X711997Y1086997D02*
G01*
X712998Y1087998D01*
X788599Y1087998D01*
X711997Y1173000D02*
G01*
X712998Y1174002D01*
X788599Y1174002D01*
X788294Y484998D02*
G01*
X788294Y829000D01*
X711696Y484998D02*
G01*
X711696Y829000D01*
X711698Y485997D02*
G01*
X787295Y485997D01*
X788294Y484998D01*
X711698Y830001D02*
G01*
X787294Y830001D01*
X788294Y829000D01*
X711698Y571997D02*
G01*
X787294Y571997D01*
X788294Y570997D01*
X711698Y657997D02*
G01*
X787294Y657997D01*
X788294Y656995D01*
X711698Y744000D02*
G01*
X787294Y744000D01*
X788294Y742998D01*
D11*
X1073999Y1275000D02*
G01*
X1073999Y1318960D01*
X1081999Y1326959D01*
X1071000Y1040000D02*
G01*
X1071000Y1083960D01*
X1083000Y1095960D01*
X423000Y338000D02*
G01*
X419000Y334000D01*
X419000Y274039D01*
X423000Y555999D02*
G01*
X423000Y499039D01*
X420999Y497040D01*
X420999Y462959D02*
G01*
X415039Y456999D01*
X162649Y456999D01*
X143649Y475999D01*
X424000Y794000D02*
G01*
X420999Y790999D01*
X420999Y716039D01*
X143600Y700999D02*
G01*
X162600Y681999D01*
X420999Y681999D01*
X1081999Y853040D02*
G01*
X1104459Y875500D01*
X1316000Y875500D01*
X1341499Y850000D01*
X1355349Y850000D01*
X1081999Y637040D02*
G01*
X1090460Y645500D01*
X1306999Y645500D01*
X1327500Y625000D01*
X1355349Y625000D01*
X420999Y1185960D02*
G01*
X407539Y1172500D01*
X181999Y1172500D01*
X159499Y1195000D01*
X143649Y1195000D01*
X426999Y1406959D02*
G01*
X421538Y1401498D01*
X171999Y1401498D01*
X153501Y1420000D01*
X143649Y1420000D01*
X1055500Y376500D02*
G01*
X1081999Y376999D01*
X1082002Y602959D02*
G01*
X1082002Y564002D01*
X1075000Y556999D01*
X1065000Y791999D02*
G01*
X1082002Y809002D01*
X1082002Y818960D01*
X1083000Y1529000D02*
G01*
X1083459Y1529459D01*
X1083500Y1529459D01*
X423000Y1441001D02*
G01*
X426961Y1441001D01*
X426999Y1441039D01*
X424000Y1275000D02*
G01*
X424000Y1223038D01*
X421001Y1220039D01*
X419499Y1036999D02*
G01*
X420000Y989000D01*
X420000Y955000D02*
G01*
X411500Y946500D01*
X196500Y946500D01*
X173000Y970000D01*
X143600Y970000D01*
X419000Y240000D02*
G01*
X409499Y230500D01*
X190500Y230500D01*
X170000Y250999D01*
X143600Y250999D01*
X1083500Y1563499D02*
G01*
X1108500Y1588499D01*
X1311499Y1588499D01*
X1330000Y1570000D01*
X1355399Y1570000D01*
X1081999Y1360999D02*
G01*
X1084499Y1363499D01*
X1312500Y1363499D01*
X1331000Y1345000D01*
X1355399Y1345000D01*
X1083000Y1130000D02*
G01*
X1095500Y1142500D01*
X1310500Y1142500D01*
X1333000Y1120000D01*
X1355399Y1120000D01*
X1081999Y410999D02*
G01*
X1092500Y421500D01*
X1311499Y421500D01*
X1330000Y403000D01*
X1355799Y403000D01*
D12*
G01*
X1450000Y1510999D03*
G01*
X1450000Y1285999D03*
G01*
X1450000Y1060999D03*
G01*
X1450000Y309000D03*
G01*
X1450000Y534000D03*
G01*
X1450000Y759000D03*
G01*
X50000Y310000D03*
G01*
X50000Y535000D03*
G01*
X50000Y760000D03*
G01*
X50000Y1060999D03*
G01*
X50000Y1285999D03*
G01*
X50000Y1510999D03*
D13*
G01*
X703000Y1605000D03*
G01*
X609000Y1605000D03*
G01*
X796999Y1605000D03*
G01*
X891000Y1605000D03*
G01*
X985000Y1605000D03*
D14*
G01*
X640000Y240000D03*
G01*
X860000Y240000D03*
D13*
G01*
X515000Y1605000D03*
D15*
G01*
X1355349Y970000D03*
G01*
X1355349Y1020000D03*
G01*
X1355349Y1070000D03*
G01*
X1355349Y1120000D03*
D16*
G01*
X1195344Y1045008D03*
D15*
G01*
X1355349Y1195000D03*
G01*
X1355349Y1245000D03*
G01*
X1355349Y1295000D03*
G01*
X1355349Y1345000D03*
D16*
G01*
X1195344Y1270008D03*
D15*
G01*
X1355349Y1420000D03*
G01*
X1355349Y1470000D03*
G01*
X1355349Y1520000D03*
G01*
X1355349Y1570000D03*
D16*
G01*
X1195344Y1495008D03*
D15*
G01*
X1355850Y253000D03*
G01*
X1355850Y303000D03*
G01*
X1355850Y353000D03*
G01*
X1355850Y403000D03*
D16*
G01*
X1195844Y328007D03*
D15*
G01*
X1355349Y475000D03*
G01*
X1355349Y525000D03*
G01*
X1355349Y575000D03*
G01*
X1355349Y625000D03*
D16*
G01*
X1195344Y550008D03*
D15*
G01*
X1355349Y700000D03*
G01*
X1355349Y750000D03*
G01*
X1355349Y800000D03*
G01*
X1355349Y850000D03*
D16*
G01*
X1195344Y775008D03*
D15*
G01*
X143649Y1120000D03*
G01*
X143649Y1070000D03*
G01*
X143649Y1020000D03*
G01*
X143649Y970000D03*
D17*
G01*
X303655Y1044991D03*
D15*
G01*
X143649Y1345000D03*
G01*
X143649Y1295000D03*
G01*
X143649Y1245000D03*
G01*
X143649Y1195000D03*
D17*
G01*
X303655Y1269991D03*
D15*
G01*
X143649Y1570000D03*
G01*
X143649Y1520000D03*
G01*
X143649Y1470000D03*
G01*
X143649Y1420000D03*
D17*
G01*
X303655Y1494991D03*
D15*
G01*
X143649Y400999D03*
G01*
X143649Y350999D03*
G01*
X143649Y300999D03*
G01*
X143649Y250999D03*
D17*
G01*
X303655Y325992D03*
D15*
G01*
X143649Y625999D03*
G01*
X143649Y575999D03*
G01*
X143649Y525999D03*
G01*
X143649Y475999D03*
D17*
G01*
X303655Y550992D03*
D15*
G01*
X143649Y850999D03*
G01*
X143649Y800999D03*
G01*
X143649Y750999D03*
G01*
X143649Y700999D03*
D17*
G01*
X303655Y775992D03*
D18*
G01*
X1083000Y1130040D03*
D19*
G01*
X1083000Y1095960D03*
D18*
G01*
X1081999Y1361040D03*
D19*
G01*
X1081999Y1326959D03*
D18*
G01*
X1083499Y1563540D03*
D19*
G01*
X1083500Y1529459D03*
D18*
G01*
X1081999Y411040D03*
D19*
G01*
X1081999Y376959D03*
D18*
G01*
X1081999Y637040D03*
D19*
G01*
X1081999Y602959D03*
D18*
G01*
X1081999Y853040D03*
D19*
G01*
X1081999Y818960D03*
D18*
G01*
X420000Y954959D03*
D19*
G01*
X420000Y989040D03*
D18*
G01*
X420999Y1185959D03*
D19*
G01*
X420999Y1220039D03*
D18*
G01*
X427000Y1406959D03*
D19*
G01*
X426999Y1441039D03*
D18*
G01*
X419000Y239959D03*
D19*
G01*
X419000Y274039D03*
D18*
G01*
X420999Y462959D03*
D19*
G01*
X420999Y497040D03*
D18*
G01*
X420999Y681959D03*
D19*
G01*
X420999Y716039D03*
D20*
G01*
X913692Y828997D03*
G01*
X788298Y828997D03*
G01*
X913692Y742998D03*
G01*
X788298Y742998D03*
D21*
G01*
X586299Y828997D03*
G01*
X711693Y828997D03*
G01*
X586299Y742998D03*
G01*
X711693Y742998D03*
D20*
G01*
X913692Y656998D03*
G01*
X788298Y656998D03*
G01*
X913996Y1258999D03*
G01*
X788602Y1258999D03*
G01*
X913996Y1172999D03*
G01*
X788602Y1172999D03*
G01*
X913996Y1087000D03*
G01*
X788602Y1087000D03*
G01*
X913692Y570997D03*
G01*
X788298Y570997D03*
D21*
G01*
X586299Y570997D03*
G01*
X711693Y570997D03*
G01*
X586603Y1258999D03*
G01*
X711996Y1258999D03*
G01*
X586603Y1172999D03*
G01*
X711996Y1172999D03*
G01*
X586603Y1087000D03*
G01*
X711996Y1087000D03*
G01*
X586603Y1001000D03*
G01*
X711996Y1001000D03*
D20*
G01*
X913692Y484998D03*
G01*
X788298Y484998D03*
G01*
X913996Y915000D03*
G01*
X788602Y915000D03*
D21*
G01*
X586603Y915000D03*
G01*
X711996Y915000D03*
G01*
X587002Y1345000D03*
G01*
X712396Y1345000D03*
G01*
X587002Y1431000D03*
G01*
X712396Y1431000D03*
D20*
G01*
X913996Y1431000D03*
G01*
X788602Y1431000D03*
D21*
G01*
X788602Y1345000D03*
G01*
X913996Y1345000D03*
D20*
G01*
X711693Y656998D03*
G01*
X586299Y656998D03*
G01*
X711693Y484998D03*
G01*
X586299Y484998D03*
D21*
G01*
X788602Y1001000D03*
G01*
X913996Y1001000D03*
D22*
G01*
X640000Y74000D03*
G01*
X860000Y74000D03*
D23*
G01*
X703000Y1645000D03*
G01*
X796999Y1645000D03*
G01*
X609000Y1645000D03*
G01*
X985000Y1645000D03*
G01*
X891000Y1645000D03*
G01*
X515000Y1645000D03*
D24*
G01*
X0Y1504000D03*
G01*
X0Y1279059D03*
G01*
X0Y1054059D03*
G01*
X0Y766500D03*
G01*
X0Y541999D03*
G01*
X0Y316999D03*
G01*
X1500000Y316500D03*
G01*
X1500000Y541500D03*
G01*
X1500000Y765999D03*
G01*
X1500000Y1054490D03*
G01*
X1500000Y1279490D03*
G01*
X1500000Y1504499D03*
D25*
G01*
X796999Y331999D03*
G01*
X831999Y331999D03*
G01*
X796999Y296999D03*
G01*
X831999Y296999D03*
G01*
X796999Y261999D03*
G01*
X796999Y226999D03*
G01*
X866999Y331999D03*
G01*
X901999Y331999D03*
G01*
X703000Y296999D03*
G01*
X703000Y331999D03*
G01*
X668000Y331999D03*
G01*
X668000Y296999D03*
G01*
X633000Y331999D03*
G01*
X598000Y331999D03*
G01*
X703000Y226999D03*
G01*
X703000Y261999D03*
G01*
X1306999Y1501999D03*
G01*
X796999Y191999D03*
G01*
X831999Y191999D03*
G01*
X866999Y191999D03*
G01*
X901999Y191999D03*
G01*
X598000Y191999D03*
G01*
X633000Y191999D03*
G01*
X668000Y191999D03*
G01*
X703000Y191999D03*
G01*
X1306999Y1478000D03*
G01*
X1306999Y1454000D03*
G01*
X1306999Y1430000D03*
G01*
X1306999Y1405999D03*
G01*
X1306999Y1276999D03*
G01*
X1306999Y1253000D03*
G01*
X1306999Y1229000D03*
G01*
X1306999Y1205000D03*
G01*
X1306999Y1180999D03*
G01*
X1306999Y1051999D03*
G01*
X1306999Y1028000D03*
G01*
X1306999Y1004000D03*
G01*
X1306999Y980000D03*
G01*
X1306999Y955999D03*
G01*
X1306999Y781999D03*
G01*
X1306999Y758000D03*
G01*
X1306999Y734000D03*
G01*
X1306999Y710000D03*
G01*
X1306999Y685999D03*
G01*
X1306999Y556999D03*
G01*
X1306999Y533000D03*
G01*
X1306999Y509000D03*
G01*
X1306999Y485000D03*
G01*
X1306999Y460999D03*
G01*
X1306999Y335000D03*
G01*
X1306999Y310999D03*
G01*
X1306999Y286999D03*
G01*
X1306999Y263000D03*
G01*
X1306999Y239000D03*
G01*
X191999Y865000D03*
G01*
X191999Y840999D03*
G01*
X191999Y816999D03*
G01*
X191999Y793000D03*
G01*
X191999Y769000D03*
G01*
X191999Y640000D03*
G01*
X191999Y615999D03*
G01*
X191999Y591999D03*
G01*
X191999Y568000D03*
G01*
X191999Y544000D03*
G01*
X191999Y415000D03*
G01*
X191999Y390999D03*
G01*
X191999Y366999D03*
G01*
X191999Y343000D03*
G01*
X191999Y319000D03*
G01*
X191999Y1535999D03*
G01*
X191999Y1511999D03*
G01*
X191999Y1488000D03*
G01*
X191999Y1464000D03*
G01*
X191999Y1440000D03*
G01*
X191999Y1310999D03*
G01*
X191999Y1286999D03*
G01*
X191999Y1263000D03*
G01*
X191999Y1239000D03*
G01*
X191999Y1215000D03*
G01*
X191999Y1134000D03*
G01*
X191999Y1110000D03*
G01*
X191999Y1085999D03*
G01*
X191999Y1061999D03*
G01*
X191999Y1038000D03*
G01*
X88000Y1563000D03*
G01*
X88000Y1528000D03*
G01*
X88000Y1493000D03*
G01*
X88000Y1458000D03*
G01*
X53000Y1563000D03*
G01*
X53000Y1528000D03*
G01*
X53000Y1493000D03*
G01*
X53000Y1458000D03*
G01*
X53000Y1339000D03*
G01*
X88000Y1339000D03*
G01*
X53000Y1304000D03*
G01*
X88000Y1304000D03*
G01*
X53000Y1269000D03*
G01*
X88000Y1269000D03*
G01*
X53000Y1234000D03*
G01*
X88000Y1234000D03*
G01*
X53000Y1114000D03*
G01*
X88000Y1114000D03*
G01*
X53000Y1079000D03*
G01*
X88000Y1079000D03*
G01*
X53000Y1044000D03*
G01*
X88000Y1044000D03*
G01*
X53000Y1009000D03*
G01*
X88000Y1009000D03*
G01*
X53000Y813000D03*
G01*
X88000Y813000D03*
G01*
X53000Y778000D03*
G01*
X88000Y778000D03*
G01*
X53000Y743000D03*
G01*
X88000Y743000D03*
G01*
X53000Y708000D03*
G01*
X88000Y708000D03*
G01*
X53000Y588000D03*
G01*
X88000Y588000D03*
G01*
X53000Y553000D03*
G01*
X88000Y553000D03*
G01*
X53000Y518000D03*
G01*
X88000Y518000D03*
G01*
X53000Y483000D03*
G01*
X88000Y483000D03*
G01*
X53000Y363000D03*
G01*
X88000Y363000D03*
G01*
X53000Y328000D03*
G01*
X88000Y328000D03*
G01*
X53000Y293000D03*
G01*
X88000Y293000D03*
G01*
X53000Y258000D03*
G01*
X88000Y258000D03*
G01*
X1411999Y256999D03*
G01*
X1411999Y291999D03*
G01*
X1411999Y326999D03*
G01*
X1411999Y361999D03*
G01*
X1446999Y361999D03*
G01*
X1446999Y326999D03*
G01*
X1446999Y291999D03*
G01*
X1446999Y256999D03*
G01*
X1411999Y481999D03*
G01*
X1411999Y516999D03*
G01*
X1411999Y551999D03*
G01*
X1411999Y586999D03*
G01*
X1446999Y586999D03*
G01*
X1446999Y551999D03*
G01*
X1446999Y516999D03*
G01*
X1446999Y481999D03*
G01*
X1411999Y706999D03*
G01*
X1411999Y741999D03*
G01*
X1411999Y776999D03*
G01*
X1411999Y811999D03*
G01*
X1446999Y811999D03*
G01*
X1446999Y776999D03*
G01*
X1446999Y741999D03*
G01*
X1446999Y706999D03*
G01*
X1411999Y1114000D03*
G01*
X1446999Y1114000D03*
G01*
X1411999Y1079000D03*
G01*
X1446999Y1079000D03*
G01*
X1411999Y1044000D03*
G01*
X1446999Y1044000D03*
G01*
X1411999Y1009000D03*
G01*
X1446999Y1009000D03*
G01*
X1411999Y1339000D03*
G01*
X1446999Y1339000D03*
G01*
X1411999Y1304000D03*
G01*
X1446999Y1304000D03*
G01*
X1411999Y1269000D03*
G01*
X1446999Y1269000D03*
G01*
X1411999Y1234000D03*
G01*
X1446999Y1234000D03*
G01*
X1411999Y1564000D03*
G01*
X1446999Y1564000D03*
G01*
X1411999Y1529000D03*
G01*
X1446999Y1529000D03*
G01*
X1411999Y1494000D03*
G01*
X1446999Y1494000D03*
G01*
X1411999Y1459000D03*
G01*
X1446999Y1459000D03*
G01*
X1083000Y1529000D03*
G01*
X1073999Y1275000D03*
G01*
X1043999Y1260000D03*
G01*
X1041000Y1028000D03*
G01*
X1065000Y791999D03*
G01*
X1055500Y376500D03*
G01*
X1030000Y290000D03*
G01*
X998000Y290999D03*
G01*
X1075000Y556999D03*
G01*
X1071000Y1040000D03*
G01*
X1048000Y1529000D03*
G01*
X419499Y1036999D03*
G01*
X451999Y1036999D03*
G01*
X425500Y1274000D03*
G01*
X457500Y1274499D03*
G01*
X445999Y1550999D03*
G01*
X490999Y1540999D03*
G01*
X426999Y1440999D03*
G01*
X424000Y794000D03*
G01*
X453000Y808000D03*
G01*
X423000Y555999D03*
G01*
X455999Y560999D03*
G01*
X423000Y338000D03*
G01*
X453000Y350999D03*
G01*
X1043000Y555999D03*
G01*
X1036999Y774000D03*
G01*
X633000Y226999D03*
G01*
X668000Y226999D03*
G01*
X668000Y261999D03*
G01*
X633000Y261999D03*
G01*
X598000Y226999D03*
G01*
X598000Y261999D03*
G01*
X598000Y296999D03*
G01*
X633000Y296999D03*
G01*
X831999Y261999D03*
G01*
X866999Y261999D03*
G01*
X866999Y226999D03*
G01*
X831999Y226999D03*
G01*
X901999Y226999D03*
G01*
X901999Y261999D03*
G01*
X901999Y296999D03*
G01*
X866999Y296999D03*
G01*
X788599Y1345000D03*
G01*
X788599Y1430999D03*
G01*
X712399Y1430999D03*
G01*
X712399Y1345000D03*
G01*
X586999Y1345000D03*
G01*
X586999Y1430999D03*
G01*
X913999Y1430999D03*
G01*
X913999Y1345000D03*
G01*
X586599Y915000D03*
G01*
X586599Y1000999D03*
G01*
X586599Y1086999D03*
G01*
X586599Y1173000D03*
G01*
X586599Y1259000D03*
G01*
X711999Y1259000D03*
G01*
X711999Y1173000D03*
G01*
X711999Y1086999D03*
G01*
X711999Y1000999D03*
G01*
X711999Y915000D03*
G01*
X788599Y915000D03*
G01*
X788599Y1000999D03*
G01*
X788599Y1086999D03*
G01*
X788599Y1173000D03*
G01*
X788599Y1259000D03*
G01*
X913999Y1259000D03*
G01*
X913999Y1173000D03*
G01*
X913999Y1086999D03*
G01*
X913999Y1000999D03*
G01*
X913999Y915000D03*
G01*
X586300Y485000D03*
G01*
X586300Y570999D03*
G01*
X586300Y656999D03*
G01*
X586300Y743000D03*
G01*
X586300Y829000D03*
G01*
X711700Y829000D03*
G01*
X711700Y743000D03*
G01*
X711700Y656999D03*
G01*
X711700Y570999D03*
G01*
X711700Y485000D03*
G01*
X788299Y485000D03*
G01*
X788299Y570999D03*
G01*
X788299Y656999D03*
G01*
X788299Y743000D03*
G01*
X788299Y829000D03*
G01*
X913699Y829000D03*
G01*
X913699Y743000D03*
G01*
X913699Y656999D03*
G01*
X913699Y570999D03*
G01*
X913699Y485000D03*
G01*
X1168999Y1525000D03*
G01*
X1193000Y1525000D03*
G01*
X1205000Y1545999D03*
G01*
X1181000Y1545999D03*
G01*
X1156999Y1545999D03*
G01*
X191999Y1584000D03*
G01*
X191999Y1560000D03*
G01*
X191999Y1359000D03*
G01*
X191999Y1335000D03*
G01*
X191999Y990000D03*
G01*
X191999Y1014000D03*
G01*
X191999Y745000D03*
G01*
X191999Y720999D03*
G01*
X191999Y520000D03*
G01*
X191999Y495999D03*
G01*
X191999Y295000D03*
G01*
X191999Y270999D03*
G01*
X1306999Y1550000D03*
G01*
X1306999Y1525999D03*
G01*
X1306999Y1325000D03*
G01*
X1306999Y1300999D03*
G01*
X1306999Y1100000D03*
G01*
X1306999Y1075999D03*
G01*
X1306999Y805999D03*
G01*
X1306999Y830000D03*
G01*
X1306999Y605000D03*
G01*
X1306999Y580999D03*
G01*
X1306999Y383000D03*
G01*
X1306999Y359000D03*
G01*
X1145000Y1525000D03*
G01*
X1216999Y1525000D03*
G01*
X1198999Y1175999D03*
G01*
X1178000Y1188000D03*
G01*
X1178000Y1211999D03*
G01*
X1178000Y1235999D03*
G01*
X1198999Y1200000D03*
G01*
X1198999Y1224000D03*
G01*
X1198999Y1248000D03*
G01*
X1178999Y935000D03*
G01*
X1200000Y946999D03*
G01*
X1178999Y959000D03*
G01*
X1200000Y970999D03*
G01*
X1178999Y983000D03*
G01*
X1200000Y995000D03*
G01*
X1178999Y1006999D03*
G01*
X1178000Y685999D03*
G01*
X1198999Y698000D03*
G01*
X1178000Y710000D03*
G01*
X1198999Y721999D03*
G01*
X1178000Y734000D03*
G01*
X1198999Y744499D03*
G01*
X1178000Y758000D03*
G01*
X1175000Y450999D03*
G01*
X1196000Y463000D03*
G01*
X1175000Y475000D03*
G01*
X1196000Y486999D03*
G01*
X1175000Y499000D03*
G01*
X1196000Y510999D03*
G01*
X1175000Y523000D03*
G01*
X1186000Y240000D03*
G01*
X1173999Y260999D03*
G01*
X1161999Y240000D03*
G01*
X1150000Y260999D03*
G01*
X1138000Y240000D03*
G01*
X1126000Y260999D03*
G01*
X1113999Y240000D03*
G01*
X320999Y414000D03*
G01*
X300000Y401999D03*
G01*
X320999Y390000D03*
G01*
X300000Y378000D03*
G01*
X320999Y365999D03*
G01*
X300000Y354000D03*
G01*
X320999Y341999D03*
G01*
X320999Y649000D03*
G01*
X300000Y636999D03*
G01*
X320999Y625000D03*
G01*
X300000Y613000D03*
G01*
X320999Y600999D03*
G01*
X300000Y589000D03*
G01*
X320999Y576999D03*
G01*
X320999Y884000D03*
G01*
X300000Y871999D03*
G01*
X320999Y860000D03*
G01*
X300000Y848000D03*
G01*
X320999Y835999D03*
G01*
X300000Y824000D03*
G01*
X320999Y811999D03*
G01*
X320999Y1145000D03*
G01*
X300000Y1133000D03*
G01*
X320999Y1120999D03*
G01*
X300000Y1109000D03*
G01*
X320999Y1096999D03*
G01*
X300000Y1085000D03*
G01*
X320999Y1073000D03*
G01*
X320999Y1373000D03*
G01*
X300000Y1360999D03*
G01*
X320999Y1349000D03*
G01*
X300000Y1336999D03*
G01*
X320999Y1325000D03*
G01*
X300000Y1313000D03*
G01*
X320999Y1300999D03*
G01*
X300999Y1584000D03*
G01*
X313000Y1563000D03*
G01*
X325000Y1584000D03*
G01*
X336999Y1563000D03*
G01*
X349000Y1584000D03*
G01*
X360999Y1563000D03*
G01*
X373000Y1584000D03*
M02*
