G04 Layer: TopPasteMaskLayer*
G04 EasyEDA v6.5.22, 2023-04-03 14:03:43*
G04 87db6ba2ad084763a29da5206ccfc978,3cec5f453c3247449836eb28e2eac2c3,10*
G04 Gerber Generator version 0.2*
G04 Scale: 100 percent, Rotated: No, Reflected: No *
G04 Dimensions in inches *
G04 leading zeros omitted , absolute positions ,3 integer and 6 decimal *
%FSLAX36Y36*%
%MOIN*%

%AMMACRO1*4,1,4,-0.0817,-0.081,-0.0817,0.081,0.0817,0.081,0.0817,-0.081,-0.0817,-0.081,0*%
%AMMACRO2*4,1,4,0.0817,0.081,0.0817,-0.081,-0.0817,-0.081,-0.0817,0.081,0.0817,0.081,0*%
%ADD10O,0.043307000000000005X0.026772*%
%ADD11MACRO1*%
%ADD12MACRO2*%

%LPD*%
G36*
X1073940Y1141180D02*
G01*
X1072380Y1139600D01*
X1072380Y1119900D01*
X1073940Y1118320D01*
X1092060Y1118320D01*
X1093640Y1119900D01*
X1093640Y1139600D01*
X1092060Y1141180D01*
G37*
G36*
X1073940Y1107680D02*
G01*
X1072380Y1106100D01*
X1072380Y1086400D01*
X1073940Y1084820D01*
X1092060Y1084820D01*
X1093640Y1086400D01*
X1093640Y1106100D01*
X1092060Y1107680D01*
G37*
G36*
X1072940Y1372180D02*
G01*
X1071360Y1370600D01*
X1071360Y1350880D01*
X1072940Y1349319D01*
X1091060Y1349319D01*
X1092620Y1350880D01*
X1092620Y1370600D01*
X1091060Y1372180D01*
G37*
G36*
X1072940Y1338680D02*
G01*
X1071360Y1337100D01*
X1071360Y1317400D01*
X1072940Y1315820D01*
X1091060Y1315820D01*
X1092620Y1317400D01*
X1092620Y1337100D01*
X1091060Y1338680D01*
G37*
G36*
X1074440Y1574680D02*
G01*
X1072880Y1573100D01*
X1072880Y1553380D01*
X1074440Y1551819D01*
X1092560Y1551819D01*
X1094120Y1553380D01*
X1094120Y1573100D01*
X1092560Y1574680D01*
G37*
G36*
X1074440Y1541180D02*
G01*
X1072880Y1539600D01*
X1072880Y1519900D01*
X1074440Y1518320D01*
X1092560Y1518320D01*
X1094120Y1519900D01*
X1094120Y1539600D01*
X1092560Y1541180D01*
G37*
G36*
X1072940Y422180D02*
G01*
X1071360Y420600D01*
X1071360Y400880D01*
X1072940Y399320D01*
X1091060Y399320D01*
X1092620Y400880D01*
X1092620Y420600D01*
X1091060Y422180D01*
G37*
G36*
X1072940Y388680D02*
G01*
X1071360Y387100D01*
X1071360Y367400D01*
X1072940Y365820D01*
X1091060Y365820D01*
X1092620Y367400D01*
X1092620Y387100D01*
X1091060Y388680D01*
G37*
G36*
X1072940Y648180D02*
G01*
X1071360Y646600D01*
X1071360Y626880D01*
X1072940Y625320D01*
X1091060Y625320D01*
X1092620Y626880D01*
X1092620Y646600D01*
X1091060Y648180D01*
G37*
G36*
X1072940Y614680D02*
G01*
X1071360Y613120D01*
X1071360Y593400D01*
X1072940Y591820D01*
X1091060Y591820D01*
X1092620Y593400D01*
X1092620Y613120D01*
X1091060Y614680D01*
G37*
G36*
X1072940Y864180D02*
G01*
X1071360Y862600D01*
X1071360Y842900D01*
X1072940Y841320D01*
X1091060Y841320D01*
X1092620Y842900D01*
X1092620Y862600D01*
X1091060Y864180D01*
G37*
G36*
X1072940Y830680D02*
G01*
X1071360Y829120D01*
X1071360Y809400D01*
X1072940Y807820D01*
X1091060Y807820D01*
X1092620Y809400D01*
X1092620Y829120D01*
X1091060Y830680D01*
G37*
G36*
X410940Y966680D02*
G01*
X409360Y965100D01*
X409360Y945400D01*
X410940Y943820D01*
X429060Y943820D01*
X430640Y945400D01*
X430640Y965100D01*
X429060Y966680D01*
G37*
G36*
X410940Y1000180D02*
G01*
X409360Y998600D01*
X409360Y978900D01*
X410940Y977320D01*
X429060Y977320D01*
X430640Y978900D01*
X430640Y998600D01*
X429060Y1000180D01*
G37*
G36*
X411940Y1197680D02*
G01*
X410360Y1196100D01*
X410360Y1176400D01*
X411940Y1174820D01*
X430060Y1174820D01*
X431640Y1176400D01*
X431640Y1196100D01*
X430060Y1197680D01*
G37*
G36*
X411940Y1231180D02*
G01*
X410360Y1229600D01*
X410360Y1209900D01*
X411940Y1208320D01*
X430060Y1208320D01*
X431640Y1209900D01*
X431640Y1229600D01*
X430060Y1231180D01*
G37*
G36*
X417939Y1418680D02*
G01*
X416380Y1417100D01*
X416380Y1397400D01*
X417939Y1395820D01*
X436060Y1395820D01*
X437620Y1397400D01*
X437620Y1417100D01*
X436060Y1418680D01*
G37*
G36*
X417939Y1452180D02*
G01*
X416380Y1450600D01*
X416380Y1430880D01*
X417939Y1429319D01*
X436060Y1429319D01*
X437620Y1430880D01*
X437620Y1450600D01*
X436060Y1452180D01*
G37*
G36*
X409940Y251680D02*
G01*
X408360Y250100D01*
X408360Y230400D01*
X409940Y228820D01*
X428060Y228820D01*
X429640Y230400D01*
X429640Y250100D01*
X428060Y251680D01*
G37*
G36*
X409940Y285180D02*
G01*
X408360Y283600D01*
X408360Y263900D01*
X409940Y262320D01*
X428060Y262320D01*
X429640Y263900D01*
X429640Y283600D01*
X428060Y285180D01*
G37*
G36*
X411940Y474680D02*
G01*
X410360Y473120D01*
X410360Y453400D01*
X411940Y451820D01*
X430060Y451820D01*
X431640Y453400D01*
X431640Y473120D01*
X430060Y474680D01*
G37*
G36*
X411940Y508180D02*
G01*
X410360Y506599D01*
X410360Y486880D01*
X411940Y485319D01*
X430060Y485319D01*
X431640Y486880D01*
X431640Y506599D01*
X430060Y508180D01*
G37*
G36*
X411940Y693680D02*
G01*
X410360Y692099D01*
X410360Y672400D01*
X411940Y670819D01*
X430060Y670819D01*
X431640Y672400D01*
X431640Y692099D01*
X430060Y693680D01*
G37*
G36*
X411940Y727180D02*
G01*
X410360Y725600D01*
X410360Y705879D01*
X411940Y704320D01*
X430060Y704320D01*
X431640Y705879D01*
X431640Y725600D01*
X430060Y727180D01*
G37*
G36*
X888400Y863020D02*
G01*
X884460Y859080D01*
X884460Y844500D01*
X888400Y840560D01*
X900400Y840560D01*
X904340Y836620D01*
X904340Y821380D01*
X900400Y817440D01*
X888400Y817440D01*
X884460Y813500D01*
X884460Y798920D01*
X888400Y794980D01*
X938980Y794980D01*
X942920Y798920D01*
X942920Y859080D01*
X938980Y863020D01*
G37*
G36*
X763000Y863020D02*
G01*
X759060Y859080D01*
X759060Y798920D01*
X763000Y794980D01*
X813600Y794980D01*
X817540Y798920D01*
X817540Y813500D01*
X813600Y817440D01*
X801580Y817440D01*
X797660Y821380D01*
X797660Y836620D01*
X801580Y840560D01*
X813600Y840560D01*
X817540Y844500D01*
X817540Y859080D01*
X813600Y863020D01*
G37*
G36*
X888400Y777020D02*
G01*
X884460Y773080D01*
X884460Y758500D01*
X888400Y754560D01*
X900400Y754560D01*
X904340Y750620D01*
X904340Y735360D01*
X900400Y731440D01*
X888400Y731440D01*
X884460Y727500D01*
X884460Y712920D01*
X888400Y708980D01*
X938980Y708980D01*
X942920Y712920D01*
X942920Y773080D01*
X938980Y777020D01*
G37*
G36*
X763000Y777020D02*
G01*
X759060Y773080D01*
X759060Y712920D01*
X763000Y708980D01*
X813600Y708980D01*
X817540Y712920D01*
X817540Y727500D01*
X813600Y731440D01*
X801580Y731440D01*
X797660Y735360D01*
X797660Y750620D01*
X801580Y754560D01*
X813600Y754560D01*
X817540Y758500D01*
X817540Y773080D01*
X813600Y777020D01*
G37*
G36*
X561000Y863020D02*
G01*
X557060Y859080D01*
X557060Y798920D01*
X561000Y794980D01*
X611600Y794980D01*
X615540Y798920D01*
X615540Y813500D01*
X611600Y817440D01*
X599580Y817440D01*
X595660Y821380D01*
X595660Y836620D01*
X599580Y840560D01*
X611600Y840560D01*
X615540Y844500D01*
X615540Y859080D01*
X611600Y863020D01*
G37*
G36*
X686400Y863020D02*
G01*
X682460Y859080D01*
X682460Y844500D01*
X686400Y840560D01*
X698400Y840560D01*
X702340Y836620D01*
X702340Y821380D01*
X698400Y817440D01*
X686400Y817440D01*
X682460Y813500D01*
X682460Y798920D01*
X686400Y794980D01*
X736979Y794980D01*
X740920Y798920D01*
X740920Y859080D01*
X736979Y863020D01*
G37*
G36*
X561000Y777020D02*
G01*
X557060Y773080D01*
X557060Y712920D01*
X561000Y708980D01*
X611600Y708980D01*
X615540Y712920D01*
X615540Y727500D01*
X611600Y731440D01*
X599580Y731440D01*
X595660Y735360D01*
X595660Y750620D01*
X599580Y754560D01*
X611600Y754560D01*
X615540Y758500D01*
X615540Y773080D01*
X611600Y777020D01*
G37*
G36*
X686400Y777020D02*
G01*
X682460Y773080D01*
X682460Y758500D01*
X686400Y754560D01*
X698400Y754560D01*
X702340Y750620D01*
X702340Y735360D01*
X698400Y731440D01*
X686400Y731440D01*
X682460Y727500D01*
X682460Y712920D01*
X686400Y708980D01*
X736979Y708980D01*
X740920Y712920D01*
X740920Y773080D01*
X736979Y777020D01*
G37*
G36*
X888400Y691020D02*
G01*
X884460Y687080D01*
X884460Y672500D01*
X888400Y668560D01*
X900400Y668560D01*
X904340Y664620D01*
X904340Y649360D01*
X900400Y645440D01*
X888400Y645440D01*
X884460Y641500D01*
X884460Y626920D01*
X888400Y622980D01*
X938980Y622980D01*
X942920Y626920D01*
X942920Y687080D01*
X938980Y691020D01*
G37*
G36*
X763000Y691020D02*
G01*
X759060Y687080D01*
X759060Y626920D01*
X763000Y622980D01*
X813600Y622980D01*
X817540Y626920D01*
X817540Y641500D01*
X813600Y645440D01*
X801580Y645440D01*
X797660Y649360D01*
X797660Y664620D01*
X801580Y668560D01*
X813600Y668560D01*
X817540Y672500D01*
X817540Y687080D01*
X813600Y691020D01*
G37*
G36*
X888700Y1293020D02*
G01*
X884760Y1289079D01*
X884760Y1274500D01*
X888700Y1270560D01*
X900699Y1270560D01*
X904640Y1266620D01*
X904640Y1251380D01*
X900699Y1247440D01*
X888700Y1247440D01*
X884760Y1243500D01*
X884760Y1228920D01*
X888700Y1224980D01*
X939300Y1224980D01*
X943220Y1228920D01*
X943220Y1289079D01*
X939300Y1293020D01*
G37*
G36*
X763300Y1293020D02*
G01*
X759380Y1289079D01*
X759380Y1228920D01*
X763300Y1224980D01*
X813900Y1224980D01*
X817840Y1228920D01*
X817840Y1243500D01*
X813900Y1247440D01*
X801900Y1247440D01*
X797960Y1251380D01*
X797960Y1266620D01*
X801900Y1270560D01*
X813900Y1270560D01*
X817840Y1274500D01*
X817840Y1289079D01*
X813900Y1293020D01*
G37*
G36*
X888700Y1207020D02*
G01*
X884760Y1203080D01*
X884760Y1188500D01*
X888700Y1184560D01*
X900699Y1184560D01*
X904640Y1180620D01*
X904640Y1165380D01*
X900699Y1161440D01*
X888700Y1161440D01*
X884760Y1157500D01*
X884760Y1142920D01*
X888700Y1138980D01*
X939300Y1138980D01*
X943220Y1142920D01*
X943220Y1203080D01*
X939300Y1207020D01*
G37*
G36*
X763300Y1207020D02*
G01*
X759380Y1203080D01*
X759380Y1142920D01*
X763300Y1138980D01*
X813900Y1138980D01*
X817840Y1142920D01*
X817840Y1157500D01*
X813900Y1161440D01*
X801900Y1161440D01*
X797960Y1165380D01*
X797960Y1180620D01*
X801900Y1184560D01*
X813900Y1184560D01*
X817840Y1188500D01*
X817840Y1203080D01*
X813900Y1207020D01*
G37*
G36*
X888700Y1121020D02*
G01*
X884760Y1117080D01*
X884760Y1102500D01*
X888700Y1098560D01*
X900699Y1098560D01*
X904640Y1094620D01*
X904640Y1079380D01*
X900699Y1075440D01*
X888700Y1075440D01*
X884760Y1071500D01*
X884760Y1056920D01*
X888700Y1052980D01*
X939300Y1052980D01*
X943220Y1056920D01*
X943220Y1117080D01*
X939300Y1121020D01*
G37*
G36*
X763300Y1121020D02*
G01*
X759380Y1117080D01*
X759380Y1056920D01*
X763300Y1052980D01*
X813900Y1052980D01*
X817840Y1056920D01*
X817840Y1071500D01*
X813900Y1075440D01*
X801900Y1075440D01*
X797960Y1079380D01*
X797960Y1094620D01*
X801900Y1098560D01*
X813900Y1098560D01*
X817840Y1102500D01*
X817840Y1117080D01*
X813900Y1121020D01*
G37*
G36*
X888400Y605020D02*
G01*
X884460Y601080D01*
X884460Y586500D01*
X888400Y582560D01*
X900400Y582560D01*
X904340Y578620D01*
X904340Y563360D01*
X900400Y559440D01*
X888400Y559440D01*
X884460Y555500D01*
X884460Y540920D01*
X888400Y536980D01*
X938980Y536980D01*
X942920Y540920D01*
X942920Y601080D01*
X938980Y605020D01*
G37*
G36*
X763000Y605020D02*
G01*
X759060Y601080D01*
X759060Y540920D01*
X763000Y536980D01*
X813600Y536980D01*
X817540Y540920D01*
X817540Y555500D01*
X813600Y559440D01*
X801580Y559440D01*
X797660Y563360D01*
X797660Y578620D01*
X801580Y582560D01*
X813600Y582560D01*
X817540Y586500D01*
X817540Y601080D01*
X813600Y605020D01*
G37*
G36*
X561000Y605020D02*
G01*
X557060Y601080D01*
X557060Y540920D01*
X561000Y536980D01*
X611600Y536980D01*
X615540Y540920D01*
X615540Y555500D01*
X611600Y559440D01*
X599580Y559440D01*
X595660Y563360D01*
X595660Y578620D01*
X599580Y582560D01*
X611600Y582560D01*
X615540Y586500D01*
X615540Y601080D01*
X611600Y605020D01*
G37*
G36*
X686400Y605020D02*
G01*
X682460Y601080D01*
X682460Y586500D01*
X686400Y582560D01*
X698400Y582560D01*
X702340Y578620D01*
X702340Y563360D01*
X698400Y559440D01*
X686400Y559440D01*
X682460Y555500D01*
X682460Y540920D01*
X686400Y536980D01*
X736979Y536980D01*
X740920Y540920D01*
X740920Y601080D01*
X736979Y605020D01*
G37*
G36*
X561300Y1293020D02*
G01*
X557380Y1289079D01*
X557380Y1228920D01*
X561300Y1224980D01*
X611900Y1224980D01*
X615840Y1228920D01*
X615840Y1243500D01*
X611900Y1247440D01*
X599900Y1247440D01*
X595960Y1251380D01*
X595960Y1266620D01*
X599900Y1270560D01*
X611900Y1270560D01*
X615840Y1274500D01*
X615840Y1289079D01*
X611900Y1293020D01*
G37*
G36*
X686700Y1293020D02*
G01*
X682760Y1289079D01*
X682760Y1274500D01*
X686700Y1270560D01*
X698700Y1270560D01*
X702640Y1266620D01*
X702640Y1251380D01*
X698700Y1247440D01*
X686700Y1247440D01*
X682760Y1243500D01*
X682760Y1228920D01*
X686700Y1224980D01*
X737300Y1224980D01*
X741220Y1228920D01*
X741220Y1289079D01*
X737300Y1293020D01*
G37*
G36*
X561300Y1207020D02*
G01*
X557380Y1203080D01*
X557380Y1142920D01*
X561300Y1138980D01*
X611900Y1138980D01*
X615840Y1142920D01*
X615840Y1157500D01*
X611900Y1161440D01*
X599900Y1161440D01*
X595960Y1165380D01*
X595960Y1180620D01*
X599900Y1184560D01*
X611900Y1184560D01*
X615840Y1188500D01*
X615840Y1203080D01*
X611900Y1207020D01*
G37*
G36*
X686700Y1207020D02*
G01*
X682760Y1203080D01*
X682760Y1188500D01*
X686700Y1184560D01*
X698700Y1184560D01*
X702640Y1180620D01*
X702640Y1165380D01*
X698700Y1161440D01*
X686700Y1161440D01*
X682760Y1157500D01*
X682760Y1142920D01*
X686700Y1138980D01*
X737300Y1138980D01*
X741220Y1142920D01*
X741220Y1203080D01*
X737300Y1207020D01*
G37*
G36*
X561300Y1121020D02*
G01*
X557380Y1117080D01*
X557380Y1056920D01*
X561300Y1052980D01*
X611900Y1052980D01*
X615840Y1056920D01*
X615840Y1071500D01*
X611900Y1075440D01*
X599900Y1075440D01*
X595960Y1079380D01*
X595960Y1094620D01*
X599900Y1098560D01*
X611900Y1098560D01*
X615840Y1102500D01*
X615840Y1117080D01*
X611900Y1121020D01*
G37*
G36*
X686700Y1121020D02*
G01*
X682760Y1117080D01*
X682760Y1102500D01*
X686700Y1098560D01*
X698700Y1098560D01*
X702640Y1094620D01*
X702640Y1079380D01*
X698700Y1075440D01*
X686700Y1075440D01*
X682760Y1071500D01*
X682760Y1056920D01*
X686700Y1052980D01*
X737300Y1052980D01*
X741220Y1056920D01*
X741220Y1117080D01*
X737300Y1121020D01*
G37*
G36*
X561300Y1035020D02*
G01*
X557380Y1031080D01*
X557380Y970920D01*
X561300Y966979D01*
X611900Y966979D01*
X615840Y970920D01*
X615840Y985500D01*
X611900Y989440D01*
X599900Y989440D01*
X595960Y993379D01*
X595960Y1008620D01*
X599900Y1012560D01*
X611900Y1012560D01*
X615840Y1016500D01*
X615840Y1031080D01*
X611900Y1035020D01*
G37*
G36*
X686700Y1035020D02*
G01*
X682760Y1031080D01*
X682760Y1016500D01*
X686700Y1012560D01*
X698700Y1012560D01*
X702640Y1008620D01*
X702640Y993379D01*
X698700Y989440D01*
X686700Y989440D01*
X682760Y985500D01*
X682760Y970920D01*
X686700Y966979D01*
X737300Y966979D01*
X741220Y970920D01*
X741220Y1031080D01*
X737300Y1035020D01*
G37*
G36*
X888400Y519020D02*
G01*
X884460Y515080D01*
X884460Y500500D01*
X888400Y496560D01*
X900400Y496560D01*
X904340Y492620D01*
X904340Y477380D01*
X900400Y473440D01*
X888400Y473440D01*
X884460Y469500D01*
X884460Y454920D01*
X888400Y450980D01*
X938980Y450980D01*
X942920Y454920D01*
X942920Y515080D01*
X938980Y519020D01*
G37*
G36*
X763000Y519020D02*
G01*
X759060Y515080D01*
X759060Y454920D01*
X763000Y450980D01*
X813600Y450980D01*
X817540Y454920D01*
X817540Y469500D01*
X813600Y473440D01*
X801580Y473440D01*
X797660Y477380D01*
X797660Y492620D01*
X801580Y496560D01*
X813600Y496560D01*
X817540Y500500D01*
X817540Y515080D01*
X813600Y519020D01*
G37*
G36*
X888700Y949020D02*
G01*
X884760Y945080D01*
X884760Y930500D01*
X888700Y926560D01*
X900699Y926560D01*
X904640Y922620D01*
X904640Y907380D01*
X900699Y903439D01*
X888700Y903439D01*
X884760Y899500D01*
X884760Y884920D01*
X888700Y880980D01*
X939300Y880980D01*
X943220Y884920D01*
X943220Y945080D01*
X939300Y949020D01*
G37*
G36*
X763300Y949020D02*
G01*
X759380Y945080D01*
X759380Y884920D01*
X763300Y880980D01*
X813900Y880980D01*
X817840Y884920D01*
X817840Y899500D01*
X813900Y903439D01*
X801900Y903439D01*
X797960Y907380D01*
X797960Y922620D01*
X801900Y926560D01*
X813900Y926560D01*
X817840Y930500D01*
X817840Y945080D01*
X813900Y949020D01*
G37*
G36*
X561300Y949020D02*
G01*
X557380Y945080D01*
X557380Y884920D01*
X561300Y880980D01*
X611900Y880980D01*
X615840Y884920D01*
X615840Y899500D01*
X611900Y903439D01*
X599900Y903439D01*
X595960Y907380D01*
X595960Y922620D01*
X599900Y926560D01*
X611900Y926560D01*
X615840Y930500D01*
X615840Y945080D01*
X611900Y949020D01*
G37*
G36*
X686700Y949020D02*
G01*
X682760Y945080D01*
X682760Y930500D01*
X686700Y926560D01*
X698700Y926560D01*
X702640Y922620D01*
X702640Y907380D01*
X698700Y903439D01*
X686700Y903439D01*
X682760Y899500D01*
X682760Y884920D01*
X686700Y880980D01*
X737300Y880980D01*
X741220Y884920D01*
X741220Y945080D01*
X737300Y949020D01*
G37*
G36*
X561700Y1379019D02*
G01*
X557780Y1375080D01*
X557780Y1314920D01*
X561700Y1310980D01*
X612300Y1310980D01*
X616240Y1314920D01*
X616240Y1329500D01*
X612300Y1333440D01*
X600300Y1333440D01*
X596360Y1337380D01*
X596360Y1352620D01*
X600300Y1356560D01*
X612300Y1356560D01*
X616240Y1360500D01*
X616240Y1375080D01*
X612300Y1379019D01*
G37*
G36*
X687099Y1379019D02*
G01*
X683160Y1375080D01*
X683160Y1360500D01*
X687099Y1356560D01*
X699100Y1356560D01*
X703040Y1352620D01*
X703040Y1337380D01*
X699100Y1333440D01*
X687099Y1333440D01*
X683160Y1329500D01*
X683160Y1314920D01*
X687099Y1310980D01*
X737700Y1310980D01*
X741620Y1314920D01*
X741620Y1375080D01*
X737700Y1379019D01*
G37*
G36*
X561700Y1465020D02*
G01*
X557780Y1461080D01*
X557780Y1400920D01*
X561700Y1396980D01*
X612300Y1396980D01*
X616240Y1400920D01*
X616240Y1415500D01*
X612300Y1419440D01*
X600300Y1419440D01*
X596360Y1423380D01*
X596360Y1438620D01*
X600300Y1442560D01*
X612300Y1442560D01*
X616240Y1446500D01*
X616240Y1461080D01*
X612300Y1465020D01*
G37*
G36*
X687099Y1465020D02*
G01*
X683160Y1461080D01*
X683160Y1446500D01*
X687099Y1442560D01*
X699100Y1442560D01*
X703040Y1438620D01*
X703040Y1423380D01*
X699100Y1419440D01*
X687099Y1419440D01*
X683160Y1415500D01*
X683160Y1400920D01*
X687099Y1396980D01*
X737700Y1396980D01*
X741620Y1400920D01*
X741620Y1461080D01*
X737700Y1465020D01*
G37*
G36*
X888700Y1465020D02*
G01*
X884760Y1461080D01*
X884760Y1446500D01*
X888700Y1442560D01*
X900699Y1442560D01*
X904640Y1438620D01*
X904640Y1423380D01*
X900699Y1419440D01*
X888700Y1419440D01*
X884760Y1415500D01*
X884760Y1400920D01*
X888700Y1396980D01*
X939300Y1396980D01*
X943220Y1400920D01*
X943220Y1461080D01*
X939300Y1465020D01*
G37*
G36*
X763300Y1465020D02*
G01*
X759380Y1461080D01*
X759380Y1400920D01*
X763300Y1396980D01*
X813900Y1396980D01*
X817840Y1400920D01*
X817840Y1415500D01*
X813900Y1419440D01*
X801900Y1419440D01*
X797960Y1423380D01*
X797960Y1438620D01*
X801900Y1442560D01*
X813900Y1442560D01*
X817840Y1446500D01*
X817840Y1461080D01*
X813900Y1465020D01*
G37*
G36*
X763300Y1379019D02*
G01*
X759380Y1375080D01*
X759380Y1314920D01*
X763300Y1310980D01*
X813900Y1310980D01*
X817840Y1314920D01*
X817840Y1329500D01*
X813900Y1333440D01*
X801900Y1333440D01*
X797960Y1337380D01*
X797960Y1352620D01*
X801900Y1356560D01*
X813900Y1356560D01*
X817840Y1360500D01*
X817840Y1375080D01*
X813900Y1379019D01*
G37*
G36*
X888700Y1379019D02*
G01*
X884760Y1375080D01*
X884760Y1360500D01*
X888700Y1356560D01*
X900699Y1356560D01*
X904640Y1352620D01*
X904640Y1337380D01*
X900699Y1333440D01*
X888700Y1333440D01*
X884760Y1329500D01*
X884760Y1314920D01*
X888700Y1310980D01*
X939300Y1310980D01*
X943220Y1314920D01*
X943220Y1375080D01*
X939300Y1379019D01*
G37*
G36*
X686400Y691020D02*
G01*
X682460Y687080D01*
X682460Y672500D01*
X686400Y668560D01*
X698400Y668560D01*
X702340Y664620D01*
X702340Y649360D01*
X698400Y645440D01*
X686400Y645440D01*
X682460Y641500D01*
X682460Y626920D01*
X686400Y622980D01*
X736979Y622980D01*
X740920Y626920D01*
X740920Y687080D01*
X736979Y691020D01*
G37*
G36*
X561000Y691020D02*
G01*
X557060Y687080D01*
X557060Y626920D01*
X561000Y622980D01*
X611600Y622980D01*
X615540Y626920D01*
X615540Y641500D01*
X611600Y645440D01*
X599580Y645440D01*
X595660Y649360D01*
X595660Y664620D01*
X599580Y668560D01*
X611600Y668560D01*
X615540Y672500D01*
X615540Y687080D01*
X611600Y691020D01*
G37*
G36*
X686400Y519020D02*
G01*
X682460Y515080D01*
X682460Y500500D01*
X686400Y496560D01*
X698400Y496560D01*
X702340Y492620D01*
X702340Y477380D01*
X698400Y473440D01*
X686400Y473440D01*
X682460Y469500D01*
X682460Y454920D01*
X686400Y450980D01*
X736979Y450980D01*
X740920Y454920D01*
X740920Y515080D01*
X736979Y519020D01*
G37*
G36*
X561000Y519020D02*
G01*
X557060Y515080D01*
X557060Y454920D01*
X561000Y450980D01*
X611600Y450980D01*
X615540Y454920D01*
X615540Y469500D01*
X611600Y473440D01*
X599580Y473440D01*
X595660Y477380D01*
X595660Y492620D01*
X599580Y496560D01*
X611600Y496560D01*
X615540Y500500D01*
X615540Y515080D01*
X611600Y519020D01*
G37*
G36*
X763300Y1035020D02*
G01*
X759380Y1031080D01*
X759380Y970920D01*
X763300Y966979D01*
X813900Y966979D01*
X817840Y970920D01*
X817840Y985500D01*
X813900Y989440D01*
X801900Y989440D01*
X797960Y993379D01*
X797960Y1008620D01*
X801900Y1012560D01*
X813900Y1012560D01*
X817840Y1016500D01*
X817840Y1031080D01*
X813900Y1035020D01*
G37*
G36*
X888700Y1035020D02*
G01*
X884760Y1031080D01*
X884760Y1016500D01*
X888700Y1012560D01*
X900699Y1012560D01*
X904640Y1008620D01*
X904640Y993379D01*
X900699Y989440D01*
X888700Y989440D01*
X884760Y985500D01*
X884760Y970920D01*
X888700Y966979D01*
X939300Y966979D01*
X943220Y970920D01*
X943220Y1031080D01*
X939300Y1035020D01*
G37*
D10*
G01*
X1355349Y970000D03*
G01*
X1355349Y1020000D03*
G01*
X1355349Y1070000D03*
G01*
X1355349Y1120000D03*
D11*
G01*
X1195344Y1045008D03*
D10*
G01*
X1355349Y1195000D03*
G01*
X1355349Y1245000D03*
G01*
X1355349Y1295000D03*
G01*
X1355349Y1345000D03*
D11*
G01*
X1195344Y1270008D03*
D10*
G01*
X1355349Y1420000D03*
G01*
X1355349Y1470000D03*
G01*
X1355349Y1520000D03*
G01*
X1355349Y1570000D03*
D11*
G01*
X1195344Y1495008D03*
D10*
G01*
X1355850Y253000D03*
G01*
X1355850Y303000D03*
G01*
X1355850Y353000D03*
G01*
X1355850Y403000D03*
D11*
G01*
X1195844Y328007D03*
D10*
G01*
X1355349Y475000D03*
G01*
X1355349Y525000D03*
G01*
X1355349Y575000D03*
G01*
X1355349Y625000D03*
D11*
G01*
X1195344Y550008D03*
D10*
G01*
X1355349Y700000D03*
G01*
X1355349Y750000D03*
G01*
X1355349Y800000D03*
G01*
X1355349Y850000D03*
D11*
G01*
X1195344Y775008D03*
D10*
G01*
X143649Y1120000D03*
G01*
X143649Y1070000D03*
G01*
X143649Y1020000D03*
G01*
X143649Y970000D03*
D12*
G01*
X303655Y1044991D03*
D10*
G01*
X143649Y1345000D03*
G01*
X143649Y1295000D03*
G01*
X143649Y1245000D03*
G01*
X143649Y1195000D03*
D12*
G01*
X303655Y1269991D03*
D10*
G01*
X143649Y1570000D03*
G01*
X143649Y1520000D03*
G01*
X143649Y1470000D03*
G01*
X143649Y1420000D03*
D12*
G01*
X303655Y1494991D03*
D10*
G01*
X143649Y400999D03*
G01*
X143649Y350999D03*
G01*
X143649Y300999D03*
G01*
X143649Y250999D03*
D12*
G01*
X303655Y325992D03*
D10*
G01*
X143649Y625999D03*
G01*
X143649Y575999D03*
G01*
X143649Y525999D03*
G01*
X143649Y475999D03*
D12*
G01*
X303655Y550992D03*
D10*
G01*
X143649Y850999D03*
G01*
X143649Y800999D03*
G01*
X143649Y750999D03*
G01*
X143649Y700999D03*
D12*
G01*
X303655Y775992D03*
M02*
