G04 Layer: BottomSilkscreenLayer*
G04 EasyEDA v6.5.22, 2023-04-03 14:03:43*
G04 87db6ba2ad084763a29da5206ccfc978,3cec5f453c3247449836eb28e2eac2c3,10*
G04 Gerber Generator version 0.2*
G04 Scale: 100 percent, Rotated: No, Reflected: No *
G04 Dimensions in inches *
G04 leading zeros omitted , absolute positions ,3 integer and 6 decimal *
%FSLAX36Y36*%
%MOIN*%

%ADD10C,0.0060*%
%ADD11C,0.0059*%
%ADD12C,0.0047*%

%LPD*%
D10*
X921818Y1524863D02*
G01*
X921818Y1495772D01*
X923635Y1490318D01*
X925455Y1488499D01*
X929090Y1486682D01*
X932727Y1486682D01*
X936364Y1488499D01*
X938181Y1490318D01*
X940000Y1495772D01*
X940000Y1499409D01*
X909817Y1524863D02*
G01*
X909817Y1486682D01*
X909817Y1486682D02*
G01*
X888000Y1486682D01*
X848726Y1515772D02*
G01*
X850545Y1519409D01*
X854182Y1523045D01*
X857817Y1524863D01*
X865091Y1524863D01*
X868726Y1523045D01*
X872363Y1519409D01*
X874182Y1515772D01*
X876000Y1510318D01*
X876000Y1501226D01*
X874182Y1495772D01*
X872363Y1492136D01*
X868726Y1488499D01*
X865091Y1486682D01*
X857817Y1486682D01*
X854182Y1488499D01*
X850545Y1492136D01*
X848726Y1495772D01*
X818545Y1524863D02*
G01*
X818545Y1495772D01*
X820363Y1490318D01*
X822182Y1488499D01*
X825817Y1486682D01*
X829454Y1486682D01*
X833091Y1488499D01*
X834908Y1490318D01*
X836727Y1495772D01*
X836727Y1499409D01*
X806544Y1524863D02*
G01*
X806544Y1486682D01*
X806544Y1486682D02*
G01*
X784727Y1486682D01*
X745455Y1515772D02*
G01*
X747273Y1519409D01*
X750909Y1523045D01*
X754544Y1524863D01*
X761818Y1524863D01*
X765455Y1523045D01*
X769090Y1519409D01*
X770909Y1515772D01*
X772727Y1510318D01*
X772727Y1501226D01*
X770909Y1495772D01*
X769090Y1492136D01*
X765455Y1488499D01*
X761818Y1486682D01*
X754544Y1486682D01*
X750909Y1488499D01*
X747273Y1492136D01*
X745455Y1495772D01*
X715273Y1524863D02*
G01*
X715273Y1495772D01*
X717091Y1490318D01*
X718908Y1488499D01*
X722545Y1486682D01*
X726181Y1486682D01*
X729818Y1488499D01*
X731635Y1490318D01*
X733454Y1495772D01*
X733454Y1499409D01*
X703272Y1524863D02*
G01*
X703272Y1486682D01*
X703272Y1486682D02*
G01*
X681455Y1486682D01*
X642181Y1515772D02*
G01*
X644000Y1519409D01*
X647636Y1523045D01*
X651273Y1524863D01*
X658544Y1524863D01*
X662181Y1523045D01*
X665817Y1519409D01*
X667636Y1515772D01*
X669454Y1510318D01*
X669454Y1501226D01*
X667636Y1495772D01*
X665817Y1492136D01*
X662181Y1488499D01*
X658544Y1486682D01*
X651273Y1486682D01*
X647636Y1488499D01*
X644000Y1492136D01*
X642181Y1495772D01*
X611999Y1524863D02*
G01*
X611999Y1495772D01*
X613818Y1490318D01*
X615635Y1488499D01*
X619272Y1486682D01*
X622908Y1486682D01*
X626545Y1488499D01*
X628364Y1490318D01*
X630181Y1495772D01*
X630181Y1499409D01*
X600000Y1524863D02*
G01*
X600000Y1486682D01*
X600000Y1486682D02*
G01*
X578182Y1486682D01*
X538908Y1515772D02*
G01*
X540727Y1519409D01*
X544364Y1523045D01*
X548000Y1524863D01*
X555273Y1524863D01*
X558908Y1523045D01*
X562545Y1519409D01*
X564364Y1515772D01*
X566181Y1510318D01*
X566181Y1501226D01*
X564364Y1495772D01*
X562545Y1492136D01*
X558908Y1488499D01*
X555273Y1486682D01*
X548000Y1486682D01*
X544364Y1488499D01*
X540727Y1492136D01*
X538908Y1495772D01*
D11*
X1278000Y934949D02*
G01*
X1256499Y934949D01*
X1272600Y926050D02*
G01*
X1261899Y943850D01*
X1272600Y943850D02*
G01*
X1261899Y926050D01*
X1278000Y934949D02*
G01*
X1256499Y934949D01*
X1272600Y926050D02*
G01*
X1261899Y943850D01*
X1272600Y943850D02*
G01*
X1261899Y926050D01*
X1278000Y1159949D02*
G01*
X1256499Y1159949D01*
X1272600Y1151050D02*
G01*
X1261899Y1168850D01*
X1272600Y1168850D02*
G01*
X1261899Y1151050D01*
X1278000Y1159949D02*
G01*
X1256499Y1159949D01*
X1272600Y1151050D02*
G01*
X1261899Y1168850D01*
X1272600Y1168850D02*
G01*
X1261899Y1151050D01*
X1278000Y1384949D02*
G01*
X1256499Y1384949D01*
X1272600Y1376050D02*
G01*
X1261899Y1393850D01*
X1272600Y1393850D02*
G01*
X1261899Y1376050D01*
X1278000Y1384949D02*
G01*
X1256499Y1384949D01*
X1272600Y1376050D02*
G01*
X1261899Y1393850D01*
X1272600Y1393850D02*
G01*
X1261899Y1376050D01*
X1278000Y214949D02*
G01*
X1256499Y214949D01*
X1272600Y206050D02*
G01*
X1261899Y223850D01*
X1272600Y223850D02*
G01*
X1261899Y206050D01*
X1278000Y214949D02*
G01*
X1256499Y214949D01*
X1272600Y206050D02*
G01*
X1261899Y223850D01*
X1272600Y223850D02*
G01*
X1261899Y206050D01*
X1278000Y440450D02*
G01*
X1256499Y440450D01*
X1272600Y431550D02*
G01*
X1261899Y449349D01*
X1272600Y449349D02*
G01*
X1261899Y431550D01*
X1278000Y440450D02*
G01*
X1256499Y440450D01*
X1272600Y431550D02*
G01*
X1261899Y449349D01*
X1272600Y449349D02*
G01*
X1261899Y431550D01*
X1278000Y664949D02*
G01*
X1256499Y664949D01*
X1272600Y656050D02*
G01*
X1261899Y673850D01*
X1272600Y673850D02*
G01*
X1261899Y656050D01*
X1278000Y664949D02*
G01*
X1256499Y664949D01*
X1272600Y656050D02*
G01*
X1261899Y673850D01*
X1272600Y673850D02*
G01*
X1261899Y656050D01*
X220999Y1155050D02*
G01*
X242500Y1155050D01*
X226399Y1163949D02*
G01*
X237100Y1146149D01*
X226399Y1146149D02*
G01*
X237100Y1163949D01*
X220999Y1155050D02*
G01*
X242500Y1155050D01*
X226399Y1163949D02*
G01*
X237100Y1146149D01*
X226399Y1146149D02*
G01*
X237100Y1163949D01*
X220999Y1380050D02*
G01*
X242500Y1380050D01*
X226399Y1388949D02*
G01*
X237100Y1371149D01*
X226399Y1371149D02*
G01*
X237100Y1388949D01*
X220999Y1380050D02*
G01*
X242500Y1380050D01*
X226399Y1388949D02*
G01*
X237100Y1371149D01*
X226399Y1371149D02*
G01*
X237100Y1388949D01*
X220999Y1605050D02*
G01*
X242500Y1605050D01*
X226399Y1613949D02*
G01*
X237100Y1596149D01*
X226399Y1596149D02*
G01*
X237100Y1613949D01*
X220999Y1605050D02*
G01*
X242500Y1605050D01*
X226399Y1613949D02*
G01*
X237100Y1596149D01*
X226399Y1596149D02*
G01*
X237100Y1613949D01*
X220999Y436050D02*
G01*
X242500Y436050D01*
X226399Y444949D02*
G01*
X237100Y427150D01*
X226399Y427150D02*
G01*
X237100Y444949D01*
X220999Y436050D02*
G01*
X242500Y436050D01*
X226399Y444949D02*
G01*
X237100Y427150D01*
X226399Y427150D02*
G01*
X237100Y444949D01*
X220999Y661050D02*
G01*
X242500Y661050D01*
X226399Y669949D02*
G01*
X237100Y652150D01*
X226399Y652150D02*
G01*
X237100Y669949D01*
X220999Y661050D02*
G01*
X242500Y661050D01*
X226399Y669949D02*
G01*
X237100Y652150D01*
X226399Y652150D02*
G01*
X237100Y669949D01*
X220500Y885549D02*
G01*
X241999Y885549D01*
X225900Y894450D02*
G01*
X236599Y876649D01*
X225900Y876649D02*
G01*
X236599Y894450D01*
X220500Y885549D02*
G01*
X241999Y885549D01*
X225900Y894450D02*
G01*
X236599Y876649D01*
X225900Y876649D02*
G01*
X236599Y894450D01*
G36*
X420500Y1476500D02*
G01*
X421000Y275500D01*
X1082000Y275500D01*
X1082000Y1476500D01*
G37*
D12*
X1471999Y951900D02*
G01*
X1471999Y942500D01*
X1286000Y942500D01*
X1286000Y1149499D01*
X1471999Y1149499D01*
X1471999Y1140100D01*
X1471999Y1176900D02*
G01*
X1471999Y1167500D01*
X1286000Y1167500D01*
X1286000Y1374499D01*
X1471999Y1374499D01*
X1471999Y1365100D01*
X1471999Y1401900D02*
G01*
X1471999Y1392500D01*
X1286000Y1392500D01*
X1286000Y1599499D01*
X1471999Y1599499D01*
X1471999Y1590100D01*
X1471999Y231900D02*
G01*
X1471999Y222500D01*
X1286000Y222500D01*
X1286000Y429499D01*
X1471999Y429499D01*
X1471999Y420100D01*
X1471999Y457399D02*
G01*
X1471999Y448000D01*
X1286000Y448000D01*
X1286000Y655000D01*
X1471999Y655000D01*
X1471999Y645599D01*
X1471999Y681900D02*
G01*
X1471999Y672500D01*
X1286000Y672500D01*
X1286000Y879499D01*
X1471999Y879499D01*
X1471999Y870100D01*
X26999Y1138099D02*
G01*
X26999Y1147500D01*
X213000Y1147500D01*
X213000Y940500D01*
X26999Y940500D01*
X26999Y949899D01*
X26999Y1363099D02*
G01*
X26999Y1372500D01*
X213000Y1372500D01*
X213000Y1165500D01*
X26999Y1165500D01*
X26999Y1174899D01*
X26999Y1588099D02*
G01*
X26999Y1597500D01*
X213000Y1597500D01*
X213000Y1390500D01*
X26999Y1390500D01*
X26999Y1399899D01*
X26999Y419099D02*
G01*
X26999Y428499D01*
X213000Y428499D01*
X213000Y221500D01*
X26999Y221500D01*
X26999Y230900D01*
X26999Y644099D02*
G01*
X26999Y653499D01*
X213000Y653499D01*
X213000Y446500D01*
X26999Y446500D01*
X26999Y455900D01*
X26500Y868600D02*
G01*
X26500Y878000D01*
X212500Y878000D01*
X212500Y670999D01*
X26500Y670999D01*
X26500Y680399D01*
D10*
X1206905Y432130D02*
G01*
X1235174Y432130D01*
X1235174Y392869D01*
X1206905Y392869D01*
X1189093Y432130D02*
G01*
X1160825Y432130D01*
X1160825Y392869D01*
X1189093Y392869D01*
X1201905Y656630D02*
G01*
X1230174Y656630D01*
X1230174Y617370D01*
X1201905Y617370D01*
X1184093Y656630D02*
G01*
X1155825Y656630D01*
X1155825Y617370D01*
X1184093Y617370D01*
X1201905Y891630D02*
G01*
X1230174Y891630D01*
X1230174Y852370D01*
X1201905Y852370D01*
X1184093Y891630D02*
G01*
X1155825Y891630D01*
X1155825Y852370D01*
X1184093Y852370D01*
X300594Y941869D02*
G01*
X272325Y941869D01*
X272325Y981129D01*
X300594Y981129D01*
X318405Y941869D02*
G01*
X346675Y941869D01*
X346675Y981129D01*
X318405Y981129D01*
X298593Y1163370D02*
G01*
X270324Y1163370D01*
X270324Y1202629D01*
X298593Y1202629D01*
X316406Y1163370D02*
G01*
X344675Y1163370D01*
X344675Y1202629D01*
X316406Y1202629D01*
X299094Y1386869D02*
G01*
X270824Y1386869D01*
X270824Y1426129D01*
X299094Y1426129D01*
X316905Y1386869D02*
G01*
X345174Y1386869D01*
X345174Y1426129D01*
X316905Y1426129D01*
X311594Y211869D02*
G01*
X283324Y211869D01*
X283324Y251129D01*
X311594Y251129D01*
X329405Y211869D02*
G01*
X357674Y211869D01*
X357674Y251129D01*
X329405Y251129D01*
X293094Y426370D02*
G01*
X264825Y426370D01*
X264825Y465630D01*
X293094Y465630D01*
X310905Y426370D02*
G01*
X339175Y426370D01*
X339175Y465630D01*
X310905Y465630D01*
X298094Y664369D02*
G01*
X269825Y664369D01*
X269825Y703629D01*
X298094Y703629D01*
X315905Y664369D02*
G01*
X344175Y664369D01*
X344175Y703629D01*
X315905Y703629D01*
X1192093Y1162629D02*
G01*
X1163824Y1162629D01*
X1163824Y1123370D01*
X1192093Y1123370D01*
X1209906Y1162629D02*
G01*
X1238175Y1162629D01*
X1238175Y1123370D01*
X1209906Y1123370D01*
X1183094Y1383629D02*
G01*
X1154825Y1383629D01*
X1154825Y1344369D01*
X1183094Y1344369D01*
X1200906Y1383629D02*
G01*
X1229174Y1383629D01*
X1229174Y1344369D01*
X1200906Y1344369D01*
X1183094Y1597130D02*
G01*
X1154825Y1597130D01*
X1154825Y1557869D01*
X1183094Y1557869D01*
X1200906Y1597130D02*
G01*
X1229174Y1597130D01*
X1229174Y1557869D01*
X1200906Y1557869D01*
M02*
