G04 Layer: BottomSolderMaskLayer*
G04 EasyEDA v6.5.22, 2023-04-03 14:03:43*
G04 87db6ba2ad084763a29da5206ccfc978,3cec5f453c3247449836eb28e2eac2c3,10*
G04 Gerber Generator version 0.2*
G04 Scale: 100 percent, Rotated: No, Reflected: No *
G04 Dimensions in inches *
G04 leading zeros omitted , absolute positions ,3 integer and 6 decimal *
%FSLAX36Y36*%
%MOIN*%

%AMMACRO1*4,1,4,-0.0836,-0.083,-0.0836,0.083,0.0836,0.083,0.0836,-0.083,-0.0836,-0.083,0*%
%AMMACRO2*4,1,4,-0.0837,-0.083,-0.0837,0.083,0.0837,0.083,0.0837,-0.083,-0.0837,-0.083,0*%
%AMMACRO3*1,1,$1,$2,$3*1,1,$1,$4,$5*1,1,$1,0-$2,0-$3*1,1,$1,0-$4,0-$5*20,1,$1,$2,$3,$4,$5,0*20,1,$1,$4,$5,0-$2,0-$3,0*20,1,$1,0-$2,0-$3,0-$4,0-$5,0*20,1,$1,0-$4,0-$5,$2,$3,0*4,1,4,$2,$3,$4,$5,0-$2,0-$3,0-$4,0-$5,$2,$3,0*%
%ADD10O,0.063938X0.043938*%
%ADD11O,0.043938X0.053938*%
%ADD12O,0.043938X0.063938*%
%ADD13O,0.04730700000000001X0.030772*%
%ADD14MACRO1*%
%ADD15MACRO2*%
%ADD16MACRO3,0.004X-0.0111X0.0106X-0.0111X-0.0106*%
%ADD17MACRO3,0.004X0.0111X0.0106X0.0111X-0.0106*%
%ADD18MACRO3,0.004X0.0111X-0.0106X0.0111X0.0106*%
%ADD19MACRO3,0.004X-0.0111X-0.0106X-0.0111X0.0106*%
%ADD20C,0.2039*%
%ADD21C,0.0589*%
%ADD22R,0.0440X0.1740*%
%ADD23MACRO3,0.004X-0.02X-0.085X-0.02X0.085*%

%LPD*%
D10*
G01*
X380000Y1425000D03*
G01*
X380000Y1485000D03*
G01*
X380000Y1365000D03*
G01*
X380000Y1125000D03*
G01*
X380000Y1245000D03*
G01*
X380000Y1185000D03*
G01*
X380000Y1305000D03*
D11*
G01*
X540000Y1585000D03*
G01*
X630000Y1585000D03*
G01*
X870000Y1585000D03*
G01*
X690000Y1585000D03*
G01*
X810000Y1585000D03*
G01*
X750000Y1585000D03*
G01*
X480000Y1585000D03*
D10*
G01*
X380000Y1065000D03*
G01*
X380000Y945000D03*
G01*
X380000Y1005000D03*
G01*
X380000Y765000D03*
G01*
X380000Y705000D03*
G01*
X380000Y645000D03*
G01*
X380000Y585000D03*
G01*
X380000Y525000D03*
G01*
X380000Y465000D03*
G01*
X380000Y405000D03*
G01*
X380000Y345000D03*
D12*
G01*
X600000Y245000D03*
G01*
X480000Y245000D03*
G01*
X540000Y245000D03*
G01*
X900000Y245000D03*
G01*
X960000Y245000D03*
G01*
X1020000Y245000D03*
D11*
G01*
X1020000Y1585000D03*
G01*
X960000Y1585000D03*
D10*
G01*
X1120000Y1485000D03*
G01*
X1120000Y1425000D03*
G01*
X1120000Y1185000D03*
G01*
X1120000Y1245000D03*
G01*
X1120000Y1365000D03*
G01*
X1120000Y1305000D03*
G01*
X1120000Y945000D03*
G01*
X1120000Y1005000D03*
G01*
X1120000Y1125000D03*
G01*
X1120000Y1065000D03*
G01*
X1120000Y345000D03*
G01*
X1120000Y405000D03*
G01*
X1120000Y525000D03*
G01*
X1120000Y465000D03*
G01*
X1120000Y585000D03*
G01*
X1120000Y645000D03*
G01*
X1120000Y765000D03*
G01*
X1120000Y705000D03*
G01*
X1120000Y825000D03*
G01*
X1120000Y885000D03*
G01*
X380000Y825000D03*
G01*
X380000Y885000D03*
D13*
G01*
X1258649Y970999D03*
G01*
X1258649Y1020999D03*
G01*
X1258649Y1070999D03*
G01*
X1258649Y1120999D03*
D14*
G01*
X1418649Y1046000D03*
D13*
G01*
X1258649Y1195999D03*
G01*
X1258649Y1245999D03*
G01*
X1258649Y1295999D03*
G01*
X1258649Y1345999D03*
D14*
G01*
X1418649Y1271000D03*
D13*
G01*
X1258649Y1420999D03*
G01*
X1258649Y1470999D03*
G01*
X1258649Y1520999D03*
G01*
X1258649Y1570999D03*
D14*
G01*
X1418649Y1496000D03*
D13*
G01*
X1258649Y250999D03*
G01*
X1258649Y300999D03*
G01*
X1258649Y350999D03*
G01*
X1258649Y400999D03*
D14*
G01*
X1418649Y326000D03*
D13*
G01*
X1258649Y476500D03*
G01*
X1258649Y526500D03*
G01*
X1258649Y576500D03*
G01*
X1258649Y626500D03*
D14*
G01*
X1418649Y551499D03*
D13*
G01*
X1258649Y700999D03*
G01*
X1258649Y750999D03*
G01*
X1258649Y800999D03*
G01*
X1258649Y850999D03*
D14*
G01*
X1418649Y776000D03*
D13*
G01*
X240349Y1119000D03*
G01*
X240349Y1069000D03*
G01*
X240349Y1019000D03*
G01*
X240349Y969000D03*
D15*
G01*
X80350Y1043999D03*
D13*
G01*
X240349Y1344000D03*
G01*
X240349Y1294000D03*
G01*
X240349Y1244000D03*
G01*
X240349Y1194000D03*
D15*
G01*
X80350Y1268999D03*
D13*
G01*
X240349Y1569000D03*
G01*
X240349Y1519000D03*
G01*
X240349Y1469000D03*
G01*
X240349Y1419000D03*
D15*
G01*
X80350Y1493999D03*
D13*
G01*
X240349Y400000D03*
G01*
X240349Y350000D03*
G01*
X240349Y300000D03*
G01*
X240349Y250000D03*
D15*
G01*
X80350Y325000D03*
D13*
G01*
X240349Y625000D03*
G01*
X240349Y575000D03*
G01*
X240349Y525000D03*
G01*
X240349Y475000D03*
D15*
G01*
X80350Y550000D03*
D13*
G01*
X239850Y849499D03*
G01*
X239850Y799499D03*
G01*
X239850Y749499D03*
G01*
X239850Y699499D03*
D15*
G01*
X79849Y774500D03*
D16*
G01*
X1215040Y412500D03*
D17*
G01*
X1180959Y412500D03*
D16*
G01*
X1210040Y637000D03*
D17*
G01*
X1175959Y637000D03*
D16*
G01*
X1210040Y872000D03*
D17*
G01*
X1175959Y872000D03*
D18*
G01*
X292459Y961500D03*
D19*
G01*
X326540Y961500D03*
D18*
G01*
X290459Y1182999D03*
D19*
G01*
X324540Y1182999D03*
D18*
G01*
X290959Y1406500D03*
D19*
G01*
X325040Y1406500D03*
D18*
G01*
X303459Y231500D03*
D19*
G01*
X337540Y231500D03*
D18*
G01*
X284959Y445999D03*
D19*
G01*
X319040Y445999D03*
D18*
G01*
X289959Y684000D03*
D19*
G01*
X324040Y684000D03*
D16*
G01*
X1218040Y1142999D03*
D17*
G01*
X1183959Y1142999D03*
D16*
G01*
X1209040Y1364000D03*
D17*
G01*
X1174959Y1364000D03*
D16*
G01*
X1209040Y1577500D03*
D17*
G01*
X1174959Y1577500D03*
D20*
G01*
X640000Y74000D03*
G01*
X860000Y74000D03*
D21*
G01*
X703000Y1645000D03*
G01*
X796999Y1645000D03*
G01*
X609000Y1645000D03*
G01*
X985000Y1645000D03*
G01*
X891000Y1645000D03*
G01*
X515000Y1645000D03*
D22*
G01*
X0Y1504000D03*
D23*
G01*
X0Y1279059D03*
G01*
X0Y1054059D03*
D22*
G01*
X0Y766500D03*
G01*
X0Y541999D03*
G01*
X0Y316999D03*
G01*
X1500000Y316500D03*
G01*
X1500000Y541500D03*
G01*
X1500000Y765999D03*
D23*
G01*
X1500000Y1054490D03*
G01*
X1500000Y1279490D03*
D22*
G01*
X1500000Y1504499D03*
M02*
