M48
INCH,LZ
;FILE_FORMAT=2:4
;TYPE=PLATED
;Layer: PTH_Through
;EasyEDA v6.5.22, 2023-04-03 13:48:28
;438ef6ab04534b949e8f413d785863a0,3cec5f453c3247449836eb28e2eac2c3,10
;Gerber Generator version 0.2
;Holesize 1 = 0.0300 inch
T01C0.0300
%
G05
G90
T01
X000400Y013200
X000400Y012600
X000400Y010200
X000400Y007800
X000400Y011400
X000400Y012000
X000400Y010800
X002000Y014200
X002900Y014200
X005300Y014200
X003500Y014200
X004700Y014200
X004100Y014200
X001400Y014200
X000400Y007200
X000400Y008400
X000400Y009600
X000400Y009000
X000400Y006600
X000400Y005400
X000400Y006000
X000400Y004800
X000400Y004200
X000400Y003000
X000400Y003600
X002600Y000800
X001400Y000800
X002000Y000800
X000400Y002400
X000400Y001800
X006200Y000800
X006800Y000800
X005600Y000800
X006800Y014200
X006200Y014200
X007800Y012600
X007800Y013200
X007800Y012000
X007800Y011400
X007800Y010200
X007800Y010800
X007800Y009600
X007800Y009000
X007800Y007800
X007800Y008400
X007800Y001800
X007800Y002400
X007800Y003000
X007800Y003600
X007800Y004200
X007800Y004800
X007800Y005400
X007800Y006000
X007800Y007200
X007800Y006600
M30
