M48
INCH,LZ
;FILE_FORMAT=2:4
;TYPE=PLATED
;Layer: PTH_Through_Via
;EasyEDA v6.5.22, 2023-04-03 13:48:28
;438ef6ab04534b949e8f413d785863a0,3cec5f453c3247449836eb28e2eac2c3,10
;Gerber Generator version 0.2
;Holesize 1 = 0.0080 inch
T01C0.0080
%
G05
G90
T01
X001680Y009960
X001040Y009750
X000990Y009520
X001050Y009280
X001030Y011900
X001040Y011640
X001320Y011280
X003120Y011000
X003080Y010560
X003800Y010320
X003800Y010720
X003940Y011130
X003930Y010900
X002480Y008600
X002787Y011249
X002180Y011640
X001020Y010355
X001980Y013030
X002760Y012980
X001320Y012760
X003160Y012320
X003240Y012080
X003160Y011840
X002550Y009960
X003120Y012960
X002200Y013000
X001490Y013030
X003400Y011880
X003320Y008760
X004660Y011240
X004380Y011640
X004380Y011880
X004360Y009780
X004340Y009560
X004360Y009310
X006340Y010560
X006440Y010980
X004660Y012760
X004780Y013000
X005300Y013040
X005635Y013055
X006100Y012960
X006660Y008760
X005860Y008720
X007200Y010760
X007120Y010360
X007220Y011320
X006171Y012711
X006470Y012390
X006470Y012170
X006600Y011990
X001840Y008600
X007270Y010990
X006152Y011249
X006761Y011811
X007331Y009871
X005050Y009410
X005045Y009950
X005891Y009951
X005800Y011860
X001730Y011640
X002450Y012100
X005800Y012120
X005800Y012380
X001780Y009390
X002870Y011020
X007200Y004720
X007220Y005340
X007220Y005580
X007200Y005810
X005080Y004570
X005220Y004150
X006470Y006470
X007170Y003250
X007180Y003490
X007180Y003730
X005040Y003190
X005040Y002950
X005060Y002720
X006800Y002090
X005920Y002050
X006200Y002050
X005400Y002290
X005080Y002290
X006920Y002330
X004420Y004330
X004240Y003890
X004420Y004730
X005780Y003020
X005780Y003250
X005770Y002790
X005100Y003500
X006440Y005130
X005660Y005125
X006495Y005695
X004200Y005170
X004240Y004130
X003110Y006440
X001680Y004600
X001740Y004170
X000990Y004730
X000990Y004330
X003770Y005800
X003770Y005560
X003770Y005330
X003735Y004710
X003780Y003270
X003760Y003500
X003760Y003730
X003520Y002340
X003400Y002100
X002780Y002050
X002490Y002050
X001855Y002190
X001635Y002210
X001660Y002730
X001640Y002960
X001640Y003190
X001930Y004030
X005430Y004030
X003070Y005125
X002230Y005130
X003045Y005710
X002250Y006450
X000790Y006305
X002310Y003220
X002310Y002990
X002310Y002760
X004615Y006905
X005690Y006440
X005480Y010970
X003990Y005710
X004385Y010390
X001665Y003625
X003410Y007840
X002340Y007750
X004020Y008230
X001270Y002925
X004460Y002780
X005060Y011630
X005520Y011630
X002450Y012340
X002450Y011860
X003030Y003450
X002590Y003450
X006050Y003440
X006470Y003440
X001260Y002230
X006740Y012360
X003380Y012260
X001410Y003110
X004830Y003030
X004690Y007755
X004185Y007460
X000765Y003885
X000955Y006960
X000950Y008290
X001050Y007980
X001270Y007760
X002205Y008055
X001415Y002740
X004695Y002465
X006415Y012640
X006789Y008145
X006789Y006964
X003980Y009894
X007275Y006974
X000640Y005120
X004310Y006410
X004150Y004725
X005136Y008140
X005685Y008135
X005145Y006865
X005685Y006840
X005470Y007585
X005900Y007565
X004285Y007875
X002100Y007820
X003145Y002030
X005235Y002065
X007410Y002355
X004000Y003605
X004400Y011340
X004965Y013310
X003420Y013005
X001165Y012965
X001065Y011380
X005620Y008685
M30
