G04 Layer: TopSilkscreenLayer*
G04 EasyEDA v6.5.22, 2023-04-03 13:48:28*
G04 438ef6ab04534b949e8f413d785863a0,3cec5f453c3247449836eb28e2eac2c3,10*
G04 Gerber Generator version 0.2*
G04 Scale: 100 percent, Rotated: No, Reflected: No *
G04 Dimensions in inches *
G04 leading zeros omitted , absolute positions ,3 integer and 6 decimal *
%FSLAX36Y36*%
%MOIN*%

%ADD10C,0.0060*%
%ADD11C,0.0100*%
%ADD12C,0.0040*%
%ADD13C,0.0060*%
%ADD14C,0.0039*%
%ADD15C,0.0059*%
%ADD16C,0.0137*%

%LPD*%
G36*
X84380Y1385740D02*
G01*
X84380Y1377080D01*
X96380Y1377080D01*
X96380Y1385740D01*
G37*
G36*
X85960Y1350920D02*
G01*
X85960Y1342260D01*
X97960Y1342260D01*
X97960Y1350920D01*
G37*
G36*
X180380Y1385740D02*
G01*
X180380Y1377080D01*
X192380Y1377080D01*
X192380Y1385740D01*
G37*
G36*
X181960Y1350920D02*
G01*
X181960Y1342260D01*
X193960Y1342260D01*
X193960Y1350920D01*
G37*
G36*
X276380Y1385740D02*
G01*
X276380Y1377080D01*
X288380Y1377080D01*
X288380Y1385740D01*
G37*
G36*
X277960Y1350920D02*
G01*
X277960Y1342260D01*
X289960Y1342260D01*
X289960Y1350920D01*
G37*
G36*
X412380Y1385740D02*
G01*
X412380Y1377080D01*
X424380Y1377080D01*
X424380Y1385740D01*
G37*
G36*
X413960Y1350920D02*
G01*
X413960Y1342260D01*
X425959Y1342260D01*
X425959Y1350920D01*
G37*
G36*
X512380Y1385740D02*
G01*
X512380Y1377080D01*
X524380Y1377080D01*
X524380Y1385740D01*
G37*
G36*
X513960Y1350920D02*
G01*
X513960Y1342260D01*
X525960Y1342260D01*
X525960Y1350920D01*
G37*
G36*
X612380Y1385740D02*
G01*
X612380Y1377080D01*
X624380Y1377080D01*
X624380Y1385740D01*
G37*
G36*
X613960Y1350920D02*
G01*
X613960Y1342260D01*
X625960Y1342260D01*
X625960Y1350920D01*
G37*
G36*
X724620Y131920D02*
G01*
X724620Y123260D01*
X736620Y123260D01*
X736620Y131920D01*
G37*
G36*
X723040Y166740D02*
G01*
X723040Y158080D01*
X735040Y158080D01*
X735040Y166740D01*
G37*
G36*
X624620Y131920D02*
G01*
X624620Y123260D01*
X636620Y123260D01*
X636620Y131920D01*
G37*
G36*
X623040Y166740D02*
G01*
X623040Y158080D01*
X635040Y158080D01*
X635040Y166740D01*
G37*
G36*
X523620Y131920D02*
G01*
X523620Y123260D01*
X535620Y123260D01*
X535620Y131920D01*
G37*
G36*
X522040Y166740D02*
G01*
X522040Y158080D01*
X534040Y158080D01*
X534040Y166740D01*
G37*
G36*
X382620Y131920D02*
G01*
X382620Y123260D01*
X394620Y123260D01*
X394620Y131920D01*
G37*
G36*
X381040Y166740D02*
G01*
X381040Y158080D01*
X393040Y158080D01*
X393040Y166740D01*
G37*
G36*
X282620Y131920D02*
G01*
X282620Y123260D01*
X294620Y123260D01*
X294620Y131920D01*
G37*
G36*
X281040Y166740D02*
G01*
X281040Y158080D01*
X293040Y158080D01*
X293040Y166740D01*
G37*
G36*
X182620Y131920D02*
G01*
X182620Y123260D01*
X194620Y123260D01*
X194620Y131920D01*
G37*
G36*
X181040Y166740D02*
G01*
X181040Y158080D01*
X193039Y158080D01*
X193039Y166740D01*
G37*
D10*
X168987Y1307370D02*
G01*
X200093Y1307370D01*
X200093Y1346630D02*
G01*
X168987Y1346630D01*
X162988Y1340630D02*
G01*
X162988Y1313370D01*
X249011Y1307370D02*
G01*
X217905Y1307370D01*
X217905Y1346630D02*
G01*
X249011Y1346630D01*
X255012Y1340630D02*
G01*
X255012Y1313370D01*
X268987Y1307370D02*
G01*
X300093Y1307370D01*
X300093Y1346630D02*
G01*
X268987Y1346630D01*
X262988Y1340630D02*
G01*
X262988Y1313370D01*
X349011Y1307370D02*
G01*
X317905Y1307370D01*
X317905Y1346630D02*
G01*
X349011Y1346630D01*
X355012Y1340630D02*
G01*
X355012Y1313370D01*
X404987Y1309369D02*
G01*
X436093Y1309369D01*
X436093Y1348629D02*
G01*
X404987Y1348629D01*
X398987Y1342629D02*
G01*
X398987Y1315369D01*
X485012Y1309369D02*
G01*
X453906Y1309369D01*
X453906Y1348629D02*
G01*
X485012Y1348629D01*
X491012Y1342629D02*
G01*
X491012Y1315369D01*
D11*
X453261Y802725D02*
G01*
X484758Y802725D01*
X441062Y759034D02*
G01*
X441062Y790529D01*
X496954Y759034D02*
G01*
X496954Y790529D01*
X440832Y736361D02*
G01*
X440832Y704864D01*
X453031Y692667D02*
G01*
X484526Y692667D01*
X496723Y736361D02*
G01*
X496723Y704864D01*
D10*
X129369Y639987D02*
G01*
X129369Y671093D01*
X168629Y688906D02*
G01*
X168629Y720012D01*
X129369Y720012D02*
G01*
X129369Y688906D01*
X162629Y726012D02*
G01*
X135369Y726012D01*
X168629Y671093D02*
G01*
X168629Y639987D01*
X162629Y633987D02*
G01*
X135369Y633987D01*
D11*
X359261Y1241725D02*
G01*
X390758Y1241725D01*
X347062Y1198033D02*
G01*
X347062Y1229529D01*
X402953Y1198033D02*
G01*
X402953Y1229529D01*
X346833Y1175360D02*
G01*
X346833Y1143865D01*
X359030Y1131667D02*
G01*
X390525Y1131667D01*
X402723Y1175360D02*
G01*
X402723Y1143865D01*
X695261Y1243724D02*
G01*
X726757Y1243724D01*
X683061Y1200034D02*
G01*
X683061Y1231529D01*
X738953Y1200034D02*
G01*
X738953Y1231529D01*
X682833Y1177361D02*
G01*
X682833Y1145864D01*
X695030Y1133667D02*
G01*
X726525Y1133667D01*
X738723Y1177361D02*
G01*
X738723Y1145864D01*
D10*
X506988Y1309369D02*
G01*
X538094Y1309369D01*
X538094Y1348629D02*
G01*
X506988Y1348629D01*
X500988Y1342629D02*
G01*
X500988Y1315369D01*
X587011Y1309369D02*
G01*
X555906Y1309369D01*
X555906Y1348629D02*
G01*
X587011Y1348629D01*
X593011Y1342629D02*
G01*
X593011Y1315369D01*
X607988Y1309369D02*
G01*
X639094Y1309369D01*
X639094Y1348629D02*
G01*
X607988Y1348629D01*
X601988Y1342629D02*
G01*
X601988Y1315369D01*
X688011Y1309369D02*
G01*
X656905Y1309369D01*
X656905Y1348629D02*
G01*
X688011Y1348629D01*
X694011Y1342629D02*
G01*
X694011Y1315369D01*
X741012Y199630D02*
G01*
X709906Y199630D01*
X709906Y160369D02*
G01*
X741012Y160369D01*
X747011Y166370D02*
G01*
X747011Y193629D01*
X660988Y199630D02*
G01*
X692094Y199630D01*
X692094Y160369D02*
G01*
X660988Y160369D01*
X654987Y166370D02*
G01*
X654987Y193629D01*
D11*
X464738Y274274D02*
G01*
X433242Y274274D01*
X476938Y317966D02*
G01*
X476938Y286471D01*
X421046Y317966D02*
G01*
X421046Y286471D01*
X477166Y340639D02*
G01*
X477166Y372134D01*
X464969Y384333D02*
G01*
X433474Y384333D01*
X421277Y340639D02*
G01*
X421277Y372134D01*
D10*
X641012Y200630D02*
G01*
X609906Y200630D01*
X609906Y161370D02*
G01*
X641012Y161370D01*
X647011Y167370D02*
G01*
X647011Y194630D01*
X560988Y200630D02*
G01*
X592094Y200630D01*
X592094Y161370D02*
G01*
X560988Y161370D01*
X554987Y167370D02*
G01*
X554987Y194630D01*
X541012Y200630D02*
G01*
X509906Y200630D01*
X509906Y161370D02*
G01*
X541012Y161370D01*
X547011Y167370D02*
G01*
X547011Y194630D01*
X460988Y200630D02*
G01*
X492094Y200630D01*
X492094Y161370D02*
G01*
X460988Y161370D01*
X454987Y167370D02*
G01*
X454987Y194630D01*
X400012Y200630D02*
G01*
X368906Y200630D01*
X368906Y161370D02*
G01*
X400012Y161370D01*
X406012Y167370D02*
G01*
X406012Y194630D01*
X319987Y200630D02*
G01*
X351093Y200630D01*
X351093Y161370D02*
G01*
X319987Y161370D01*
X313987Y167370D02*
G01*
X313987Y194630D01*
X69987Y1307370D02*
G01*
X101093Y1307370D01*
X101093Y1346630D02*
G01*
X69987Y1346630D01*
X63987Y1340630D02*
G01*
X63987Y1313370D01*
X150012Y1307370D02*
G01*
X118906Y1307370D01*
X118906Y1346630D02*
G01*
X150012Y1346630D01*
X156012Y1340630D02*
G01*
X156012Y1313370D01*
D11*
X117739Y271275D02*
G01*
X86242Y271275D01*
X129938Y314965D02*
G01*
X129938Y283470D01*
X74045Y314965D02*
G01*
X74045Y283470D01*
X130167Y337638D02*
G01*
X130167Y369135D01*
X117968Y381332D02*
G01*
X86473Y381332D01*
X74277Y337638D02*
G01*
X74277Y369135D01*
D10*
X299011Y200630D02*
G01*
X267905Y200630D01*
X267905Y161370D02*
G01*
X299011Y161370D01*
X305012Y167370D02*
G01*
X305012Y194630D01*
X218987Y200630D02*
G01*
X250093Y200630D01*
X250093Y161370D02*
G01*
X218987Y161370D01*
X212988Y167370D02*
G01*
X212988Y194630D01*
X198011Y200630D02*
G01*
X166905Y200630D01*
X166905Y161370D02*
G01*
X198011Y161370D01*
X204011Y167370D02*
G01*
X204011Y194630D01*
X117988Y200630D02*
G01*
X149094Y200630D01*
X149094Y161370D02*
G01*
X117988Y161370D01*
X111988Y167370D02*
G01*
X111988Y194630D01*
D11*
X434738Y663775D02*
G01*
X403242Y663775D01*
X446938Y707465D02*
G01*
X446938Y675970D01*
X391046Y707465D02*
G01*
X391046Y675970D01*
X447166Y730138D02*
G01*
X447166Y761635D01*
X434969Y773832D02*
G01*
X403474Y773832D01*
X391277Y730138D02*
G01*
X391277Y761635D01*
D10*
X376093Y803369D02*
G01*
X347824Y803369D01*
X347824Y842629D01*
X376093Y842629D01*
X393906Y803369D02*
G01*
X422175Y803369D01*
X422175Y842629D01*
X393906Y842629D01*
X359457Y1109378D02*
G01*
X341523Y1109378D01*
X341523Y1078622D01*
X359457Y1078622D01*
X372543Y1109378D02*
G01*
X390477Y1109378D01*
X390477Y1078622D01*
X372543Y1078622D01*
X381457Y1067377D02*
G01*
X363523Y1067377D01*
X363523Y1036622D01*
X381457Y1036622D01*
X394542Y1067377D02*
G01*
X412476Y1067377D01*
X412476Y1036622D01*
X394542Y1036622D01*
X381457Y1027377D02*
G01*
X363523Y1027377D01*
X363523Y996622D01*
X381457Y996622D01*
X394542Y1027377D02*
G01*
X412476Y1027377D01*
X412476Y996622D01*
X394542Y996622D01*
X372543Y1101622D02*
G01*
X390477Y1101622D01*
X390477Y1132377D01*
X372543Y1132377D01*
X359457Y1101622D02*
G01*
X341523Y1101622D01*
X341523Y1132377D01*
X359457Y1132377D01*
X373377Y1070542D02*
G01*
X373377Y1088476D01*
X342622Y1088476D01*
X342622Y1070542D01*
X373377Y1057456D02*
G01*
X373377Y1039522D01*
X342622Y1039522D01*
X342622Y1057456D01*
X371377Y1030542D02*
G01*
X371377Y1048476D01*
X340621Y1048476D01*
X340621Y1030542D01*
X371377Y1017456D02*
G01*
X371377Y999522D01*
X340621Y999522D01*
X340621Y1017456D01*
X347377Y1030542D02*
G01*
X347377Y1048476D01*
X316622Y1048476D01*
X316622Y1030542D01*
X347377Y1017456D02*
G01*
X347377Y999522D01*
X316622Y999522D01*
X316622Y1017456D01*
X316622Y1057456D02*
G01*
X316622Y1039522D01*
X347377Y1039522D01*
X347377Y1057456D01*
X316622Y1070542D02*
G01*
X316622Y1088476D01*
X347377Y1088476D01*
X347377Y1070542D01*
X347377Y1110542D02*
G01*
X347377Y1128476D01*
X316622Y1128476D01*
X316622Y1110542D01*
X347377Y1097456D02*
G01*
X347377Y1079522D01*
X316622Y1079522D01*
X316622Y1097456D01*
X286543Y844621D02*
G01*
X304477Y844621D01*
X304477Y875378D01*
X286543Y875378D01*
X273456Y844621D02*
G01*
X255522Y844621D01*
X255522Y875378D01*
X273456Y875378D01*
X347377Y982543D02*
G01*
X347377Y1000477D01*
X316622Y1000477D01*
X316622Y982543D01*
X347377Y969457D02*
G01*
X347377Y951523D01*
X316622Y951523D01*
X316622Y969457D01*
X222543Y844621D02*
G01*
X240477Y844621D01*
X240477Y875378D01*
X222543Y875378D01*
X209457Y844621D02*
G01*
X191523Y844621D01*
X191523Y875378D01*
X209457Y875378D01*
X524956Y878377D02*
G01*
X507022Y878377D01*
X507022Y847622D01*
X524956Y847622D01*
X538042Y878377D02*
G01*
X555976Y878377D01*
X555976Y847622D01*
X538042Y847622D01*
X681377Y982541D02*
G01*
X681377Y1000475D01*
X650621Y1000475D01*
X650621Y982541D01*
X681377Y969456D02*
G01*
X681377Y951521D01*
X650621Y951521D01*
X650621Y969456D01*
X620542Y848620D02*
G01*
X638476Y848620D01*
X638476Y879376D01*
X620542Y879376D01*
X607456Y848620D02*
G01*
X589522Y848620D01*
X589522Y879376D01*
X607456Y879376D01*
X681377Y1110542D02*
G01*
X681377Y1128476D01*
X650621Y1128476D01*
X650621Y1110542D01*
X681377Y1097456D02*
G01*
X681377Y1079522D01*
X650621Y1079522D01*
X650621Y1097456D01*
X650621Y1057456D02*
G01*
X650621Y1039522D01*
X681377Y1039522D01*
X681377Y1057456D01*
X650621Y1070542D02*
G01*
X650621Y1088476D01*
X681377Y1088476D01*
X681377Y1070542D01*
X681377Y1030542D02*
G01*
X681377Y1048476D01*
X650621Y1048476D01*
X650621Y1030542D01*
X681377Y1017456D02*
G01*
X681377Y999522D01*
X650621Y999522D01*
X650621Y1017456D01*
X705378Y1030542D02*
G01*
X705378Y1048476D01*
X674621Y1048476D01*
X674621Y1030542D01*
X705378Y1017456D02*
G01*
X705378Y999522D01*
X674621Y999522D01*
X674621Y1017456D01*
X707377Y1070542D02*
G01*
X707377Y1088476D01*
X676622Y1088476D01*
X676622Y1070542D01*
X707377Y1057456D02*
G01*
X707377Y1039522D01*
X676622Y1039522D01*
X676622Y1057456D01*
X704542Y1100621D02*
G01*
X722476Y1100621D01*
X722476Y1131377D01*
X704542Y1131377D01*
X691457Y1100621D02*
G01*
X673523Y1100621D01*
X673523Y1131377D01*
X691457Y1131377D01*
X715457Y1031377D02*
G01*
X697523Y1031377D01*
X697523Y1000621D01*
X715457Y1000621D01*
X728542Y1031377D02*
G01*
X746476Y1031377D01*
X746476Y1000621D01*
X728542Y1000621D01*
X715457Y1071377D02*
G01*
X697523Y1071377D01*
X697523Y1040621D01*
X715457Y1040621D01*
X728542Y1071377D02*
G01*
X746476Y1071377D01*
X746476Y1040621D01*
X728542Y1040621D01*
X691457Y1109376D02*
G01*
X673523Y1109376D01*
X673523Y1078620D01*
X691457Y1078620D01*
X704542Y1109376D02*
G01*
X722476Y1109376D01*
X722476Y1078620D01*
X704542Y1078620D01*
X610457Y659378D02*
G01*
X592523Y659378D01*
X592523Y628622D01*
X610457Y628622D01*
X623542Y659378D02*
G01*
X641476Y659378D01*
X641476Y628622D01*
X623542Y628622D01*
X472622Y522456D02*
G01*
X472622Y504522D01*
X503377Y504522D01*
X503377Y522456D01*
X472622Y535542D02*
G01*
X472622Y553476D01*
X503377Y553476D01*
X503377Y535542D01*
X533456Y660378D02*
G01*
X515522Y660378D01*
X515522Y629621D01*
X533456Y629621D01*
X546543Y660378D02*
G01*
X564477Y660378D01*
X564477Y629621D01*
X546543Y629621D01*
X472622Y394457D02*
G01*
X472622Y376523D01*
X503377Y376523D01*
X503377Y394457D01*
X472622Y407543D02*
G01*
X472622Y425477D01*
X503377Y425477D01*
X503377Y407543D01*
X503377Y447543D02*
G01*
X503377Y465477D01*
X472622Y465477D01*
X472622Y447543D01*
X503377Y434457D02*
G01*
X503377Y416523D01*
X472622Y416523D01*
X472622Y434457D01*
X472622Y474457D02*
G01*
X472622Y456523D01*
X503377Y456523D01*
X503377Y474457D01*
X472622Y487543D02*
G01*
X472622Y505477D01*
X503377Y505477D01*
X503377Y487543D01*
X448622Y474457D02*
G01*
X448622Y456523D01*
X479378Y456523D01*
X479378Y474457D01*
X448622Y487543D02*
G01*
X448622Y505477D01*
X479378Y505477D01*
X479378Y487543D01*
X446622Y434457D02*
G01*
X446622Y416523D01*
X477377Y416523D01*
X477377Y434457D01*
X446622Y447543D02*
G01*
X446622Y465477D01*
X477377Y465477D01*
X477377Y447543D01*
X445457Y404378D02*
G01*
X427523Y404378D01*
X427523Y373622D01*
X445457Y373622D01*
X458542Y404378D02*
G01*
X476476Y404378D01*
X476476Y373622D01*
X458542Y373622D01*
X438542Y477622D02*
G01*
X456476Y477622D01*
X456476Y508377D01*
X438542Y508377D01*
X425457Y477622D02*
G01*
X407523Y477622D01*
X407523Y508377D01*
X425457Y508377D01*
X439542Y437622D02*
G01*
X457476Y437622D01*
X457476Y468377D01*
X439542Y468377D01*
X426457Y437622D02*
G01*
X408523Y437622D01*
X408523Y468377D01*
X426457Y468377D01*
X462543Y397622D02*
G01*
X480477Y397622D01*
X480477Y428377D01*
X462543Y428377D01*
X449457Y397622D02*
G01*
X431523Y397622D01*
X431523Y428377D01*
X449457Y428377D01*
X266457Y659378D02*
G01*
X248523Y659378D01*
X248523Y628622D01*
X266457Y628622D01*
X279542Y659378D02*
G01*
X297476Y659378D01*
X297476Y628622D01*
X279542Y628622D01*
X128622Y521457D02*
G01*
X128622Y503523D01*
X159378Y503523D01*
X159378Y521457D01*
X128622Y534542D02*
G01*
X128622Y552476D01*
X159378Y552476D01*
X159378Y534542D01*
X187456Y660378D02*
G01*
X169522Y660378D01*
X169522Y629621D01*
X187456Y629621D01*
X200542Y660378D02*
G01*
X218476Y660378D01*
X218476Y629621D01*
X200542Y629621D01*
X128622Y396457D02*
G01*
X128622Y378523D01*
X159378Y378523D01*
X159378Y396457D01*
X128622Y409542D02*
G01*
X128622Y427476D01*
X159378Y427476D01*
X159378Y409542D01*
X160378Y449542D02*
G01*
X160378Y467476D01*
X129621Y467476D01*
X129621Y449542D01*
X160378Y436457D02*
G01*
X160378Y418523D01*
X129621Y418523D01*
X129621Y436457D01*
X128622Y476457D02*
G01*
X128622Y458523D01*
X159378Y458523D01*
X159378Y476457D01*
X128622Y489542D02*
G01*
X128622Y507476D01*
X159378Y507476D01*
X159378Y489542D01*
X103622Y476457D02*
G01*
X103622Y458523D01*
X134378Y458523D01*
X134378Y476457D01*
X103622Y489542D02*
G01*
X103622Y507476D01*
X134378Y507476D01*
X134378Y489542D01*
X102622Y436457D02*
G01*
X102622Y418523D01*
X133377Y418523D01*
X133377Y436457D01*
X102622Y449542D02*
G01*
X102622Y467476D01*
X133377Y467476D01*
X133377Y449542D01*
X102456Y408377D02*
G01*
X84522Y408377D01*
X84522Y377622D01*
X102456Y377622D01*
X115542Y408377D02*
G01*
X133476Y408377D01*
X133476Y377622D01*
X115542Y377622D01*
X95542Y477622D02*
G01*
X113476Y477622D01*
X113476Y508377D01*
X95542Y508377D01*
X82456Y477622D02*
G01*
X64522Y477622D01*
X64522Y508377D01*
X82456Y508377D01*
X95542Y437622D02*
G01*
X113476Y437622D01*
X113476Y468377D01*
X95542Y468377D01*
X82456Y437622D02*
G01*
X64522Y437622D01*
X64522Y468377D01*
X82456Y468377D01*
X115542Y397622D02*
G01*
X133476Y397622D01*
X133476Y428377D01*
X115542Y428377D01*
X102456Y397622D02*
G01*
X84522Y397622D01*
X84522Y428377D01*
X102456Y428377D01*
D12*
X271055Y1058739D02*
G01*
X290740Y1058739D01*
X290740Y1039054D01*
X133260Y1039054D02*
G01*
X133260Y1058739D01*
X152944Y1058739D01*
X152944Y901260D02*
G01*
X133260Y901260D01*
X133260Y920945D01*
X290740Y920945D02*
G01*
X290740Y901260D01*
X271055Y901260D01*
X605055Y1058739D02*
G01*
X624740Y1058739D01*
X624740Y1039054D01*
X467260Y1039054D02*
G01*
X467260Y1058739D01*
X486945Y1058739D01*
X486945Y901259D02*
G01*
X467260Y901259D01*
X467260Y920943D01*
X624740Y920943D02*
G01*
X624740Y901259D01*
X605055Y901259D01*
X548944Y450259D02*
G01*
X529259Y450259D01*
X529259Y469944D01*
X686739Y469944D02*
G01*
X686739Y450259D01*
X667055Y450259D01*
X667055Y607739D02*
G01*
X686739Y607739D01*
X686739Y588054D01*
X529259Y588054D02*
G01*
X529259Y607739D01*
X548944Y607739D01*
X204944Y450259D02*
G01*
X185259Y450259D01*
X185259Y469944D01*
X342739Y469944D02*
G01*
X342739Y450259D01*
X323054Y450259D01*
X323054Y607739D02*
G01*
X342739Y607739D01*
X342739Y588054D01*
X185259Y588054D02*
G01*
X185259Y607739D01*
X204944Y607739D01*
D10*
X126260Y1262224D02*
G01*
X126260Y1281739D01*
X145776Y1281739D01*
X289740Y1262224D02*
G01*
X289740Y1281739D01*
X270223Y1281739D01*
X126260Y1137775D02*
G01*
X126260Y1118260D01*
X145776Y1118260D01*
X289740Y1137775D02*
G01*
X289740Y1118260D01*
X270223Y1118260D01*
X460259Y1262222D02*
G01*
X460259Y1281738D01*
X479776Y1281738D01*
X623739Y1262222D02*
G01*
X623739Y1281738D01*
X604223Y1281738D01*
X460259Y1137775D02*
G01*
X460259Y1118258D01*
X479776Y1118258D01*
X623739Y1137775D02*
G01*
X623739Y1118258D01*
X604223Y1118258D01*
X693739Y246775D02*
G01*
X693739Y227260D01*
X674223Y227260D01*
X530259Y246775D02*
G01*
X530259Y227260D01*
X549776Y227260D01*
X693739Y371224D02*
G01*
X693739Y390740D01*
X674223Y390740D01*
X530259Y371224D02*
G01*
X530259Y390740D01*
X549776Y390740D01*
X349740Y246775D02*
G01*
X349740Y227260D01*
X330223Y227260D01*
X186260Y246775D02*
G01*
X186260Y227260D01*
X205776Y227260D01*
X349740Y371224D02*
G01*
X349740Y390740D01*
X330223Y390740D01*
X186260Y371224D02*
G01*
X186260Y390740D01*
X205776Y390740D01*
D13*
X84016Y1349708D02*
G01*
X84016Y1345264D01*
X93395Y1345264D01*
X93378Y1382748D02*
G01*
X84000Y1382748D01*
X84000Y1378000D01*
D10*
X93378Y1382748D02*
G01*
X146621Y1382748D01*
X93378Y1345252D02*
G01*
X146621Y1345252D01*
D13*
X180016Y1349708D02*
G01*
X180016Y1345264D01*
X189394Y1345264D01*
X189378Y1382748D02*
G01*
X180000Y1382748D01*
X180000Y1378000D01*
D10*
X189378Y1382748D02*
G01*
X242620Y1382748D01*
X189378Y1345252D02*
G01*
X242620Y1345252D01*
D13*
X276015Y1349708D02*
G01*
X276015Y1345264D01*
X285394Y1345264D01*
X285378Y1382748D02*
G01*
X275999Y1382748D01*
X275999Y1378000D01*
D10*
X285378Y1382748D02*
G01*
X338620Y1382748D01*
X285378Y1345252D02*
G01*
X338620Y1345252D01*
D13*
X412015Y1349708D02*
G01*
X412015Y1345264D01*
X421395Y1345264D01*
X421379Y1382748D02*
G01*
X411999Y1382748D01*
X411999Y1378000D01*
D10*
X421379Y1382748D02*
G01*
X474621Y1382748D01*
X421379Y1345252D02*
G01*
X474621Y1345252D01*
D13*
X512015Y1349708D02*
G01*
X512015Y1345264D01*
X521395Y1345264D01*
X521379Y1382748D02*
G01*
X511999Y1382748D01*
X511999Y1378000D01*
D10*
X521379Y1382748D02*
G01*
X574621Y1382748D01*
X521379Y1345252D02*
G01*
X574621Y1345252D01*
D13*
X612015Y1349708D02*
G01*
X612015Y1345264D01*
X621395Y1345264D01*
X621379Y1382748D02*
G01*
X611999Y1382748D01*
X611999Y1378000D01*
D10*
X621379Y1382748D02*
G01*
X674621Y1382748D01*
X621379Y1345252D02*
G01*
X674621Y1345252D01*
D13*
X736984Y159292D02*
G01*
X736984Y163735D01*
X727604Y163735D01*
X727620Y126251D02*
G01*
X736999Y126251D01*
X736999Y130999D01*
D10*
X727620Y126251D02*
G01*
X674378Y126251D01*
X727620Y163748D02*
G01*
X674378Y163748D01*
D13*
X636984Y159292D02*
G01*
X636984Y163735D01*
X627604Y163735D01*
X627620Y126251D02*
G01*
X636999Y126251D01*
X636999Y130999D01*
D10*
X627620Y126251D02*
G01*
X574378Y126251D01*
X627620Y163748D02*
G01*
X574378Y163748D01*
D13*
X535983Y159292D02*
G01*
X535983Y163735D01*
X526604Y163735D01*
X526621Y126251D02*
G01*
X535999Y126251D01*
X535999Y130999D01*
D10*
X526621Y126251D02*
G01*
X473378Y126251D01*
X526621Y163748D02*
G01*
X473378Y163748D01*
D13*
X394983Y159292D02*
G01*
X394983Y163735D01*
X385605Y163735D01*
X385621Y126251D02*
G01*
X395000Y126251D01*
X395000Y130999D01*
D10*
X385621Y126251D02*
G01*
X332379Y126251D01*
X385621Y163748D02*
G01*
X332379Y163748D01*
D13*
X294983Y159292D02*
G01*
X294983Y163735D01*
X285605Y163735D01*
X285621Y126251D02*
G01*
X295000Y126251D01*
X295000Y130999D01*
D10*
X285621Y126251D02*
G01*
X232379Y126251D01*
X285621Y163748D02*
G01*
X232379Y163748D01*
D13*
X194983Y159292D02*
G01*
X194983Y163735D01*
X185605Y163735D01*
X185621Y126251D02*
G01*
X195000Y126251D01*
X195000Y130999D01*
D10*
X185621Y126251D02*
G01*
X132379Y126251D01*
X185621Y163748D02*
G01*
X132379Y163748D01*
D11*
X294000Y751999D02*
G01*
X334000Y751999D01*
X339000Y751999D01*
X339000Y811999D01*
X289000Y811999D01*
X289000Y751999D01*
X294000Y751999D01*
X294000Y736999D02*
G01*
X334000Y736999D01*
X384688Y666999D02*
G01*
X394688Y676999D01*
X394688Y726999D01*
X384688Y736999D01*
X384688Y666999D02*
G01*
X355412Y666999D01*
X384688Y736999D02*
G01*
X355412Y736999D01*
X294720Y736999D02*
G01*
X284720Y726999D01*
X284720Y676999D01*
X294720Y666999D01*
X294720Y666999D02*
G01*
X323996Y666999D01*
X294720Y736999D02*
G01*
X323996Y736999D01*
D10*
X393906Y803629D02*
G01*
X422175Y803629D01*
X422175Y764369D01*
X393906Y764369D01*
X376093Y803629D02*
G01*
X347824Y803629D01*
X347824Y764369D01*
X376093Y764369D01*
D11*
X176567Y836019D02*
G01*
X247433Y836019D01*
X176567Y713971D02*
G01*
X247433Y713971D01*
D10*
X653157Y847087D02*
G01*
X548733Y847087D01*
X548733Y801858D01*
X653157Y663922D02*
G01*
X548733Y663922D01*
X548733Y709151D01*
D11*
X379738Y850774D02*
G01*
X348242Y850774D01*
X391938Y894466D02*
G01*
X391938Y862970D01*
X336046Y894466D02*
G01*
X336046Y862970D01*
X392166Y917139D02*
G01*
X392166Y948634D01*
X379969Y960832D02*
G01*
X348474Y960832D01*
X336277Y917139D02*
G01*
X336277Y948634D01*
D10*
X348377Y1131451D02*
G01*
X348377Y1145956D01*
X317622Y1145956D02*
G01*
X317622Y1131451D01*
X323622Y1125450D02*
G01*
X342377Y1125450D01*
X348377Y1173548D02*
G01*
X348377Y1159043D01*
X317622Y1159043D02*
G01*
X317622Y1173548D01*
X323622Y1179549D02*
G01*
X342377Y1179549D01*
X450877Y988451D02*
G01*
X450877Y1002957D01*
X420122Y1002957D02*
G01*
X420122Y988451D01*
X426122Y982451D02*
G01*
X444877Y982451D01*
X450877Y1030549D02*
G01*
X450877Y1016042D01*
X420122Y1016042D02*
G01*
X420122Y1030549D01*
X426122Y1036549D02*
G01*
X444877Y1036549D01*
X115877Y985450D02*
G01*
X115877Y999956D01*
X85122Y999956D02*
G01*
X85122Y985450D01*
X91122Y979450D02*
G01*
X109877Y979450D01*
X115877Y1027548D02*
G01*
X115877Y1013042D01*
X85122Y1013042D02*
G01*
X85122Y1027548D01*
X91122Y1033548D02*
G01*
X109877Y1033548D01*
X392049Y995378D02*
G01*
X377543Y995378D01*
X377543Y964621D02*
G01*
X392049Y964621D01*
X398049Y970621D02*
G01*
X398049Y989378D01*
X349951Y995378D02*
G01*
X364457Y995378D01*
X364457Y964621D02*
G01*
X349951Y964621D01*
X343951Y970621D02*
G01*
X343951Y989378D01*
X681377Y1130951D02*
G01*
X681377Y1145457D01*
X650621Y1145457D02*
G01*
X650621Y1130951D01*
X656622Y1124951D02*
G01*
X675378Y1124951D01*
X681377Y1173049D02*
G01*
X681377Y1158542D01*
X650621Y1158542D02*
G01*
X650621Y1173049D01*
X656622Y1179049D02*
G01*
X675378Y1179049D01*
D11*
X709738Y834774D02*
G01*
X678242Y834774D01*
X721938Y878465D02*
G01*
X721938Y846970D01*
X666046Y878465D02*
G01*
X666046Y846970D01*
X722166Y901138D02*
G01*
X722166Y932635D01*
X709969Y944832D02*
G01*
X678474Y944832D01*
X666277Y901138D02*
G01*
X666277Y932635D01*
X452761Y671725D02*
G01*
X484257Y671725D01*
X440561Y628033D02*
G01*
X440561Y659529D01*
X496453Y628033D02*
G01*
X496453Y659529D01*
X440333Y605360D02*
G01*
X440333Y573865D01*
X452530Y561667D02*
G01*
X484025Y561667D01*
X496222Y605360D02*
G01*
X496222Y573865D01*
D10*
X725549Y994378D02*
G01*
X711042Y994378D01*
X711042Y963622D02*
G01*
X725549Y963622D01*
X731549Y969621D02*
G01*
X731549Y988377D01*
X683451Y994378D02*
G01*
X697957Y994378D01*
X697957Y963622D02*
G01*
X683451Y963622D01*
X677451Y969621D02*
G01*
X677451Y988377D01*
X703121Y523049D02*
G01*
X703121Y508542D01*
X733877Y508542D02*
G01*
X733877Y523049D01*
X727878Y529049D02*
G01*
X709122Y529049D01*
X703121Y480951D02*
G01*
X703121Y495457D01*
X733877Y495457D02*
G01*
X733877Y480951D01*
X727878Y474951D02*
G01*
X709122Y474951D01*
X475122Y374049D02*
G01*
X475122Y359542D01*
X505877Y359542D02*
G01*
X505877Y374049D01*
X499877Y380048D02*
G01*
X481122Y380048D01*
X475122Y331950D02*
G01*
X475122Y346457D01*
X505877Y346457D02*
G01*
X505877Y331950D01*
X499877Y325951D02*
G01*
X481122Y325951D01*
D11*
X93261Y658225D02*
G01*
X124758Y658225D01*
X81062Y614533D02*
G01*
X81062Y646028D01*
X136954Y614533D02*
G01*
X136954Y646028D01*
X80832Y591860D02*
G01*
X80832Y560365D01*
X93031Y548166D02*
G01*
X124526Y548166D01*
X136723Y591860D02*
G01*
X136723Y560365D01*
D10*
X429450Y507622D02*
G01*
X443957Y507622D01*
X443957Y538377D02*
G01*
X429450Y538377D01*
X423451Y532377D02*
G01*
X423451Y513622D01*
X471549Y507622D02*
G01*
X457042Y507622D01*
X457042Y538377D02*
G01*
X471549Y538377D01*
X477548Y532377D02*
G01*
X477548Y513622D01*
X358622Y522548D02*
G01*
X358622Y508042D01*
X389378Y508042D02*
G01*
X389378Y522548D01*
X383377Y528548D02*
G01*
X364621Y528548D01*
X358622Y480450D02*
G01*
X358622Y494956D01*
X389378Y494956D02*
G01*
X389378Y480450D01*
X383377Y474450D02*
G01*
X364621Y474450D01*
D11*
X711260Y779724D02*
G01*
X742757Y779724D01*
X699061Y736033D02*
G01*
X699061Y767528D01*
X754953Y736033D02*
G01*
X754953Y767528D01*
X698832Y713360D02*
G01*
X698832Y681864D01*
X711030Y669666D02*
G01*
X742525Y669666D01*
X754722Y713360D02*
G01*
X754722Y681864D01*
D10*
X82451Y508121D02*
G01*
X96957Y508121D01*
X96957Y538877D02*
G01*
X82451Y538877D01*
X76451Y532878D02*
G01*
X76451Y514122D01*
X124549Y508121D02*
G01*
X110043Y508121D01*
X110043Y538877D02*
G01*
X124549Y538877D01*
X130549Y532878D02*
G01*
X130549Y514122D01*
X127622Y374549D02*
G01*
X127622Y360043D01*
X158377Y360043D02*
G01*
X158377Y374549D01*
X152377Y380549D02*
G01*
X133622Y380549D01*
X127622Y332451D02*
G01*
X127622Y346957D01*
X158377Y346957D02*
G01*
X158377Y332451D01*
X152377Y326451D02*
G01*
X133622Y326451D01*
D11*
X79760Y802725D02*
G01*
X111257Y802725D01*
X67561Y759034D02*
G01*
X67561Y790529D01*
X123454Y759034D02*
G01*
X123454Y790529D01*
X67332Y736361D02*
G01*
X67332Y704864D01*
X79531Y692667D02*
G01*
X111026Y692667D01*
X123222Y736361D02*
G01*
X123222Y704864D01*
D10*
G75*
G01*
X168988Y1346630D02*
G03*
X162988Y1340630I0J-6000D01*
G75*
G01*
X162988Y1313370D02*
G03*
X168988Y1307370I6000J0D01*
G75*
G01*
X249012Y1346630D02*
G02*
X255012Y1340630I0J-6000D01*
G75*
G01*
X255012Y1313370D02*
G02*
X249012Y1307370I-6000J0D01*
G75*
G01*
X268988Y1346630D02*
G03*
X262988Y1340630I0J-6000D01*
G75*
G01*
X262988Y1313370D02*
G03*
X268988Y1307370I6000J0D01*
G75*
G01*
X349012Y1346630D02*
G02*
X355012Y1340630I0J-6000D01*
G75*
G01*
X355012Y1313370D02*
G02*
X349012Y1307370I-6000J0D01*
G75*
G01*
X404988Y1348630D02*
G03*
X398988Y1342630I0J-6000D01*
G75*
G01*
X398988Y1315370D02*
G03*
X404988Y1309370I6000J0D01*
G75*
G01*
X485012Y1348630D02*
G02*
X491012Y1342630I0J-6000D01*
G75*
G01*
X491012Y1315370D02*
G02*
X485012Y1309370I-6000J0D01*
D11*
G75*
G01*
X453031Y692665D02*
G02*
X440833Y704863I0J12198D01*
G75*
G01*
X496725Y704863D02*
G02*
X484526Y692665I-12198J0D01*
G75*
G01*
X441062Y790527D02*
G02*
X453261Y802725I12198J0D01*
G75*
G01*
X484756Y802725D02*
G02*
X496954Y790527I0J-12198D01*
D10*
G75*
G01*
X168630Y720012D02*
G03*
X162630Y726012I-6000J0D01*
G75*
G01*
X135370Y726012D02*
G03*
X129370Y720012I0J-6000D01*
G75*
G01*
X168630Y639988D02*
G02*
X162630Y633988I-6000J0D01*
G75*
G01*
X135370Y633988D02*
G02*
X129370Y639988I0J6000D01*
D11*
G75*
G01*
X359031Y1131665D02*
G02*
X346833Y1143863I0J12198D01*
G75*
G01*
X402725Y1143863D02*
G02*
X390526Y1131665I-12198J0D01*
G75*
G01*
X347062Y1229527D02*
G02*
X359261Y1241725I12198J0D01*
G75*
G01*
X390756Y1241725D02*
G02*
X402954Y1229527I0J-12198D01*
G75*
G01*
X695031Y1133665D02*
G02*
X682833Y1145863I0J12198D01*
G75*
G01*
X738725Y1145863D02*
G02*
X726526Y1133665I-12198J0D01*
G75*
G01*
X683062Y1231527D02*
G02*
X695261Y1243725I12198J0D01*
G75*
G01*
X726756Y1243725D02*
G02*
X738954Y1231527I0J-12198D01*
D10*
G75*
G01*
X506988Y1348630D02*
G03*
X500988Y1342630I0J-6000D01*
G75*
G01*
X500988Y1315370D02*
G03*
X506988Y1309370I6000J0D01*
G75*
G01*
X587012Y1348630D02*
G02*
X593012Y1342630I0J-6000D01*
G75*
G01*
X593012Y1315370D02*
G02*
X587012Y1309370I-6000J0D01*
G75*
G01*
X607988Y1348630D02*
G03*
X601988Y1342630I0J-6000D01*
G75*
G01*
X601988Y1315370D02*
G03*
X607988Y1309370I6000J0D01*
G75*
G01*
X688012Y1348630D02*
G02*
X694012Y1342630I0J-6000D01*
G75*
G01*
X694012Y1315370D02*
G02*
X688012Y1309370I-6000J0D01*
G75*
G01*
X741012Y160370D02*
G03*
X747012Y166370I0J6000D01*
G75*
G01*
X747012Y193630D02*
G03*
X741012Y199630I-6000J0D01*
G75*
G01*
X660988Y160370D02*
G02*
X654988Y166370I0J6000D01*
G75*
G01*
X654988Y193630D02*
G02*
X660988Y199630I6000J0D01*
D11*
G75*
G01*
X464969Y384335D02*
G02*
X477167Y372137I0J-12198D01*
G75*
G01*
X421275Y372137D02*
G02*
X433474Y384335I12198J0D01*
G75*
G01*
X476938Y286473D02*
G02*
X464739Y274275I-12198J0D01*
G75*
G01*
X433244Y274275D02*
G02*
X421046Y286473I0J12198D01*
D10*
G75*
G01*
X641012Y161370D02*
G03*
X647012Y167370I0J6000D01*
G75*
G01*
X647012Y194630D02*
G03*
X641012Y200630I-6000J0D01*
G75*
G01*
X560988Y161370D02*
G02*
X554988Y167370I0J6000D01*
G75*
G01*
X554988Y194630D02*
G02*
X560988Y200630I6000J0D01*
G75*
G01*
X541012Y161370D02*
G03*
X547012Y167370I0J6000D01*
G75*
G01*
X547012Y194630D02*
G03*
X541012Y200630I-6000J0D01*
G75*
G01*
X460988Y161370D02*
G02*
X454988Y167370I0J6000D01*
G75*
G01*
X454988Y194630D02*
G02*
X460988Y200630I6000J0D01*
G75*
G01*
X400012Y161370D02*
G03*
X406012Y167370I0J6000D01*
G75*
G01*
X406012Y194630D02*
G03*
X400012Y200630I-6000J0D01*
G75*
G01*
X319988Y161370D02*
G02*
X313988Y167370I0J6000D01*
G75*
G01*
X313988Y194630D02*
G02*
X319988Y200630I6000J0D01*
G75*
G01*
X69988Y1346630D02*
G03*
X63988Y1340630I0J-6000D01*
G75*
G01*
X63988Y1313370D02*
G03*
X69988Y1307370I6000J0D01*
G75*
G01*
X150012Y1346630D02*
G02*
X156012Y1340630I0J-6000D01*
G75*
G01*
X156012Y1313370D02*
G02*
X150012Y1307370I-6000J0D01*
D11*
G75*
G01*
X117969Y381335D02*
G02*
X130167Y369137I0J-12198D01*
G75*
G01*
X74275Y369137D02*
G02*
X86474Y381335I12198J0D01*
G75*
G01*
X129938Y283473D02*
G02*
X117739Y271275I-12198J0D01*
G75*
G01*
X86244Y271275D02*
G02*
X74046Y283473I0J12198D01*
D10*
G75*
G01*
X299012Y161370D02*
G03*
X305012Y167370I0J6000D01*
G75*
G01*
X305012Y194630D02*
G03*
X299012Y200630I-6000J0D01*
G75*
G01*
X218988Y161370D02*
G02*
X212988Y167370I0J6000D01*
G75*
G01*
X212988Y194630D02*
G02*
X218988Y200630I6000J0D01*
G75*
G01*
X198012Y161370D02*
G03*
X204012Y167370I0J6000D01*
G75*
G01*
X204012Y194630D02*
G03*
X198012Y200630I-6000J0D01*
G75*
G01*
X117988Y161370D02*
G02*
X111988Y167370I0J6000D01*
G75*
G01*
X111988Y194630D02*
G02*
X117988Y200630I6000J0D01*
D11*
G75*
G01*
X434969Y773835D02*
G02*
X447167Y761637I0J-12198D01*
G75*
G01*
X391275Y761637D02*
G02*
X403474Y773835I12198J0D01*
G75*
G01*
X446938Y675973D02*
G02*
X434739Y663775I-12198J0D01*
G75*
G01*
X403244Y663775D02*
G02*
X391046Y675973I0J12198D01*
G75*
G01*
X379969Y960835D02*
G02*
X392167Y948637I0J-12198D01*
G75*
G01*
X336275Y948637D02*
G02*
X348474Y960835I12198J0D01*
G75*
G01*
X391938Y862973D02*
G02*
X379739Y850775I-12198J0D01*
G75*
G01*
X348244Y850775D02*
G02*
X336046Y862973I0J12198D01*
D10*
G75*
G01*
X317622Y1131451D02*
G03*
X323622Y1125451I6000J0D01*
G75*
G01*
X342378Y1125451D02*
G03*
X348378Y1131451I0J6000D01*
G75*
G01*
X317622Y1173549D02*
G02*
X323622Y1179549I6000J0D01*
G75*
G01*
X342378Y1179549D02*
G02*
X348378Y1173549I0J-6000D01*
G75*
G01*
X420122Y988451D02*
G03*
X426122Y982451I6000J0D01*
G75*
G01*
X444878Y982451D02*
G03*
X450878Y988451I0J6000D01*
G75*
G01*
X420122Y1030549D02*
G02*
X426122Y1036549I6000J0D01*
G75*
G01*
X444878Y1036549D02*
G02*
X450878Y1030549I0J-6000D01*
G75*
G01*
X85122Y985451D02*
G03*
X91122Y979451I6000J0D01*
G75*
G01*
X109878Y979451D02*
G03*
X115878Y985451I0J6000D01*
G75*
G01*
X85122Y1027549D02*
G02*
X91122Y1033549I6000J0D01*
G75*
G01*
X109878Y1033549D02*
G02*
X115878Y1027549I0J-6000D01*
G75*
G01*
X392049Y964622D02*
G03*
X398049Y970622I0J6000D01*
G75*
G01*
X398049Y989378D02*
G03*
X392049Y995378I-6000J0D01*
G75*
G01*
X349951Y964622D02*
G02*
X343951Y970622I0J6000D01*
G75*
G01*
X343951Y989378D02*
G02*
X349951Y995378I6000J0D01*
G75*
G01*
X650622Y1130951D02*
G03*
X656622Y1124951I6000J0D01*
G75*
G01*
X675378Y1124951D02*
G03*
X681378Y1130951I0J6000D01*
G75*
G01*
X650622Y1173049D02*
G02*
X656622Y1179049I6000J0D01*
G75*
G01*
X675378Y1179049D02*
G02*
X681378Y1173049I0J-6000D01*
D11*
G75*
G01*
X709969Y944835D02*
G02*
X722167Y932637I0J-12198D01*
G75*
G01*
X666275Y932637D02*
G02*
X678474Y944835I12198J0D01*
G75*
G01*
X721938Y846973D02*
G02*
X709739Y834775I-12198J0D01*
G75*
G01*
X678244Y834775D02*
G02*
X666046Y846973I0J12198D01*
G75*
G01*
X452531Y561665D02*
G02*
X440333Y573863I0J12198D01*
G75*
G01*
X496225Y573863D02*
G02*
X484026Y561665I-12198J0D01*
G75*
G01*
X440562Y659527D02*
G02*
X452761Y671725I12198J0D01*
G75*
G01*
X484256Y671725D02*
G02*
X496454Y659527I0J-12198D01*
D10*
G75*
G01*
X725549Y963622D02*
G03*
X731549Y969622I0J6000D01*
G75*
G01*
X731549Y988378D02*
G03*
X725549Y994378I-6000J0D01*
G75*
G01*
X683451Y963622D02*
G02*
X677451Y969622I0J6000D01*
G75*
G01*
X677451Y988378D02*
G02*
X683451Y994378I6000J0D01*
G75*
G01*
X733878Y523049D02*
G03*
X727878Y529049I-6000J0D01*
G75*
G01*
X709122Y529049D02*
G03*
X703122Y523049I0J-6000D01*
G75*
G01*
X733878Y480951D02*
G02*
X727878Y474951I-6000J0D01*
G75*
G01*
X709122Y474951D02*
G02*
X703122Y480951I0J6000D01*
G75*
G01*
X505878Y374049D02*
G03*
X499878Y380049I-6000J0D01*
G75*
G01*
X481122Y380049D02*
G03*
X475122Y374049I0J-6000D01*
G75*
G01*
X505878Y331951D02*
G02*
X499878Y325951I-6000J0D01*
G75*
G01*
X481122Y325951D02*
G02*
X475122Y331951I0J6000D01*
D11*
G75*
G01*
X93031Y548165D02*
G02*
X80833Y560363I0J12198D01*
G75*
G01*
X136725Y560363D02*
G02*
X124526Y548165I-12198J0D01*
G75*
G01*
X81062Y646027D02*
G02*
X93261Y658225I12198J0D01*
G75*
G01*
X124756Y658225D02*
G02*
X136954Y646027I0J-12198D01*
D10*
G75*
G01*
X429451Y538378D02*
G03*
X423451Y532378I0J-6000D01*
G75*
G01*
X423451Y513622D02*
G03*
X429451Y507622I6000J0D01*
G75*
G01*
X471549Y538378D02*
G02*
X477549Y532378I0J-6000D01*
G75*
G01*
X477549Y513622D02*
G02*
X471549Y507622I-6000J0D01*
G75*
G01*
X389378Y522549D02*
G03*
X383378Y528549I-6000J0D01*
G75*
G01*
X364622Y528549D02*
G03*
X358622Y522549I0J-6000D01*
G75*
G01*
X389378Y480451D02*
G02*
X383378Y474451I-6000J0D01*
G75*
G01*
X364622Y474451D02*
G02*
X358622Y480451I0J6000D01*
D11*
G75*
G01*
X711031Y669665D02*
G02*
X698833Y681863I0J12198D01*
G75*
G01*
X754725Y681863D02*
G02*
X742526Y669665I-12198J0D01*
G75*
G01*
X699062Y767527D02*
G02*
X711261Y779725I12198J0D01*
G75*
G01*
X742756Y779725D02*
G02*
X754954Y767527I0J-12198D01*
D10*
G75*
G01*
X82451Y538878D02*
G03*
X76451Y532878I0J-6000D01*
G75*
G01*
X76451Y514122D02*
G03*
X82451Y508122I6000J0D01*
G75*
G01*
X124549Y538878D02*
G02*
X130549Y532878I0J-6000D01*
G75*
G01*
X130549Y514122D02*
G02*
X124549Y508122I-6000J0D01*
G75*
G01*
X158378Y374549D02*
G03*
X152378Y380549I-6000J0D01*
G75*
G01*
X133622Y380549D02*
G03*
X127622Y374549I0J-6000D01*
G75*
G01*
X158378Y332451D02*
G02*
X152378Y326451I-6000J0D01*
G75*
G01*
X133622Y326451D02*
G02*
X127622Y332451I0J6000D01*
D11*
G75*
G01*
X79531Y692665D02*
G02*
X67333Y704863I0J12198D01*
G75*
G01*
X123225Y704863D02*
G02*
X111026Y692665I-12198J0D01*
G75*
G01*
X67562Y790527D02*
G02*
X79761Y802725I12198J0D01*
G75*
G01*
X111256Y802725D02*
G02*
X123454Y790527I0J-12198D01*
D14*
G75*
G01
X305900Y905000D02*
G03X305900Y905000I-3900J0D01*
G75*
G01
X639900Y905000D02*
G03X639900Y905000I-3900J0D01*
G75*
G01
X521900Y604000D02*
G03X521900Y604000I-3900J0D01*
G75*
G01
X177900Y604000D02*
G03X177900Y604000I-3900J0D01*
D15*
G75*
G01
X161740Y1100000D02*
G03X161740Y1100000I-2950J0D01*
G75*
G01
X495740Y1100000D02*
G03X495740Y1100000I-2950J0D01*
G75*
G01
X664160Y409000D02*
G03X664160Y409000I-2950J0D01*
G75*
G01
X320160Y409000D02*
G03X320160Y409000I-2950J0D01*
D11*
G75*
G01
X272000Y710000D02*
G03X272000Y710000I-5000J0D01*
M02*
