G04 Layer: TopSolderMaskLayer*
G04 EasyEDA v6.5.22, 2023-04-03 13:48:28*
G04 438ef6ab04534b949e8f413d785863a0,3cec5f453c3247449836eb28e2eac2c3,10*
G04 Gerber Generator version 0.2*
G04 Scale: 100 percent, Rotated: No, Reflected: No *
G04 Dimensions in inches *
G04 leading zeros omitted , absolute positions ,3 integer and 6 decimal *
%FSLAX36Y36*%
%MOIN*%

%AMMACRO1*1,1,$1,$2,$3*1,1,$1,$4,$5*1,1,$1,0-$2,0-$3*1,1,$1,0-$4,0-$5*20,1,$1,$2,$3,$4,$5,0*20,1,$1,$4,$5,0-$2,0-$3,0*20,1,$1,0-$2,0-$3,0-$4,0-$5,0*20,1,$1,0-$4,0-$5,$2,$3,0*4,1,4,$2,$3,$4,$5,0-$2,0-$3,0-$4,0-$5,$2,$3,0*%
%ADD10C,0.0340*%
%ADD11MACRO1,0.004X0.0156X0.0106X0.0156X-0.0106*%
%ADD12MACRO1,0.004X-0.0156X0.0106X-0.0156X-0.0106*%
%ADD13MACRO1,0.004X-0.0177X-0.0157X-0.0177X0.0157*%
%ADD14MACRO1,0.004X0.0106X-0.0156X-0.0106X-0.0156*%
%ADD15MACRO1,0.004X0.0106X0.0156X-0.0106X0.0156*%
%ADD16MACRO1,0.004X-0.0156X-0.0106X-0.0156X0.0106*%
%ADD17MACRO1,0.004X0.0156X-0.0106X0.0156X0.0106*%
%ADD18MACRO1,0.004X0.0177X0.0157X0.0177X-0.0157*%
%ADD19MACRO1,0.004X-0.0111X-0.0106X-0.0111X0.0106*%
%ADD20MACRO1,0.004X0.0111X-0.0106X0.0111X0.0106*%
%ADD21MACRO1,0.004X0.006X0.0064X0.006X-0.0064*%
%ADD22MACRO1,0.004X-0.006X0.0064X-0.006X-0.0064*%
%ADD23MACRO1,0.004X-0.006X-0.0064X-0.006X0.0064*%
%ADD24MACRO1,0.004X0.006X-0.0064X0.006X0.0064*%
%ADD25MACRO1,0.004X0.0064X-0.006X-0.0064X-0.006*%
%ADD26MACRO1,0.004X0.0064X0.006X-0.0064X0.006*%
%ADD27MACRO1,0.004X-0.0064X0.006X0.0064X0.006*%
%ADD28MACRO1,0.004X-0.0064X-0.006X0.0064X-0.006*%
%ADD29MACRO1,0.004X-0.0138X-0.0039X-0.0138X0.0039*%
%ADD30MACRO1,0.004X-0.0039X-0.0138X-0.0039X0.0138*%
%ADD31MACRO1,0.004X-0.0551X-0.0551X-0.0551X0.0551*%
%ADD32MACRO1,0.004X0.0138X0.0039X0.0138X-0.0039*%
%ADD33MACRO1,0.004X0.0039X0.0138X0.0039X-0.0138*%
%ADD34MACRO1,0.004X0.0551X0.0551X0.0551X-0.0551*%
%ADD35MACRO1,0.0039X-0.0055X-0.0131X-0.0055X0.0131*%
%ADD36MACRO1,0.0039X0.0131X-0.0055X0.0131X0.0055*%
%ADD37MACRO1,0.0039X-0.0055X0.0131X-0.0055X-0.0131*%
%ADD38MACRO1,0.0039X-0.0502X0.0502X0.0502X0.0502*%
%ADD39MACRO1,0.0039X0.0055X0.0131X0.0055X-0.0131*%
%ADD40MACRO1,0.0039X-0.0131X0.0055X-0.0131X-0.0055*%
%ADD41MACRO1,0.0039X0.0055X-0.0131X0.0055X0.0131*%
%ADD42MACRO1,0.0039X0.0502X-0.0502X-0.0502X-0.0502*%
%ADD43MACRO1,0.004X-0.0183X-0.0071X-0.0183X0.0071*%
%ADD44MACRO1,0.004X0.0183X-0.0071X0.0183X0.0071*%
%ADD45MACRO1,0.004X0.0183X0.0071X0.0183X-0.0071*%
%ADD46MACRO1,0.004X-0.0183X0.0071X-0.0183X-0.0071*%
%ADD47MACRO1,0.004X-0.0138X-0.0079X-0.0138X0.0079*%
%ADD48MACRO1,0.004X-0.0138X0.0217X0.0138X0.0217*%
%ADD49MACRO1,0.004X0.0111X0.0106X0.0111X-0.0106*%
%ADD50MACRO1,0.004X-0.0111X0.0106X-0.0111X-0.0106*%
%ADD51MACRO1,0.004X-0.0197X0.0108X0.0197X0.0108*%
%ADD52MACRO1,0.004X0.031X-0.0132X0.031X0.0132*%
%ADD53MACRO1,0.004X-0.0064X0.0073X0.0064X0.0073*%
%ADD54MACRO1,0.004X-0.0064X-0.0073X0.0064X-0.0073*%
%ADD55MACRO1,0.004X-0.0073X-0.0064X-0.0073X0.0064*%
%ADD56MACRO1,0.004X0.0073X-0.0064X0.0073X0.0064*%
%ADD57MACRO1,0.004X0.0064X-0.0073X-0.0064X-0.0073*%
%ADD58MACRO1,0.004X0.0064X0.0073X-0.0064X0.0073*%
%ADD59MACRO1,0.004X0.0073X0.0064X0.0073X-0.0064*%
%ADD60MACRO1,0.004X-0.0073X0.0064X-0.0073X-0.0064*%
%ADD61C,0.0439*%
%ADD62C,0.0155*%

%LPD*%
D10*
G01*
X100000Y900000D03*
G01*
X140000Y860000D03*
G01*
X440000Y900000D03*
G01*
X480000Y860000D03*
G01*
X680000Y650000D03*
G01*
X720000Y610000D03*
G01*
X369000Y640000D03*
G01*
X409000Y600000D03*
D11*
G01*
X187541Y1327000D03*
D12*
G01*
X230459Y1327000D03*
D11*
G01*
X287541Y1327000D03*
D12*
G01*
X330459Y1327000D03*
D11*
G01*
X423541Y1329000D03*
D12*
G01*
X466458Y1329000D03*
D13*
G01*
X468999Y775559D03*
G01*
X468999Y720441D03*
D14*
G01*
X149000Y701458D03*
D15*
G01*
X149000Y658541D03*
D13*
G01*
X375000Y1214558D03*
G01*
X375000Y1159440D03*
G01*
X711000Y1216558D03*
G01*
X711000Y1161440D03*
D11*
G01*
X525540Y1329000D03*
D12*
G01*
X568458Y1329000D03*
D11*
G01*
X626541Y1329000D03*
D12*
G01*
X669459Y1329000D03*
D16*
G01*
X722458Y180000D03*
D17*
G01*
X679540Y180000D03*
D18*
G01*
X448999Y301440D03*
G01*
X448999Y356558D03*
D16*
G01*
X622458Y180999D03*
D17*
G01*
X579540Y180999D03*
D16*
G01*
X522458Y180999D03*
D17*
G01*
X479540Y180999D03*
D16*
G01*
X381458Y180999D03*
D17*
G01*
X338541Y180999D03*
D11*
G01*
X88541Y1327000D03*
D12*
G01*
X131458Y1327000D03*
D18*
G01*
X102000Y298441D03*
G01*
X102000Y353559D03*
D16*
G01*
X280459Y180999D03*
D17*
G01*
X237541Y180999D03*
D16*
G01*
X179459Y180999D03*
D17*
G01*
X136541Y180999D03*
D18*
G01*
X418999Y690941D03*
G01*
X418999Y746059D03*
D19*
G01*
X402040Y822999D03*
D20*
G01*
X367959Y822999D03*
D21*
G01*
X356489Y1094000D03*
D22*
G01*
X375509Y1094000D03*
D21*
G01*
X378490Y1051999D03*
D22*
G01*
X397509Y1051999D03*
D21*
G01*
X378490Y1011999D03*
D22*
G01*
X397509Y1011999D03*
D23*
G01*
X375509Y1116999D03*
D24*
G01*
X356489Y1116999D03*
D25*
G01*
X358000Y1073510D03*
D26*
G01*
X358000Y1054490D03*
D25*
G01*
X355999Y1033510D03*
D26*
G01*
X355999Y1014490D03*
D25*
G01*
X331999Y1033510D03*
D26*
G01*
X331999Y1014490D03*
D27*
G01*
X331999Y1054490D03*
D28*
G01*
X331999Y1073510D03*
D25*
G01*
X331999Y1113510D03*
D26*
G01*
X331999Y1094490D03*
D23*
G01*
X289510Y860000D03*
D24*
G01*
X270489Y860000D03*
D25*
G01*
X331999Y985509D03*
D26*
G01*
X331999Y966489D03*
D23*
G01*
X225509Y860000D03*
D24*
G01*
X206489Y860000D03*
D21*
G01*
X521990Y863000D03*
D22*
G01*
X541010Y863000D03*
D25*
G01*
X665999Y985508D03*
D26*
G01*
X665999Y966489D03*
D23*
G01*
X623510Y863998D03*
D24*
G01*
X604490Y863998D03*
D25*
G01*
X665999Y1113508D03*
D26*
G01*
X665999Y1094488D03*
D27*
G01*
X665999Y1054488D03*
D28*
G01*
X665999Y1073508D03*
D25*
G01*
X665999Y1033508D03*
D26*
G01*
X665999Y1014488D03*
D25*
G01*
X690000Y1033508D03*
D26*
G01*
X690000Y1014488D03*
D25*
G01*
X691999Y1073510D03*
D26*
G01*
X691999Y1054490D03*
D23*
G01*
X707509Y1115999D03*
D24*
G01*
X688490Y1115999D03*
D21*
G01*
X712490Y1015999D03*
D22*
G01*
X731509Y1015999D03*
D21*
G01*
X712490Y1055999D03*
D22*
G01*
X731509Y1055999D03*
D21*
G01*
X688490Y1093998D03*
D22*
G01*
X707509Y1093998D03*
D21*
G01*
X607490Y644000D03*
D22*
G01*
X626509Y644000D03*
D27*
G01*
X488000Y519490D03*
D28*
G01*
X488000Y538510D03*
D21*
G01*
X530489Y645000D03*
D22*
G01*
X549510Y645000D03*
D27*
G01*
X488000Y391489D03*
D28*
G01*
X488000Y410509D03*
D25*
G01*
X488000Y450509D03*
D26*
G01*
X488000Y431489D03*
D27*
G01*
X488000Y471489D03*
D28*
G01*
X488000Y490509D03*
D27*
G01*
X464000Y471489D03*
D28*
G01*
X464000Y490509D03*
D27*
G01*
X461999Y431489D03*
D28*
G01*
X461999Y450509D03*
D21*
G01*
X442490Y389000D03*
D22*
G01*
X461509Y389000D03*
D23*
G01*
X441509Y493000D03*
D24*
G01*
X422490Y493000D03*
D23*
G01*
X442509Y453000D03*
D24*
G01*
X423490Y453000D03*
D23*
G01*
X465509Y413000D03*
D24*
G01*
X446489Y413000D03*
D21*
G01*
X263490Y644000D03*
D22*
G01*
X282509Y644000D03*
D27*
G01*
X144000Y518490D03*
D28*
G01*
X144000Y537509D03*
D21*
G01*
X184490Y645000D03*
D22*
G01*
X203510Y645000D03*
D27*
G01*
X144000Y393490D03*
D28*
G01*
X144000Y412509D03*
D25*
G01*
X145000Y452509D03*
D26*
G01*
X145000Y433490D03*
D27*
G01*
X144000Y473490D03*
D28*
G01*
X144000Y492509D03*
D27*
G01*
X119000Y473490D03*
D28*
G01*
X119000Y492509D03*
D27*
G01*
X118000Y433490D03*
D28*
G01*
X118000Y452509D03*
D21*
G01*
X99490Y393000D03*
D22*
G01*
X118510Y393000D03*
D23*
G01*
X98510Y493000D03*
D24*
G01*
X79490Y493000D03*
D23*
G01*
X98510Y453000D03*
D24*
G01*
X79490Y453000D03*
D23*
G01*
X118510Y413000D03*
D24*
G01*
X99490Y413000D03*
D29*
G01*
X290740Y979960D03*
G01*
X290740Y995750D03*
G01*
X290740Y1011500D03*
G01*
X290740Y1027239D03*
G01*
X290740Y964259D03*
G01*
X290740Y948499D03*
G01*
X290740Y932760D03*
D30*
G01*
X259239Y1058740D03*
G01*
X243499Y1058740D03*
G01*
X227750Y1058740D03*
G01*
X212000Y1058709D03*
G01*
X196259Y1058740D03*
G01*
X180499Y1058740D03*
G01*
X164760Y1058740D03*
D29*
G01*
X133260Y1027239D03*
G01*
X133260Y1011500D03*
G01*
X133260Y995740D03*
G01*
X133260Y980000D03*
G01*
X133260Y964259D03*
G01*
X133260Y948499D03*
G01*
X133260Y932760D03*
D30*
G01*
X164760Y901259D03*
G01*
X180499Y901259D03*
G01*
X196259Y901259D03*
G01*
X212000Y901269D03*
G01*
X227739Y901259D03*
G01*
X243499Y901259D03*
G01*
X259239Y901259D03*
D31*
G01*
X211220Y980009D03*
D29*
G01*
X624739Y979958D03*
G01*
X624739Y995749D03*
G01*
X624739Y1011498D03*
G01*
X624739Y1027238D03*
G01*
X624739Y964258D03*
G01*
X624739Y948498D03*
G01*
X624739Y932759D03*
D30*
G01*
X593240Y1058739D03*
G01*
X577500Y1058739D03*
G01*
X561749Y1058739D03*
G01*
X545999Y1058709D03*
G01*
X530260Y1058739D03*
G01*
X514500Y1058739D03*
G01*
X498759Y1058739D03*
D29*
G01*
X467259Y1027238D03*
G01*
X467259Y1011498D03*
G01*
X467259Y995738D03*
G01*
X467259Y979999D03*
G01*
X467259Y964258D03*
G01*
X467259Y948498D03*
G01*
X467259Y932759D03*
D30*
G01*
X498759Y901259D03*
G01*
X514500Y901259D03*
G01*
X530260Y901259D03*
G01*
X545999Y901268D03*
G01*
X561739Y901259D03*
G01*
X577500Y901259D03*
G01*
X593240Y901259D03*
D31*
G01*
X545220Y980009D03*
D32*
G01*
X529259Y529040D03*
G01*
X529259Y513250D03*
G01*
X529259Y497500D03*
G01*
X529259Y481759D03*
G01*
X529259Y544739D03*
G01*
X529259Y560499D03*
G01*
X529259Y576240D03*
D33*
G01*
X560760Y450260D03*
G01*
X576500Y450260D03*
G01*
X592249Y450260D03*
G01*
X607999Y450289D03*
G01*
X623740Y450260D03*
G01*
X639500Y450260D03*
G01*
X655239Y450260D03*
D32*
G01*
X686739Y481759D03*
G01*
X686739Y497500D03*
G01*
X686739Y513260D03*
G01*
X686739Y529000D03*
G01*
X686739Y544739D03*
G01*
X686739Y560499D03*
G01*
X686739Y576240D03*
D33*
G01*
X655239Y607740D03*
G01*
X639500Y607740D03*
G01*
X623740Y607740D03*
G01*
X607999Y607729D03*
G01*
X592260Y607740D03*
G01*
X576500Y607740D03*
G01*
X560760Y607740D03*
D34*
G01*
X608779Y528990D03*
D32*
G01*
X185260Y529040D03*
G01*
X185260Y513250D03*
G01*
X185260Y497500D03*
G01*
X185260Y481759D03*
G01*
X185260Y544739D03*
G01*
X185260Y560499D03*
G01*
X185260Y576240D03*
D33*
G01*
X216759Y450260D03*
G01*
X232500Y450260D03*
G01*
X248250Y450260D03*
G01*
X264000Y450289D03*
G01*
X279739Y450260D03*
G01*
X295499Y450260D03*
G01*
X311240Y450260D03*
D32*
G01*
X342740Y481759D03*
G01*
X342740Y497500D03*
G01*
X342740Y513260D03*
G01*
X342740Y529000D03*
G01*
X342740Y544739D03*
G01*
X342740Y560499D03*
G01*
X342740Y576240D03*
D33*
G01*
X311240Y607740D03*
G01*
X295499Y607740D03*
G01*
X279739Y607740D03*
G01*
X264000Y607729D03*
G01*
X248260Y607740D03*
G01*
X232500Y607740D03*
G01*
X216759Y607740D03*
D34*
G01*
X264779Y528990D03*
D35*
G01*
X158787Y1124901D03*
G01*
X178472Y1124901D03*
G01*
X198157Y1124901D03*
G01*
X217842Y1124901D03*
G01*
X237527Y1124901D03*
G01*
X257212Y1124901D03*
D36*
G01*
X283098Y1150787D03*
G01*
X283098Y1170472D03*
G01*
X283098Y1190157D03*
G01*
X283098Y1209842D03*
G01*
X283098Y1229527D03*
G01*
X283098Y1249212D03*
D37*
G01*
X257212Y1275098D03*
G01*
X237527Y1275098D03*
G01*
X217842Y1275098D03*
G01*
X198157Y1275098D03*
G01*
X178472Y1275098D03*
G01*
X158787Y1275098D03*
D36*
G01*
X132901Y1249212D03*
G01*
X132901Y1229527D03*
G01*
X132901Y1209842D03*
G01*
X132901Y1190157D03*
G01*
X132901Y1170472D03*
G01*
X132901Y1150787D03*
D38*
G01*
X207999Y1200000D03*
D35*
G01*
X492787Y1124900D03*
G01*
X512472Y1124900D03*
G01*
X532157Y1124900D03*
G01*
X551842Y1124900D03*
G01*
X571527Y1124900D03*
G01*
X591212Y1124900D03*
D36*
G01*
X617098Y1150786D03*
G01*
X617098Y1170471D03*
G01*
X617098Y1190156D03*
G01*
X617098Y1209841D03*
G01*
X617098Y1229526D03*
G01*
X617098Y1249211D03*
D37*
G01*
X591212Y1275097D03*
G01*
X571527Y1275097D03*
G01*
X551842Y1275097D03*
G01*
X532157Y1275097D03*
G01*
X512472Y1275097D03*
G01*
X492787Y1275097D03*
D36*
G01*
X466901Y1249211D03*
G01*
X466901Y1229526D03*
G01*
X466901Y1209841D03*
G01*
X466901Y1190156D03*
G01*
X466901Y1170471D03*
G01*
X466901Y1150786D03*
D38*
G01*
X542000Y1199999D03*
D39*
G01*
X661212Y384098D03*
G01*
X641527Y384098D03*
G01*
X621842Y384098D03*
G01*
X602157Y384098D03*
G01*
X582472Y384098D03*
G01*
X562787Y384098D03*
D40*
G01*
X536901Y358212D03*
G01*
X536901Y338527D03*
G01*
X536901Y318842D03*
G01*
X536901Y299157D03*
G01*
X536901Y279472D03*
G01*
X536901Y259787D03*
D41*
G01*
X562787Y233901D03*
G01*
X582472Y233901D03*
G01*
X602157Y233901D03*
G01*
X621842Y233901D03*
G01*
X641527Y233901D03*
G01*
X661212Y233901D03*
D40*
G01*
X687098Y259787D03*
G01*
X687098Y279472D03*
G01*
X687098Y299157D03*
G01*
X687098Y318842D03*
G01*
X687098Y338527D03*
G01*
X687098Y358212D03*
D42*
G01*
X612000Y308999D03*
D39*
G01*
X317212Y384098D03*
G01*
X297527Y384098D03*
G01*
X277842Y384098D03*
G01*
X258157Y384098D03*
G01*
X238472Y384098D03*
G01*
X218787Y384098D03*
D40*
G01*
X192901Y358212D03*
G01*
X192901Y338527D03*
G01*
X192901Y318842D03*
G01*
X192901Y299157D03*
G01*
X192901Y279472D03*
G01*
X192901Y259787D03*
D41*
G01*
X218787Y233901D03*
G01*
X238472Y233901D03*
G01*
X258157Y233901D03*
G01*
X277842Y233901D03*
G01*
X297527Y233901D03*
G01*
X317212Y233901D03*
D40*
G01*
X343098Y259787D03*
G01*
X343098Y279472D03*
G01*
X343098Y299157D03*
G01*
X343098Y318842D03*
G01*
X343098Y338527D03*
G01*
X343098Y358212D03*
D42*
G01*
X267999Y308999D03*
D43*
G01*
X145000Y1364000D03*
D44*
G01*
X95000Y1364000D03*
D43*
G01*
X240999Y1364000D03*
D44*
G01*
X190999Y1364000D03*
D43*
G01*
X336999Y1364000D03*
D44*
G01*
X286999Y1364000D03*
D43*
G01*
X473000Y1364000D03*
D44*
G01*
X423000Y1364000D03*
D43*
G01*
X573000Y1364000D03*
D44*
G01*
X523000Y1364000D03*
D43*
G01*
X673000Y1364000D03*
D44*
G01*
X623000Y1364000D03*
D45*
G01*
X675999Y145000D03*
D46*
G01*
X725999Y145000D03*
D45*
G01*
X575999Y145000D03*
D46*
G01*
X625999Y145000D03*
D45*
G01*
X475000Y145000D03*
D46*
G01*
X525000Y145000D03*
D45*
G01*
X334000Y145000D03*
D46*
G01*
X384000Y145000D03*
D45*
G01*
X234000Y145000D03*
D46*
G01*
X284000Y145000D03*
D45*
G01*
X134000Y145000D03*
D46*
G01*
X184000Y145000D03*
D47*
G01*
X314000Y768221D03*
G01*
X314000Y795779D03*
D48*
G01*
X313306Y702000D03*
G01*
X364690Y702000D03*
D49*
G01*
X367959Y784000D03*
D50*
G01*
X402040Y784000D03*
D51*
G01*
X267119Y812402D03*
G01*
X267119Y775003D03*
G01*
X267119Y737602D03*
G01*
X156878Y737602D03*
G01*
X156878Y775003D03*
G01*
X156878Y812402D03*
D52*
G01*
X678898Y696449D03*
G01*
X678898Y814560D03*
G36*
X535599Y716100D02*
G01*
X533800Y716199D01*
X531900Y716300D01*
X530100Y716500D01*
X528299Y716799D01*
X526500Y717199D01*
X522899Y718200D01*
X519499Y719600D01*
X517800Y720399D01*
X516199Y721199D01*
X514600Y722199D01*
X513099Y723200D01*
X511599Y724299D01*
X510100Y725500D01*
X508800Y726700D01*
X507399Y728000D01*
X506199Y729299D01*
X505000Y730700D01*
X502800Y733699D01*
X501799Y735300D01*
X500900Y736900D01*
X500100Y738499D01*
X499299Y740199D01*
X498600Y741900D01*
X498099Y743699D01*
X497500Y745500D01*
X497100Y747199D01*
X496799Y749099D01*
X496500Y750900D01*
X496300Y752699D01*
X496300Y758299D01*
X496500Y760100D01*
X497100Y763699D01*
X497500Y765500D01*
X498099Y767300D01*
X498600Y769099D01*
X499299Y770799D01*
X500100Y772500D01*
X500900Y774099D01*
X501799Y775700D01*
X502800Y777300D01*
X503899Y778800D01*
X505000Y780199D01*
X506199Y781700D01*
X507399Y783000D01*
X508800Y784299D01*
X510100Y785500D01*
X511599Y786700D01*
X513099Y787800D01*
X514600Y788800D01*
X517800Y790599D01*
X519499Y791399D01*
X522899Y792800D01*
X526500Y793800D01*
X528299Y794200D01*
X530100Y794499D01*
X531900Y794699D01*
X533800Y794800D01*
X535599Y794899D01*
X608600Y794899D01*
X610500Y794800D01*
X612300Y794699D01*
X614099Y794499D01*
X615999Y794200D01*
X617800Y793800D01*
X619499Y793299D01*
X621300Y792800D01*
X624699Y791399D01*
X626399Y790599D01*
X629600Y788800D01*
X631199Y787800D01*
X632600Y786700D01*
X634099Y785500D01*
X635500Y784299D01*
X636799Y783000D01*
X638000Y781700D01*
X639200Y780199D01*
X640399Y778800D01*
X641399Y777300D01*
X642399Y775700D01*
X643299Y774099D01*
X644200Y772300D01*
X644600Y770500D01*
X711900Y770500D01*
X711900Y740500D01*
X644600Y740500D01*
X644200Y738699D01*
X643299Y736900D01*
X642399Y735300D01*
X641399Y733699D01*
X640399Y732199D01*
X639200Y730700D01*
X638000Y729299D01*
X636799Y728000D01*
X635500Y726700D01*
X634099Y725500D01*
X632600Y724299D01*
X631199Y723200D01*
X628000Y721199D01*
X626399Y720399D01*
X624699Y719600D01*
X621300Y718200D01*
X619499Y717699D01*
X617800Y717199D01*
X615999Y716799D01*
X614099Y716500D01*
X612300Y716300D01*
X610500Y716199D01*
X608600Y716100D01*
G37*
D18*
G01*
X363999Y877941D03*
G01*
X363999Y933059D03*
D53*
G01*
X333000Y1141703D03*
D54*
G01*
X333000Y1163296D03*
D53*
G01*
X435500Y998704D03*
D54*
G01*
X435500Y1020295D03*
D53*
G01*
X100500Y995704D03*
D54*
G01*
X100500Y1017296D03*
D55*
G01*
X381795Y980000D03*
D56*
G01*
X360203Y980000D03*
D53*
G01*
X665999Y1141204D03*
D54*
G01*
X665999Y1162795D03*
D18*
G01*
X693999Y861940D03*
G01*
X693999Y917058D03*
D13*
G01*
X468500Y644558D03*
G01*
X468500Y589440D03*
D55*
G01*
X715295Y979000D03*
D56*
G01*
X693704Y979000D03*
D57*
G01*
X718499Y512795D03*
D58*
G01*
X718499Y491204D03*
D57*
G01*
X490500Y363795D03*
D58*
G01*
X490500Y342204D03*
D13*
G01*
X108999Y631059D03*
G01*
X108999Y575941D03*
D59*
G01*
X439704Y523000D03*
D60*
G01*
X461295Y523000D03*
D57*
G01*
X374000Y512296D03*
D58*
G01*
X374000Y490704D03*
D13*
G01*
X727000Y752558D03*
G01*
X727000Y697441D03*
D59*
G01*
X92703Y523499D03*
D60*
G01*
X114295Y523499D03*
D57*
G01*
X143000Y364295D03*
D58*
G01*
X143000Y342703D03*
D13*
G01*
X95499Y775559D03*
G01*
X95499Y720441D03*
D61*
G01*
X40000Y1320000D03*
G01*
X40000Y1260000D03*
G01*
X40000Y1020000D03*
G01*
X40000Y780000D03*
G01*
X40000Y1140000D03*
G01*
X40000Y1200000D03*
G01*
X40000Y1080000D03*
G01*
X200000Y1420000D03*
G01*
X290000Y1420000D03*
G01*
X530000Y1420000D03*
G01*
X350000Y1420000D03*
G01*
X470000Y1420000D03*
G01*
X410000Y1420000D03*
G01*
X140000Y1420000D03*
G01*
X40000Y720000D03*
G01*
X40000Y840000D03*
G01*
X40000Y960000D03*
G01*
X40000Y900000D03*
G01*
X40000Y660000D03*
G01*
X40000Y540000D03*
G01*
X40000Y600000D03*
G01*
X40000Y480000D03*
G01*
X40000Y420000D03*
G01*
X40000Y300000D03*
G01*
X40000Y360000D03*
G01*
X260000Y80000D03*
G01*
X140000Y80000D03*
G01*
X200000Y80000D03*
G01*
X40000Y240000D03*
G01*
X40000Y180000D03*
G01*
X620000Y80000D03*
G01*
X680000Y80000D03*
G01*
X560000Y80000D03*
G01*
X680000Y1420000D03*
G01*
X620000Y1420000D03*
G01*
X780000Y1260000D03*
G01*
X780000Y1320000D03*
G01*
X780000Y1200000D03*
G01*
X780000Y1140000D03*
G01*
X780000Y1020000D03*
G01*
X780000Y1080000D03*
G01*
X780000Y960000D03*
G01*
X780000Y900000D03*
G01*
X780000Y780000D03*
G01*
X780000Y840000D03*
G01*
X780000Y180000D03*
G01*
X780000Y240000D03*
G01*
X780000Y300000D03*
G01*
X780000Y360000D03*
G01*
X780000Y420000D03*
G01*
X780000Y480000D03*
G01*
X780000Y540000D03*
G01*
X780000Y600000D03*
G01*
X780000Y720000D03*
G01*
X780000Y660000D03*
M02*
