G04 Layer: BottomSolderMaskLayer*
G04 EasyEDA v6.5.22, 2023-04-03 13:48:28*
G04 438ef6ab04534b949e8f413d785863a0,3cec5f453c3247449836eb28e2eac2c3,10*
G04 Gerber Generator version 0.2*
G04 Scale: 100 percent, Rotated: No, Reflected: No *
G04 Dimensions in inches *
G04 leading zeros omitted , absolute positions ,3 integer and 6 decimal *
%FSLAX36Y36*%
%MOIN*%

%ADD10C,0.0439*%

%LPD*%
D10*
G01*
X40000Y1320000D03*
G01*
X40000Y1260000D03*
G01*
X40000Y1020000D03*
G01*
X40000Y780000D03*
G01*
X40000Y1140000D03*
G01*
X40000Y1200000D03*
G01*
X40000Y1080000D03*
G01*
X200000Y1420000D03*
G01*
X290000Y1420000D03*
G01*
X530000Y1420000D03*
G01*
X350000Y1420000D03*
G01*
X470000Y1420000D03*
G01*
X410000Y1420000D03*
G01*
X140000Y1420000D03*
G01*
X40000Y720000D03*
G01*
X40000Y840000D03*
G01*
X40000Y960000D03*
G01*
X40000Y900000D03*
G01*
X40000Y660000D03*
G01*
X40000Y540000D03*
G01*
X40000Y600000D03*
G01*
X40000Y480000D03*
G01*
X40000Y420000D03*
G01*
X40000Y300000D03*
G01*
X40000Y360000D03*
G01*
X260000Y80000D03*
G01*
X140000Y80000D03*
G01*
X200000Y80000D03*
G01*
X40000Y240000D03*
G01*
X40000Y180000D03*
G01*
X620000Y80000D03*
G01*
X680000Y80000D03*
G01*
X560000Y80000D03*
G01*
X680000Y1420000D03*
G01*
X620000Y1420000D03*
G01*
X780000Y1260000D03*
G01*
X780000Y1320000D03*
G01*
X780000Y1200000D03*
G01*
X780000Y1140000D03*
G01*
X780000Y1020000D03*
G01*
X780000Y1080000D03*
G01*
X780000Y960000D03*
G01*
X780000Y900000D03*
G01*
X780000Y780000D03*
G01*
X780000Y840000D03*
G01*
X780000Y180000D03*
G01*
X780000Y240000D03*
G01*
X780000Y300000D03*
G01*
X780000Y360000D03*
G01*
X780000Y420000D03*
G01*
X780000Y480000D03*
G01*
X780000Y540000D03*
G01*
X780000Y600000D03*
G01*
X780000Y720000D03*
G01*
X780000Y660000D03*
M02*
