G04 Layer: InnerLayer2*
G04 EasyEDA v6.5.22, 2023-04-03 13:48:28*
G04 438ef6ab04534b949e8f413d785863a0,3cec5f453c3247449836eb28e2eac2c3,10*
G04 Gerber Generator version 0.2*
G04 Scale: 100 percent, Rotated: No, Reflected: No *
G04 Dimensions in inches *
G04 leading zeros omitted , absolute positions ,3 integer and 6 decimal *
%FSLAX36Y36*%
%MOIN*%

%ADD10C,0.0058*%
%ADD11C,0.0200*%
%ADD12C,0.0400*%
%ADD13C,0.0180*%

%LPD*%
G36*
X623420Y771000D02*
G01*
X621920Y771300D01*
X620620Y772140D01*
X619760Y773420D01*
X619420Y774920D01*
X618100Y849419D01*
X618380Y850980D01*
X619240Y852300D01*
X620560Y853180D01*
X622100Y853500D01*
X736500Y853500D01*
X738040Y853199D01*
X739320Y852320D01*
X740200Y851040D01*
X740500Y849500D01*
X740500Y775000D01*
X740200Y773460D01*
X739320Y772180D01*
X738040Y771300D01*
X736500Y771000D01*
G37*

%LPD*%
G36*
X84000Y760500D02*
G01*
X82460Y760800D01*
X81180Y761680D01*
X80300Y762960D01*
X80000Y764500D01*
X80000Y800020D01*
X80220Y801360D01*
X80879Y802540D01*
X82000Y803920D01*
X82940Y805639D01*
X83800Y808280D01*
X84100Y811200D01*
X84100Y836000D01*
X84400Y837540D01*
X85280Y838820D01*
X86560Y839700D01*
X88100Y840000D01*
X156000Y840000D01*
X157540Y839700D01*
X158820Y838820D01*
X159700Y837540D01*
X160000Y836000D01*
X160000Y764500D01*
X159700Y762960D01*
X158820Y761680D01*
X157540Y760800D01*
X156000Y760500D01*
G37*

%LPD*%
G36*
X655460Y664500D02*
G01*
X654000Y664780D01*
X652060Y665520D01*
X650720Y666380D01*
X649820Y667700D01*
X649500Y669260D01*
X649500Y741000D01*
X649800Y742540D01*
X650680Y743820D01*
X651960Y744700D01*
X653500Y745000D01*
X742000Y745000D01*
X743540Y744700D01*
X744820Y743820D01*
X745699Y742540D01*
X746000Y741000D01*
X746000Y703180D01*
X745699Y701660D01*
X744820Y700360D01*
X743379Y698920D01*
X741540Y696620D01*
X740300Y694180D01*
X739560Y691500D01*
X739400Y689340D01*
X739400Y678080D01*
X739100Y676560D01*
X738220Y675260D01*
X728640Y665680D01*
X727340Y664800D01*
X725819Y664500D01*
G37*

%LPD*%
G36*
X489520Y658500D02*
G01*
X487980Y658800D01*
X486680Y659680D01*
X485820Y660980D01*
X485520Y662520D01*
X485780Y765420D01*
X486200Y767180D01*
X486880Y768580D01*
X487860Y771979D01*
X488180Y775500D01*
X487860Y779020D01*
X486880Y782420D01*
X485940Y784580D01*
X485840Y785500D01*
X485980Y844520D01*
X486300Y846040D01*
X487160Y847340D01*
X488459Y848199D01*
X489980Y848500D01*
X603980Y848500D01*
X605500Y848199D01*
X606780Y847360D01*
X607660Y846080D01*
X607980Y844580D01*
X609300Y771020D01*
X609580Y768760D01*
X610340Y766580D01*
X611340Y764680D01*
X611500Y763580D01*
X611500Y662500D01*
X611200Y660960D01*
X610320Y659680D01*
X609040Y658800D01*
X607500Y658500D01*
X583000Y658500D01*
X581900Y658660D01*
X580880Y659100D01*
X577540Y661180D01*
X574240Y662460D01*
X570780Y663100D01*
X567240Y663100D01*
X563760Y662460D01*
X560460Y661180D01*
X557120Y659100D01*
X556100Y658660D01*
X555000Y658500D01*
G37*

%LPD*%
D10*
X521999Y415000D02*
G01*
X521999Y443000D01*
X508000Y456999D01*
X174000Y416999D02*
G01*
X174000Y454000D01*
X168000Y460000D01*
X633998Y1056001D02*
G01*
X644000Y1066001D01*
X644000Y1098000D01*
X311999Y1100000D02*
G01*
X311999Y1060000D01*
X308000Y1055999D01*
X441999Y433000D02*
G01*
X462500Y433000D01*
X545000Y350500D01*
X545000Y267500D01*
X575000Y237500D01*
X575000Y221999D01*
X591999Y205000D01*
X680000Y209000D02*
G01*
X663499Y225500D01*
X663499Y555000D01*
X673499Y565000D01*
X673499Y591999D01*
X752500Y670999D01*
X752500Y689499D01*
X780000Y716999D01*
X780000Y720000D01*
X691999Y233000D02*
G01*
X673499Y251500D01*
X673499Y550999D01*
X683499Y560999D01*
X683499Y588000D01*
X755500Y660000D01*
X780000Y660000D01*
X780000Y644499D02*
G01*
X780000Y660000D01*
D11*
X260000Y80000D02*
G01*
X385000Y205000D01*
X385000Y261999D01*
X334000Y313000D01*
X334000Y435000D01*
X263000Y505999D01*
X263000Y660999D01*
X95000Y829000D01*
D10*
X617100Y1271100D02*
G01*
X617100Y1214899D01*
X693000Y1139000D01*
X693000Y1000000D01*
X733000Y960000D01*
X778999Y960000D01*
X591999Y205000D02*
G01*
X610000Y223000D01*
X625000Y223000D01*
X655999Y191999D01*
X691999Y191999D01*
X710999Y210999D01*
X710999Y280000D01*
X684000Y306999D01*
X684000Y396999D01*
X766999Y480000D01*
X780000Y480000D01*
X441999Y473000D02*
G01*
X441999Y471999D01*
X568499Y345500D01*
X580500Y345500D01*
X636500Y289499D01*
X636500Y232500D01*
X666999Y201999D01*
X673000Y201999D01*
X680000Y209000D01*
X76500Y388499D02*
G01*
X126500Y338499D01*
X239000Y338499D01*
X254499Y323000D01*
X254499Y264499D01*
X294000Y225000D01*
X294000Y196999D01*
X285999Y189000D01*
X236999Y189000D01*
X205000Y220999D01*
X205000Y229499D01*
X198499Y235999D01*
X178499Y235999D01*
X163499Y220999D01*
X278000Y205000D02*
G01*
X225999Y256999D01*
X123000Y256999D01*
X73000Y306999D01*
X73000Y333000D01*
X45999Y360000D01*
X40000Y360000D01*
X185500Y219000D02*
G01*
X185500Y216498D01*
X177871Y208870D01*
X177871Y102128D01*
X200000Y80000D01*
X163499Y220999D02*
G01*
X163499Y103499D01*
X140000Y80000D01*
X249000Y205000D02*
G01*
X249000Y220000D01*
X221999Y246999D01*
X119000Y246999D01*
X65999Y300000D01*
X40000Y300000D01*
X340000Y210000D02*
G01*
X331999Y218000D01*
X331999Y240039D01*
X276999Y295039D01*
X276999Y383000D01*
X120000Y540000D01*
X40000Y540000D01*
X351999Y234000D02*
G01*
X286999Y299000D01*
X286999Y388000D01*
X75000Y600000D01*
X40000Y600000D01*
X540000Y229000D02*
G01*
X540000Y209000D01*
X590000Y159000D01*
X705999Y159000D01*
X726999Y180000D01*
X780000Y180000D01*
X508000Y229000D02*
G01*
X524000Y245000D01*
X546999Y245000D01*
X555999Y235999D01*
X555999Y206999D01*
X594000Y169000D01*
X701999Y169000D01*
X773000Y240000D01*
X780000Y240000D01*
X620000Y205000D02*
G01*
X643000Y181999D01*
X696999Y181999D01*
X720999Y205999D01*
X720999Y284000D01*
X695000Y310000D01*
X695000Y394000D01*
X720999Y420000D01*
X780000Y420000D01*
X40000Y780000D02*
G01*
X70999Y810999D01*
X70999Y857040D01*
X141999Y928040D01*
X141999Y1001039D01*
X246999Y1106039D01*
X246999Y1148040D01*
X285999Y1187040D01*
X285999Y1270000D01*
X311999Y1295999D01*
X40000Y840000D02*
G01*
X131999Y931999D01*
X131999Y1005000D01*
X236999Y1110000D01*
X236999Y1151999D01*
X275999Y1190999D01*
X275999Y1298000D01*
X40000Y1020000D02*
G01*
X90000Y1070000D01*
X115999Y1070000D01*
X199000Y1153000D01*
X199000Y1278000D01*
X220000Y1299000D01*
X220000Y1300000D01*
X40000Y1080000D02*
G01*
X111999Y1080000D01*
X189000Y1156999D01*
X189000Y1294000D01*
X198000Y1303000D01*
X131999Y1275999D02*
G01*
X133000Y1276999D01*
X133000Y1310999D01*
X139000Y1316999D01*
X139000Y1374000D01*
X140000Y1375000D01*
X140000Y1420000D01*
X149000Y1303000D02*
G01*
X149000Y1369000D01*
X200000Y1420000D01*
X610000Y1295999D02*
G01*
X600999Y1286999D01*
X600999Y1263000D01*
X606999Y1256999D01*
X606999Y1210999D01*
X683000Y1135000D01*
X683000Y995999D01*
X778999Y900000D01*
X780000Y900000D01*
X530000Y1304000D02*
G01*
X545000Y1289000D01*
X570000Y1289000D01*
X594000Y1313000D01*
X616999Y1313000D01*
X675000Y1255000D01*
X704000Y1255000D01*
X751999Y1206999D01*
X751999Y1168000D01*
X780000Y1140000D01*
X563499Y1305500D02*
G01*
X580999Y1323000D01*
X620999Y1323000D01*
X679000Y1265000D01*
X708000Y1265000D01*
X773000Y1200000D01*
X780000Y1200000D01*
X478000Y1300000D02*
G01*
X488000Y1300000D01*
X590000Y1401999D01*
X601999Y1401999D01*
X620000Y1420000D01*
X465999Y1275999D02*
G01*
X478000Y1275999D01*
X594000Y1391999D01*
X651999Y1391999D01*
X680000Y1420000D01*
D12*
G01*
X40000Y1320000D03*
G01*
X40000Y1260000D03*
G01*
X40000Y1020000D03*
G01*
X40000Y780000D03*
G01*
X40000Y1140000D03*
G01*
X40000Y1200000D03*
G01*
X40000Y1080000D03*
G01*
X200000Y1420000D03*
G01*
X290000Y1420000D03*
G01*
X530000Y1420000D03*
G01*
X350000Y1420000D03*
G01*
X470000Y1420000D03*
G01*
X410000Y1420000D03*
G01*
X140000Y1420000D03*
G01*
X40000Y720000D03*
G01*
X40000Y840000D03*
G01*
X40000Y960000D03*
G01*
X40000Y900000D03*
G01*
X40000Y660000D03*
G01*
X40000Y540000D03*
G01*
X40000Y600000D03*
G01*
X40000Y480000D03*
G01*
X40000Y420000D03*
G01*
X40000Y300000D03*
G01*
X40000Y360000D03*
G01*
X260000Y80000D03*
G01*
X140000Y80000D03*
G01*
X200000Y80000D03*
G01*
X40000Y240000D03*
G01*
X40000Y180000D03*
G01*
X620000Y80000D03*
G01*
X680000Y80000D03*
G01*
X560000Y80000D03*
G01*
X680000Y1420000D03*
G01*
X620000Y1420000D03*
G01*
X780000Y1260000D03*
G01*
X780000Y1320000D03*
G01*
X780000Y1200000D03*
G01*
X780000Y1140000D03*
G01*
X780000Y1020000D03*
G01*
X780000Y1080000D03*
G01*
X780000Y960000D03*
G01*
X780000Y900000D03*
G01*
X780000Y780000D03*
G01*
X780000Y840000D03*
G01*
X780000Y180000D03*
G01*
X780000Y240000D03*
G01*
X780000Y300000D03*
G01*
X780000Y360000D03*
G01*
X780000Y420000D03*
G01*
X780000Y480000D03*
G01*
X780000Y540000D03*
G01*
X780000Y600000D03*
G01*
X780000Y720000D03*
G01*
X780000Y660000D03*
D13*
G01*
X168000Y995999D03*
G01*
X104000Y975000D03*
G01*
X99000Y951999D03*
G01*
X105000Y928000D03*
G01*
X103000Y1190000D03*
G01*
X104000Y1164000D03*
G01*
X131999Y1128000D03*
G01*
X311999Y1100000D03*
G01*
X308000Y1055999D03*
G01*
X380000Y1031999D03*
G01*
X380000Y1071999D03*
G01*
X394000Y1113000D03*
G01*
X393000Y1090000D03*
G01*
X248000Y860000D03*
G01*
X278719Y1124899D03*
G01*
X218000Y1164000D03*
G01*
X101999Y1035500D03*
G01*
X198000Y1303000D03*
G01*
X275999Y1298000D03*
G01*
X131999Y1275999D03*
G01*
X315999Y1231999D03*
G01*
X324000Y1208000D03*
G01*
X315999Y1184000D03*
G01*
X255000Y995999D03*
G01*
X311999Y1295999D03*
G01*
X220000Y1300000D03*
G01*
X148969Y1303029D03*
G01*
X340000Y1188000D03*
G01*
X331999Y875999D03*
G01*
X465999Y1124000D03*
G01*
X438000Y1164000D03*
G01*
X438000Y1188000D03*
G01*
X435999Y978000D03*
G01*
X434000Y955999D03*
G01*
X435999Y930999D03*
G01*
X634000Y1055999D03*
G01*
X644000Y1098000D03*
G01*
X465999Y1275999D03*
G01*
X478000Y1300000D03*
G01*
X530000Y1304000D03*
G01*
X563460Y1305459D03*
G01*
X610000Y1295999D03*
G01*
X665999Y875999D03*
G01*
X585999Y871999D03*
G01*
X720000Y1075999D03*
G01*
X711999Y1035999D03*
G01*
X721999Y1131999D03*
G01*
X617100Y1271100D03*
G01*
X646999Y1239000D03*
G01*
X646999Y1216999D03*
G01*
X660000Y1199000D03*
G01*
X184000Y860000D03*
G01*
X726999Y1099000D03*
G01*
X615199Y1124899D03*
G01*
X676100Y1181100D03*
G01*
X733099Y987100D03*
G01*
X505000Y940999D03*
G01*
X504499Y995000D03*
G01*
X589099Y995100D03*
G01*
X580000Y1185999D03*
G01*
X173000Y1164000D03*
G01*
X245000Y1210000D03*
G01*
X580000Y1211999D03*
G01*
X580000Y1238000D03*
G01*
X178000Y939000D03*
G01*
X286999Y1101999D03*
G01*
X720000Y471999D03*
G01*
X721999Y534000D03*
G01*
X721999Y558000D03*
G01*
X720000Y580999D03*
G01*
X508000Y456999D03*
G01*
X521999Y415000D03*
G01*
X646999Y646999D03*
G01*
X716999Y325000D03*
G01*
X718000Y349000D03*
G01*
X718000Y373000D03*
G01*
X504000Y319000D03*
G01*
X504000Y295000D03*
G01*
X505999Y271999D03*
G01*
X680000Y209000D03*
G01*
X591999Y205000D03*
G01*
X620000Y205000D03*
G01*
X540000Y229000D03*
G01*
X508000Y229000D03*
G01*
X691999Y233000D03*
G01*
X441999Y433000D03*
G01*
X424000Y389000D03*
G01*
X441999Y473000D03*
G01*
X578000Y301999D03*
G01*
X578000Y325000D03*
G01*
X576999Y279000D03*
G01*
X510000Y350000D03*
G01*
X644000Y513000D03*
G01*
X565999Y512500D03*
G01*
X649499Y569499D03*
G01*
X420000Y516999D03*
G01*
X424000Y413000D03*
G01*
X310999Y644000D03*
G01*
X168000Y460000D03*
G01*
X174000Y416999D03*
G01*
X99000Y473000D03*
G01*
X99000Y433000D03*
G01*
X376999Y580000D03*
G01*
X376999Y555999D03*
G01*
X376999Y533000D03*
G01*
X373499Y470999D03*
G01*
X378000Y326999D03*
G01*
X375999Y350000D03*
G01*
X375999Y373000D03*
G01*
X351999Y234000D03*
G01*
X340000Y210000D03*
G01*
X278000Y205000D03*
G01*
X249000Y205000D03*
G01*
X185500Y219000D03*
G01*
X163499Y220999D03*
G01*
X165999Y273000D03*
G01*
X164000Y295999D03*
G01*
X164000Y319000D03*
G01*
X193000Y403000D03*
G01*
X543000Y403000D03*
G01*
X306999Y512500D03*
G01*
X223000Y513000D03*
G01*
X304499Y570999D03*
G01*
X225000Y645000D03*
G01*
X79000Y630500D03*
G01*
X230999Y321999D03*
G01*
X230999Y299000D03*
G01*
X230999Y275999D03*
G01*
X461500Y690500D03*
G01*
X569000Y644000D03*
G01*
X548000Y1096999D03*
G01*
X399000Y570999D03*
G01*
X438499Y1039000D03*
G01*
X166500Y362500D03*
G01*
X340999Y784000D03*
G01*
X234000Y775000D03*
G01*
X402040Y823000D03*
G01*
X126999Y292500D03*
G01*
X445999Y278000D03*
G01*
X505999Y1163000D03*
G01*
X551999Y1163000D03*
G01*
X245000Y1234000D03*
G01*
X245000Y1185999D03*
G01*
X303000Y345000D03*
G01*
X259000Y345000D03*
G01*
X605000Y344000D03*
G01*
X646999Y344000D03*
G01*
X125999Y223000D03*
G01*
X674000Y1235999D03*
G01*
X338000Y1225999D03*
G01*
X140999Y310999D03*
G01*
X483000Y303000D03*
G01*
X469000Y775500D03*
G01*
X418499Y745999D03*
G01*
X76500Y388499D03*
G01*
X95500Y695999D03*
G01*
X95000Y829000D03*
G01*
X105000Y798000D03*
G01*
X126999Y775999D03*
G01*
X220500Y805500D03*
G01*
X141500Y274000D03*
G01*
X469499Y246500D03*
G01*
X641500Y1264000D03*
G01*
X678899Y814549D03*
G01*
X678899Y696439D03*
G01*
X398049Y989380D03*
G01*
X727500Y697440D03*
G01*
X64000Y511999D03*
G01*
X430999Y640999D03*
G01*
X415000Y472500D03*
G01*
X513600Y814000D03*
G01*
X568499Y813499D03*
G01*
X514499Y686500D03*
G01*
X568499Y684000D03*
G01*
X546999Y758499D03*
G01*
X590000Y756500D03*
G01*
X428499Y787500D03*
G01*
X210000Y781999D03*
G01*
X314499Y203000D03*
G01*
X523499Y206500D03*
G01*
X740999Y235500D03*
G01*
X400000Y360500D03*
G01*
X440000Y1134000D03*
G01*
X496500Y1330999D03*
G01*
X341999Y1300500D03*
G01*
X116500Y1296500D03*
G01*
X106500Y1138000D03*
G01*
X561999Y868499D03*
M02*
